<?xml version="1.0" encoding="UTF-8"?> <!-- Generator: Adobe Illustrator 21.1.0, SVG Export Plug-In . SVG Version: 6.00 Build 0) --> <svg xmlns="http://www.w3.org/2000/svg" xmlns:xlink="http://www.w3.org/1999/xlink" id="Layer_1" x="0px" y="0px" viewBox="0 0 257.5 247.4" style="enable-background:new 0 0 257.5 247.4;" xml:space="preserve"> <style type="text/css"> .st0{opacity:0.22;fill:url(#SVGID_1_);enable-background:new ;} .st1{fill:url(#SVGID_2_);} .st2{fill:url(#SVGID_3_);} .st3{fill:url(#SVGID_4_);} .st4{fill:#2C2C3D;} .st5{fill:url(#SVGID_5_);} .st6{fill:url(#SVGID_6_);} .st7{fill:url(#SVGID_7_);} .st8{fill:url(#SVGID_8_);} .st9{fill:url(#SVGID_9_);} .st10{fill:url(#SVGID_10_);} .st11{opacity:0.7;fill:url(#SVGID_11_);enable-background:new ;} .st12{opacity:0.65;fill:url(#SVGID_12_);enable-background:new ;} .st13{fill:#EF8E1D;} .st14{fill:url(#SVGID_13_);} .st15{fill:url(#SVGID_14_);} .st16{fill:url(#SVGID_15_);} .st17{fill:url(#SVGID_16_);} .st18{fill:url(#SVGID_17_);} .st19{fill:url(#SVGID_18_);} .st20{fill:#FFFFFF;} .st21{fill:url(#SVGID_19_);} .st22{fill:url(#SVGID_20_);} .st23{fill:url(#SVGID_21_);} .st24{fill:#2121E8;} .st25{fill:none;stroke:#EF8E1D;stroke-width:0.25;stroke-miterlimit:10;} .st26{fill:url(#SVGID_22_);} .st27{fill:#FFA44A;} .st28{fill:none;stroke:#FFFFFF;stroke-width:0.25;stroke-miterlimit:10;} .st29{fill:#C65446;} .st30{fill:url(#SVGID_23_);} .st31{fill:#9E9E9E;} .st32{fill:#80A9FF;} .st33{fill:#2323C4;} .st34{fill:#FFE519;} .st35{fill:url(#SVGID_24_);} .st36{fill:#1C1C75;} .st37{fill:url(#SVGID_25_);} .st38{fill:url(#SVGID_26_);} .st39{fill:url(#SVGID_27_);} .st40{fill:#3B3B52;} .st41{fill:#FF9C9C;} .st42{fill:#DB2F19;} .st43{fill:url(#SVGID_28_);} .st44{fill:url(#SVGID_29_);} .st45{fill:url(#SVGID_30_);} .st46{fill:url(#SVGID_31_);} .st47{fill:url(#SVGID_32_);} .st48{fill:url(#SVGID_33_);} .st49{fill:url(#SVGID_34_);} .st50{fill:url(#SVGID_35_);} .st51{fill:url(#SVGID_36_);} .st52{fill:url(#SVGID_37_);} .st53{fill:url(#SVGID_38_);} .st54{fill:url(#SVGID_39_);} .st55{fill:#FFCB8B;} </style> <title>illustration2</title> <g> <g id="OBJECTS"> <linearGradient id="SVGID_1_" gradientUnits="userSpaceOnUse" x1="22.155" y1="691.9241" x2="269.1682" y2="691.9241" gradientTransform="matrix(1 0 0 1 -22.15 -568.19)"> <stop offset="0" style="stop-color:#FFCBB4"></stop> <stop offset="0.3304" style="stop-color:#FFCBAB"></stop> <stop offset="0.8782" style="stop-color:#FFCB91"></stop> <stop offset="0.9944" style="stop-color:#FFCB8B"></stop> </linearGradient> <path class="st0" d="M18.9,209.2c23.5,16.5,85.3,48.8,135.5,34.8s77.6-33.2,87.3-82s8.2-111.4-22.1-132.5 C188.5,7.8,153-5.8,135.2,2.5s-27.5,51.4-34.9,82.2C85.7,145.7-48.7,161.8,18.9,209.2z"></path> <linearGradient id="SVGID_2_" gradientUnits="userSpaceOnUse" x1="135.0348" y1="754.8525" x2="125.1248" y2="774.0325" gradientTransform="matrix(1 0 0 1 0 -550)"> <stop offset="0" style="stop-color:#EF8E1D"></stop> <stop offset="1" style="stop-color:#A7A3FF;stop-opacity:0"></stop> </linearGradient> <polygon class="st1" points="141.3,239.5 112.6,232.8 112.6,201.5 141.3,201.5 "></polygon> <linearGradient id="SVGID_3_" gradientUnits="userSpaceOnUse" x1="135.132" y1="765.44" x2="163.43" y2="765.44" gradientTransform="matrix(1 0 0 1 -22.15 -568.19)"> <stop offset="0" style="stop-color:#FFCB8B"></stop> <stop offset="1" style="stop-color:#FDA347"></stop> </linearGradient> <path class="st2" d="M141.3,215.3l-6.6,4.1l-15.5-16.6l-6.2-22.4c-0.3-1,0.1-2,1-2.5l4.1-2.5c0.7-0.4,1.6-0.4,2.3,0l19,10.8 c1.2,0.7,1.9,1.9,1.9,3.2L141.3,215.3z"></path> <linearGradient id="SVGID_4_" gradientUnits="userSpaceOnUse" x1="153.5819" y1="781.2214" x2="132.4219" y2="744.8814" gradientTransform="matrix(1 0 0 1 -22.15 -568.19)"> <stop offset="0" style="stop-color:#F83600"></stop> <stop offset="1" style="stop-color:#FE8C00"></stop> </linearGradient> <path class="st3" d="M134.7,219.4l-22.1-12.5v-26.2c0-0.6,0.5-1.1,1.1-1.1c0.2,0,0.4,0,0.5,0.1l18.6,10.5c1.2,0.7,1.9,1.9,1.9,3.2 V219.4z"></path> <path class="st4" d="M126.3,198.2c-0.1-2-1.1-3.9-2.8-5.1c-1.5-0.9-2.8,0-2.8,2c0.1,1.5,0.6,2.9,1.5,4l-0.9,4.5l4.2,2.4l-0.9-5.5 C125.7,200.4,126.3,199.6,126.3,198.2z"></path> <linearGradient id="SVGID_5_" gradientUnits="userSpaceOnUse" x1="119.95" y1="74.4085" x2="134.27" y2="74.4085" gradientTransform="matrix(1 0 0 -1 0 250)"> <stop offset="0" style="stop-color:#FF905A"></stop> <stop offset="1" style="stop-color:#F47621"></stop> </linearGradient> <path class="st5" d="M132.9,187.2c-0.8,0-1.4-0.6-1.4-1.4v-9.6c0-3.4-2.3-7.5-5-8.9c-0.7-0.5-1.7-0.6-2.5-0.2 c-0.8,0.4-1.2,1.6-1.2,3v9.6c0,0.8-0.6,1.4-1.4,1.4s-1.4-0.6-1.4-1.4l0,0v-9.6c0-2.5,0.9-4.5,2.6-5.5c1.7-0.9,3.7-0.8,5.3,0.2 c3.6,1.9,6.5,7,6.5,11.4v9.6C134.2,186.6,133.6,187.2,132.9,187.2z"></path> <linearGradient id="SVGID_6_" gradientUnits="userSpaceOnUse" x1="257.422" y1="854.0058" x2="257.422" y2="886.5358" gradientTransform="matrix(0.9429 -0.3331 0.3331 0.9429 -512.4996 -617.4969)"> <stop offset="0" style="stop-color:#FFCB8B"></stop> <stop offset="1" style="stop-color:#FDA347"></stop> </linearGradient> <path class="st6" d="M27.1,107.8c-3.6,5-4.9,11.3-3.8,17.4l-1.9-5.4c-0.7-2.1-0.9-4.3-0.5-6.4c0.6-2.3,0.9-4.6,1.1-7 c-0.1-4.7-5.9-9.7-6.5-13c0,0-3.8,8.4-1.8,14.9c1.5,5,5,9.9,6.5,11.9c0.3,0.4,0.5,0.7,0.6,1.2l2,5.8c-2.9-4.7-7.6-8.2-12.9-9.6 c0.5,2,1.2,3.9,2,5.8c2.6,5.9,9.2,5.6,12.3,7.8l4.9,13.8l1-0.3L25.3,131c-0.8-2.3-0.5-4.8,0.8-6.8c1.8-2.8,4.2-6.1,3-10.5 C28.6,111.6,27.9,109.7,27.1,107.8z"></path> <linearGradient id="SVGID_7_" gradientUnits="userSpaceOnUse" x1="260.4942" y1="850.1358" x2="260.4942" y2="866.5558" gradientTransform="matrix(0.9429 -0.3331 0.3331 0.9429 -512.4996 -617.4969)"> <stop offset="0" style="stop-color:#F47621"></stop> <stop offset="0.1" style="stop-color:#F47627;stop-opacity:0.9"></stop> <stop offset="0.22" style="stop-color:#F47621;stop-opacity:0.8"></stop> <stop offset="0.36" style="stop-color:#F47621;stop-opacity:0.81"></stop> <stop offset="0.51" style="stop-color:#F47621;stop-opacity:0.66"></stop> <stop offset="0.67" style="stop-color:#F47621;stop-opacity:0.48"></stop> <stop offset="0.84" style="stop-color:#F47621;stop-opacity:0.25"></stop> <stop offset="1" style="stop-color:#F47621;stop-opacity:0"></stop> </linearGradient> <path class="st7" d="M21.4,119.8c-0.7-2.1-0.9-4.3-0.5-6.4c0.6-2.3,0.9-4.6,1.1-7c-0.1-4.7-5.9-9.7-6.5-13 C14.8,100.2,17.9,110.2,21.4,119.8z"></path> <linearGradient id="SVGID_8_" gradientUnits="userSpaceOnUse" x1="70.7354" y1="653.6902" x2="81.5554" y2="711.4203" gradientTransform="matrix(1 0 0 1 -22.15 -568.19)"> <stop offset="0" style="stop-color:#FF905A"></stop> <stop offset="1" style="stop-color:#F47621"></stop> </linearGradient> <path class="st8" d="M17.9,162.8c0,0-2.3-24.9,2.2-27.4s6.9,6.5,10.8,4.9s-1.9-27.7,6.7-29.5c6.7-1.4,12.1,15,12.1,15 S52.4,85.4,59,86s9.3,26.1,9.3,26.1s5.7-49.3,16-50.4s11.1,52.9,11.1,52.9S39.5,153.2,17.9,162.8z"></path> <linearGradient id="SVGID_9_" gradientUnits="userSpaceOnUse" x1="129.7664" y1="681.7066" x2="113.3264" y2="710.8566" gradientTransform="matrix(1 0 0 1 0 -550)"> <stop offset="0" style="stop-color:#FF9255"></stop> <stop offset="9.109963e-02" style="stop-color:#FF9F6A"></stop> <stop offset="0.2571" style="stop-color:#FFB38B"></stop> <stop offset="0.4285" style="stop-color:#FFC2A4"></stop> <stop offset="0.6053" style="stop-color:#FFCDB7"></stop> <stop offset="0.7911" style="stop-color:#FFD4C1"></stop> <stop offset="1" style="stop-color:#FFD6C5"></stop> </linearGradient> <polygon class="st9" points="145.9,185.9 86.4,151.6 86.4,125.8 145.9,160.2 "></polygon> <linearGradient id="SVGID_10_" gradientUnits="userSpaceOnUse" x1="-850.6502" y1="570.9401" x2="-790.9802" y2="678.8301" gradientTransform="matrix(-1 0 0 1 -626.74 -568.19)"> <stop offset="0" style="stop-color:#FF9255"></stop> <stop offset="9.109963e-02" style="stop-color:#FF9F6A"></stop> <stop offset="0.2571" style="stop-color:#FFB38B"></stop> <stop offset="0.4285" style="stop-color:#FFC2A4"></stop> <stop offset="0.6053" style="stop-color:#FFCDB7"></stop> <stop offset="0.7911" style="stop-color:#FFD4C1"></stop> <stop offset="1" style="stop-color:#FFD6C5"></stop> </linearGradient> <path class="st10" d="M177.9,43c20.8,12,37.6,41.1,37.5,64.9s-17,33.5-37.7,21.5s-37.6-41.1-37.5-65S157.1,31,177.9,43"></path> <linearGradient id="SVGID_11_" gradientUnits="userSpaceOnUse" x1="68.7288" y1="782.9684" x2="129.7288" y2="737.2184" gradientTransform="matrix(1 0 0 1 -22.15 -568.19)"> <stop offset="4.407051e-04" style="stop-color:#E65300"></stop> <stop offset="1.790391e-03" style="stop-color:#E65401"></stop> <stop offset="6.518462e-02" style="stop-color:#EB732F"></stop> <stop offset="0.1324" style="stop-color:#F08F58"></stop> <stop offset="0.2058" style="stop-color:#F4A77C"></stop> <stop offset="0.2847" style="stop-color:#F7BC9B"></stop> <stop offset="0.3708" style="stop-color:#FACDB3"></stop> <stop offset="0.467" style="stop-color:#FCDAC6"></stop> <stop offset="0.579" style="stop-color:#FEE3D4"></stop> <stop offset="0.7211" style="stop-color:#FFE8DC"></stop> <stop offset="0.9944" style="stop-color:#FFEADE"></stop> </linearGradient> <path class="st11" d="M64.8,183.1c-11.2,6.5-14.2,15.3-6.8,19.6s22.7,2.6,33.9-3.9s14.2-15.3,6.8-19.6S76,176.7,64.8,183.1z"></path> <linearGradient id="SVGID_12_" gradientUnits="userSpaceOnUse" x1="-765.3195" y1="604.0002" x2="-783.1995" y2="569.8602" gradientTransform="matrix(-1 0 0 1 -648.46 -568.19)"> <stop offset="0" style="stop-color:#FF9255"></stop> <stop offset="9.109963e-02" style="stop-color:#FF9F6A"></stop> <stop offset="0.2571" style="stop-color:#FFB38B"></stop> <stop offset="0.4285" style="stop-color:#FFC2A4"></stop> <stop offset="0.6053" style="stop-color:#FFCDB7"></stop> <stop offset="0.7911" style="stop-color:#FFD4C1"></stop> <stop offset="1" style="stop-color:#FFD6C5"></stop> </linearGradient> <path class="st12" d="M116.6,7.4c4.5,2.6,8.3,8.2,9.4,13.6c1.2-0.1,2.3,0.2,3.3,0.8c3.5,2.3,5.7,6,6.1,10.1l2.6,1.5 c3,1.9,4.8,5.2,5,8.7c0,3.2-2.3,4.5-5.1,2.9l-35.1-20.3c-3-1.9-4.8-5.2-5-8.7c0-3.2,2.3-4.5,5.1-2.9l0.2,0.1c0-0.2,0-0.5,0-0.7 c0-2.7,1.9-3.9,4.2-2.8C108.6,6,112.3,4.9,116.6,7.4"></path> <path class="st13" d="M74.3,39.5l-4.6-2.7l-4.6,2.6c-0.7,0.4-1.2,0.2-1.4-0.3c-0.2-0.6-0.4-1.1-0.7-1.6c-0.3-0.7-0.2-1.5,0.3-2.2 l1.3-2.2l1.4,0.4l3.1-2.8l-4.6-2.6l0,0c-0.8-0.5-1.7-0.8-2.6-1.1l-3.2,5.6c-0.2,0.5-0.6,0.9-1.1,1.2C57.3,33.9,57,34,56.8,34 c-0.4,0-0.9,0-1.3,0.1l3.1-3.6L54,27.9c-1.1,0.4-2.2,0.9-3.3,1.5c-1.1,0.7-2.2,1.4-3.3,2.2v5.2c0,0.8-0.4,1.6-1,2.2 c-0.6,0.6-1.2,1.2-1.8,1.9c-0.2,0.2-0.4,0.4-0.7,0.6c-0.3,0.2-0.7,0.3-1.1,0.1l-3.2-1.8c-1.8,2.5-3.4,5.2-4.6,8l3.2,1.8 c0.5,0.3,0.6,1,0.3,1.8s-0.5,1.7-0.7,2.5s-0.7,1.5-1.4,2l-4.6,2.7c-0.2,1.3-0.3,2.6-0.3,3.9c0,1.2,0.1,2.4,0.3,3.6l4.6,2.6l2-1.6 c-0.1,0.2-0.1,0.3-0.2,0.4L35,73.1c0.7,0.7,1.4,1.3,2.3,1.7l0,0l4.5,2.6l2.5-4.9l-2.1-1.1l0.7-1.2c0.3-0.5,0.6-0.9,1.1-1.1 c0.2-0.1,0.4-0.2,0.7-0.2c0.6,0,1.2-0.1,1.8-0.2s1,0.3,1,1.1V75l4.7,2.7l3.2-4.5l-1.3-3.5v-3.6c0-0.8,0.4-1.6,1-2.2 c1-0.9,1.9-1.9,2.7-3l4,2.3c1.8-2.5,3.3-5.2,4.6-8l-3.2-1.8c-0.5-0.3-0.6-1-0.3-1.8s0.5-1.6,0.7-2.5c0.2-0.8,0.7-1.5,1.4-2 l4.6-2.6c0-0.1,0-0.1,0-0.2H71L74.3,39.5z M42.3,62.6L42.3,62.6L42.3,62.6z M50.8,59.7c-3.9,2.3-7.1,0.4-7.1-4.1 c0.3-5,2.9-9.6,7.1-12.3c3.9-2.3,7.1-0.4,7.1,4.1C57.6,52.4,55,57,50.8,59.7L50.8,59.7z"></path> <linearGradient id="SVGID_13_" gradientUnits="userSpaceOnUse" x1="58.32" y1="622.44" x2="96.72" y2="622.44" gradientTransform="matrix(1 0 0 1 -22.15 -568.19)"> <stop offset="0" style="stop-color:#F7F144"></stop> <stop offset="0.71" style="stop-color:#EFCA39"></stop> <stop offset="0.99" style="stop-color:#EBB934"></stop> </linearGradient> <path class="st14" d="M68.3,51.7c0.2-0.8,0.7-1.5,1.4-2l4.6-2.6c0.2-1.3,0.3-2.6,0.3-3.9c0-1.2-0.1-2.4-0.3-3.6l-4.6,2.6 c-0.7,0.4-1.2,0.2-1.4-0.3c-0.2-0.6-0.4-1.1-0.7-1.6c-0.3-0.7-0.1-1.5,0.3-2.2l3.2-5.6c-1.3-1.3-2.9-2.2-4.7-2.6l-3.2,5.5 c-0.3,0.5-0.6,0.9-1.1,1.1c-0.2,0.1-0.4,0.2-0.7,0.2c-0.6,0-1.2,0.1-1.8,0.2c-0.6,0.1-1-0.3-1-1.1v-5.2c-1.1,0.4-2.2,0.9-3.3,1.5 c-1.1,0.7-2.2,1.4-3.3,2.2v5.2c0,0.8-0.4,1.6-1,2.2c-0.6,0.6-1.2,1.2-1.8,1.9c-0.2,0.2-0.4,0.4-0.7,0.6c-0.3,0.2-0.7,0.3-1.1,0.1 l-3.2-1.8c-1.8,2.5-3.4,5.2-4.6,8l3.1,1.9c0.5,0.3,0.6,1,0.3,1.8s-0.5,1.6-0.7,2.5c-0.2,0.8-0.7,1.5-1.4,2l-4.6,2.6 c-0.2,1.3-0.3,2.6-0.3,3.9c0,1.2,0.1,2.4,0.3,3.6l4.6-2.6c0.6-0.4,1.2-0.2,1.4,0.3c0.2,0.6,0.4,1.1,0.8,1.6 c0.3,0.7,0.2,1.5-0.3,2.2l-3.2,5.6c1.3,1.3,2.9,2.3,4.7,2.7l3.2-5.6c0.3-0.5,0.6-0.9,1.1-1.1c0.2-0.1,0.4-0.2,0.7-0.2 c0.6,0,1.2-0.1,1.8-0.2s1,0.3,1,1.1v5.3c1.1-0.4,2.2-0.9,3.3-1.5c1.1-0.7,2.2-1.4,3.3-2.2v-5.3c0-0.8,0.4-1.6,1-2.2 c1-0.9,1.9-1.9,2.7-3l4,2.3c1.8-2.5,3.3-5.2,4.6-8l-3.2-2c-0.5-0.3-0.6-1-0.3-1.8C67.8,53.3,68.1,52.5,68.3,51.7z M55.3,46 c3.9-2.3,7.1-0.4,7.1,4.1c-0.3,5-2.9,9.6-7.1,12.3c-3.9,2.3-7.1,0.4-7.1-4.1C48.5,53.3,51.2,48.7,55.3,46z M46.8,65.2L46.8,65.2 L46.8,65.2z"></path> <radialGradient id="SVGID_14_" cx="97.52" cy="604.63" r="31.48" gradientTransform="matrix(1 0 0 1 -42.1 -568.19)" gradientUnits="userSpaceOnUse"> <stop offset="0" style="stop-color:#EF8E1D"></stop> <stop offset="1" style="stop-color:#FFE519"></stop> </radialGradient> <path class="st15" d="M55.4,65.8C49.8,69,45.3,66.4,45.3,60s4.5-14.2,10.1-17.5c5.6-3.2,10.1-0.6,10.1,5.8S61,62.5,55.4,65.8 M55.3,41.6c-6,3.5-11,12-10.9,18.9s5,9.8,11,6.3s11-12,10.9-19S61.3,38,55.3,41.6"></path> <linearGradient id="SVGID_15_" gradientUnits="userSpaceOnUse" x1="52.1" y1="719.5" x2="52.1" y2="751.89" gradientTransform="matrix(1 0 0 1 -22.15 -568.19)"> <stop offset="0" style="stop-color:#FF905A"></stop> <stop offset="1" style="stop-color:#F47621"></stop> </linearGradient> <path class="st16" d="M48.7,172.8l-35.9,20.8c-0.5,0.3-1.2,0.1-1.5-0.4c-0.1-0.2-0.1-0.4-0.1-0.5v-28.9l37.5-21.7L48.7,172.8z"></path> <linearGradient id="SVGID_16_" gradientUnits="userSpaceOnUse" x1="40.8534" y1="748.7539" x2="53.5434" y2="769.9539" gradientTransform="matrix(1 0 0 1 -22.15 -568.19)"> <stop offset="0" style="stop-color:#EF8E1D"></stop> <stop offset="1" style="stop-color:#A7A3FF;stop-opacity:0"></stop> </linearGradient> <path class="st17" d="M50.3,205.8l-37.5,21.7c-0.5,0.3-1.2,0.1-1.5-0.4c-0.1-0.2-0.2-0.4-0.1-0.6v-28.9c0-0.8,0.4-1.6,1.1-2 l37.1-21.5c0.3-0.2,0.7-0.1,0.8,0.2c0.1,0.1,0.1,0.2,0.1,0.3L50.3,205.8z"></path> <linearGradient id="SVGID_17_" gradientUnits="userSpaceOnUse" x1="32.1034" y1="756.0612" x2="69.2334" y2="723.4412" gradientTransform="matrix(1 0 0 1 -22.15 -568.19)"> <stop offset="0" style="stop-color:#F83600"></stop> <stop offset="1" style="stop-color:#FE8C00"></stop> </linearGradient> <path class="st18" d="M49.1,172.7l-36.5,21.1v-27.5l10.9-6.3l4.2,2.7l22.4-13v21.1C50.1,171.6,49.7,172.3,49.1,172.7z"></path> <polygon class="st4" points="189.6,198.9 151.1,176.5 151.1,96.5 189.6,118.8 "></polygon> <linearGradient id="SVGID_18_" gradientUnits="userSpaceOnUse" x1="151.06" y1="662.25" x2="189.64" y2="662.25" gradientTransform="matrix(1 0 0 1 0 -550)"> <stop offset="0" style="stop-color:#FFCB8B"></stop> <stop offset="1" style="stop-color:#FDA347"></stop> </linearGradient> <polygon class="st19" points="189.6,128 151.1,105.7 151.1,96.5 189.6,118.8 "></polygon> <polygon class="st4" points="182.5,148.2 158.2,134.1 158.2,122.3 182.5,136.4 "></polygon> <path class="st20" d="M166.9,130.8l0.1,0.1v0.1v3.9v0.1h-0.1l-0.4-0.2l-0.1-0.1v-0.1V133l-1.4-0.8v1.6v0.1h-0.1l-0.4-0.2l-0.1-0.1 v-0.1v-3.9v-0.1h0.1l0.4,0.2l0.1,0.1v0.1v1.6l1.4,0.8v-1.6v-0.1h0.1L166.9,130.8z"></path> <path class="st20" d="M169.9,132.6l0.1,0.1v0.1v0.4v0.1h-0.1l-0.8-0.5v3.3v0.1H169l-0.4-0.2l-0.1-0.1v-0.1v-3.3l-0.8-0.5l-0.1-0.1 v-0.1v-0.4v-0.1h0.1L169.9,132.6z"></path> <path class="st20" d="M172.1,136l0.9-1.5l0.1-0.1h0.1l0.3,0.2l0.1,0.1v0.1v3.9v0.1h-0.1l-0.4-0.2l-0.1-0.1v-0.1V136l-0.6,1 l-0.1,0.1h-0.1L172,137l-0.1-0.1l-0.1-0.1l-0.6-1.7v2.4v0.1h-0.1l-0.4-0.2l-0.1-0.1v-0.1v-3.9v-0.1h0.1l0.3,0.2 c0.1,0,0.1,0.1,0.1,0.1l0.1,0.1L172.1,136z"></path> <path class="st20" d="M176.6,139.9l0.1,0.1v0.1v0.4v0.1h-0.1l-2-1.2l-0.1-0.1v-0.1v-3.9v-0.1h0.1l0.4,0.2l0.1,0.1v0.1v3.3 L176.6,139.9z"></path> <polygon class="st4" points="182.5,166.5 158.2,152.4 158.2,140.6 182.5,154.7 "></polygon> <path class="st20" d="M168,152.6L168,152.6C168,152.5,168,152.5,168,152.6l0.5,0.1l0.1,0.1v0.1c0,0.2,0,0.3-0.1,0.4 c0,0.1-0.1,0.2-0.2,0.3c-0.1,0.1-0.3,0.1-0.4,0.1c-0.2,0-0.4-0.1-0.6-0.2c-0.2-0.1-0.4-0.3-0.6-0.4c-0.2-0.2-0.3-0.4-0.4-0.6 c-0.1-0.2-0.2-0.4-0.3-0.7c-0.1-0.2-0.1-0.5-0.1-0.7s0-0.3,0-0.5s0-0.4,0-0.5c0-0.2,0-0.4,0.1-0.6c0-0.1,0.1-0.3,0.3-0.4 c0.1-0.1,0.3-0.1,0.4-0.1c0.2,0,0.4,0.1,0.6,0.2c0.2,0.1,0.4,0.3,0.6,0.5c0.2,0.2,0.3,0.4,0.4,0.6c0.1,0.2,0.2,0.4,0.2,0.6 c0,0.2,0.1,0.4,0.1,0.6v0.1h-0.1l-0.4-0.2l-0.1-0.1c0,0,0-0.1-0.1-0.1c0-0.1,0-0.2-0.1-0.3c0-0.1-0.1-0.2-0.1-0.3 c-0.1-0.1-0.1-0.2-0.2-0.3c-0.1-0.1-0.2-0.2-0.3-0.2c-0.1-0.1-0.2-0.1-0.3-0.1s-0.2,0-0.2,0.1c-0.1,0.1-0.1,0.1-0.1,0.2 c0,0.1-0.1,0.2-0.1,0.3s0,0.3,0,0.5s0,0.4,0,0.5s0,0.3,0.1,0.4c0,0.1,0.1,0.3,0.1,0.4c0.1,0.1,0.1,0.2,0.2,0.3 c0.1,0.1,0.2,0.2,0.3,0.2c0.1,0.1,0.2,0.1,0.3,0.1s0.1,0,0.2,0c0.1,0,0.1-0.1,0.1-0.1C167.9,152.8,168,152.7,168,152.6z"></path> <path class="st20" d="M170.4,151.1c0.2,0.1,0.4,0.3,0.5,0.4c0.1,0.2,0.3,0.3,0.4,0.5c0.1,0.2,0.2,0.3,0.2,0.5 c0,0.1,0.1,0.3,0.1,0.4v0.1h-0.1l-0.3-0.2l-0.1-0.1l-0.1-0.1c-0.1-0.1-0.1-0.3-0.2-0.4c-0.1-0.1-0.3-0.3-0.4-0.4 c-0.1,0-0.1-0.1-0.2-0.1c-0.1,0-0.1,0-0.2,0c-0.1,0-0.1,0-0.1,0.1s0,0.1,0,0.2c0,0.1,0,0.2,0,0.2c0,0.1,0.1,0.2,0.1,0.2 c0.1,0.1,0.2,0.2,0.3,0.3l0.4,0.4c0.2,0.1,0.3,0.3,0.5,0.5c0.1,0.1,0.2,0.3,0.3,0.4c0.1,0.1,0.1,0.3,0.2,0.4 c0,0.2,0.1,0.3,0.1,0.5s0,0.3-0.1,0.4c-0.1,0.1-0.1,0.2-0.3,0.2c-0.1,0-0.3,0-0.4,0c-0.2,0-0.4-0.1-0.6-0.2 c-0.2-0.1-0.3-0.2-0.5-0.4c-0.2-0.1-0.3-0.3-0.4-0.5c-0.1-0.2-0.2-0.3-0.3-0.5s-0.1-0.4-0.1-0.6v-0.1h0.1l0.3,0.2l0.1,0.1l0.1,0.1 c0,0.1,0,0.1,0.1,0.2c0,0.1,0.1,0.1,0.1,0.2c0.1,0.1,0.1,0.1,0.2,0.2c0.1,0.1,0.2,0.2,0.3,0.2l0.3,0.1c0.1,0,0.1,0,0.2,0 c0.1,0,0.1,0,0.2-0.1c0-0.1,0.1-0.1,0.1-0.2c0-0.1,0-0.2-0.1-0.2c-0.1-0.1-0.1-0.2-0.2-0.3l-0.3-0.3l-0.4-0.4 c-0.1-0.1-0.3-0.3-0.4-0.4c-0.1-0.1-0.2-0.3-0.3-0.4c-0.1-0.1-0.1-0.3-0.2-0.4c0-0.2-0.1-0.3-0.1-0.5s0-0.3,0.1-0.4 c0.1-0.1,0.1-0.2,0.2-0.2c0.1,0,0.3,0,0.4,0C170,150.9,170.2,151,170.4,151.1z"></path> <path class="st20" d="M173.4,152.9c0.2,0.1,0.4,0.3,0.5,0.4c0.1,0.2,0.3,0.3,0.4,0.5c0.1,0.2,0.2,0.3,0.2,0.5 c0,0.1,0.1,0.3,0.1,0.4v0.1h-0.1l-0.3-0.2l-0.1-0.1l-0.1-0.1c-0.1-0.1-0.1-0.3-0.2-0.4c-0.1-0.1-0.3-0.3-0.4-0.4 c-0.1,0-0.1-0.1-0.2-0.1c-0.1,0-0.1,0-0.2,0c-0.1,0-0.1,0-0.1,0.1s0,0.1,0,0.2c0,0.1,0,0.2,0,0.2c0,0.1,0.1,0.2,0.1,0.2 c0.1,0.1,0.2,0.2,0.3,0.3l0.4,0.4c0.2,0.1,0.3,0.3,0.5,0.5c0.1,0.1,0.2,0.3,0.3,0.4c0.1,0.1,0.1,0.3,0.2,0.4 c0,0.2,0.1,0.3,0.1,0.5s0,0.3-0.1,0.4c-0.1,0.1-0.1,0.2-0.3,0.2c-0.1,0-0.3,0-0.4,0c-0.2,0-0.4-0.1-0.6-0.2 c-0.2-0.1-0.3-0.2-0.5-0.4c-0.2-0.1-0.3-0.3-0.4-0.5c-0.1-0.2-0.2-0.3-0.3-0.5s-0.1-0.4-0.1-0.6V155h0.1l0.3,0.2l0.1,0.1l0.1,0.1 c0,0.1,0,0.1,0.1,0.2c0,0.1,0.1,0.1,0.1,0.2c0.1,0.1,0.1,0.1,0.2,0.2c0.1,0.1,0.2,0.2,0.3,0.2l0.3,0.1c0.1,0,0.1,0,0.2,0 c0.1,0,0.1,0,0.2-0.1c0-0.1,0.1-0.1,0.1-0.2c0-0.1,0-0.2-0.1-0.2c-0.1-0.1-0.1-0.2-0.2-0.3l-0.3-0.3l-0.4-0.4 c-0.1-0.1-0.3-0.3-0.4-0.4c-0.1-0.1-0.2-0.3-0.3-0.4c-0.1-0.1-0.1-0.3-0.2-0.4c0-0.2-0.1-0.3-0.1-0.5s0-0.3,0.1-0.4 c0.1-0.1,0.1-0.2,0.2-0.2c0.1,0,0.3,0,0.4,0C173.1,152.7,173.3,152.8,173.4,152.9z"></path> <polygon class="st4" points="182.5,184.8 158.2,170.7 158.2,158.9 182.5,173 "></polygon> <path class="st20" d="M164.2,166.2L164.2,166.2c0.1-0.1,0.1-0.1,0.2-0.1l0.3,0.1c0,0,0,0,0.1,0.1v0.1l0,0l-1.2,3.1c0,0,0,0,0,0.1 h-0.1l-0.2-0.1c0,0,0,0-0.1-0.1v-0.1l0,0L164.2,166.2z"></path> <path class="st20" d="M165.9,167.4c0.2,0.1,0.3,0.2,0.4,0.3c0.1,0.1,0.2,0.2,0.3,0.4c0.1,0.1,0.1,0.2,0.2,0.4 c0,0.1,0.1,0.2,0.1,0.3v0.1c0,0,0,0-0.1,0l-0.2-0.1c0,0-0.1,0-0.1-0.1l-0.1-0.1c0-0.1-0.1-0.2-0.2-0.3c-0.1-0.1-0.2-0.2-0.3-0.3 l-0.2-0.1h-0.1c0,0-0.1,0-0.1,0.1v0.1c0,0.1,0,0.1,0,0.2c0,0.1,0.1,0.1,0.1,0.2l0.2,0.2l0.3,0.3c0.1,0.1,0.3,0.2,0.4,0.4 c0.1,0.1,0.2,0.2,0.2,0.3c0.1,0.1,0.1,0.2,0.1,0.4c0,0.1,0,0.2,0,0.4c0,0.1,0,0.2-0.1,0.4c0,0.1-0.1,0.2-0.2,0.2 c-0.1,0-0.2,0-0.3,0c-0.2,0-0.3-0.1-0.4-0.2c-0.1-0.1-0.3-0.2-0.4-0.3c-0.1-0.1-0.2-0.2-0.3-0.4c-0.1-0.1-0.2-0.3-0.2-0.4 c-0.1-0.1-0.1-0.3-0.1-0.4v-0.1c0,0,0,0,0.1,0l0.2,0.1c0,0,0.1,0,0.1,0.1c0,0,0,0.1,0.1,0.1l0.1,0.2c0,0.1,0.1,0.1,0.1,0.2 c0,0.1,0.1,0.1,0.1,0.2c0.1,0.1,0.1,0.1,0.2,0.2l0.2,0.1c0.1,0,0.1,0,0.2,0c0,0,0.1,0,0.1-0.1v-0.1c0-0.1,0-0.1,0-0.2 c0-0.1-0.1-0.1-0.1-0.2l-0.2-0.2l-0.3-0.3c-0.1-0.1-0.2-0.2-0.3-0.3s-0.2-0.2-0.2-0.3c-0.1-0.1-0.1-0.2-0.1-0.3s0-0.3,0-0.4 c0-0.1,0-0.2,0.1-0.4c0-0.1,0.1-0.2,0.2-0.2c0.1,0,0.2,0,0.3,0C165.7,167.3,165.8,167.3,165.9,167.4z"></path> <path class="st20" d="M169,171.5C169,171.5,169,171.4,169,171.5C169,171.4,169,171.4,169,171.5l0.4,0.1c0,0,0.1,0,0.1,0.1v0.1 c0,0.1,0,0.2-0.1,0.3c0,0.1-0.1,0.2-0.2,0.2c-0.1,0.1-0.2,0.1-0.3,0.1c-0.2,0-0.3-0.1-0.5-0.2c-0.2-0.1-0.3-0.2-0.4-0.4 c-0.1-0.1-0.2-0.3-0.3-0.4c-0.1-0.2-0.2-0.3-0.2-0.5s-0.1-0.4-0.1-0.6c0-0.1,0-0.3,0-0.4c0-0.1,0-0.3,0-0.4c0-0.2,0-0.3,0.1-0.5 c0-0.1,0.1-0.2,0.2-0.3c0.1-0.1,0.2-0.1,0.3-0.1c0.2,0,0.3,0.1,0.4,0.2c0.2,0.1,0.3,0.2,0.5,0.4c0.1,0.1,0.2,0.3,0.3,0.4 c0.1,0.1,0.1,0.3,0.2,0.5c0,0.1,0.1,0.3,0.1,0.4v0.1c0,0,0,0-0.1,0l-0.3-0.2c0,0-0.1,0-0.1-0.1v-0.1c0-0.1,0-0.1,0-0.2 c0-0.1-0.1-0.2-0.1-0.2c0-0.1-0.1-0.1-0.2-0.2c-0.1-0.1-0.2-0.1-0.2-0.2c-0.1,0-0.2-0.1-0.2-0.1c-0.1,0-0.1,0-0.2,0 c-0.1,0-0.1,0.1-0.1,0.2c0,0.1,0,0.2,0,0.2c0,0.1,0,0.2,0,0.4s0,0.3,0,0.4c0,0.1,0,0.2,0,0.3s0.1,0.2,0.1,0.3s0.1,0.2,0.2,0.2 c0.1,0.1,0.2,0.1,0.2,0.2c0.1,0,0.2,0.1,0.2,0.1c0.1,0,0.1,0,0.2,0C168.9,171.6,168.9,171.6,169,171.5L169,171.5z"></path> <path class="st20" d="M171,170.4c0.3,0.2,0.5,0.4,0.7,0.7s0.2,0.6,0.2,0.9c0,0.2,0,0.4-0.1,0.5s-0.2,0.2-0.4,0.1l0.5,1.4 c0,0,0,0,0,0.1c0,0,0,0,0,0.1l-0.3-0.2l-0.1-0.1v-0.1l-0.5-1.4l-0.5-0.3v1.1c0,0,0,0,0,0.1c0,0,0,0-0.1,0l-0.3-0.2 c0,0-0.1,0-0.1-0.1v-0.1v-3c0,0,0,0,0-0.1c0,0,0,0,0.1,0L171,170.4z M170.5,171.6l0.5,0.3c0.1,0.1,0.2,0.1,0.3,0.1 s0.1-0.1,0.1-0.3c0-0.1,0-0.3-0.1-0.4c-0.1-0.1-0.2-0.2-0.3-0.3l-0.5-0.3V171.6z"></path> <path class="st20" d="M172.5,174.6C172.5,174.5,172.5,174.5,172.5,174.6c-0.1-0.1-0.1-0.1-0.1-0.2v-3c0,0,0,0,0-0.1c0,0,0,0,0.1,0 l0.3,0.2c0,0,0.1,0,0.1,0.1v0.1v3c0,0,0,0,0,0.1c0,0,0,0-0.1,0L172.5,174.6z"></path> <path class="st20" d="M174.6,172.5c0.3,0.2,0.5,0.4,0.7,0.6c0.2,0.3,0.2,0.6,0.2,0.9c0,0.3-0.1,0.6-0.2,0.6 c-0.2,0.1-0.4,0-0.7-0.1l-0.6-0.3v1c0,0,0,0,0,0.1c0,0,0,0-0.1,0l-0.3-0.2c0,0-0.1,0-0.1-0.1v-0.1v-3c0,0,0,0,0-0.1c0,0,0,0,0.1,0 L174.6,172.5z M174,173.7l0.6,0.3c0.1,0.1,0.2,0.1,0.3,0.1s0.1-0.1,0.1-0.3s0-0.3-0.1-0.4c-0.1-0.1-0.2-0.2-0.3-0.3l-0.6-0.3 V173.7z"></path> <path class="st20" d="M177.6,174.3C177.7,174.3,177.7,174.3,177.6,174.3c0.1,0.1,0.1,0.1,0.1,0.2v0.4c0,0,0,0,0,0.1c0,0,0,0-0.1,0 l-0.6-0.4v2.6c0,0,0,0,0,0.1c0,0,0,0-0.1,0l-0.3-0.2c0,0-0.1,0-0.1-0.1v-0.1v-2.6l-0.7-0.4c0,0-0.1,0-0.1-0.1v-0.1v-0.3 c0,0,0,0,0-0.1c0,0,0,0,0.1,0L177.6,174.3z"></path> <path class="st20" d="M155.6,103.7c0,0.6-0.4,0.9-0.8,0.6c-0.5-0.4-0.8-1-0.8-1.6s0.4-0.9,0.8-0.6 C155.3,102.5,155.6,103.1,155.6,103.7z"></path> <path class="st20" d="M158.7,105.5c0,0.6-0.4,0.9-0.8,0.6c-0.5-0.4-0.8-1-0.8-1.6s0.4-0.9,0.8-0.6 C158.3,104.2,158.6,104.8,158.7,105.5z"></path> <path class="st20" d="M161.7,107.2c0,0.6-0.4,0.9-0.8,0.6c-0.5-0.4-0.8-1-0.8-1.6s0.4-0.9,0.8-0.6 C161.4,106,161.7,106.6,161.7,107.2z"></path> <linearGradient id="SVGID_19_" gradientUnits="userSpaceOnUse" x1="232.2517" y1="667.6596" x2="236.6117" y2="577.4996" gradientTransform="matrix(1 0 0 1 -22.15 -568.19)"> <stop offset="0" style="stop-color:#FFCB8B"></stop> <stop offset="1" style="stop-color:#FDA347"></stop> </linearGradient> <path class="st21" d="M214.7,92.6V69.8c0-2.9,1.2-4.9,3.2-5.7c2.3-1,3.8-3.6,3.8-7.3c-0.1-3.3-1-6.6-2.6-9.5 c-0.3-0.5-0.7-0.8-1-0.7l0,0l-1.8,0.9l0.3,0.6l-0.7,0.8c-0.2,0.3-0.2,0.7,0,1c0.9,1.9,1.2,4,0.7,6.1c-0.4,1.7-2.1,2.7-3.8,2.3 c-0.1,0-0.2-0.1-0.3-0.1c-3.7-1.1-7.1-6.1-7.1-10.3c-0.1-1.3,0.4-2.6,1.3-3.5c0.2-0.3,0.3-0.7,0.1-1.1l-2-4.3 c-0.2-0.5-0.7-0.8-1-0.8l0,0h-0.1h-0.1l-0.1,0.1L202,39l0.1,0.5c-1.1,1.6-1.7,3.6-1.6,5.6c0.2,4.1,1.5,8.1,3.8,11.5 c1.9,2.7,3,5.8,3.2,9.1v22.8c0,2.9-1.2,4.9-3.2,5.7c-2.3,1-3.8,3.6-3.8,7.3c0.1,3.6,1.2,7.1,3,10.1l-0.6,1.7l1.6-0.8l0,0 c0.1,0,0.2,0,0.3-0.1l2-2.2c0.2-0.4,0.2-0.8-0.1-1.1c-1-1.8-1.4-3.8-1.2-5.9c0.4-2.7,2.5-3.8,5-2.8c3.5,1.4,6.4,6.1,6.4,10.1 c0.1,1.1-0.3,2.2-1,3.1c-0.2,0.3-0.2,0.7,0,1l1.7,3.6l-0.4,2.4l1.7-0.8l0,0c0.1,0,0.2,0,0.2-0.1c1.6-1.3,2.6-3.6,2.6-6.6 c-0.2-4.1-1.5-8.1-3.9-11.5C216,99,214.9,95.8,214.7,92.6z"></path> <linearGradient id="SVGID_20_" gradientUnits="userSpaceOnUse" x1="231.6" y1="587.09" x2="231.6" y2="661.02" gradientTransform="matrix(1 0 0 1 -22.15 -568.19)"> <stop offset="0" style="stop-color:#FF905A"></stop> <stop offset="1" style="stop-color:#F47621"></stop> </linearGradient> <path class="st22" d="M213.1,93.4V70.7c0-2.9,1.2-4.9,3.2-5.7c2.3-1,3.8-3.6,3.8-7.3c-0.1-3.3-1-6.6-2.6-9.5 c-0.3-0.6-0.9-0.9-1.2-0.6l-2.1,2.2c-0.2,0.3-0.2,0.7,0,1c1,1.9,1.2,4,0.7,6.1c-0.4,1.7-2.1,2.7-3.8,2.3c-0.1,0-0.2-0.1-0.3-0.1 c-3.7-1.1-7.1-6.1-7.1-10.3c-0.1-1.3,0.4-2.6,1.3-3.5c0.2-0.3,0.3-0.7,0.1-1.1l-2-4.3c-0.3-0.6-0.8-1-1.1-0.8 c-1.9,1.2-3.1,3.6-3.1,7c0.2,4.1,1.5,8.1,3.8,11.5c1.9,2.7,2.9,5.8,3.1,9.1v22.8c0,2.9-1.2,4.9-3.2,5.7c-2.3,1-3.8,3.6-3.8,7.3 c0.1,3.7,1.2,7.2,3.1,10.3c0.3,0.6,0.9,0.8,1.1,0.5l2-2.2c0.2-0.4,0.2-0.8-0.1-1.1c-1-1.8-1.4-3.8-1.2-5.9c0.4-2.7,2.5-3.8,5-2.8 c3.5,1.4,6.4,6.1,6.4,10.1c0.1,1.1-0.3,2.2-1,3.1c-0.2,0.3-0.2,0.7,0,1l2.1,4.4c0.3,0.6,0.9,1,1.2,0.7c1.6-1.3,2.6-3.6,2.6-6.6 c-0.2-4.1-1.5-8.1-3.8-11.5C214.4,99.8,213.3,96.7,213.1,93.4z"></path> <polygon class="st4" points="189.8,110.4 151.1,87.8 151.1,41.5 189.8,64 "></polygon> <linearGradient id="SVGID_21_" gradientUnits="userSpaceOnUse" x1="151.06" y1="608.4" x2="189.81" y2="608.4" gradientTransform="matrix(1 0 0 1 0 -550)"> <stop offset="0" style="stop-color:#FFCB8B"></stop> <stop offset="1" style="stop-color:#FDA347"></stop> </linearGradient> <polygon class="st23" points="189.8,75.3 151.1,52.8 151.1,41.5 189.8,64 "></polygon> <polygon class="st24" points="154.4,61.2 153,60.4 153,57.6 154.4,58.4 "></polygon> <line class="st25" x1="155.1" y1="58.7" x2="172.1" y2="68.6"></line> <line class="st25" x1="155.1" y1="60.7" x2="172.1" y2="70.6"></line> <line class="st25" x1="155.1" y1="62.6" x2="172.1" y2="72.5"></line> <line class="st25" x1="155.1" y1="64.6" x2="180" y2="79.1"></line> <linearGradient id="SVGID_22_" gradientUnits="userSpaceOnUse" x1="177.2" y1="639.1276" x2="186.13" y2="639.1276" gradientTransform="matrix(1 0 0 1 -22.15 -568.19)"> <stop offset="0" style="stop-color:#F7F144"></stop> <stop offset="0.71" style="stop-color:#EFCA39"></stop> <stop offset="0.99" style="stop-color:#EBB934"></stop> </linearGradient> <path class="st26" d="M162.8,74.6l-6.6-3.8c-0.7-0.4-1.1-1.1-1.2-1.9v-1.1c0-0.7,0.5-0.9,1.2-0.5l6.6,3.8c0.7,0.4,1.1,1.1,1.2,1.9 v1C164,74.7,163.5,75,162.8,74.6z"></path> <polygon class="st24" points="154.4,77.2 153,76.4 153,73.6 154.4,74.3 "></polygon> <line class="st25" x1="155.1" y1="74.7" x2="179.8" y2="89.1"></line> <line class="st25" x1="155.1" y1="76.7" x2="172.1" y2="86.6"></line> <line class="st25" x1="155.1" y1="78.6" x2="172.1" y2="88.5"></line> <line class="st25" x1="155.1" y1="80.6" x2="180" y2="95"></line> <path class="st27" d="M162.8,90.6l-6.6-3.8c-0.7-0.4-1.1-1.1-1.2-1.9v-1c0-0.7,0.5-0.9,1.2-0.5l6.6,3.8c0.7,0.4,1.1,1.1,1.2,1.9v1 C164,90.7,163.5,90.9,162.8,90.6z"></path> <line class="st28" x1="187.7" y1="76.1" x2="187.7" y2="105.1"></line> <path class="st29" d="M188.5,89.4c0,0.9-0.4,1.4-0.8,1.2c-0.5-0.5-0.8-1.3-0.8-2.1c0-0.9,0.4-1.4,0.8-1.2 C188.3,87.9,188.5,88.6,188.5,89.4z"></path> <path class="st20" d="M155.1,49.4c0,0.8-0.3,1.2-0.7,1c-0.5-0.5-0.7-1.1-0.7-1.7c0-0.8,0.3-1.2,0.7-1 C154.9,48.2,155.1,48.8,155.1,49.4z"></path> <path class="st20" d="M157.4,50.8c0,0.8-0.3,1.2-0.7,1c-0.5-0.5-0.7-1.1-0.7-1.7c0-0.8,0.3-1.2,0.7-1 C157.2,49.5,157.5,50.2,157.4,50.8z"></path> <path class="st20" d="M159.9,52.2c0,0.8-0.3,1.2-0.7,1c-0.5-0.5-0.7-1.1-0.7-1.7c0-0.8,0.3-1.2,0.7-1 C159.7,50.9,159.9,51.6,159.9,52.2z"></path> <polygon class="st4" points="145.9,156.6 86.4,122.2 86.4,24 145.9,58.4 "></polygon> <linearGradient id="SVGID_23_" gradientUnits="userSpaceOnUse" x1="86.4" y1="596.85" x2="145.9" y2="596.85" gradientTransform="matrix(1 0 0 1 0 -550)"> <stop offset="0" style="stop-color:#FFCB8B"></stop> <stop offset="1" style="stop-color:#FDA347"></stop> </linearGradient> <polygon class="st30" points="145.9,69.7 86.4,35.3 86.4,24 145.9,58.4 "></polygon> <path class="st27" d="M94.4,88.6c0,0.9-0.4,1.4-1,1.1c-0.7-0.5-1-1.4-1-2.2c0-0.9,0.4-1.4,1-1.1C94.1,86.9,94.4,87.7,94.4,88.6z"></path> <polygon class="st31" points="110,99.2 95.5,90.8 95.5,88.1 110,96.4 "></polygon> <polygon class="st32" points="122.8,110.2 95.5,94.3 95.5,93.3 122.8,109.1 "></polygon> <polygon class="st33" points="137.1,118.4 124,110.8 124,109.8 137.1,117.3 "></polygon> <polygon class="st33" points="109.3,104.7 95.5,96.7 95.5,95.6 109.3,103.6 "></polygon> <polygon class="st32" points="137.1,120.7 111,105.7 111,104.6 137.1,119.7 "></polygon> <polygon class="st32" points="122.8,115.2 95.5,99.4 95.5,98.4 122.8,114.2 "></polygon> <polygon class="st32" points="137.1,123.4 124,115.9 124,114.9 137.1,122.4 "></polygon> <polygon class="st34" points="97.7,103.1 95.5,101.7 95.5,100.7 97.7,102 "></polygon> <polygon class="st34" points="101,104.9 98.7,103.6 98.7,102.6 101,103.9 "></polygon> <polygon class="st34" points="104.2,106.8 101.9,105.5 101.9,104.4 104.2,105.7 "></polygon> <polygon class="st34" points="107.4,108.6 105.2,107.3 105.2,106.3 107.4,107.6 "></polygon> <polygon class="st34" points="110.7,110.5 108.4,109.2 108.4,108.2 110.7,109.5 "></polygon> <polygon class="st34" points="113.9,112.4 111.6,111.1 111.6,110 113.9,111.3 "></polygon> <path class="st27" d="M94.4,108.1c0,0.9-0.4,1.4-1,1.1c-0.7-0.5-1-1.4-1-2.2c0-0.9,0.4-1.4,1-1.1 C94.1,106.5,94.4,107.3,94.4,108.1z"></path> <polygon class="st31" points="110,118.8 95.5,110.4 95.5,107.7 110,116 "></polygon> <polygon class="st32" points="122.8,129.7 95.5,113.9 95.5,112.9 122.8,128.7 "></polygon> <polygon class="st33" points="137.1,137.9 124,130.4 124,129.4 137.1,136.9 "></polygon> <polygon class="st32" points="109.3,124.3 95.5,116.2 95.5,115.2 109.3,123.2 "></polygon> <polygon class="st32" points="137.1,140.3 111,125.2 111,124.2 137.1,139.2 "></polygon> <polygon class="st33" points="122.8,134.8 95.5,119 95.5,117.9 122.8,133.8 "></polygon> <polygon class="st33" points="137.1,143 124,135.5 124,134.4 137.1,142 "></polygon> <polygon class="st34" points="97.7,122.6 95.5,121.3 95.5,120.3 97.7,121.6 "></polygon> <polygon class="st34" points="101,124.5 98.7,123.2 98.7,122.2 101,123.4 "></polygon> <polygon class="st34" points="104.2,126.3 101.9,125.1 101.9,124 104.2,125.3 "></polygon> <polygon class="st34" points="107.4,128.2 105.2,126.9 105.2,125.9 107.4,127.2 "></polygon> <polygon class="st34" points="110.7,130.1 108.4,128.8 108.4,127.7 110.7,129.1 "></polygon> <polygon class="st34" points="113.9,131.9 111.6,130.6 111.6,129.6 113.9,130.9 "></polygon> <path class="st20" d="M90.6,32.1c0,0.8-0.3,1.2-0.8,0.9c-0.5-0.5-0.8-1.1-0.8-1.8c0-0.8,0.3-1.2,0.8-0.9 C90.3,30.8,90.6,31.4,90.6,32.1z"></path> <path class="st20" d="M93.4,33.7c0,0.8-0.3,1.2-0.8,0.9c-0.5-0.5-0.8-1.1-0.8-1.8c0-0.8,0.3-1.2,0.8-0.9 C93.2,32.4,93.5,33,93.4,33.7z"></path> <path class="st20" d="M96.2,35.4c0,0.8-0.3,1.2-0.8,0.9c-0.5-0.5-0.8-1.1-0.8-1.8c0-0.8,0.3-1.2,0.8-0.9 C96,34,96.3,34.7,96.2,35.4z"></path> <polygon class="st4" points="138.7,106.9 120.4,96.2 120.4,60.5 138.7,71.2 "></polygon> <linearGradient id="SVGID_24_" gradientUnits="userSpaceOnUse" x1="120.37" y1="619.35" x2="138.72" y2="619.35" gradientTransform="matrix(1 0 0 1 0 -550)"> <stop offset="0" style="stop-color:#FFCB8B"></stop> <stop offset="1" style="stop-color:#FDA347"></stop> </linearGradient> <polygon class="st35" points="138.7,78.2 120.4,67.6 120.4,60.5 138.7,71.2 "></polygon> <path class="st20" d="M122.6,65.4c0,0.5-0.2,0.8-0.5,0.6c-0.4-0.3-0.6-0.8-0.5-1.2c0-0.5,0.2-0.8,0.5-0.6 C122.5,64.5,122.7,64.9,122.6,65.4z"></path> <path class="st20" d="M124.6,66.5c0,0.5-0.2,0.8-0.5,0.6c-0.4-0.3-0.6-0.8-0.5-1.2c0-0.5,0.2-0.8,0.5-0.6 C124.4,65.6,124.6,66,124.6,66.5z"></path> <path class="st20" d="M126.5,67.6c0,0.5-0.2,0.8-0.5,0.6c-0.4-0.3-0.6-0.8-0.5-1.2c0-0.5,0.2-0.8,0.5-0.6 C126.3,66.7,126.5,67.1,126.5,67.6z"></path> <path class="st20" d="M123.9,81.6c0-0.1,0-0.2,0.1-0.3c0-0.1,0.1-0.1,0.2-0.2l2.6-1.6h0.1c0.1,0,0.1,0.1,0.1,0.2s0,0.2,0,0.2v0.6 c0,0.1,0,0.2-0.1,0.3c0,0.1-0.1,0.1-0.2,0.2l-2.1,1.2l2.1,3.6c0.1,0.1,0.1,0.2,0.2,0.3c0.1,0.1,0.1,0.3,0.1,0.4v0.6 c0,0.1,0,0.1,0,0.2h-0.1l0,0l0,0l-0.1-0.1l-2.7-4.5c-0.1-0.1-0.1-0.2-0.2-0.3c0-0.1-0.1-0.2-0.1-0.3L123.9,81.6L123.9,81.6z"></path> <path class="st20" d="M130.5,80.1c0-0.1,0.1-0.1,0.1-0.2c0.1-0.1,0.1-0.1,0.2,0l0.3,0.2c0.1,0,0.1,0.1,0.1,0.2s0.1,0.2,0.1,0.2 v0.1l-2.6,9.5c0,0.1-0.1,0.1-0.1,0.2c-0.1,0.1-0.1,0.1-0.2,0l-0.2-0.1c-0.1,0-0.1-0.1-0.1-0.2s-0.1-0.2-0.1-0.2v-0.1L130.5,80.1z"></path> <path class="st20" d="M135.2,88.6c0,0.1,0,0.2-0.1,0.3c0,0.1-0.1,0.1-0.2,0.2l-2.6,1.6h-0.1c-0.1,0-0.1-0.1-0.1-0.2s0-0.2,0-0.2 v-0.6c0-0.1,0-0.2,0.1-0.3c0-0.1,0.1-0.1,0.2-0.2l2.1-1.2l-2.1-3.6c-0.1-0.1-0.1-0.2-0.2-0.3c-0.1-0.1-0.1-0.3-0.1-0.4V83 c0-0.1,0-0.1,0-0.2h0.1l0,0l0,0l0.1,0.1l2.6,4.5c0.1,0.1,0.1,0.2,0.2,0.3c0,0.1,0.1,0.2,0.1,0.3V88.6z"></path> <path class="st36" d="M85.4,187.2c0,0,6.5-1.6,7-0.6s-6.8,6.3-8.8,6.3s-0.3-5.2-0.3-5.2L85.4,187.2z"></path> <path class="st36" d="M59.8,190c0,0,6.5-1.6,7-0.6s-6.8,6.3-8.8,6.3s0.2-5.3,0.2-5.3L59.8,190z"></path> <linearGradient id="SVGID_25_" gradientUnits="userSpaceOnUse" x1="80.1104" y1="723.9529" x2="102.75" y2="723.9529" gradientTransform="matrix(1 0 0 1 -22.15 -568.19)"> <stop offset="0" style="stop-color:#406AEB"></stop> <stop offset="0.99" style="stop-color:#2B45AE"></stop> </linearGradient> <path class="st37" d="M80.6,121.8c0,0-7.4,41.9-18.8,69c0,0-4.7,2.5-3.7-1.2s3.6-25.3,5.7-29.5c0,0-2.9-35.4-1.5-40.2L80.6,121.8z "></path> <linearGradient id="SVGID_26_" gradientUnits="userSpaceOnUse" x1="93" y1="723.569" x2="115.3741" y2="723.569" gradientTransform="matrix(1 0 0 1 -22.15 -568.19)"> <stop offset="0" style="stop-color:#406AEB"></stop> <stop offset="0.99" style="stop-color:#2B45AE"></stop> </linearGradient> <path class="st38" d="M88.8,119.9c0,0,5.4,24.8,4.2,35.2s-6.5,33.1-6.5,33.1s-5.3,4.7-4.9,1.6s1.7-30.7,1.7-30.7 s-12-27.2-12.4-36.3L88.8,119.9z"></path> <linearGradient id="SVGID_27_" gradientUnits="userSpaceOnUse" x1="102.2052" y1="680.7449" x2="90.0352" y2="708.7449" gradientTransform="matrix(1 0 0 1 -22.15 -568.19)"> <stop offset="7.000000e-02" style="stop-color:#1C1C75"></stop> <stop offset="1" style="stop-color:#1C1C75;stop-opacity:0"></stop> </linearGradient> <path class="st39" d="M88.8,119.9l-10.7,1.7l-15.8-1.7c-0.5,1.7-0.4,7-0.2,13.2c9.9,0,19.6-3.1,27.5-9 C89.2,121.5,88.8,119.9,88.8,119.9z"></path> <polygon class="st40" points="115.3,95.5 89.8,80.8 89.8,45.7 115.3,60.4 "></polygon> <path class="st34" d="M96.4,70.6c0.1,0.4,0.1,0.7-0.1,0.8l-1.4,0.8c0.6,1.2,1.2,2.4,2,3.4l1.8-1c0.4,0.5,0.8,0.9,1.2,1.3 c0.3,0.3,0.4,0.6,0.4,1v2.3c0.4,0.4,0.9,0.7,1.4,1s0.9,0.5,1.4,0.7v-2.3c0-0.3,0.2-0.5,0.4-0.4c0.3,0,0.5,0.1,0.8,0.1 c0.1,0,0.2,0,0.3,0.1c0.2,0.1,0.4,0.3,0.5,0.5l1.4,2.4c0.8-0.2,1.5-0.6,2-1.1l-1.4-2.4c-0.2-0.3-0.2-0.6-0.1-0.9 c0.1-0.2,0.2-0.5,0.3-0.7c0.1-0.2,0.3-0.3,0.6-0.2l2,1.1c0.1-0.5,0.1-1,0.1-1.6s0-1.1-0.1-1.7l-2-1.1c-0.3-0.2-0.5-0.5-0.6-0.9 s-0.2-0.7-0.3-1.1c-0.1-0.4-0.1-0.7,0.1-0.8l1.4-0.8c-0.6-1.2-1.2-2.4-2-3.4l-1.4,0.8c-0.1,0.1-0.3,0.1-0.5,0 c-0.1-0.1-0.2-0.2-0.3-0.2c-0.2-0.3-0.5-0.6-0.8-0.8c-0.3-0.3-0.4-0.6-0.4-1v-2.3c-0.4-0.4-0.9-0.7-1.4-1s-0.9-0.5-1.4-0.7v2.3 c0,0.3-0.2,0.5-0.4,0.5c-0.3-0.1-0.5-0.1-0.8-0.1c-0.1,0-0.2,0-0.3-0.1c-0.2-0.1-0.4-0.3-0.5-0.5l-1.4-2.4c-0.8,0.2-1.5,0.6-2,1.1 l1.4,2.4c0.2,0.3,0.2,0.6,0.1,0.9c-0.1,0.2-0.2,0.5-0.3,0.7c-0.1,0.2-0.3,0.3-0.6,0.2l-2-1.1c-0.1,0.5-0.1,1-0.1,1.6 s0,1.1,0.1,1.7l2,1.1c0.3,0.2,0.5,0.5,0.6,0.9C96.2,69.9,96.3,70.2,96.4,70.6z M104.8,72.4c0,1.9-1.4,2.7-3.1,1.8 c-1.8-1.2-2.9-3.1-3.1-5.3c0-1.9,1.4-2.7,3.1-1.8C103.5,68.3,104.6,70.2,104.8,72.4z"></path> <path class="st41" d="M89.1,70.4l0.6-1.5v-1.8c0,0,1.8-0.9,1.4-1.3s-1.4-0.1-1.4-0.1v-2.9c0,0-2.7,1.5-2.2,6.2l-0.9,2.2L89.1,70.4 z"></path> <path class="st42" d="M76.8,84.3l9.7-13.9c0,0,3.1-0.9,3.3,0.6l-6.4,16L76.8,84.3z"></path> <linearGradient id="SVGID_28_" gradientUnits="userSpaceOnUse" x1="98.95" y1="646.7561" x2="111.92" y2="646.7561" gradientTransform="matrix(1 0 0 1 -22.15 -568.19)"> <stop offset="0" style="stop-color:#87ADF0"></stop> <stop offset="0.99" style="stop-color:#D8E7FD"></stop> </linearGradient> <path class="st43" d="M76.8,84.3l9.7-13.9c0,0,3.1-0.9,3.3,0.6l-6.4,16L76.8,84.3z"></path> <path class="st41" d="M79.7,67.5c0,0,2.3,7.6,1.2,8.2c-0.8,0.4-1.8,0.7-2.7,0.9l0.3,5.7c0,0-5.2,1.5-6.2,1s0-8.2,0-8.2l-0.4-8.4 L79.7,67.5z"></path> <linearGradient id="SVGID_29_" gradientUnits="userSpaceOnUse" x1="95.5" y1="645.39" x2="101.97" y2="645.39" gradientTransform="matrix(1 0 0 1 -22.15 -568.19)"> <stop offset="0.11" style="stop-color:#C65446"></stop> <stop offset="1" style="stop-color:#C65446;stop-opacity:0"></stop> </linearGradient> <path class="st44" d="M78.3,76.6c0.5-0.1,1.1-0.3,1.6-0.4c-3.4,0.3-4.5-1.5-4.5-1.5l-2-0.2l5.1,5.4L78.3,76.6z"></path> <linearGradient id="SVGID_30_" gradientUnits="userSpaceOnUse" x1="81.3178" y1="671.1006" x2="112.483" y2="671.1006" gradientTransform="matrix(1 0 0 1 -22.15 -568.19)"> <stop offset="0" style="stop-color:#87ADF0"></stop> <stop offset="0.99" style="stop-color:#D8E7FD"></stop> </linearGradient> <path class="st45" d="M77.2,81.2c0,0,7.5,4,10.2,5.7s2.3,9.2,2.3,14.9s-0.1,14.9,0.5,17.5s-2.4,5.9-7.4,6.8s-14.9-1.4-17.2-2.5 s-4.8-3.2-3.3-10.6S62.2,91.6,63,89.6c0,0-4.9-2.4-3.7-5.4S67.8,77.2,77.2,81.2z"></path> <linearGradient id="SVGID_31_" gradientUnits="userSpaceOnUse" x1="94.2893" y1="649.5598" x2="90.1192" y2="670.2297" gradientTransform="matrix(1 0 0 1 -22.15 -568.19)"> <stop offset="0" style="stop-color:#406AEB;stop-opacity:0"></stop> <stop offset="0.99" style="stop-color:#2B45AE"></stop> </linearGradient> <path class="st46" d="M63,89.6c-0.3,0.8-0.2,3.4-0.2,6.6c6.4,0.4,15.5-8.2,15.5-8.2C74.7,90.9,65.8,91.3,63,89.6z"></path> <linearGradient id="SVGID_32_" gradientUnits="userSpaceOnUse" x1="103.72" y1="671.79" x2="111.92" y2="671.79" gradientTransform="matrix(1 0 0 1 -22.15 -568.19)"> <stop offset="0" style="stop-color:#406AEB;stop-opacity:0"></stop> <stop offset="0.99" style="stop-color:#2B45AE"></stop> </linearGradient> <path class="st47" d="M89.8,96.8l-8.2-2.7l8.2,19c-0.1-3.7-0.1-8.2,0-11.5C89.7,100.2,89.8,98.5,89.8,96.8z"></path> <linearGradient id="SVGID_33_" gradientUnits="userSpaceOnUse" x1="106.262" y1="714.8362" x2="83.762" y2="744.1662" gradientTransform="matrix(1 0 0 1 -22.15 -568.19)"> <stop offset="7.000000e-02" style="stop-color:#1C1C75"></stop> <stop offset="1" style="stop-color:#1C1C75;stop-opacity:0"></stop> </linearGradient> <path class="st48" d="M63.8,159.9v0.2c-2.2,4.2-4.8,25.8-5.7,29.5s3.7,1.2,3.7,1.2c6.3-15.1,11.4-34.8,14.7-49.3 C76.5,141.5,72,152.3,63.8,159.9z"></path> <path class="st41" d="M112.2,82.2V82l0.5-4.3c0,0,0-7.5,0.7-7.6s1,2.8,1.3,2.9s0.8-3.7,0.8-3.7s2.9,4.3,1.2,6.4s-2,7.2-2,7.2 L112.2,82.2z"></path> <linearGradient id="SVGID_34_" gradientUnits="userSpaceOnUse" x1="102.5337" y1="661.7996" x2="137.8564" y2="661.7996" gradientTransform="matrix(1 0 0 1 -22.15 -568.19)"> <stop offset="0" style="stop-color:#87ADF0"></stop> <stop offset="0.99" style="stop-color:#D8E7FD"></stop> </linearGradient> <path class="st49" d="M104.6,95.2c0,0-13.7-6.4-17.7-8.7s-6.7,1.3-6.4,6.4s11.1,10.5,17.2,12.9s12.8,0.1,14.4-6.9 s3.7-17.5,3.7-17.5l-4.1-0.9L104.6,95.2z"></path> <path class="st36" d="M72.5,63.5c1.1-1.4,2.9-1.9,4.5-1.2c3.7-0.6,6,1,5.4,3.3c-0.6,2.3-4.5,4.2-6.8,4.2c1,1.7,1.6,2.3,0.7,2.4 s-2.2-1-2.2,0c0.1,0.9,0.6,1.7,1.2,2.4c0,0-0.5,4.7-1.8,4.7s-6.6-4-6.8-8.7S70.6,62.4,72.5,63.5z"></path> <linearGradient id="SVGID_35_" gradientUnits="userSpaceOnUse" x1="84.4049" y1="824.9205" x2="84.4049" y2="861.1505" gradientTransform="matrix(0.9626 -0.2708 0.2708 0.9626 -111.4352 -637.0516)"> <stop offset="0" style="stop-color:#FFCB8B"></stop> <stop offset="1" style="stop-color:#FDA347"></stop> </linearGradient> <path class="st50" d="M206.4,141.5c-4.3,5.3-6.3,12.2-5.4,19l-1.7-6.1c-0.7-2.3-0.7-4.8-0.1-7.2c0.8-2.5,1.4-5.1,1.7-7.7 c0.2-5.3-5.9-11.2-6.2-14.9c0,0-4.8,9-3.1,16.5c1.3,5.7,4.8,11.3,6.4,13.7c0.3,0.4,0.5,0.9,0.6,1.4l1.9,6.6 c-2.9-5.5-7.8-9.6-13.7-11.7c0.4,2.2,1,4.4,1.9,6.6c2.4,6.8,9.9,6.9,13.1,9.6l4.4,15.7l1.1-0.3l-4.4-15.6 c-0.7-2.6-0.2-5.4,1.4-7.5c2.2-3,5.1-6.5,4.1-11.5C207.9,145.9,207.2,143.7,206.4,141.5z"></path> <linearGradient id="SVGID_36_" gradientUnits="userSpaceOnUse" x1="87.7439" y1="820.6105" x2="87.7439" y2="838.8905" gradientTransform="matrix(0.9626 -0.2708 0.2708 0.9626 -111.4352 -637.0516)"> <stop offset="0" style="stop-color:#F47621"></stop> <stop offset="0.1" style="stop-color:#F47627;stop-opacity:0.9"></stop> <stop offset="0.22" style="stop-color:#F47621;stop-opacity:0.8"></stop> <stop offset="0.36" style="stop-color:#F47621;stop-opacity:0.81"></stop> <stop offset="0.51" style="stop-color:#F47621;stop-opacity:0.66"></stop> <stop offset="0.67" style="stop-color:#F47621;stop-opacity:0.48"></stop> <stop offset="0.84" style="stop-color:#F47621;stop-opacity:0.25"></stop> <stop offset="1" style="stop-color:#F47621;stop-opacity:0"></stop> </linearGradient> <path class="st51" d="M199.3,154.4c-0.7-2.3-0.7-4.8-0.1-7.2c0.8-2.5,1.4-5.1,1.7-7.7c0.2-5.3-5.9-11.2-6.2-14.9 C193.3,132.3,196,143.5,199.3,154.4z"></path> <linearGradient id="SVGID_37_" gradientUnits="userSpaceOnUse" x1="-864.7336" y1="584.0854" x2="-864.7336" y2="616.6154" gradientTransform="matrix(-0.99 -0.16 -0.16 0.99 -521.45 -613.71)"> <stop offset="0" style="stop-color:#FFCB8B"></stop> <stop offset="1" style="stop-color:#FDA347"></stop> </linearGradient> <path class="st52" d="M230.2,110.3c4.4,4.3,6.9,10.2,6.8,16.4l0.9-5.6c0.3-2.2,0.1-4.4-0.7-6.4c-1-2.1-1.8-4.4-2.3-6.7 c-0.8-4.7,4.1-10.6,4-13.9c0,0,5.2,7.6,4.5,14.4c-0.6,5.2-3.1,10.6-4.3,12.9c-0.2,0.4-0.3,0.8-0.4,1.3l-1,6.1c2-5.2,6-9.4,11-11.8 c-0.2,2-0.5,4-1,6c-1.5,6.3-8.1,7.2-10.7,9.9l-2.3,14.5l-1-0.2l2.4-14.3c0.4-2.4-0.4-4.8-2-6.6c-2.3-2.4-5.2-5.2-4.8-9.8 C229.4,114.4,229.7,112.3,230.2,110.3z"></path> <linearGradient id="SVGID_38_" gradientUnits="userSpaceOnUse" x1="-861.7186" y1="580.2154" x2="-861.7186" y2="596.6354" gradientTransform="matrix(-0.99 -0.16 -0.16 0.99 -521.45 -613.71)"> <stop offset="0" style="stop-color:#F47621"></stop> <stop offset="0.1" style="stop-color:#F47627;stop-opacity:0.9"></stop> <stop offset="0.22" style="stop-color:#F47621;stop-opacity:0.8"></stop> <stop offset="0.36" style="stop-color:#F47621;stop-opacity:0.81"></stop> <stop offset="0.51" style="stop-color:#F47621;stop-opacity:0.66"></stop> <stop offset="0.67" style="stop-color:#F47621;stop-opacity:0.48"></stop> <stop offset="0.84" style="stop-color:#F47621;stop-opacity:0.25"></stop> <stop offset="1" style="stop-color:#F47621;stop-opacity:0"></stop> </linearGradient> <path class="st53" d="M237.9,121.1c0.3-2.2,0.1-4.4-0.7-6.4c-1-2.1-1.8-4.4-2.3-6.7c-0.8-4.7,4.1-10.6,4-13.9 C241,100.8,239.7,111.1,237.9,121.1z"></path> <linearGradient id="SVGID_39_" gradientUnits="userSpaceOnUse" x1="195.6308" y1="695.9574" x2="239.3008" y2="809.6174" gradientTransform="matrix(1 0 0 1 -22.15 -568.19)"> <stop offset="0" style="stop-color:#FF905A"></stop> <stop offset="1" style="stop-color:#F47621"></stop> </linearGradient> <path class="st54" d="M138.7,246.9c0,0,4.2-39.4,15.7-42.1s19.2,13,19.2,13s-1.2-39,13.3-44.1s17.3,20.9,17.3,20.9 s5.6-69.8,18.3-72s13.3,34,13.3,34s9.7-34,16.7-31.4S256.5,231,138.7,246.9z"></path> <path class="st20" d="M192.3,209.8l3.5-21.8l-0.5-0.1l-3.2,19.7c-1-11.6-2.2-22.7-2.2-22.9l-0.6,0.1c0,0.3,2.1,20.3,3.2,34.6 c-4-5.3-7.6-10.9-10.8-16.7l-0.5,0.2c3.4,6.1,7.2,11.9,11.4,17.5c0.3,3.9,0.5,7.4,0.6,9.7l0.5-0.3 C193.6,225.4,193,217.7,192.3,209.8z"></path> <path class="st20" d="M220.9,210.1c2.1-14.1,3.3-28.2,3.6-42.5h0.1l5.9-14.8l-0.5-0.2l-5.4,13.7c0.2-13.2-0.4-21.3-0.4-21.5h-0.6 c0,0.2,1.5,19-0.9,45.7c-4.6-10.9-7.8-26.3-7.8-26.4l-0.5,0.1c0,0.2,3.4,16.5,8.3,27.5c-0.6,6-1.3,12.4-2.3,19L220.9,210.1z"></path> </g> </g> <g id="a_laptop_2_"> <g> <polygon class="st55" points="122,116.4 130.7,121.4 130.7,123.8 122,118.8 "></polygon> </g> </g> <g id="scientist_2_"> </g> </svg> 