<?xml version="1.0" encoding="utf-8"?>
<!-- Generator: Adobe Illustrator 16.0.0, SVG Export Plug-In . SVG Version: 6.00 Build 0)  -->
<!DOCTYPE svg PUBLIC "-//W3C//DTD SVG 1.1//EN" "http://www.w3.org/Graphics/SVG/1.1/DTD/svg11.dtd">
<svg version="1.1" id="Слой_1" xmlns="http://www.w3.org/2000/svg" xmlns:xlink="http://www.w3.org/1999/xlink" x="0px" y="0px"
	 width="435px" height="406px" viewBox="0 0 435 406" enable-background="new 0 0 435 406" xml:space="preserve">
<path opacity="0.5" fill="#173D7A" d="M235.118,350.889l-129.298-74.65c-2.906-1.678-2.906-5.871,0-7.549l122.94-70.972
	l137.554,79.417c2.905,1.678,2.905,5.871,0,7.549l-114.686,66.205C246.521,353.838,240.227,353.838,235.118,350.889z"/>
<g>
	<g>
		<path fill="#C66422" d="M231.389,157.995c0.007-8.21-5.775-11.555-12.89-7.457L97.572,220.212
			c-1.956,1.126-3.543,3.871-3.545,6.128s1.582,3.174,3.538,2.047l120.927-69.673c3.209-1.849,5.815-0.34,5.813,3.363l-0.012,13.523
			c2.346-0.146,4.701-0.148,7.079-0.107L231.389,157.995z"/>
		<path fill="#C66422" d="M97.52,252.705l120.927-44.066c7.114-4.099,12.908-14.113,12.915-22.323l0.01-10.822
			c-2.378-0.042-4.733-0.039-7.079,0.107l-0.014,14.797c-0.003,3.703-2.616,8.219-5.824,10.067L97.527,244.529
			c-1.956,1.127-3.543,3.871-3.545,6.129C93.98,252.914,95.564,253.832,97.52,252.705z"/>
	</g>
	<polygon fill="#C66422" points="94.897,252.867 242.001,337.986 366.546,263.712 376.427,248.965 375.4,254.189 372.746,240.511 
		141.558,249.328 100.826,246.705 	"/>
	<polygon fill="#FDD762" points="99.776,227.18 99.736,245.287 241.91,327.541 245.751,310.283 	"/>
	<polygon fill="#ED852F" points="374.594,234.689 227.725,149.718 95.307,226.724 95.034,228.615 242.119,313.711 	"/>
	<g>
		<path fill="#FFFFFF" d="M327.772,278.324l34.531-20.484c2.909-2.045,5.19-6.177,5.193-9.631l0.026-2.712
			c0.001-2.194-0.917-3.609-2.33-4.021l-67.978,37.816l-55.356,29.939l0.051,18.309L327.772,278.324z"/>
	</g>
	<path fill="#C66422" d="M246.823,310.904l-145.937-84.432l-3.093-1.789l-2.826-1.635c-0.578,1.06-0.94,2.227-0.94,3.291
		c-0.001,1.109,0.384,1.891,1.006,2.269l0.001,0.007l0.023,0.014l0.011,0.006l147.052,85.076L246.823,310.904z"/>
	<polygon fill="#FFFFFF" points="240.166,336.926 242.001,337.986 242.339,337.402 241.196,336.504 	"/>
	<polygon fill="#FFFFFF" points="240.214,312.605 242.094,313.692 241.623,312.666 	"/>
	<g>
		<path fill="#ED852F" d="M244.656,305.307l120.927-69.673c7.114-4.099,12.896-0.754,12.89,7.456l-0.025,2.713
			c-0.008,8.211-5.802,18.225-12.916,22.324L244.604,337.8c-1.956,1.126-3.54,0.21-3.538-2.047s1.59-5.001,3.545-6.128
			l120.928-69.674c3.208-1.848,5.821-6.363,5.824-10.066l0.025-2.713c0.003-3.703-2.604-5.212-5.813-3.363l-120.928,69.674
			c-1.955,1.126-3.54,0.209-3.538-2.048C241.113,309.178,242.7,306.434,244.656,305.307z"/>
	</g>
	<g>
		<path fill="#FFFFFF" d="M241.066,335.753c0.002-2.257,1.59-5.001,3.545-6.128l120.928-69.674
			c3.209-1.848,5.821-6.363,5.824-10.066l0.025-2.713c0.002-2.426-1.118-3.9-2.79-4.117c0.538,0.708,0.854,1.717,0.853,2.996
			l-0.025,2.713c-0.003,3.703-2.616,8.219-5.824,10.066l-120.928,69.674c-1.955,1.127-3.543,3.871-3.545,6.128
			c-0.002,1.71,0.909,2.646,2.201,2.511C241.162,336.764,241.065,336.299,241.066,335.753z"/>
		<path fill="#FFFFFF" d="M241.11,311.435c0.003-2.257,1.591-5.001,3.546-6.128l120.928-69.673c3.063-1.766,5.877-2.143,8.091-1.353
			c-2.364-2.016-5.979-2.102-10.028,0.231l-120.928,69.673c-1.956,1.127-3.543,3.871-3.545,6.129
			c-0.002,1.71,0.909,2.645,2.201,2.51C241.206,312.445,241.11,311.981,241.11,311.435z"/>
	</g>
</g>
<g>
	<path fill="#173D7A" d="M379.528,109.858L249.057,34.53c-1.516-0.875-3.056-1.01-4.422-0.542l0.009-0.014l-0.237,0.09
		c-0.02,0.008-0.039,0.014-0.058,0.021l-4.715,1.805l4.231,2.072c-0.019,0.078-0.043,0.15-0.061,0.23l-21.252,96.737
		c-1.063,4.841,1.066,10.493,4.757,12.625l127.335,73.516l-0.454,5.396l5.153-1.998c1.73-0.81,3.117-2.641,3.69-5.249l21.251-96.737
		C385.35,117.642,383.22,111.99,379.528,109.858z"/>
	<path fill="#396CAA" d="M379.528,109.858L249.057,34.53c-1.516-0.875-3.056-1.01-4.422-0.542l0.009-0.014l-0.237,0.09
		c-0.02,0.008-0.039,0.014-0.058,0.021l-4.715,1.805l4.231,2.072c-0.019,0.078-0.043,0.15-0.061,0.23l-14.007,63.755l63.839,49.736
		l90.013-36.627C382.784,112.816,381.348,110.909,379.528,109.858z"/>
	<path fill="#274F89" d="M374.608,124.729l9.933-4.229c0.182-3.846-1.41-7.82-4.024-9.945l-15.721,6.613L374.608,124.729z"/>
	<path fill="#D4ECFF" d="M349.657,225.953l-130.472-75.328c-3.691-2.131-5.821-7.783-4.758-12.624l21.252-96.737
		c1.063-4.842,4.918-7.039,8.608-4.908l130.473,75.328c3.69,2.131,5.82,7.783,4.757,12.624l-21.252,96.738
		C357.202,225.888,353.349,228.085,349.657,225.953z"/>
	<path fill="#FFFFFF" d="M376.014,111.227L245.541,35.899c-1.788-1.032-3.608-1.031-5.138-0.223
		c1.228-0.269,2.564-0.082,3.885,0.682l130.473,75.327c3.69,2.131,5.82,7.784,4.757,12.625l-21.252,96.736
		c-0.548,2.496-1.844,4.271-3.471,5.13c2.202-0.48,4.041-2.479,4.724-5.588l21.252-96.737
		C381.834,119.01,379.704,113.357,376.014,111.227z"/>
	<path fill="#FFFFFF" d="M346.829,218.758l-122.707-70.81c-3.377-1.95-5.326-7.122-4.353-11.552l19.447-88.522
		c0.973-4.43,4.5-6.441,7.877-4.491l122.707,70.81c3.377,1.95,5.326,7.122,4.354,11.552l-19.447,88.522
		C353.733,218.697,350.207,220.708,346.829,218.758z"/>
	<path fill="#173D7A" d="M346.829,218.758l-122.707-70.81c-3.377-1.95-5.326-7.122-4.353-11.552l19.447-88.522
		c0.973-4.43,4.5-6.441,7.877-4.491l122.707,70.81c3.377,1.95,5.326,7.122,4.354,11.552l-19.447,88.522
		C353.733,218.697,350.207,220.708,346.829,218.758z"/>
	<path fill="#5793CE" d="M347.898,218.322l-122.707-70.81c-3.377-1.95-5.326-7.122-4.353-11.552l19.447-88.523
		c0.492-2.242,1.642-3.856,3.092-4.66c-1.945,0.5-3.553,2.324-4.161,5.095l-19.447,88.522c-0.974,4.43,0.976,9.603,4.353,11.552
		l122.707,70.81c1.668,0.964,3.37,0.953,4.785,0.17C350.449,219.229,349.164,219.053,347.898,218.322z"/>
	<path fill="#173D7A" d="M351.459,229.234l-17.835-2.355l-115.126-66.468c-3.691-2.131-10.139-1.864-14.4,0.597L122.52,208.09
		l-10.784-1.424v6.119l0.01,0.001c-0.07,1.414,0.735,2.774,2.476,3.78l130.472,75.328c3.691,2.131,10.138,1.863,14.399-0.598
		l88.842-51.275c2.397-1.385,3.593-3.168,3.523-4.842l0,0V229.234z"/>
	<path fill="#396CAA" d="M264.957,187.234l-8.18-4.723h-89.925L122.52,208.09l-10.784-1.424v6.119l0.01,0.001
		c-0.07,1.414,0.735,2.774,2.476,3.78l130.472,75.328c1.95,1.125,4.671,1.575,7.432,1.393L264.957,187.234z"/>
	<path fill="#5793CE" d="M116.521,207.298l-4.786-0.632v6.119l0.01,0.001c-0.07,1.414,0.735,2.774,2.476,3.78l2.299,1.326V207.298z"
		/>
	<path fill="#274F89" d="M246.009,292.504c3.498,1.327,8.5,1.039,12.234-0.76v-13.648h-12.234V292.504z"/>
	<path fill="#D4ECFF" d="M244.694,285.782l-130.472-75.328c-3.691-2.131-3.228-5.853,1.034-8.313l88.842-51.276
		c4.262-2.46,10.709-2.728,14.4-0.597l130.472,75.328c3.691,2.131,3.229,5.854-1.034,8.314l-88.842,51.275
		C254.832,287.646,248.386,287.913,244.694,285.782z"/>
	<path fill="#FFFFFF" d="M347.937,231.675l-88.843,51.275c-4.262,2.461-10.708,2.728-14.399,0.598l-130.472-75.329
		c-1.21-0.697-1.965-1.568-2.294-2.51c-0.577,1.746,0.159,3.512,2.294,4.746l130.472,75.327c3.691,2.131,10.138,1.864,14.399-0.597
		l88.843-51.275c2.864-1.654,4.004-3.877,3.328-5.805C350.844,229.377,349.731,230.639,347.937,231.675z"/>
	<g>
		<path fill="#5793CE" d="M169.714,185.516l-5.903-3.408c-0.474-0.274-0.414-0.752,0.133-1.068l6.968-4.023
			c0.548-0.316,1.375-0.35,1.85-0.077l5.903,3.408c0.474,0.274,0.414,0.752-0.133,1.068l-6.968,4.023
			C171.016,185.755,170.188,185.79,169.714,185.516z"/>
		<path fill="#5793CE" d="M178.83,190.779l-5.903-3.408c-0.474-0.273-0.414-0.751,0.133-1.067l6.969-4.023
			c0.547-0.316,1.375-0.351,1.849-0.077l5.903,3.408c0.474,0.273,0.415,0.751-0.133,1.067l-6.968,4.023
			C180.133,191.019,179.305,191.053,178.83,190.779z"/>
		<path fill="#5793CE" d="M187.947,196.043l-5.903-3.408c-0.475-0.274-0.415-0.752,0.133-1.068l6.968-4.023
			c0.547-0.316,1.375-0.35,1.849-0.077l5.904,3.408c0.474,0.274,0.414,0.752-0.133,1.068l-6.969,4.023
			C189.249,196.282,188.421,196.317,187.947,196.043z"/>
		<path fill="#5793CE" d="M200.556,191.696l-5.903-3.408c-0.474-0.274-0.415-0.752,0.133-1.068l5.85-3.377
			c0.547-0.316,1.375-0.351,1.849-0.077l5.903,3.408c0.474,0.274,0.415,0.751-0.133,1.068l-5.849,3.377
			C201.857,191.936,201.029,191.97,200.556,191.696z"/>
		<path fill="#5793CE" d="M209.672,196.96l-5.903-3.409c-0.474-0.273-0.414-0.751,0.133-1.067l5.85-3.377
			c0.547-0.316,1.375-0.351,1.849-0.077l5.903,3.409c0.475,0.273,0.415,0.751-0.133,1.067l-5.849,3.377
			C210.974,197.199,210.146,197.233,209.672,196.96z"/>
		<path fill="#5793CE" d="M218.789,202.223l-5.903-3.408c-0.475-0.274-0.415-0.752,0.133-1.068l5.849-3.377
			c0.548-0.316,1.375-0.35,1.85-0.077l5.903,3.408c0.474,0.274,0.414,0.752-0.133,1.068l-5.85,3.377
			C220.091,202.462,219.263,202.497,218.789,202.223z"/>
		<path fill="#5793CE" d="M227.905,207.486l-5.903-3.408c-0.474-0.273-0.415-0.751,0.133-1.067l5.849-3.377
			c0.548-0.316,1.376-0.35,1.85-0.077l5.903,3.409c0.475,0.273,0.415,0.751-0.133,1.068l-5.849,3.377
			C229.207,207.726,228.379,207.76,227.905,207.486z"/>
		<path fill="#5793CE" d="M237.021,212.75l-5.903-3.408c-0.474-0.273-0.414-0.752,0.133-1.068l5.85-3.377
			c0.547-0.315,1.375-0.35,1.849-0.076l5.903,3.408c0.475,0.273,0.415,0.752-0.133,1.068l-5.849,3.377
			C238.323,212.989,237.496,213.023,237.021,212.75z"/>
		<path fill="#5793CE" d="M246.139,218.014l-5.903-3.408c-0.475-0.273-0.415-0.752,0.132-1.068l5.85-3.377
			c0.548-0.316,1.375-0.35,1.85-0.076l5.903,3.408c0.474,0.273,0.414,0.752-0.133,1.067l-5.85,3.377
			C247.44,218.253,246.612,218.287,246.139,218.014z"/>
		<path fill="#5793CE" d="M255.255,223.277l-5.903-3.408c-0.474-0.274-0.415-0.752,0.133-1.068l5.849-3.377
			c0.548-0.316,1.376-0.35,1.85-0.076l5.903,3.408c0.475,0.273,0.415,0.752-0.133,1.067l-5.849,3.377
			C256.557,223.516,255.729,223.551,255.255,223.277z"/>
		<path fill="#5793CE" d="M264.371,228.54l-5.903-3.408c-0.474-0.273-0.414-0.751,0.133-1.067l5.85-3.377
			c0.547-0.316,1.375-0.351,1.849-0.076l5.903,3.408c0.475,0.273,0.415,0.751-0.133,1.066l-5.849,3.378
			C265.673,228.779,264.846,228.814,264.371,228.54z"/>
		<path fill="#5793CE" d="M273.488,233.804l-5.903-3.408c-0.475-0.274-0.415-0.752,0.133-1.067l5.849-3.377
			c0.548-0.316,1.375-0.351,1.85-0.077l5.903,3.408c0.474,0.274,0.414,0.752-0.133,1.067l-5.85,3.377
			C274.79,234.043,273.962,234.077,273.488,233.804z"/>
		<path fill="#5793CE" d="M282.604,239.066l-5.903-3.408c-0.474-0.273-0.415-0.751,0.133-1.066l5.849-3.378
			c0.548-0.315,1.376-0.351,1.85-0.076l5.903,3.408c0.475,0.273,0.415,0.751-0.133,1.067l-5.849,3.377
			C283.906,239.307,283.078,239.341,282.604,239.066z"/>
		<path fill="#5793CE" d="M213.988,189.204l-5.903-3.408c-0.474-0.273-0.415-0.751,0.133-1.067l5.849-3.377
			c0.548-0.316,1.376-0.35,1.85-0.076l5.903,3.408c0.475,0.274,0.415,0.751-0.133,1.068l-5.849,3.377
			C215.29,189.444,214.462,189.478,213.988,189.204z"/>
		<path fill="#5793CE" d="M204.735,183.862l-5.903-3.408c-0.474-0.274-0.414-0.752,0.133-1.068l5.85-3.377
			c0.547-0.316,1.375-0.35,1.85-0.077l5.902,3.408c0.475,0.274,0.415,0.752-0.133,1.068l-5.849,3.377
			C206.037,184.102,205.21,184.136,204.735,183.862z"/>
		<path fill="#5793CE" d="M195.468,178.512l-12.714-7.341c-0.475-0.273-0.415-0.751,0.133-1.067l5.849-3.377
			c0.548-0.316,1.376-0.35,1.85-0.076l12.714,7.34c0.475,0.273,0.415,0.751-0.133,1.068l-5.849,3.377
			C196.77,178.751,195.941,178.785,195.468,178.512z"/>
		<path fill="#5793CE" d="M201.946,172.004l-10.318-5.957c-0.474-0.273-0.414-0.751,0.133-1.068l5.85-3.376
			c0.547-0.316,1.375-0.351,1.849-0.077l10.318,5.957c0.474,0.274,0.414,0.752-0.133,1.068l-5.85,3.377
			C203.248,172.244,202.42,172.278,201.946,172.004z"/>
		<path fill="#5793CE" d="M223.104,194.468l-5.903-3.408c-0.474-0.274-0.414-0.752,0.133-1.068l5.85-3.377
			c0.547-0.316,1.375-0.351,1.849-0.077l5.903,3.408c0.475,0.274,0.415,0.751-0.132,1.068l-5.85,3.377
			C224.406,194.707,223.579,194.741,223.104,194.468z"/>
		<path fill="#5793CE" d="M232.222,199.731l-5.903-3.408c-0.475-0.273-0.415-0.751,0.133-1.067l5.849-3.377
			c0.548-0.316,1.375-0.351,1.85-0.077l5.903,3.409c0.474,0.273,0.414,0.751-0.133,1.067l-5.85,3.377
			C233.523,199.971,232.695,200.005,232.222,199.731z"/>
		<path fill="#5793CE" d="M241.338,204.994l-5.903-3.408c-0.474-0.273-0.415-0.751,0.133-1.068l5.85-3.377
			c0.547-0.316,1.375-0.35,1.849-0.077l5.903,3.408c0.475,0.274,0.415,0.752-0.133,1.068l-5.849,3.377
			C242.64,205.234,241.812,205.268,241.338,204.994z"/>
		<path fill="#5793CE" d="M250.454,210.258l-5.903-3.408c-0.474-0.273-0.414-0.752,0.133-1.067l5.85-3.377
			c0.547-0.316,1.375-0.35,1.849-0.076l5.904,3.408c0.474,0.273,0.414,0.752-0.133,1.068l-5.85,3.377
			C251.756,210.498,250.929,210.531,250.454,210.258z"/>
		<path fill="#5793CE" d="M259.571,215.521l-5.903-3.408c-0.475-0.273-0.415-0.752,0.133-1.068l5.849-3.377
			c0.548-0.315,1.375-0.35,1.85-0.076l5.903,3.408c0.474,0.273,0.414,0.752-0.133,1.068l-5.85,3.377
			C260.873,215.761,260.045,215.795,259.571,215.521z"/>
		<path fill="#5793CE" d="M268.688,220.785l-5.903-3.408c-0.474-0.273-0.415-0.752,0.133-1.068l5.85-3.377
			c0.547-0.316,1.375-0.35,1.849-0.076l5.903,3.408c0.474,0.273,0.415,0.752-0.133,1.067l-5.849,3.377
			C269.989,221.024,269.161,221.059,268.688,220.785z"/>
		<path fill="#5793CE" d="M277.804,226.049l-5.903-3.408c-0.474-0.274-0.414-0.752,0.133-1.068l5.85-3.377
			c0.547-0.316,1.375-0.35,1.849-0.076l5.904,3.408c0.474,0.273,0.414,0.751-0.133,1.067l-5.85,3.377
			C279.105,226.287,278.278,226.322,277.804,226.049z"/>
		<path fill="#5793CE" d="M286.921,231.313l-5.903-3.409c-0.475-0.273-0.415-0.751,0.133-1.067l5.849-3.377
			c0.548-0.316,1.375-0.351,1.85-0.076l5.903,3.408c0.474,0.273,0.414,0.751-0.133,1.066l-5.85,3.377
			C288.223,231.551,287.395,231.586,286.921,231.313z"/>
		<path fill="#5793CE" d="M296.037,236.575l-5.903-3.408c-0.474-0.274-0.415-0.752,0.133-1.067l5.85-3.377
			c0.547-0.316,1.375-0.351,1.849-0.077l5.903,3.408c0.474,0.274,0.415,0.752-0.133,1.067l-5.849,3.377
			C297.339,236.814,296.511,236.85,296.037,236.575z"/>
		<path fill="#5793CE" d="M312.244,245.933l-12.881-7.437c-0.474-0.273-0.414-0.752,0.133-1.068l5.85-3.377
			c0.547-0.316,1.375-0.35,1.85-0.076l12.88,7.437c0.475,0.273,0.415,0.751-0.133,1.067l-5.849,3.377
			C313.546,246.172,312.719,246.206,312.244,245.933z"/>
		<path fill="#5793CE" d="M329.993,235.686l-10.872-6.277c-0.474-0.273-0.414-0.752,0.133-1.067l5.85-3.377
			c0.547-0.316,1.375-0.351,1.849-0.077l10.872,6.277c0.474,0.273,0.415,0.752-0.133,1.067l-5.85,3.377
			C331.295,235.924,330.467,235.959,329.993,235.686z"/>
		<path fill="#5793CE" d="M239.069,193.438l-5.903-3.408c-0.474-0.274-0.414-0.752,0.133-1.068l5.85-3.377
			c0.547-0.316,1.375-0.35,1.85-0.077l5.903,3.408c0.474,0.274,0.414,0.751-0.133,1.068l-5.85,3.377
			C240.372,193.677,239.544,193.711,239.069,193.438z"/>
		<path fill="#5793CE" d="M229.727,188.043l-5.903-3.408c-0.474-0.273-0.415-0.751,0.133-1.067l5.849-3.377
			c0.548-0.316,1.376-0.35,1.85-0.077l5.903,3.408c0.474,0.274,0.415,0.752-0.133,1.068l-5.849,3.377
			C231.028,188.283,230.2,188.317,229.727,188.043z"/>
		<path fill="#5793CE" d="M220.383,182.649l-5.903-3.408c-0.474-0.273-0.414-0.751,0.133-1.067l5.85-3.377
			c0.547-0.316,1.375-0.35,1.85-0.076l5.903,3.408c0.474,0.273,0.414,0.751-0.133,1.067l-5.85,3.377
			C221.686,182.889,220.857,182.923,220.383,182.649z"/>
		<path fill="#5793CE" d="M211.04,177.255l-5.903-3.408c-0.475-0.274-0.415-0.752,0.133-1.068l5.849-3.377
			c0.548-0.316,1.376-0.351,1.85-0.077l5.903,3.408c0.474,0.274,0.415,0.751-0.133,1.068l-5.85,3.377
			C212.342,177.494,211.514,177.528,211.04,177.255z"/>
		<path fill="#5793CE" d="M248.187,198.701l-5.903-3.408c-0.475-0.273-0.415-0.751,0.133-1.067l5.849-3.377
			c0.548-0.316,1.376-0.35,1.85-0.077l5.903,3.409c0.474,0.273,0.414,0.751-0.133,1.067l-5.85,3.377
			C249.488,198.941,248.66,198.975,248.187,198.701z"/>
		<path fill="#5793CE" d="M257.303,203.965l-5.903-3.408c-0.474-0.274-0.414-0.752,0.133-1.068l5.85-3.377
			c0.547-0.316,1.375-0.351,1.849-0.077l5.903,3.408c0.475,0.273,0.415,0.751-0.133,1.068l-5.849,3.377
			C258.604,204.204,257.777,204.238,257.303,203.965z"/>
		<path fill="#5793CE" d="M266.419,209.229l-5.903-3.408c-0.474-0.273-0.414-0.752,0.133-1.068l5.85-3.377
			c0.547-0.316,1.375-0.35,1.85-0.077l5.903,3.409c0.474,0.273,0.414,0.752-0.133,1.067l-5.85,3.377
			C267.722,209.467,266.894,209.502,266.419,209.229z"/>
		<path fill="#5793CE" d="M275.536,214.492l-5.903-3.408c-0.475-0.274-0.415-0.752,0.133-1.068l5.849-3.377
			c0.548-0.316,1.376-0.351,1.85-0.076l5.903,3.408c0.474,0.273,0.414,0.751-0.133,1.067l-5.85,3.377
			C276.838,214.73,276.01,214.766,275.536,214.492z"/>
		<path fill="#5793CE" d="M284.652,219.755l-5.903-3.408c-0.474-0.273-0.414-0.751,0.133-1.067l5.85-3.377
			c0.547-0.316,1.375-0.351,1.849-0.077l5.903,3.409c0.475,0.273,0.415,0.751-0.133,1.066l-5.849,3.377
			C285.954,219.994,285.127,220.029,284.652,219.755z"/>
		<path fill="#5793CE" d="M293.77,225.019l-5.904-3.408c-0.474-0.274-0.414-0.752,0.133-1.067l5.85-3.377
			c0.547-0.316,1.375-0.351,1.85-0.077l5.903,3.408c0.474,0.274,0.414,0.752-0.133,1.067l-5.85,3.377
			C295.071,225.258,294.243,225.292,293.77,225.019z"/>
		<path fill="#5793CE" d="M302.886,230.281l-5.903-3.407c-0.475-0.274-0.415-0.752,0.133-1.067l5.849-3.378
			c0.548-0.315,1.376-0.351,1.85-0.077l5.903,3.409c0.474,0.273,0.415,0.751-0.133,1.067l-5.85,3.377
			C304.188,230.521,303.359,230.556,302.886,230.281z"/>
		<path fill="#5793CE" d="M312.002,235.545l-5.903-3.408c-0.474-0.273-0.414-0.752,0.133-1.067l5.85-3.377
			c0.547-0.315,1.375-0.351,1.849-0.077l5.903,3.408c0.475,0.274,0.415,0.752-0.133,1.068l-5.849,3.377
			C313.304,235.785,312.477,235.818,312.002,235.545z"/>
		<path fill="#5793CE" d="M321.119,240.809l-5.904-3.408c-0.474-0.273-0.414-0.752,0.133-1.067l5.85-3.378
			c0.547-0.315,1.375-0.35,1.85-0.076l5.903,3.408c0.474,0.273,0.414,0.752-0.133,1.068l-5.85,3.377
			C322.421,241.048,321.593,241.082,321.119,240.809z"/>
		<path fill="#5793CE" d="M234.27,180.419l-5.903-3.408c-0.475-0.273-0.415-0.751,0.133-1.067l5.849-3.377
			c0.548-0.316,1.376-0.35,1.85-0.077l5.903,3.408c0.474,0.274,0.415,0.752-0.133,1.068l-5.85,3.377
			C235.571,180.658,234.743,180.693,234.27,180.419z"/>
		<path fill="#5793CE" d="M225.198,175.182l-5.903-3.408c-0.474-0.274-0.415-0.752,0.133-1.068l5.85-3.377
			c0.547-0.316,1.375-0.351,1.849-0.077l5.903,3.409c0.474,0.273,0.415,0.751-0.133,1.067l-5.849,3.377
			C226.5,175.421,225.672,175.456,225.198,175.182z"/>
		<path fill="#5793CE" d="M216.127,169.945l-5.903-3.409c-0.474-0.273-0.414-0.751,0.133-1.067l5.85-3.377
			c0.547-0.316,1.375-0.351,1.849-0.077l5.903,3.408c0.475,0.273,0.415,0.751-0.133,1.067l-5.849,3.377
			C217.429,170.184,216.601,170.218,216.127,169.945z"/>
		<path fill="#5793CE" d="M207.056,164.708l-5.903-3.408c-0.474-0.274-0.414-0.752,0.133-1.068l5.85-3.377
			c0.547-0.316,1.375-0.351,1.849-0.077l5.903,3.408c0.475,0.273,0.415,0.751-0.133,1.068l-5.849,3.377
			C208.357,164.947,207.53,164.981,207.056,164.708z"/>
		<path fill="#5793CE" d="M216.384,159.322l-5.903-3.408c-0.474-0.273-0.415-0.751,0.133-1.068l1.934-1.116
			c0.547-0.316,1.375-0.351,1.85-0.077l5.903,3.408c0.474,0.274,0.414,0.752-0.133,1.068l-1.934,1.116
			C217.686,159.561,216.857,159.596,216.384,159.322z"/>
		<path fill="#5793CE" d="M228.222,166.156l-5.903-3.408c-0.474-0.273-0.415-0.751,0.133-1.067l1.934-1.117
			c0.547-0.316,1.375-0.35,1.85-0.077l5.903,3.409c0.474,0.273,0.414,0.751-0.133,1.067l-1.934,1.116
			C229.523,166.396,228.695,166.43,228.222,166.156z"/>
		<path fill="#5793CE" d="M237.255,171.372l-5.903-3.408c-0.474-0.274-0.414-0.752,0.133-1.068l1.934-1.116
			c0.548-0.316,1.375-0.351,1.85-0.077l5.903,3.408c0.474,0.273,0.414,0.751-0.133,1.067l-1.934,1.117
			C238.557,171.611,237.729,171.646,237.255,171.372z"/>
		<path fill="#5793CE" d="M246.288,176.587l-5.903-3.408c-0.474-0.274-0.414-0.752,0.133-1.068l1.934-1.116
			c0.548-0.316,1.376-0.351,1.85-0.077l5.903,3.408c0.474,0.273,0.414,0.751-0.133,1.068l-1.934,1.116
			C247.591,176.827,246.763,176.861,246.288,176.587z"/>
		<path fill="#5793CE" d="M255.322,181.803l-5.903-3.408c-0.475-0.274-0.415-0.752,0.133-1.068l1.933-1.116
			c0.548-0.316,1.376-0.351,1.85-0.077l5.903,3.408c0.474,0.274,0.415,0.751-0.133,1.068l-1.934,1.116
			C256.624,182.042,255.796,182.076,255.322,181.803z"/>
		<path fill="#5793CE" d="M305.754,210.92l-5.903-3.408c-0.474-0.273-0.415-0.752,0.133-1.068l1.934-1.115
			c0.547-0.316,1.375-0.352,1.849-0.078l5.903,3.409c0.475,0.273,0.415,0.751-0.132,1.067l-1.935,1.116
			C307.056,211.159,306.228,211.193,305.754,210.92z"/>
		<path fill="#5793CE" d="M314.787,216.135l-5.903-3.408c-0.474-0.273-0.414-0.752,0.133-1.067l1.934-1.116
			c0.548-0.316,1.375-0.351,1.85-0.076l5.903,3.408c0.474,0.273,0.414,0.751-0.133,1.066l-1.934,1.117
			C316.089,216.375,315.261,216.408,314.787,216.135z"/>
		<path fill="#5793CE" d="M323.82,221.351l-5.903-3.408c-0.474-0.274-0.414-0.751,0.133-1.067l1.934-1.117
			c0.548-0.315,1.375-0.35,1.85-0.076l5.903,3.408c0.474,0.273,0.414,0.752-0.133,1.068l-1.934,1.115
			C325.122,221.59,324.295,221.624,323.82,221.351z"/>
		<path fill="#5793CE" d="M332.854,226.566l-5.903-3.408c-0.474-0.274-0.414-0.752,0.133-1.068l1.934-1.116
			c0.548-0.315,1.376-0.351,1.85-0.077l5.903,3.408c0.474,0.274,0.414,0.752-0.133,1.068l-1.934,1.116
			C334.156,226.805,333.328,226.84,332.854,226.566z"/>
		<path fill="#5793CE" d="M243.386,185.683l-5.903-3.408c-0.474-0.273-0.414-0.751,0.133-1.067l5.85-3.377
			c0.547-0.316,1.375-0.351,1.849-0.077l5.903,3.408c0.475,0.273,0.415,0.751-0.133,1.068l-5.849,3.377
			C244.688,185.922,243.859,185.956,243.386,185.683z"/>
		<path fill="#5793CE" d="M252.503,190.946l-5.904-3.408c-0.474-0.273-0.414-0.751,0.133-1.067l5.85-3.377
			c0.548-0.316,1.375-0.35,1.85-0.077l5.903,3.409c0.474,0.273,0.414,0.751-0.133,1.067l-5.85,3.377
			C253.805,191.185,252.977,191.22,252.503,190.946z"/>
		<path fill="#5793CE" d="M261.619,196.209l-5.903-3.408c-0.475-0.274-0.415-0.752,0.133-1.068l5.849-3.377
			c0.548-0.316,1.376-0.351,1.85-0.077l5.903,3.408c0.474,0.274,0.415,0.751-0.133,1.068l-5.85,3.377
			C262.921,196.449,262.093,196.483,261.619,196.209z"/>
		<path fill="#5793CE" d="M270.735,201.473l-5.903-3.408c-0.474-0.273-0.414-0.751,0.133-1.067l5.85-3.377
			c0.547-0.316,1.375-0.35,1.849-0.077l5.903,3.409c0.475,0.273,0.415,0.751-0.133,1.067l-5.849,3.377
			C272.037,201.712,271.209,201.747,270.735,201.473z"/>
		<path fill="#5793CE" d="M279.853,206.736l-5.903-3.408c-0.475-0.274-0.415-0.752,0.132-1.068l5.85-3.377
			c0.548-0.316,1.375-0.35,1.85-0.077l5.903,3.408c0.474,0.273,0.414,0.752-0.133,1.068l-5.85,3.377
			C281.154,206.976,280.326,207.01,279.853,206.736z"/>
		<path fill="#5793CE" d="M288.969,212l-5.903-3.408c-0.475-0.273-0.415-0.752,0.133-1.068l5.849-3.377
			c0.548-0.316,1.376-0.35,1.85-0.076l5.903,3.408c0.474,0.273,0.415,0.752-0.133,1.067l-5.85,3.377
			C290.271,212.238,289.442,212.273,288.969,212z"/>
		<path fill="#5793CE" d="M298.085,217.264l-5.903-3.408c-0.474-0.274-0.414-0.752,0.133-1.068l5.85-3.377
			c0.547-0.316,1.375-0.351,1.849-0.076l5.903,3.408c0.475,0.273,0.415,0.751-0.133,1.067l-5.849,3.377
			C299.387,217.502,298.559,217.537,298.085,217.264z"/>
		<path fill="#5793CE" d="M307.202,222.527l-5.903-3.409c-0.475-0.273-0.415-0.751,0.132-1.067l5.85-3.377
			c0.548-0.316,1.375-0.351,1.85-0.077l5.903,3.409c0.474,0.273,0.414,0.751-0.133,1.066l-5.85,3.377
			C308.504,222.766,307.676,222.801,307.202,222.527z"/>
		<path fill="#5793CE" d="M316.318,227.79l-5.903-3.408c-0.475-0.274-0.415-0.752,0.133-1.067l5.849-3.377
			c0.548-0.316,1.376-0.351,1.85-0.077l5.903,3.408c0.474,0.274,0.415,0.752-0.133,1.067l-5.849,3.377
			C317.62,228.029,316.792,228.063,316.318,227.79z"/>
		<path fill="#5793CE" d="M191.266,186.333l-17.387-10.038c-0.474-0.274-0.414-0.752,0.133-1.068l5.85-3.377
			c0.547-0.316,1.375-0.35,1.85-0.077l17.386,10.038c0.474,0.273,0.414,0.751-0.133,1.068l-5.85,3.377
			C192.567,186.572,191.739,186.606,191.266,186.333z"/>
		<path fill="#5793CE" d="M303.264,250.995l-17.386-10.038c-0.474-0.273-0.414-0.752,0.133-1.067l5.85-3.377
			c0.547-0.316,1.375-0.351,1.849-0.077l17.387,10.038c0.474,0.273,0.414,0.751-0.133,1.067l-5.85,3.377
			C304.566,251.234,303.738,251.269,303.264,250.995z"/>
		<path fill="#5793CE" d="M266.806,241.572l-5.903-3.408c-0.474-0.273-0.414-0.752,0.133-1.068l6.968-4.022
			c0.548-0.315,1.375-0.351,1.85-0.077l5.903,3.408c0.474,0.274,0.414,0.752-0.133,1.068l-6.968,4.023
			C268.107,241.812,267.279,241.846,266.806,241.572z"/>
		<path fill="#5793CE" d="M200.602,203.349l-9.441-5.451c-0.474-0.273-0.415-0.751,0.133-1.067l6.968-4.023
			c0.548-0.316,1.375-0.351,1.85-0.077l9.441,5.451c0.474,0.273,0.414,0.751-0.133,1.068l-6.969,4.022
			C201.903,203.588,201.075,203.623,200.602,203.349z"/>
		<path fill="#5793CE" d="M258.021,236.5l-9.44-5.45c-0.475-0.273-0.415-0.751,0.133-1.067l6.968-4.023
			c0.547-0.316,1.375-0.35,1.849-0.076l9.441,5.451c0.474,0.273,0.415,0.751-0.133,1.066l-6.968,4.023
			C259.324,236.74,258.496,236.774,258.021,236.5z"/>
		<path fill="#5793CE" d="M213.755,210.943l-9.441-5.451c-0.474-0.273-0.415-0.752,0.133-1.068l6.968-4.022
			c0.548-0.316,1.375-0.35,1.85-0.077l9.44,5.451c0.475,0.273,0.415,0.752-0.133,1.068l-6.968,4.022
			C215.057,211.182,214.229,211.217,213.755,210.943z"/>
		<path fill="#5793CE" d="M213.327,200.362l41.047,23.699c0.51,0.294,0.51,0.771,0,1.064l-7.105,4.104
			c-0.509,0.293-1.335,0.293-1.844,0l-41.048-23.699L213.327,200.362z"/>
		<path fill="#5793CE" d="M292.285,251.115l6.575,3.797c0.389,0.225,0.34,0.615-0.108,0.875l-2.851,1.646
			c-0.448,0.259-1.127,0.287-1.516,0.063l-6.576-3.797c-0.388-0.225-0.339-0.616,0.109-0.875l2.851-1.646
			C291.218,250.919,291.896,250.891,292.285,251.115z"/>
		<path fill="#5793CE" d="M283.093,245.809l6.576,3.796c0.388,0.225,0.34,0.616-0.109,0.876l-2.851,1.645
			c-0.448,0.26-1.127,0.287-1.516,0.063l-6.575-3.797c-0.389-0.224-0.34-0.616,0.108-0.875l2.851-1.646
			C282.025,245.611,282.704,245.584,283.093,245.809z"/>
		<path fill="#5793CE" d="M273.977,240.545l6.575,3.797c0.389,0.224,0.34,0.615-0.108,0.875l-2.851,1.645
			c-0.448,0.26-1.127,0.288-1.516,0.063l-6.576-3.796c-0.388-0.225-0.34-0.617,0.109-0.875l2.851-1.646
			C272.909,240.349,273.588,240.32,273.977,240.545z"/>
		<path fill="#5793CE" d="M288.127,242.902l6.576,3.796c0.389,0.224,0.34,0.616-0.109,0.875l-2.85,1.646
			c-0.449,0.26-1.128,0.287-1.517,0.063l-6.575-3.796c-0.389-0.225-0.34-0.616,0.108-0.876l2.851-1.645
			C287.061,242.705,287.738,242.678,288.127,242.902z"/>
	</g>
	<g>
		<polygon fill="#D4ECFF" points="324.139,140.198 275.032,111.847 275.664,108.654 324.771,137.006 		"/>
		<polygon fill="#D4ECFF" points="306.551,145.585 272.272,125.794 272.904,122.602 307.183,142.393 		"/>
		<polygon fill="#FFFFFF" points="303.308,135.942 273.652,118.82 274.284,115.628 303.939,132.749 		"/>
		<polygon fill="#FDD762" points="322.759,147.172 307.932,138.611 308.563,135.418 323.391,143.979 		"/>
		<polygon fill="#D4ECFF" points="269.803,83.994 254.976,75.434 255.607,72.241 270.435,80.802 		"/>
		<polygon fill="#FFFFFF" points="268.194,91.413 253.366,82.853 253.998,79.66 268.826,88.221 		"/>
		<polygon fill="#D4ECFF" points="340.97,194.318 326.142,185.757 326.773,182.565 341.602,191.126 		"/>
		<polygon fill="#D4ECFF" points="264.977,106.251 250.148,97.69 250.78,94.498 265.607,103.059 		"/>
	</g>
	<g>
		<path fill="#FDD762" d="M297.014,108.55c-0.473,1.03-1.666,1.398-2.666,0.821c-1-0.578-1.428-1.881-0.955-2.912
			s1.666-1.398,2.666-0.821S297.485,107.519,297.014,108.55z"/>
		<path fill="#FFFFFF" d="M303.399,112.237c-0.472,1.031-1.666,1.398-2.665,0.821c-1-0.577-1.428-1.881-0.955-2.911
			c0.473-1.031,1.666-1.398,2.666-0.821C303.445,109.903,303.872,111.206,303.399,112.237z"/>
		<path fill="#D4ECFF" d="M309.786,115.924c-0.472,1.031-1.666,1.398-2.666,0.821c-0.999-0.577-1.427-1.881-0.954-2.911
			c0.472-1.031,1.666-1.398,2.666-0.821C309.831,113.59,310.259,114.894,309.786,115.924z"/>
		<path fill="#FDD762" d="M316.173,119.611c-0.473,1.031-1.666,1.398-2.666,0.821s-1.427-1.881-0.954-2.912
			c0.472-1.031,1.666-1.398,2.665-0.821C316.218,117.277,316.646,118.581,316.173,119.611z"/>
	</g>
</g>
<g>
	<path opacity="0.5" fill="#173D7A" d="M380.649,323.375c-1.985-1.146-5.204-1.146-7.189,0l-92.736,53.563
		c-1.985,1.146-1.985,3.004,0,4.15s5.204,1.146,7.189,0l92.737-53.563C382.636,326.38,382.636,324.521,380.649,323.375z"/>
	<g>
		<g>
			<path fill="#D4ECFF" d="M396.498,294.361L396.498,294.361c-0.089-0.152-0.265-0.229-0.437-0.191l-5.609,1.216l2.209,3.759
				l3.792-4.311C396.568,294.703,396.587,294.512,396.498,294.361z"/>
			<g>
				<path fill="#5793CE" d="M394.286,297.133c-0.007-0.809-0.582-1.789-1.286-2.188c-0.326-0.185-0.618-0.207-0.842-0.104
					c-6.482-0.053-12.858,1.653-18.447,4.938l-0.404,0.237l6.967,11.854l2.058-1.364c4.355-2.889,8.025-6.693,10.754-11.149
					l0.881-1.438C394.165,297.775,394.289,297.508,394.286,297.133z"/>
				<path fill="#D4ECFF" d="M381.673,308.714c-0.023-3.101-2.229-6.853-4.927-8.382s-4.863-0.256-4.839,2.844
					c0.023,3.101,2.229,6.854,4.927,8.383C379.53,313.088,381.697,311.814,381.673,308.714z"/>
				<polygon fill="#D4ECFF" points="338.92,337.635 380.273,311.872 373.307,300.018 330.687,323.629 				"/>
				<path fill="#D4ECFF" d="M340.573,333.904c-0.028-3.664-2.635-8.098-5.821-9.904c-3.187-1.808-5.747-0.303-5.719,3.36
					s2.635,8.098,5.822,9.904C338.042,339.071,340.603,337.566,340.573,333.904z"/>
			</g>
			<g>
				<path fill="#D4ECFF" d="M338.215,335.291c-0.029-3.664-2.636-8.098-5.822-9.904c-3.187-1.808-5.747-0.303-5.719,3.36
					c0.029,3.663,2.636,8.098,5.822,9.904S338.243,338.953,338.215,335.291z"/>
				
					<rect x="273.358" y="339.975" transform="matrix(-0.8621 0.5067 -0.5067 -0.8621 744.5034 493.5876)" fill="#D4ECFF" width="63.462" height="16.246"/>
				<path fill="#D4ECFF" d="M283.504,367.449c-0.028-3.664-2.635-8.098-5.821-9.904c-3.188-1.807-5.747-0.303-5.719,3.361
					c0.028,3.662,2.635,8.097,5.822,9.904C280.973,372.617,283.532,371.111,283.504,367.449z"/>
				<path fill="#396CAA" d="M281.438,366.277c-0.126-2.162-1.887-4.855-3.933-6.016s-3.603-0.348-3.477,1.814
					s1.887,4.855,3.933,6.016S281.564,368.439,281.438,366.277z"/>
			</g>
			<g>
				<path fill="#FFFFFF" d="M340.989,333.659c-0.028-3.663-2.635-8.098-5.821-9.904c-1.284-0.728-2.462-0.91-3.414-0.639
					c1.034-1.081,2.731-1.208,4.662-0.114c3.188,1.808,5.794,6.242,5.822,9.904c0.017,2.188-0.894,3.598-2.305,4
					C340.605,336.203,341.001,335.103,340.989,333.659z"/>
				<path fill="#5793CE" d="M340.989,333.659c-0.028-3.663-2.635-8.097-5.821-9.904c-1.594-0.903-3.031-0.979-4.065-0.37l-3.1,1.822
					l1.477,2.512c0.27,3.332,2.499,7.125,5.279,8.981l1.478,2.513l3.1-1.822l0,0C340.371,336.783,341.004,335.49,340.989,333.659z"
					/>
				<path fill="#D4ECFF" d="M337.89,335.481c-0.029-3.663-2.636-8.098-5.822-9.904c-3.187-1.808-5.747-0.302-5.718,3.36
					c0.028,3.664,2.635,8.098,5.821,9.904C335.357,340.649,337.918,339.145,337.89,335.481z"/>
			</g>
			<g>
				<path fill="#FF6600" d="M278.863,367.904l-3.552-6.043l-11.597,6.815c-1.669,0.981-2.227,3.129-1.245,4.798l0,0
					c0.98,1.669,3.129,2.227,4.798,1.246L278.863,367.904z"/>
				<path fill="#FF6600" d="M279.577,366.294c-0.013-1.581-1.137-3.493-2.512-4.273c-1.375-0.779-2.479-0.13-2.468,1.45
					c0.013,1.58,1.137,3.494,2.512,4.273S279.589,367.875,279.577,366.294z"/>
			</g>
			<g>
				<path fill="#5793CE" d="M292.466,344.962l-1.738-0.987c-0.999-0.564-2.32-0.424-3.721,0.398l-5.959,3.503
					c-1.124,0.661-2.031,2.261-2.021,3.565l0.023,2.982c0.004,0.5-0.241,1.075-0.6,1.498l0.223,1.383l-1.485-0.852l0.004-0.002
					c-0.215-0.109-0.352-0.359-0.355-0.727l-0.022-2.982c-0.021-2.721,1.869-6.055,4.215-7.434l5.959-3.503
					c1.991-1.17,3.87-1.371,5.291-0.565l1.738,0.986c0.999,0.566,2.319,0.425,3.72-0.398l24.021-14.119
					c0.311-0.182,0.591-0.197,0.794-0.077v-0.002l1.482,0.849l-1.27,0.488c-0.176,0.534-0.549,1.053-0.986,1.31l-24.021,14.119
					C295.765,345.566,293.886,345.768,292.466,344.962z"/>
				<path fill="#5793CE" d="M292.232,344.837c-0.999-0.565-2.32-0.425-3.72,0.397l-5.959,3.504c-1.125,0.66-2.032,2.26-2.022,3.564
					l0.023,2.982c0.006,0.709-0.485,1.576-1.097,1.935c-0.611,0.359-1.111,0.076-1.116-0.633l-0.023-2.983
					c-0.021-2.72,1.869-6.055,4.215-7.434l5.959-3.502c1.991-1.171,3.87-1.371,5.291-0.566l1.738,0.986
					c0.999,0.566,2.319,0.425,3.72-0.398l24.021-14.119c0.611-0.359,1.111-0.076,1.117,0.633s-0.485,1.576-1.097,1.936
					l-24.021,14.119c-1.991,1.17-3.87,1.371-5.291,0.565L292.232,344.837z"/>
				<g>
					<path fill="#FFFFFF" d="M280.457,352.795l0.023,2.982c0,0.02-0.009,0.041-0.01,0.061c0.056-0.188,0.086-0.375,0.084-0.553
						l-0.023-2.982c0-0.084,0.013-0.174,0.021-0.26C280.494,352.298,280.455,352.553,280.457,352.795z"/>
				</g>
			</g>
		</g>
	</g>
</g>
<g>
	<path opacity="0.5" fill="#173D7A" d="M60.313,314.344c0.305,1.041,0.8,2.064,1.45,3.063c-7.614,6.411-6.496,15.24,3.37,20.937
		c11.137,6.43,29.194,6.43,40.332,0c8.21-4.741,10.36-11.65,6.466-17.532c1.115-0.951,2.043-1.955,2.778-2.994
		c7.099,6.894,6.313,15.74-2.357,22.201l9.241,5.409c3.485-1.242,7.787-1.153,10.438,0.377l33.586,19.391
		c3.178,1.835,2.779,5.04-0.891,7.159c-3.67,2.118-9.221,2.348-12.399,0.514l-33.585-19.391c-2.411-1.393-2.759-3.572-1.186-5.47
		l-9.321-5.456c-13.452,7.057-34.249,6.857-47.237-0.642C47.851,334.318,47.629,322.098,60.313,314.344z"/>
	<g>
		<g>
			<path opacity="0.5" fill="#D4ECFF" d="M64.026,296.848c12.141-7.01,31.825-7.01,43.965,0c5.034,2.906,7.973,6.561,8.833,10.344
				c-0.758,3.336-3.14,6.572-7.144,9.283c-1-0.818-2.124-1.601-3.392-2.333c-12.141-7.009-31.825-7.009-43.965,0
				c-0.598,0.346-1.158,0.704-1.696,1.07c-2.981-2.428-4.791-5.188-5.435-8.021C56.053,303.41,58.993,299.754,64.026,296.848z"/>
			<path fill="#C66422" d="M117.563,312.787l-4.744-6.184l-14.402-6.692l-12.408-1.102l-14.531,1.779l-10.081,5.21l-6.438,4.108
				l-1.158-6.692l2.174-7.709c0,0,5.507-3.643,5.846-3.981s12.876-4.829,12.876-4.829l12.538-0.847l10.081,1.271l10.25,3.05
				l6.777,4.743l5.083,6.439l0.572,8.047L117.563,312.787z"/>
			<polygon fill="#C66422" points="50.318,304.844 50.318,317.871 53.801,312.223 			"/>
			<path fill="#FDD762" d="M107.992,305.521c-12.14-7.01-31.824-7.01-43.965,0c-3.819,2.205-6.434,4.841-7.851,7.637
				c-1.07-0.957-2.447-1.709-3.019-2.999c1.74-2.367,4.272-4.587,7.615-6.517c13.938-8.047,36.537-8.047,50.475,0
				c3.05,1.761,5.433,3.762,7.148,5.896c-0.562,1.313-1.414,2.581-2.547,3.629C114.432,310.369,111.815,307.729,107.992,305.521z"/>
			<path opacity="0.5" fill="#D4ECFF" d="M64.026,296.848c12.141-7.01,31.825-7.01,43.965,0c5.034,2.906,7.973,6.561,8.833,10.344
				c-0.86,3.783-3.8,7.438-8.833,10.344c-12.141,7.01-31.825,7.01-43.965,0.001c-5.033-2.906-7.973-6.562-8.833-10.344
				C56.053,303.41,58.993,299.754,64.026,296.848z"/>
			<path fill="#C66422" d="M53.157,310.159c0.243,0.548,0.636,0.997,1.084,1.409l0.011-0.137l3.219,1.92l3.953,3.672l5.478,2.428
				l7.568,2.711l6.721,1.582l9.262,0.395l5.986-0.621l11.86-3.105l7.729-6.833c-0.063-0.138-0.114-0.275-0.183-0.411
				c1.134-1.048,1.986-2.316,2.547-3.629c0.209,0.261,0.406,0.523,0.596,0.787l2.709-5.643v13.529l-0.006-0.012
				c0.005,5.277-3.474,10.556-10.448,14.582c-13.938,8.047-36.536,8.048-50.474,0.001C50.176,326.667,47.645,317.662,53.157,310.159
				z"/>
			<path fill="#C66422" d="M113.242,316.043l2.788-2.464c-0.063-0.138-0.114-0.275-0.183-0.411c1.134-1.048,1.986-2.316,2.547-3.629
				c0.209,0.261,0.406,0.523,0.596,0.787l2.709-5.643v13.529l-0.006-0.012c0.004,4.744-2.816,9.486-8.451,13.322V316.043z"/>
			<path fill="#ED852F" d="M60.771,319.416c13.938,8.046,36.536,8.046,50.474-0.002c13.938-8.047,13.938-21.094,0.001-29.141
				c-13.938-8.047-36.536-8.047-50.475,0C46.834,298.321,46.833,311.368,60.771,319.416z M64.026,292.152
				c12.141-7.01,31.825-7.01,43.965,0c12.141,7.01,12.14,18.374,0,25.383c-12.141,7.01-31.825,7.01-43.965,0.001
				C51.886,310.527,51.886,299.162,64.026,292.152z"/>
			<g>
				<g>
					<polygon fill="#D4ECFF" points="134.591,334.182 114.809,322.671 112.179,326.932 132.051,338.506 					"/>
					<path fill="#983BE9" d="M131.548,337.367c0,1.131,0.794,1.59,1.773,1.023c0.979-0.564,1.773-1.939,1.773-3.07
						s-0.794-1.59-1.773-1.023C132.342,334.861,131.548,336.236,131.548,337.367z"/>
					<path fill="#983BE9" d="M131.548,337.367c0,1.131,0.794,1.59,1.773,1.023c0.979-0.564,1.773-1.939,1.773-3.07
						s-0.794-1.59-1.773-1.023C132.342,334.861,131.548,336.236,131.548,337.367z"/>
					<path fill="#D4ECFF" d="M111.76,325.852c0,1.131,0.794,1.59,1.773,1.024c0.979-0.565,1.773-1.94,1.773-3.071
						s-0.794-1.589-1.773-1.023C112.554,323.347,111.76,324.722,111.76,325.852z"/>
				</g>
				<path fill="#5793CE" d="M121.816,338.203c0-4.866,3.417-10.783,7.63-13.216c2.157-1.245,4.101-1.33,5.489-0.47l0.002-0.004
					l41.822,24.307l-10.929,18.602l-41.38-24.092c-0.284-0.121-0.55-0.274-0.795-0.463l-0.035-0.02l0.001-0.004
					C122.498,341.959,121.816,340.371,121.816,338.203z"/>
				<path fill="#D4ECFF" d="M173.733,353.972l-46.809-27.025c0.791-0.776,1.637-1.448,2.522-1.959
					c2.157-1.245,4.101-1.33,5.489-0.47l0.002-0.004l41.822,24.307L173.733,353.972z"/>
				<g>
					<path fill="#D4ECFF" d="M163.665,362.526c0,4.866,3.417,6.838,7.631,4.405c4.214-2.434,7.63-8.35,7.63-13.215
						c0-4.866-3.416-6.838-7.63-4.406C167.082,351.744,163.665,357.66,163.665,362.526z"/>
					<circle fill="#5793CE" cx="174.831" cy="360.254" r="4.97"/>
					<circle fill="#FFFFFF" cx="177.209" cy="358.432" r="1.469"/>
				</g>
				<path fill="#FFFFFF" d="M170.732,348.984c2.255-1.302,4.275-1.332,5.672-0.343c-1.354-0.632-3.141-0.466-5.108,0.669
					c-4.215,2.434-7.631,8.35-7.631,13.216c0,2.263,0.745,3.889,1.959,4.747c-1.545-0.72-2.521-2.48-2.521-5.074
					C163.103,357.334,166.519,351.418,170.732,348.984z"/>
			</g>
			<g>
				<path fill="#FFFFFF" d="M64.026,292.152c12.141-7.01,31.825-7.01,43.965,0c6.322,3.65,9.344,8.48,9.082,13.264
					c-0.241-4.401-3.263-8.761-9.082-12.12c-12.14-7.009-31.824-7.009-43.965,0.001c-5.818,3.359-8.84,7.719-9.082,12.119
					C54.682,300.635,57.704,295.803,64.026,292.152z"/>
				<path fill="#FFFFFF" d="M60.771,319.416c13.938,8.046,36.536,8.046,50.474-0.002c6.717-3.877,10.188-8.917,10.43-13.998
					c0.261,5.462-3.209,10.973-10.43,15.143c-13.938,8.047-36.536,8.047-50.474,0c-7.221-4.168-10.691-9.68-10.43-15.143
					C50.584,310.498,54.055,315.537,60.771,319.416z"/>
			</g>
		</g>
	</g>
</g>
<g>
	<g>
		<g>
			<path fill="#FF6600" d="M179.534,292.307c0,0-3.75-1.891-6.053,0.925s-5.595,9.462-5.696,13.954
				c-0.102,4.49,3.555,4.188,5.728,3.125c2.174-1.063,8.522-10.273,8.907-12.078c0.384-1.805-0.454-4.244-1.064-4.721
				C180.744,293.033,179.534,292.307,179.534,292.307z"/>
			<path fill="#D4ECFF" d="M180.352,291.403l0.174,3.885c0.037,0.825-0.378,1.612-1.098,2.021c-0.654,0.371-1.606,0.656-2.893,0.449
				c-2.824-0.453-3.076-1.26-3.278-5.145C173.056,288.73,180.352,291.403,180.352,291.403z"/>
			<g>
				<path fill="#FF6600" d="M165.809,284.838c0,0-3.75-1.891-6.052,0.924c-2.303,2.816-5.595,9.463-5.697,13.954
					c-0.102,4.491,3.555,4.188,5.728,3.125c2.174-1.063,8.522-10.272,8.907-12.077c0.384-1.805-0.453-4.244-1.064-4.723
					C167.02,285.564,165.809,284.838,165.809,284.838z"/>
				<path fill="#D4ECFF" d="M166.627,283.934l0.174,3.885c0.036,0.826-0.379,1.613-1.098,2.021
					c-0.655,0.371-1.606,0.656-2.893,0.449c-2.825-0.454-3.077-1.261-3.278-5.145C159.33,281.261,166.627,283.934,166.627,283.934z"
					/>
				<path fill="#173D7A" d="M200.084,212.614c-1.109-18.057-19.555,2.657-19.555,2.657l-12.625,12.373l-11.368,12.488
					c-2.22,2.439-3.253,5.732-2.823,9.002l4.599,35.018c0.228,1.729,1.707,3.005,3.451,2.99c0.492-0.004,1.057-0.048,1.703-0.148
					c4.103-0.639,3.8-4.539,3.8-4.539l-0.841-32.752l23.874-14.392C190.299,235.312,201.193,230.672,200.084,212.614z"/>
			</g>
			<path fill="#173D7A" d="M213.81,219.494c-1.11-18.057-19.556,2.656-19.556,2.656l-12.624,12.375l-11.368,12.488
				c-2.221,2.438-3.253,5.731-2.824,9.002l4.6,35.017c0.227,1.729,1.706,3.005,3.45,2.991c0.493-0.004,1.058-0.049,1.704-0.15
				c4.103-0.639,3.8-4.539,3.8-4.539l-0.816-31.809l23.85-15.334C204.024,242.191,214.919,237.551,213.81,219.494z"/>
			<path fill="#FF6600" d="M202.897,161.531c13.983,5.798,13.703,14.064,13.703,14.064s-2.739,30.305-1.804,50.545
				c0.391,8.46-44.953,9.105-38.19-13.467c7.973-26.615,4.984-48.161,8.717-51.411C189.056,158.013,199.279,160.031,202.897,161.531
				z"/>
			
				<ellipse transform="matrix(0.9684 0.2495 -0.2495 0.9684 48.0108 -44.7128)" fill="#FFC2B0" cx="200.412" cy="167.062" rx="7.213" ry="5.309"/>
			<path fill="#FFFFFF" d="M201.797,172.264l-2.573,2.793c-0.334,0.363-0.493,0.853-0.437,1.343l1.769,15.296
				c0.05,0.429-0.069,0.86-0.331,1.203l-5.536,7.242c-0.246,0.321-0.751,0.233-0.873-0.152l-3.015-9.486
				c-0.113-0.359-0.103-0.746,0.031-1.098l5.303-13.893c0.116-0.304,0.142-0.635,0.075-0.954l-0.776-3.683L201.797,172.264z"/>
			<path fill="#FFFFFF" d="M201.474,173.179c-0.838,0-1.699-0.109-2.554-0.329c-2.003-0.516-3.743-1.582-4.902-3.003
				c-1.206-1.479-1.646-3.167-1.238-4.752c0.822-3.19,4.911-4.906,9.123-3.822c4.208,1.085,6.963,4.563,6.141,7.755
				c-0.408,1.584-1.608,2.85-3.38,3.562C203.688,172.982,202.602,173.179,201.474,173.179z M199.342,162.281
				c-2.597,0-4.768,1.208-5.268,3.148c-0.3,1.162,0.049,2.432,0.979,3.573c0.98,1.201,2.472,2.107,4.2,2.553
				c1.729,0.446,3.473,0.374,4.91-0.206c1.367-0.55,2.284-1.492,2.584-2.655l0,0c0.639-2.478-1.686-5.226-5.18-6.126
				C200.812,162.373,200.061,162.281,199.342,162.281z"/>
			<path fill="#FFC2B0" d="M197.29,160.9c0,0,0.121,0.561-0.121,4.992c-0.076,1.393,4.802,2.694,6.063,1.434s0.757-2.572,1.06-7.313
				S197.29,160.9,197.29,160.9z"/>
			<path fill="#EA9C92" d="M204.291,160.013c0,0-1.201,4.396-7.123,6.082l0.09-3.996L204.291,160.013z"/>
			<circle fill="#FFC2B0" cx="197.621" cy="151.538" r="10.764"/>
			<path fill="#EA9C92" d="M200.093,151.933c0,0-5.927,2.539-10.03,2.568c-4.104,0.029-3.199-3.407-3.199-3.407l12.182-1.76
				L200.093,151.933z"/>
			<path fill="#D4ECFF" d="M188.839,152.602c0,0,5.163-2.191,9.692-1.277c1.064,0.214,2.052,0.784,2.737,1.626
				c0.224,0.275,0.507,0.526,0.828,0.599c0.803,0.182,2.117-3.15,3.679-3.226c1.561-0.076,2.603,1.029,1.322,3.078
				c-1.279,2.049-0.847,4.343-0.258,4.671c0.589,0.329,7.879-4.759,2.369-15.674c-5.51-10.916-20.551-4.733-22.728-2.521
				c0,0-2.294,1.998-4.158,0.22C182.323,140.099,180.232,155.759,188.839,152.602z"/>
			<path fill="#FFC2B0" d="M208.756,197.736v8.189c0,0.938-0.395,1.833-1.088,2.466l-16.822,15.336l1.911,2.924l23.176-15.197
				c1.037-0.752,1.706-1.908,1.84-3.183l1.585-15.196L208.756,197.736z"/>
			<path fill="#FF6600" d="M215.417,171.5c0,0,5.104,7.675,7.005,27.877c0,0-8.718,2.819-13.666,1.219
				C203.809,198.997,215.417,171.5,215.417,171.5z"/>
			<path fill="#C66422" d="M207.824,181.205c0,0-1.998,10.693-2.111,15.719c-0.031,1.381,0.813,2.628,2.111,3.098l0,0V181.205z"/>
		</g>
		<g>
			<path fill="#5793CE" d="M203.46,234.375l-3.718-0.49l-24.001-13.857c-0.77-0.444-2.113-0.389-3.002,0.125l-17.007,9.814
				l-2.248-0.297v2.238h0.002c-0.015,0.295,0.153,0.579,0.516,0.789l27.2,15.703c0.77,0.444,2.113,0.389,3.002-0.124l18.521-10.689
				c0.5-0.289,0.749-0.661,0.734-1.01l0,0V234.375z"/>
			<path fill="#396CAA" d="M185.427,225.619l-1.705-0.984h-18.747l-9.242,5.332l-2.248-0.297v2.238h0.002
				c-0.015,0.295,0.153,0.579,0.516,0.789l27.2,15.703c0.407,0.234,0.974,0.328,1.55,0.291L185.427,225.619z"/>
			<path fill="#5793CE" d="M154.481,229.802l-0.997-0.132v2.238h0.002c-0.015,0.295,0.153,0.579,0.516,0.789l0.479,0.276V229.802z"
				/>
			<path fill="#5793CE" d="M181.477,248.527c0.729,0.277,1.771,0.217,2.551-0.158v-3.808h-2.551V248.527z"/>
			<path fill="#FFFFFF" d="M181.202,246.164l-27.2-15.704c-0.77-0.444-0.673-1.22,0.216-1.733l18.521-10.689
				c0.889-0.513,2.232-0.568,3.002-0.125l27.2,15.705c0.77,0.443,0.673,1.22-0.216,1.732l-18.521,10.689
				C183.315,246.553,181.972,246.608,181.202,246.164z"/>
			<path fill="#D4ECFF" d="M180.742,243.783l-22.616-13.057c-0.641-0.369-0.56-1.016,0.179-1.441l9.925-5.582
				c0.739-0.426,1.856-0.473,2.496-0.104l22.617,13.059c0.64,0.369,0.56,1.015-0.18,1.441l-9.925,5.58
				C182.5,244.107,181.382,244.153,180.742,243.783z"/>
		</g>
		<path fill="#FFC2B0" d="M173.791,217.521l-0.281,1.877c-0.24,1.6-0.199,3.228,0.122,4.813l0.335,1.653
			c0.188,0.933,0.927,1.657,1.863,1.827l0,0c0.731,0.133,1.422-0.381,1.505-1.119l0.449-4.013c0,0,1.026,1.345,1.521,1.345
			c0.496,0-0.555-4.018-1.675-6.291C176.51,215.339,173.791,217.521,173.791,217.521z"/>
		<path fill="#FFC2B0" d="M183.011,187.694l-2.919,5.776c-0.689,1.366-1.096,2.857-1.194,4.385l-1.267,19.758l-3.84-0.092
			l-1.743-22.188c-0.054-0.685-0.021-1.375,0.1-2.051l1.99-11.252L183.011,187.694z"/>
		<g>
			<path fill="#173D7A" d="M180.281,247.672L178,244.695l-23.983-13.887c-0.769-0.445-1.392-1.637-1.39-2.663l0.021-19.636
				l-1.379-1.801l1.296-0.75l0.001,0.002c0.248-0.16,0.578-0.156,0.94,0.054l27.181,15.737c0.77,0.445,1.392,1.637,1.391,2.663
				l-0.023,21.385c-0.001,0.577-0.198,0.979-0.509,1.14l0,0L180.281,247.672z"/>
			<path fill="#396CAA" d="M163.695,236.412l-1.704-0.986l-9.354-16.246l0.01-10.67l-1.379-1.801l1.296-0.75l0.001,0.002
				c0.248-0.16,0.578-0.156,0.94,0.054l27.181,15.737c0.406,0.234,0.771,0.68,1.024,1.197L163.695,236.412z"/>
			<path fill="#5793CE" d="M151.88,207.508l-0.611-0.799l1.296-0.75l0.001,0.002c0.248-0.16,0.578-0.156,0.94,0.054l0.479,0.277
				L151.88,207.508z"/>
			<path fill="#274F89" d="M180.934,221.926c0.604,0.494,1.072,1.428,1.136,2.289l-2.656,1.533l-1.272-2.21L180.934,221.926z"/>
			<path fill="#5793CE" d="M179.393,222.501l-27.182-15.737c-0.769-0.445-1.393,0.025-1.395,1.053l-0.022,21.384
				c-0.001,1.026,0.621,2.219,1.39,2.663l27.182,15.738c0.769,0.445,1.393-0.026,1.395-1.053l0.022-21.384
				C180.783,224.139,180.161,222.946,179.393,222.501z"/>
		</g>
		<path fill="#FFC2B0" d="M192.757,226.65l-0.436,0.902c-0.502,1.039-1.29,1.912-2.272,2.518l-2.699,1.664
			c-0.84,0.519-1.903,0.561-2.756,0.064c-0.031-0.018-0.062-0.037-0.093-0.056c-0.857-0.538-0.936-1.77-0.229-2.495l2.822-2.9
			c0,0-1.586,1.215-2.03,0.725c-0.325-0.357,1.538-2.107,2.968-2.164c1.431-0.058,2.814-1.182,2.814-1.182L192.757,226.65z"/>
		<path fill="#FF6600" d="M185.603,161.221c0,0-10.343,11.254-14.515,21.578c0,0,3.536,6.372,12.194,8.873
			C191.939,194.172,185.603,161.221,185.603,161.221z"/>
		<path fill="#C66422" d="M181.334,191.003l1.677-16.194l-3.95,15.173C179.765,190.349,180.526,190.69,181.334,191.003z"/>
		<path fill="#FFFFFF" d="M193.35,158.95l-2.779-0.764c0,0,1.327,2.087,3.264,2.62c1.938,0.532,2.239-1.108,2.239-1.108
			L193.35,158.95z"/>
	</g>
	<circle fill="#FFFFFF" cx="206.646" cy="154.501" r="1.548"/>
</g>
<g>
	<g>
		<path opacity="0.5" fill="#173D7A" d="M56.793,258.619c-8.85,5.109-23.198,5.109-32.049-0.001c-8.85-5.109-8.85-13.394,0-18.503
			c8.85-5.109,23.199-5.109,32.049,0S65.643,253.51,56.793,258.619z"/>
		<path fill="#C66422" d="M66.55,238.177v-7.238h-1.367c-1.228-2.113-3.271-4.103-6.185-5.785c-10.068-5.813-26.393-5.813-36.461,0
			c-2.915,1.683-4.958,3.672-6.185,5.785h-1.364v7.199h0.002c-0.018,3.823,2.497,7.648,7.548,10.565
			c10.069,5.813,26.393,5.813,36.461,0C64.034,245.797,66.551,241.986,66.55,238.177z"/>
		<path fill="#ED852F" d="M58.999,241.464c-10.068,5.813-26.392,5.813-36.461-0.001c-10.068-5.813-10.069-15.237,0-21.051
			c10.068-5.813,26.393-5.813,36.461,0.001C69.067,226.227,69.067,235.65,58.999,241.464z"/>
		<path fill="#FFFFFF" d="M58.999,241.463c-10.068,5.814-26.392,5.814-36.461,0c-4.825-2.785-7.312-6.401-7.512-10.052
			c-0.217,3.966,2.269,7.973,7.512,10.999c10.069,5.814,26.393,5.814,36.461,0c5.243-3.026,7.729-7.032,7.512-10.998
			C66.311,235.062,63.824,238.678,58.999,241.463z"/>
	</g>
	<g>
		<path fill="#FFFFFF" d="M28.342,235.866c-0.434-0.251-0.681-0.591-0.679-0.95l0.026-9.697c0.001-0.74,1.042-1.339,2.324-1.338
			c1.282,0,2.317,0.602,2.316,1.342l-0.021,8.043l23.339-2.858c1.254-0.154,2.485,0.309,2.751,1.032
			c0.267,0.724-0.535,1.436-1.788,1.589l-26.146,3.201c-0.686,0.084-1.4-0.015-1.944-0.271
			C28.458,235.93,28.398,235.898,28.342,235.866z"/>
	</g>
</g>
<g>
	<g>
		<path fill="#C66422" d="M209.024,86.748l-38.483-22.211c-0.762-0.439-1.525-0.456-2.185-0.159
			c0.001-0.003,0.008-0.025,0.008-0.025l-4.588,2.156c0,0,1.723,0.603,2.733,0.958l-5.553,28.016
			c-0.452,2.28,0.567,4.927,2.277,5.915l36.783,21.229l-0.652,3.287l4.634-2.171l-0.021-0.008c0.787-0.388,1.412-1.241,1.654-2.467
			l5.671-28.605C211.754,90.383,210.734,87.735,209.024,86.748z"/>
		<path fill="#ED852F" d="M197.048,125.799l-38.483-22.211c-1.71-0.987-2.73-3.634-2.278-5.914l5.671-28.606
			c0.451-2.279,2.204-3.327,3.914-2.34l38.482,22.211c1.711,0.987,2.73,3.635,2.278,5.914l-5.67,28.606
			C200.51,125.738,198.758,126.786,197.048,125.799z"/>
		<path fill="#FFFFFF" d="M205.229,88.595l-38.482-22.211c-0.896-0.518-1.8-0.464-2.526,0.021c0.524-0.087,1.088-0.003,1.651,0.322
			l38.482,22.211c1.711,0.987,2.73,3.636,2.278,5.915l-5.67,28.605c-0.215,1.084-0.729,1.878-1.389,2.318
			c1.068-0.178,1.961-1.134,2.264-2.662l5.67-28.605C207.959,92.23,206.939,89.582,205.229,88.595z"/>
	</g>
	<g>
		<path fill="#FFFFFF" d="M174.94,93.73c-0.328,1.655-1.757,2.326-3.19,1.499c-1.435-0.828-2.331-2.841-2.003-4.496
			s1.757-2.326,3.191-1.498C174.372,90.062,175.269,92.075,174.94,93.73z"/>
		<path fill="#FFFFFF" d="M182.807,98.27c-0.328,1.656-1.757,2.327-3.19,1.499c-1.435-0.828-2.331-2.841-2.003-4.496
			s1.757-2.326,3.19-1.498C182.238,94.602,183.135,96.615,182.807,98.27z"/>
		<path fill="#FFFFFF" d="M190.673,102.81c-0.328,1.655-1.757,2.326-3.191,1.499c-1.434-0.828-2.33-2.841-2.002-4.496
			s1.757-2.326,3.19-1.498C190.104,99.142,191.001,101.155,190.673,102.81z"/>
	</g>
</g>
<g>
	<g>
		<path fill="#5793CE" d="M359.102,39.538l-38.483-22.211c-0.762-0.439-1.525-0.456-2.185-0.16c0.001-0.003,0.008-0.024,0.008-0.024
			l-4.588,2.156c0,0,1.723,0.603,2.733,0.958l-5.553,28.016c-0.452,2.279,0.567,4.927,2.278,5.914l36.782,21.229l-0.651,3.287
			l4.633-2.171l-0.021-0.007c0.787-0.389,1.412-1.242,1.655-2.468l5.67-28.605C361.832,43.173,360.812,40.525,359.102,39.538z"/>
		<path fill="#D4ECFF" d="M347.125,78.588l-38.483-22.211c-1.71-0.987-2.729-3.635-2.278-5.914l5.671-28.605
			c0.451-2.28,2.204-3.327,3.914-2.34l38.483,22.211c1.71,0.986,2.729,3.635,2.278,5.914l-5.671,28.605
			C350.587,78.527,348.835,79.575,347.125,78.588z"/>
		<path fill="#FFFFFF" d="M355.307,41.384l-38.483-22.211c-0.896-0.518-1.8-0.464-2.525,0.021c0.523-0.088,1.087-0.003,1.65,0.322
			l38.483,22.211c1.71,0.987,2.729,3.635,2.278,5.915l-5.671,28.605c-0.215,1.084-0.729,1.878-1.389,2.319
			c1.068-0.178,1.961-1.134,2.264-2.663l5.671-28.605C358.036,45.02,357.017,42.372,355.307,41.384z"/>
	</g>
	<g>
		<path fill="#FFFFFF" d="M325.018,46.52c-0.328,1.655-1.757,2.326-3.19,1.498c-1.434-0.827-2.331-2.84-2.003-4.496
			s1.757-2.326,3.191-1.499C324.449,42.851,325.346,44.864,325.018,46.52z"/>
		<path fill="#FFFFFF" d="M332.884,51.06c-0.328,1.655-1.757,2.326-3.19,1.498c-1.435-0.827-2.331-2.84-2.003-4.496
			s1.757-2.326,3.19-1.499C332.315,47.391,333.212,49.404,332.884,51.06z"/>
		<path fill="#FFFFFF" d="M340.75,55.6c-0.328,1.655-1.757,2.326-3.191,1.498c-1.434-0.828-2.33-2.84-2.002-4.496
			s1.757-2.326,3.19-1.499C340.182,51.931,341.078,53.944,340.75,55.6z"/>
	</g>
</g>
</svg>
