<?xml version="1.0" encoding="utf-8"?>
<!-- Generator: Adobe Illustrator 16.0.0, SVG Export Plug-In . SVG Version: 6.00 Build 0)  -->
<!DOCTYPE svg PUBLIC "-//W3C//DTD SVG 1.1//EN" "http://www.w3.org/Graphics/SVG/1.1/DTD/svg11.dtd">
<svg version="1.1" id="Слой_1" xmlns="http://www.w3.org/2000/svg" xmlns:xlink="http://www.w3.org/1999/xlink" x="0px" y="0px"
	 width="495px" height="398px" viewBox="0 0 495 398" enable-background="new 0 0 495 398" xml:space="preserve">
<g>
	<path fill="#396CAA" d="M361.268,319.436l96.048-55.619c3.155-1.828,4.626-4.292,4.521-6.854l0.021,0.007l-0.038-13.937
		l-5.342,6.257c-0.347-0.229-0.695-0.457-1.074-0.675L258.92,135.538c-7.801-4.489-19.592-4.962-26.337-1.056l-94.698,54.839
		c-1.916-2.099-5.936-6.529-5.936-6.529l0.046,13.632l0.002-0.001c-0.142,3.073,2.045,6.347,6.45,8.882l196.483,113.076
		C342.731,322.87,354.522,323.343,361.268,319.436z"/>
	<path fill="#5793CE" d="M258.92,135.538c-7.801-4.489-19.592-4.961-26.337-1.055l-94.698,54.839
		c-1.917-2.099-5.936-6.529-5.936-6.529l0.046,13.632l0.002-0.002c-0.142,3.074,2.045,6.348,6.45,8.883l196.483,113.076
		c4.07,2.342,9.223,3.58,14.182,3.684l-0.188-134.729L258.92,135.538z"/>
	<path fill="#D4ECFF" d="M136.496,176.091l96.047-55.62c6.744-3.907,18.536-3.435,26.337,1.055l196.483,113.076
		c7.8,4.489,8.656,11.296,1.911,15.202l-96.047,55.62c-6.745,3.906-18.536,3.434-26.337-1.055L138.407,191.293
		C130.606,186.803,129.75,179.997,136.496,176.091z"/>
	<path fill="#FFFFFF" d="M361.301,306.911l96.047-55.62c3.479-2.014,4.919-4.801,4.444-7.643c-0.17,2.309-1.65,4.495-4.518,6.155
		l-96.047,55.62c-6.745,3.906-18.536,3.435-26.337-1.055L138.407,191.293c-3.778-2.175-5.911-4.892-6.356-7.56
		c-0.23,3.121,1.945,6.466,6.43,9.046l196.483,113.077C342.765,310.346,354.556,310.818,361.301,306.911z"/>
	<path fill="#173D7A" d="M143.893,178.282l92.292-53.444c5.013-2.903,13.777-2.552,19.575,0.784l193.692,111.471
		c5.798,3.337,6.435,8.396,1.421,11.299l-92.291,53.444c-5.013,2.904-13.777,2.553-19.575-0.784l-193.692-111.47
		C139.516,186.245,138.88,181.186,143.893,178.282z"/>
</g>
<g>
	<g>
		<defs>
			<path id="SVGID_1_" d="M328.254,247.046c-17.145,26.921-56.892,47.619-88.778,46.232c-31.887-1.388-43.838-24.335-26.693-51.255
				c17.144-26.921,56.892-47.62,88.778-46.232C333.447,197.178,345.398,220.126,328.254,247.046z"/>
		</defs>
		<clipPath id="SVGID_2_">
			<use xlink:href="#SVGID_1_"  overflow="visible"/>
		</clipPath>
		<rect x="195.638" y="194.403" clip-path="url(#SVGID_2_)" fill="#FFFFFF" width="149.761" height="100.262"/>
		
			<ellipse transform="matrix(0.8917 -0.4526 0.4526 0.8917 -81.379 148.9025)" clip-path="url(#SVGID_2_)" fill="#FFFFFF" cx="270.518" cy="244.534" rx="65.557" ry="35.547"/>
		
			<ellipse transform="matrix(0.8917 -0.4526 0.4526 0.8917 -81.3792 148.9025)" clip-path="url(#SVGID_2_)" fill="#FFFFFF" cx="270.518" cy="244.535" rx="65.12" ry="35.31"/>
		
			<ellipse transform="matrix(0.8917 -0.4526 0.4526 0.8917 -81.3786 148.9001)" clip-path="url(#SVGID_2_)" fill="#FFFFFF" cx="270.518" cy="244.535" rx="64.683" ry="35.072"/>
		
			<ellipse transform="matrix(0.8917 -0.4526 0.4526 0.8917 -81.3784 148.9001)" clip-path="url(#SVGID_2_)" fill="#FFFFFF" cx="270.518" cy="244.534" rx="64.246" ry="34.836"/>
		
			<ellipse transform="matrix(0.8917 -0.4526 0.4526 0.8917 -81.3786 148.9001)" clip-path="url(#SVGID_2_)" fill="#FFFFFF" cx="270.518" cy="244.535" rx="63.809" ry="34.598"/>
		
			<ellipse transform="matrix(0.8917 -0.4526 0.4526 0.8917 -81.3788 148.901)" clip-path="url(#SVGID_2_)" fill="#FFFFFF" cx="270.518" cy="244.534" rx="63.372" ry="34.362"/>
		
			<ellipse transform="matrix(0.8917 -0.4526 0.4526 0.8917 -81.379 148.901)" clip-path="url(#SVGID_2_)" fill="#FFFFFF" cx="270.518" cy="244.535" rx="62.935" ry="34.125"/>
		
			<ellipse transform="matrix(0.8917 -0.4526 0.4526 0.8917 -81.3787 148.901)" clip-path="url(#SVGID_2_)" fill="#FFFFFF" cx="270.518" cy="244.534" rx="62.498" ry="33.888"/>
		
			<ellipse transform="matrix(0.8917 -0.4526 0.4526 0.8917 -81.379 148.901)" clip-path="url(#SVGID_2_)" fill="#FFFFFF" cx="270.518" cy="244.535" rx="62.061" ry="33.651"/>
		
			<ellipse transform="matrix(0.8917 -0.4526 0.4526 0.8917 -81.3785 148.9)" clip-path="url(#SVGID_2_)" fill="#FFFFFF" cx="270.518" cy="244.535" rx="61.623" ry="33.413"/>
		
			<ellipse transform="matrix(0.8917 -0.4526 0.4526 0.8917 -81.3792 148.9025)" clip-path="url(#SVGID_2_)" fill="#FFFFFF" cx="270.518" cy="244.535" rx="61.187" ry="33.176"/>
		
			<ellipse transform="matrix(0.8917 -0.4526 0.4526 0.8917 -81.379 148.9024)" clip-path="url(#SVGID_2_)" fill="#FEFFFF" cx="270.518" cy="244.534" rx="60.75" ry="32.94"/>
		
			<ellipse transform="matrix(0.8917 -0.4526 0.4526 0.8917 -81.3792 148.9024)" clip-path="url(#SVGID_2_)" fill="#FEFFFF" cx="270.518" cy="244.535" rx="60.313" ry="32.702"/>
		
			<ellipse transform="matrix(0.8917 -0.4526 0.4526 0.8917 -81.379 148.9024)" clip-path="url(#SVGID_2_)" fill="#FEFEFF" cx="270.518" cy="244.534" rx="59.876" ry="32.466"/>
		
			<ellipse transform="matrix(0.8917 -0.4526 0.4526 0.8917 -81.3783 148.8998)" clip-path="url(#SVGID_2_)" fill="#FEFEFF" cx="270.518" cy="244.534" rx="59.439" ry="32.229"/>
		
			<ellipse transform="matrix(0.8917 -0.4526 0.4526 0.8917 -81.379 148.9023)" clip-path="url(#SVGID_2_)" fill="#FEFEFF" cx="270.518" cy="244.534" rx="59.002" ry="31.992"/>
		
			<ellipse transform="matrix(0.8917 -0.4526 0.4526 0.8917 -81.3792 148.9024)" clip-path="url(#SVGID_2_)" fill="#FEFEFF" cx="270.518" cy="244.535" rx="58.565" ry="31.755"/>
		
			<ellipse transform="matrix(0.8917 -0.4526 0.4526 0.8917 -81.3785 148.8997)" clip-path="url(#SVGID_2_)" fill="#FEFEFF" cx="270.518" cy="244.535" rx="58.128" ry="31.518"/>
		
			<ellipse transform="matrix(0.8917 -0.4526 0.4526 0.8917 -81.3787 148.9008)" clip-path="url(#SVGID_2_)" fill="#FDFEFE" cx="270.518" cy="244.534" rx="57.69" ry="31.281"/>
		
			<ellipse transform="matrix(0.8917 -0.4526 0.4526 0.8917 -81.3794 148.9034)" clip-path="url(#SVGID_2_)" fill="#FDFEFE" cx="270.518" cy="244.534" rx="57.254" ry="31.045"/>
		
			<ellipse transform="matrix(0.8917 -0.4526 0.4526 0.8917 -81.379 148.9023)" clip-path="url(#SVGID_2_)" fill="#FDFEFE" cx="270.518" cy="244.534" rx="56.816" ry="30.807"/>
		
			<ellipse transform="matrix(0.8917 -0.4526 0.4526 0.8917 -81.3792 148.9024)" clip-path="url(#SVGID_2_)" fill="#FDFDFE" cx="270.518" cy="244.535" rx="56.379" ry="30.57"/>
		
			<ellipse transform="matrix(0.8917 -0.4526 0.4526 0.8917 -81.379 148.9023)" clip-path="url(#SVGID_2_)" fill="#FCFDFE" cx="270.518" cy="244.534" rx="55.942" ry="30.334"/>
		
			<ellipse transform="matrix(0.8917 -0.4526 0.4526 0.8917 -81.3792 148.9023)" clip-path="url(#SVGID_2_)" fill="#FCFDFE" cx="270.518" cy="244.535" rx="55.505" ry="30.096"/>
		
			<ellipse transform="matrix(0.8917 -0.4526 0.4526 0.8917 -81.379 148.9023)" clip-path="url(#SVGID_2_)" fill="#FCFDFE" cx="270.518" cy="244.534" rx="55.068" ry="29.86"/>
		
			<ellipse transform="matrix(0.8917 -0.4526 0.4526 0.8917 -81.3792 148.9023)" clip-path="url(#SVGID_2_)" fill="#FCFDFE" cx="270.518" cy="244.535" rx="54.631" ry="29.622"/>
		
			<ellipse transform="matrix(0.8917 -0.4526 0.4526 0.8917 -81.379 148.9022)" clip-path="url(#SVGID_2_)" fill="#FBFDFE" cx="270.518" cy="244.534" rx="54.194" ry="29.385"/>
		
			<ellipse transform="matrix(0.8917 -0.4526 0.4526 0.8917 -81.3792 148.9023)" clip-path="url(#SVGID_2_)" fill="#FBFCFE" cx="270.518" cy="244.535" rx="53.757" ry="29.148"/>
		
			<ellipse transform="matrix(0.8917 -0.4526 0.4526 0.8917 -81.3784 148.8994)" clip-path="url(#SVGID_2_)" fill="#FBFCFE" cx="270.518" cy="244.535" rx="53.32" ry="28.911"/>
		
			<ellipse transform="matrix(0.8917 -0.4526 0.4526 0.8917 -81.3786 148.9005)" clip-path="url(#SVGID_2_)" fill="#FAFCFE" cx="270.518" cy="244.534" rx="52.883" ry="28.675"/>
		
			<ellipse transform="matrix(0.8917 -0.4526 0.4526 0.8917 -81.3794 148.9034)" clip-path="url(#SVGID_2_)" fill="#FAFCFD" cx="270.518" cy="244.534" rx="52.446" ry="28.437"/>
		
			<ellipse transform="matrix(0.8917 -0.4526 0.4526 0.8917 -81.3786 148.9005)" clip-path="url(#SVGID_2_)" fill="#FAFCFD" cx="270.518" cy="244.534" rx="52.009" ry="28.201"/>
		
			<ellipse transform="matrix(0.8917 -0.4526 0.4526 0.8917 -81.3788 148.9005)" clip-path="url(#SVGID_2_)" fill="#F9FBFD" cx="270.518" cy="244.535" rx="51.572" ry="27.964"/>
		
			<ellipse transform="matrix(0.8917 -0.4526 0.4526 0.8917 -81.3789 148.9022)" clip-path="url(#SVGID_2_)" fill="#F9FBFD" cx="270.518" cy="244.534" rx="51.134" ry="27.727"/>
		
			<ellipse transform="matrix(0.8917 -0.4526 0.4526 0.8917 -81.3792 148.9022)" clip-path="url(#SVGID_2_)" fill="#F9FBFD" cx="270.518" cy="244.535" rx="50.697" ry="27.49"/>
		
			<ellipse transform="matrix(0.8917 -0.4526 0.4526 0.8917 -81.379 148.9021)" clip-path="url(#SVGID_2_)" fill="#F8FBFD" cx="270.518" cy="244.534" rx="50.26" ry="27.252"/>
		
			<ellipse transform="matrix(0.8917 -0.4526 0.4526 0.8917 -81.3792 148.9022)" clip-path="url(#SVGID_2_)" fill="#F8FAFD" cx="270.518" cy="244.535" rx="49.824" ry="27.015"/>
		
			<ellipse transform="matrix(0.8917 -0.4526 0.4526 0.8917 -81.3789 148.9021)" clip-path="url(#SVGID_2_)" fill="#F7FAFD" cx="270.518" cy="244.534" rx="49.387" ry="26.779"/>
		
			<ellipse transform="matrix(0.8917 -0.4526 0.4526 0.8917 -81.3792 148.9021)" clip-path="url(#SVGID_2_)" fill="#F7FAFC" cx="270.518" cy="244.535" rx="48.95" ry="26.541"/>
		
			<ellipse transform="matrix(0.8917 -0.4526 0.4526 0.8917 -81.3789 148.9021)" clip-path="url(#SVGID_2_)" fill="#F6F9FC" cx="270.518" cy="244.534" rx="48.513" ry="26.305"/>
		
			<ellipse transform="matrix(0.8917 -0.4526 0.4526 0.8917 -81.3781 148.8988)" clip-path="url(#SVGID_2_)" fill="#F6F9FC" cx="270.518" cy="244.534" rx="48.075" ry="26.067"/>
		
			<ellipse transform="matrix(0.8917 -0.4526 0.4526 0.8917 -81.3789 148.902)" clip-path="url(#SVGID_2_)" fill="#F5F9FC" cx="270.518" cy="244.534" rx="47.639" ry="25.831"/>
		
			<ellipse transform="matrix(0.8917 -0.4526 0.4526 0.8917 -81.3796 148.9035)" clip-path="url(#SVGID_2_)" fill="#F5F8FC" cx="270.518" cy="244.535" rx="47.201" ry="25.594"/>
		
			<ellipse transform="matrix(0.8917 -0.4526 0.4526 0.8917 -81.3787 148.9002)" clip-path="url(#SVGID_2_)" fill="#F4F8FC" cx="270.518" cy="244.535" rx="46.764" ry="25.357"/>
		
			<ellipse transform="matrix(0.8917 -0.4526 0.4526 0.8917 -81.3789 148.902)" clip-path="url(#SVGID_2_)" fill="#F4F8FC" cx="270.518" cy="244.534" rx="46.327" ry="25.12"/>
		
			<ellipse transform="matrix(0.8917 -0.4526 0.4526 0.8917 -81.3798 148.9053)" clip-path="url(#SVGID_2_)" fill="#F3F7FB" cx="270.518" cy="244.534" rx="45.89" ry="24.883"/>
		
			<ellipse transform="matrix(0.8917 -0.4526 0.4526 0.8917 -81.3789 148.902)" clip-path="url(#SVGID_2_)" fill="#F3F7FB" cx="270.518" cy="244.534" rx="45.453" ry="24.646"/>
		
			<ellipse transform="matrix(0.8917 -0.4526 0.4526 0.8917 -81.3791 148.902)" clip-path="url(#SVGID_2_)" fill="#F2F7FB" cx="270.518" cy="244.535" rx="45.016" ry="24.409"/>
		
			<ellipse transform="matrix(0.8917 -0.4526 0.4526 0.8917 -81.3789 148.9019)" clip-path="url(#SVGID_2_)" fill="#F2F6FB" cx="270.518" cy="244.534" rx="44.579" ry="24.172"/>
		
			<ellipse transform="matrix(0.8917 -0.4526 0.4526 0.8917 -81.3791 148.9019)" clip-path="url(#SVGID_2_)" fill="#F1F6FB" cx="270.518" cy="244.535" rx="44.142" ry="23.934"/>
		
			<ellipse transform="matrix(0.8917 -0.4526 0.4526 0.8917 -81.3789 148.9019)" clip-path="url(#SVGID_2_)" fill="#F0F5FB" cx="270.518" cy="244.534" rx="43.705" ry="23.697"/>
		
			<ellipse transform="matrix(0.8917 -0.4526 0.4526 0.8917 -81.3779 148.8983)" clip-path="url(#SVGID_2_)" fill="#F0F5FA" cx="270.518" cy="244.534" rx="43.268" ry="23.461"/>
		
			<ellipse transform="matrix(0.8917 -0.4526 0.4526 0.8917 -81.3789 148.9019)" clip-path="url(#SVGID_2_)" fill="#EFF5FA" cx="270.518" cy="244.534" rx="42.831" ry="23.224"/>
		
			<ellipse transform="matrix(0.8917 -0.4526 0.4526 0.8917 -81.3791 148.9019)" clip-path="url(#SVGID_2_)" fill="#EEF4FA" cx="270.518" cy="244.535" rx="42.394" ry="22.986"/>
		
			<ellipse transform="matrix(0.8917 -0.4526 0.4526 0.8917 -81.3787 148.8998)" clip-path="url(#SVGID_2_)" fill="#EEF4FA" cx="270.518" cy="244.535" rx="41.957" ry="22.75"/>
		
			<ellipse transform="matrix(0.8917 -0.4526 0.4526 0.8917 -81.3784 148.8997)" clip-path="url(#SVGID_2_)" fill="#EDF3F9" cx="270.518" cy="244.534" rx="41.52" ry="22.513"/>
		
			<ellipse transform="matrix(0.8917 -0.4526 0.4526 0.8917 -81.3799 148.9055)" clip-path="url(#SVGID_2_)" fill="#ECF3F9" cx="270.518" cy="244.534" rx="41.082" ry="22.276"/>
		
			<ellipse transform="matrix(0.8917 -0.4526 0.4526 0.8917 -81.3788 148.9018)" clip-path="url(#SVGID_2_)" fill="#ECF2F9" cx="270.518" cy="244.534" rx="40.645" ry="22.039"/>
		
			<ellipse transform="matrix(0.8917 -0.4526 0.4526 0.8917 -81.3791 148.9018)" clip-path="url(#SVGID_2_)" fill="#EBF2F9" cx="270.518" cy="244.535" rx="40.208" ry="21.801"/>
		
			<ellipse transform="matrix(0.8917 -0.4526 0.4526 0.8917 -81.3788 148.9017)" clip-path="url(#SVGID_2_)" fill="#EAF1F9" cx="270.518" cy="244.534" rx="39.771" ry="21.565"/>
		
			<ellipse transform="matrix(0.8917 -0.4526 0.4526 0.8917 -81.379 148.9017)" clip-path="url(#SVGID_2_)" fill="#E9F1F8" cx="270.518" cy="244.535" rx="39.334" ry="21.327"/>
		
			<ellipse transform="matrix(0.8917 -0.4526 0.4526 0.8917 -81.3788 148.9017)" clip-path="url(#SVGID_2_)" fill="#E9F0F8" cx="270.518" cy="244.534" rx="38.897" ry="21.091"/>
		
			<ellipse transform="matrix(0.8917 -0.4526 0.4526 0.8917 -81.379 148.9017)" clip-path="url(#SVGID_2_)" fill="#E8F0F8" cx="270.518" cy="244.535" rx="38.46" ry="20.854"/>
		
			<ellipse transform="matrix(0.8917 -0.4526 0.4526 0.8917 -81.3788 148.9016)" clip-path="url(#SVGID_2_)" fill="#E7EFF8" cx="270.518" cy="244.534" rx="38.023" ry="20.618"/>
		
			<ellipse transform="matrix(0.8917 -0.4526 0.4526 0.8917 -81.379 148.9017)" clip-path="url(#SVGID_2_)" fill="#E6EFF7" cx="270.518" cy="244.535" rx="37.586" ry="20.38"/>
		
			<ellipse transform="matrix(0.8917 -0.4526 0.4526 0.8917 -81.3794 148.9034)" clip-path="url(#SVGID_2_)" fill="#E5EEF7" cx="270.518" cy="244.534" rx="37.149" ry="20.143"/>
		
			<ellipse transform="matrix(0.8917 -0.4526 0.4526 0.8917 -81.3783 148.8993)" clip-path="url(#SVGID_2_)" fill="#E5EEF7" cx="270.518" cy="244.534" rx="36.712" ry="19.906"/>
		
			<ellipse transform="matrix(0.8917 -0.4526 0.4526 0.8917 -81.3794 148.9034)" clip-path="url(#SVGID_2_)" fill="#E4EDF7" cx="270.518" cy="244.534" rx="36.275" ry="19.67"/>
		
			<ellipse transform="matrix(0.8917 -0.4526 0.4526 0.8917 -81.3802 148.9059)" clip-path="url(#SVGID_2_)" fill="#E3EDF6" cx="270.518" cy="244.535" rx="35.838" ry="19.433"/>
		
			<ellipse transform="matrix(0.8917 -0.4526 0.4526 0.8917 -81.379 148.9016)" clip-path="url(#SVGID_2_)" fill="#E2ECF6" cx="270.518" cy="244.535" rx="35.401" ry="19.195"/>
		
			<ellipse transform="matrix(0.8917 -0.4526 0.4526 0.8917 -81.3788 148.9015)" clip-path="url(#SVGID_2_)" fill="#E1EBF6" cx="270.518" cy="244.534" rx="34.964" ry="18.958"/>
		
			<ellipse transform="matrix(0.8917 -0.4526 0.4526 0.8917 -81.379 148.9015)" clip-path="url(#SVGID_2_)" fill="#E0EBF6" cx="270.518" cy="244.535" rx="34.527" ry="18.721"/>
		
			<ellipse transform="matrix(0.8917 -0.4526 0.4526 0.8917 -81.3787 148.9014)" clip-path="url(#SVGID_2_)" fill="#DFEAF5" cx="270.518" cy="244.534" rx="34.09" ry="18.484"/>
		
			<ellipse transform="matrix(0.8917 -0.4526 0.4526 0.8917 -81.3789 148.9014)" clip-path="url(#SVGID_2_)" fill="#DEEAF5" cx="270.518" cy="244.535" rx="33.653" ry="18.248"/>
		
			<ellipse transform="matrix(0.8917 -0.4526 0.4526 0.8917 -81.3787 148.9013)" clip-path="url(#SVGID_2_)" fill="#DDE9F5" cx="270.518" cy="244.534" rx="33.216" ry="18.01"/>
		
			<ellipse transform="matrix(0.8917 -0.4526 0.4526 0.8917 -81.3789 148.9013)" clip-path="url(#SVGID_2_)" fill="#DCE8F4" cx="270.518" cy="244.535" rx="32.779" ry="17.773"/>
		
			<ellipse transform="matrix(0.8917 -0.4526 0.4526 0.8917 -81.3776 148.8966)" clip-path="url(#SVGID_2_)" fill="#DBE8F4" cx="270.518" cy="244.535" rx="32.342" ry="17.536"/>
		
			<ellipse transform="matrix(0.8917 -0.4525 0.4525 0.8917 -81.3774 148.8964)" clip-path="url(#SVGID_2_)" fill="#DAE7F4" cx="270.518" cy="244.534" rx="31.905" ry="17.299"/>
		
			<ellipse transform="matrix(0.8917 -0.4526 0.4526 0.8917 -81.3794 148.9034)" clip-path="url(#SVGID_2_)" fill="#D9E6F3" cx="270.518" cy="244.534" rx="31.468" ry="17.063"/>
		
			<ellipse transform="matrix(0.8917 -0.4526 0.4526 0.8917 -81.3802 148.9062)" clip-path="url(#SVGID_2_)" fill="#D8E6F3" cx="270.518" cy="244.535" rx="31.03" ry="16.825"/>
		
			<ellipse transform="matrix(0.8917 -0.4526 0.4526 0.8917 -81.3789 148.9012)" clip-path="url(#SVGID_2_)" fill="#D7E5F3" cx="270.518" cy="244.535" rx="30.593" ry="16.588"/>
		
			<ellipse transform="matrix(0.8917 -0.4526 0.4526 0.8917 -81.3787 148.9011)" clip-path="url(#SVGID_2_)" fill="#D6E4F2" cx="270.518" cy="244.534" rx="30.156" ry="16.351"/>
		
			<ellipse transform="matrix(0.8917 -0.4526 0.4526 0.8917 -81.38 148.9063)" clip-path="url(#SVGID_2_)" fill="#D5E4F2" cx="270.518" cy="244.534" rx="29.719" ry="16.115"/>
		
			<ellipse transform="matrix(0.8917 -0.4526 0.4526 0.8917 -81.3786 148.9011)" clip-path="url(#SVGID_2_)" fill="#D4E3F2" cx="270.518" cy="244.534" rx="29.282" ry="15.878"/>
		
			<ellipse transform="matrix(0.8917 -0.4526 0.4526 0.8917 -81.3788 148.9011)" clip-path="url(#SVGID_2_)" fill="#D3E2F1" cx="270.518" cy="244.535" rx="28.845" ry="15.64"/>
		
			<ellipse transform="matrix(0.8917 -0.4526 0.4526 0.8917 -81.3786 148.901)" clip-path="url(#SVGID_2_)" fill="#D2E1F1" cx="270.518" cy="244.534" rx="28.408" ry="15.404"/>
		
			<ellipse transform="matrix(0.8917 -0.4526 0.4526 0.8917 -81.3788 148.9009)" clip-path="url(#SVGID_2_)" fill="#D0E1F1" cx="270.518" cy="244.535" rx="27.971" ry="15.166"/>
		
			<ellipse transform="matrix(0.8917 -0.4526 0.4526 0.8917 -81.3786 148.9008)" clip-path="url(#SVGID_2_)" fill="#CFE0F0" cx="270.518" cy="244.534" rx="27.534" ry="14.93"/>
		
			<ellipse transform="matrix(0.8917 -0.4526 0.4526 0.8917 -81.3788 148.9008)" clip-path="url(#SVGID_2_)" fill="#CEDFF0" cx="270.518" cy="244.535" rx="27.097" ry="14.693"/>
		
			<ellipse transform="matrix(0.8917 -0.4526 0.4526 0.8917 -81.3794 148.9034)" clip-path="url(#SVGID_2_)" fill="#CDDEF0" cx="270.518" cy="244.534" rx="26.66" ry="14.456"/>
		
			<ellipse transform="matrix(0.8917 -0.4526 0.4526 0.8917 -81.3796 148.9035)" clip-path="url(#SVGID_2_)" fill="#CCDEEF" cx="270.518" cy="244.535" rx="26.223" ry="14.219"/>
		
			<ellipse transform="matrix(0.8917 -0.4526 0.4526 0.8917 -81.378 148.8975)" clip-path="url(#SVGID_2_)" fill="#CBDDEF" cx="270.518" cy="244.535" rx="25.786" ry="13.981"/>
		
			<ellipse transform="matrix(0.8917 -0.4526 0.4526 0.8917 -81.3785 148.9007)" clip-path="url(#SVGID_2_)" fill="#C9DCEF" cx="270.518" cy="244.534" rx="25.348" ry="13.745"/>
		
			<ellipse transform="matrix(0.8917 -0.4526 0.4526 0.8917 -81.3802 148.9067)" clip-path="url(#SVGID_2_)" fill="#C8DBEE" cx="270.518" cy="244.534" rx="24.912" ry="13.508"/>
		
			<ellipse transform="matrix(0.8917 -0.4526 0.4526 0.8917 -81.3804 148.9069)" clip-path="url(#SVGID_2_)" fill="#C7DAEE" cx="270.518" cy="244.535" rx="24.475" ry="13.27"/>
		
			<ellipse transform="matrix(0.8917 -0.4526 0.4526 0.8917 -81.3787 148.9005)" clip-path="url(#SVGID_2_)" fill="#C5D9ED" cx="270.518" cy="244.535" rx="24.038" ry="13.034"/>
		
			<ellipse transform="matrix(0.8917 -0.4526 0.4526 0.8917 -81.3785 148.9004)" clip-path="url(#SVGID_2_)" fill="#C4D9ED" cx="270.518" cy="244.534" rx="23.601" ry="12.797"/>
		
			<ellipse transform="matrix(0.8917 -0.4526 0.4526 0.8917 -81.3787 148.9004)" clip-path="url(#SVGID_2_)" fill="#C3D8ED" cx="270.518" cy="244.535" rx="23.164" ry="12.56"/>
		
			<ellipse transform="matrix(0.8917 -0.4526 0.4526 0.8917 -81.3784 148.9003)" clip-path="url(#SVGID_2_)" fill="#C2D7EC" cx="270.518" cy="244.534" rx="22.727" ry="12.323"/>
		
			<ellipse transform="matrix(0.8917 -0.4526 0.4526 0.8917 -81.3786 148.9002)" clip-path="url(#SVGID_2_)" fill="#C0D6EC" cx="270.518" cy="244.535" rx="22.29" ry="12.085"/>
		
			<ellipse transform="matrix(0.8917 -0.4526 0.4526 0.8917 -81.3784 148.9001)" clip-path="url(#SVGID_2_)" fill="#BFD5EB" cx="270.518" cy="244.534" rx="21.853" ry="11.849"/>
		
			<ellipse transform="matrix(0.8917 -0.4526 0.4526 0.8917 -81.3786 148.9001)" clip-path="url(#SVGID_2_)" fill="#BDD4EB" cx="270.518" cy="244.535" rx="21.416" ry="11.611"/>
		
			<ellipse transform="matrix(0.8917 -0.4526 0.4526 0.8917 -81.3794 148.9034)" clip-path="url(#SVGID_2_)" fill="#BCD3EA" cx="270.518" cy="244.534" rx="20.978" ry="11.375"/>
		
			<ellipse transform="matrix(0.8917 -0.4526 0.4526 0.8917 -81.3784 148.9)" clip-path="url(#SVGID_2_)" fill="#BBD2EA" cx="270.518" cy="244.534" rx="20.541" ry="11.138"/>
		
			<ellipse transform="matrix(0.8917 -0.4526 0.4526 0.8917 -81.3804 148.9075)" clip-path="url(#SVGID_2_)" fill="#B9D1EA" cx="270.518" cy="244.534" rx="20.104" ry="10.901"/>
		
			<ellipse transform="matrix(0.8917 -0.4526 0.4526 0.8917 -81.3806 148.9076)" clip-path="url(#SVGID_2_)" fill="#B8D0E9" cx="270.518" cy="244.535" rx="19.667" ry="10.664"/>
		
			<ellipse transform="matrix(0.8917 -0.4526 0.4526 0.8917 -81.3785 148.8997)" clip-path="url(#SVGID_2_)" fill="#B6D0E9" cx="270.518" cy="244.535" rx="19.23" ry="10.427"/>
		
			<ellipse transform="matrix(0.8917 -0.4526 0.4526 0.8917 -81.3782 148.8996)" clip-path="url(#SVGID_2_)" fill="#B5CFE8" cx="270.518" cy="244.534" rx="18.793" ry="10.19"/>
		
			<ellipse transform="matrix(0.8917 -0.4526 0.4526 0.8917 -81.3805 148.9078)" clip-path="url(#SVGID_2_)" fill="#B3CEE8" cx="270.518" cy="244.534" rx="18.356" ry="9.954"/>
		
			<ellipse transform="matrix(0.8917 -0.4526 0.4526 0.8917 -81.3782 148.8994)" clip-path="url(#SVGID_2_)" fill="#B2CDE7" cx="270.518" cy="244.534" rx="17.919" ry="9.716"/>
		
			<ellipse transform="matrix(0.8917 -0.4526 0.4526 0.8917 -81.3784 148.8993)" clip-path="url(#SVGID_2_)" fill="#B0CCE7" cx="270.518" cy="244.535" rx="17.482" ry="9.479"/>
		
			<ellipse transform="matrix(0.8917 -0.4526 0.4526 0.8917 -81.3781 148.8991)" clip-path="url(#SVGID_2_)" fill="#AFCBE6" cx="270.518" cy="244.534" rx="17.045" ry="9.242"/>
		
			<ellipse transform="matrix(0.8917 -0.4526 0.4526 0.8917 -81.3783 148.899)" clip-path="url(#SVGID_2_)" fill="#ADCAE6" cx="270.518" cy="244.535" rx="16.608" ry="9.005"/>
		
			<ellipse transform="matrix(0.8917 -0.4526 0.4526 0.8917 -81.3794 148.9034)" clip-path="url(#SVGID_2_)" fill="#ACC9E5" cx="270.518" cy="244.534" rx="16.171" ry="8.769"/>
		
			<ellipse transform="matrix(0.8917 -0.4526 0.4526 0.8917 -81.3796 148.9035)" clip-path="url(#SVGID_2_)" fill="#AAC8E5" cx="270.518" cy="244.535" rx="15.734" ry="8.531"/>
		
			<ellipse transform="matrix(0.8917 -0.4526 0.4526 0.8917 -81.3794 148.9034)" clip-path="url(#SVGID_2_)" fill="#A9C7E5" cx="270.518" cy="244.534" rx="15.297" ry="8.295"/>
		
			<ellipse transform="matrix(0.8917 -0.4526 0.4526 0.8917 -81.381 148.9089)" clip-path="url(#SVGID_2_)" fill="#A7C6E4" cx="270.518" cy="244.535" rx="14.859" ry="8.056"/>
		
			<ellipse transform="matrix(0.8917 -0.4526 0.4526 0.8917 -81.3781 148.8984)" clip-path="url(#SVGID_2_)" fill="#A5C4E4" cx="270.518" cy="244.535" rx="14.422" ry="7.82"/>
		
			<ellipse transform="matrix(0.8917 -0.4526 0.4526 0.8917 -81.3779 148.8982)" clip-path="url(#SVGID_2_)" fill="#A4C3E3" cx="270.518" cy="244.534" rx="13.985" ry="7.584"/>
		
			<ellipse transform="matrix(0.8917 -0.4526 0.4526 0.8917 -81.3809 148.9093)" clip-path="url(#SVGID_2_)" fill="#A2C2E3" cx="270.518" cy="244.534" rx="13.549" ry="7.346"/>
		
			<ellipse transform="matrix(0.8917 -0.4526 0.4526 0.8917 -81.3777 148.8978)" clip-path="url(#SVGID_2_)" fill="#A0C1E2" cx="270.518" cy="244.534" rx="13.111" ry="7.109"/>
		
			<ellipse transform="matrix(0.8917 -0.4526 0.4526 0.8917 -81.3779 148.8976)" clip-path="url(#SVGID_2_)" fill="#9FC0E1" cx="270.518" cy="244.535" rx="12.674" ry="6.872"/>
		
			<ellipse transform="matrix(0.8917 -0.4526 0.4526 0.8917 -81.3776 148.8974)" clip-path="url(#SVGID_2_)" fill="#9DBFE1" cx="270.518" cy="244.534" rx="12.237" ry="6.635"/>
		
			<ellipse transform="matrix(0.8917 -0.4526 0.4526 0.8917 -81.3778 148.8972)" clip-path="url(#SVGID_2_)" fill="#9BBEE0" cx="270.518" cy="244.535" rx="11.8" ry="6.398"/>
		
			<ellipse transform="matrix(0.8917 -0.4526 0.4526 0.8917 -81.3775 148.8969)" clip-path="url(#SVGID_2_)" fill="#9ABDE0" cx="270.518" cy="244.534" rx="11.364" ry="6.162"/>
		
			<ellipse transform="matrix(0.8917 -0.4526 0.4526 0.8917 -81.3796 148.9035)" clip-path="url(#SVGID_2_)" fill="#98BCDF" cx="270.518" cy="244.535" rx="10.926" ry="5.924"/>
		
			<ellipse transform="matrix(0.8917 -0.4526 0.4526 0.8917 -81.3794 148.9034)" clip-path="url(#SVGID_2_)" fill="#96BADF" cx="270.518" cy="244.534" rx="10.489" ry="5.688"/>
		
			<ellipse transform="matrix(0.8917 -0.4526 0.4526 0.8917 -81.3796 148.9035)" clip-path="url(#SVGID_2_)" fill="#94B9DE" cx="270.518" cy="244.535" rx="10.052" ry="5.45"/>
		
			<ellipse transform="matrix(0.8917 -0.4526 0.4526 0.8917 -81.3815 148.9117)" clip-path="url(#SVGID_2_)" fill="#92B8DE" cx="270.518" cy="244.534" rx="9.615" ry="5.214"/>
		
			<ellipse transform="matrix(0.8917 -0.4525 0.4525 0.8917 -81.3771 148.8954)" clip-path="url(#SVGID_2_)" fill="#91B7DD" cx="270.518" cy="244.534" rx="9.178" ry="4.977"/>
		
			<ellipse transform="matrix(0.8917 -0.4526 0.4526 0.8917 -81.3817 148.9125)" clip-path="url(#SVGID_2_)" fill="#8FB6DD" cx="270.518" cy="244.534" rx="8.741" ry="4.74"/>
		
			<ellipse transform="matrix(0.8917 -0.4526 0.4526 0.8917 -81.3821 148.9129)" clip-path="url(#SVGID_2_)" fill="#8DB5DC" cx="270.518" cy="244.535" rx="8.304" ry="4.503"/>
		
			<ellipse transform="matrix(0.8917 -0.4525 0.4525 0.8917 -81.3769 148.894)" clip-path="url(#SVGID_2_)" fill="#8BB3DB" cx="270.518" cy="244.535" rx="7.867" ry="4.265"/>
		
			<ellipse transform="matrix(0.8917 -0.4525 0.4525 0.8917 -81.3765 148.8933)" clip-path="url(#SVGID_2_)" fill="#89B2DB" cx="270.518" cy="244.534" rx="7.43" ry="4.029"/>
		
			<ellipse transform="matrix(0.8917 -0.4525 0.4525 0.8917 -81.3766 148.8927)" clip-path="url(#SVGID_2_)" fill="#87B1DA" cx="270.518" cy="244.535" rx="6.993" ry="3.792"/>
		
			<ellipse transform="matrix(0.8917 -0.4525 0.4525 0.8917 -81.3762 148.8919)" clip-path="url(#SVGID_2_)" fill="#85B0DA" cx="270.518" cy="244.534" rx="6.556" ry="3.555"/>
		
			<ellipse transform="matrix(0.8917 -0.4525 0.4525 0.8917 -81.3761 148.8911)" clip-path="url(#SVGID_2_)" fill="#84AED9" cx="270.518" cy="244.535" rx="6.119" ry="3.318"/>
		
			<ellipse transform="matrix(0.8917 -0.4525 0.4525 0.8917 -81.3756 148.89)" clip-path="url(#SVGID_2_)" fill="#82ADD9" cx="270.518" cy="244.534" rx="5.682" ry="3.081"/>
		
			<ellipse transform="matrix(0.8917 -0.4526 0.4526 0.8917 -81.3796 148.9035)" clip-path="url(#SVGID_2_)" fill="#80ACD8" cx="270.518" cy="244.535" rx="5.245" ry="2.844"/>
		
			<ellipse transform="matrix(0.8918 -0.4525 0.4525 0.8918 -81.3753 148.888)" clip-path="url(#SVGID_2_)" fill="#7EAAD7" cx="270.518" cy="244.535" rx="4.807" ry="2.607"/>
		
			<ellipse transform="matrix(0.8918 -0.4525 0.4525 0.8918 -81.3746 148.8863)" clip-path="url(#SVGID_2_)" fill="#7CA9D7" cx="270.518" cy="244.534" rx="4.37" ry="2.37"/>
		
			<ellipse transform="matrix(0.8917 -0.4526 0.4526 0.8917 -81.3847 148.9233)" clip-path="url(#SVGID_2_)" fill="#7AA8D6" cx="270.518" cy="244.534" rx="3.933" ry="2.133"/>
		
			<ellipse transform="matrix(0.8917 -0.4526 0.4526 0.8917 -81.3856 148.9257)" clip-path="url(#SVGID_2_)" fill="#78A7D5" cx="270.518" cy="244.535" rx="3.496" ry="1.895"/>
		
			<ellipse transform="matrix(0.8918 -0.4525 0.4525 0.8918 -81.3728 148.8787)" clip-path="url(#SVGID_2_)" fill="#76A5D5" cx="270.518" cy="244.535" rx="3.059" ry="1.659"/>
		
			<ellipse transform="matrix(0.8918 -0.4525 0.4525 0.8918 -81.3714 148.8744)" clip-path="url(#SVGID_2_)" fill="#74A4D4" cx="270.518" cy="244.534" rx="2.622" ry="1.422"/>
		
			<ellipse transform="matrix(0.8917 -0.4527 0.4527 0.8917 -81.3889 148.9386)" clip-path="url(#SVGID_2_)" fill="#71A3D4" cx="270.518" cy="244.534" rx="2.185" ry="1.185"/>
		
			<ellipse transform="matrix(0.8918 -0.4525 0.4525 0.8918 -81.3674 148.8596)" clip-path="url(#SVGID_2_)" fill="#6FA1D3" cx="270.518" cy="244.534" rx="1.748" ry="0.948"/>
		
			<ellipse transform="matrix(0.8918 -0.4524 0.4524 0.8918 -81.3636 148.8448)" clip-path="url(#SVGID_2_)" fill="#6DA0D2" cx="270.518" cy="244.535" rx="1.311" ry="0.71"/>
		
			<ellipse transform="matrix(0.8918 -0.4523 0.4523 0.8918 -81.3553 148.8152)" clip-path="url(#SVGID_2_)" fill="#6B9ED2" cx="270.518" cy="244.534" rx="0.874" ry="0.474"/>
		
			<ellipse transform="matrix(0.8917 -0.4526 0.4526 0.8917 -81.3798 148.9039)" clip-path="url(#SVGID_2_)" fill="#699DD1" cx="270.518" cy="244.535" rx="0.437" ry="0.237"/>
	</g>
</g>
<g>
	<g>
		<g>
			<polygon fill="#E8A200" points="364.962,19.611 370.063,36.341 383.119,45.326 373.215,49.364 376.184,65.969 364.962,51.523 
				353.74,53.011 356.709,39.834 346.805,24.36 359.861,30.451 			"/>
			<path fill="#E85E00" d="M340.712,27.858l6.093-3.498l9.41,4.39c0,0-0.032,6.328,0,6.478s-3.879,0.338-4.142,0.338
				C351.81,35.566,340.712,27.858,340.712,27.858z"/>
			<path fill="#E85E00" d="M376.184,65.969l-6.093,3.498l-2.968-16.605c0,0,2.952-3.116,2.939-3.116s3.321,0.563,3.321,0.563
				L376.184,65.969z"/>
			<polygon fill="#FF6600" points="358.869,23.109 363.97,39.839 377.026,48.824 367.123,52.861 370.091,69.466 358.869,55.021 
				347.647,56.509 350.616,43.332 340.712,27.858 353.769,33.949 			"/>
			<path fill="#FFFFFF" d="M370.091,69.466l-2.968-16.605l9.903-4.037l-13.057-8.985l-5.101-16.73l-5.101,10.841l-13.057-6.091
				l0.91,1.421l12.581,5.868l4.486-9.536l4.508,14.791l11.94,8.217l-9.033,3.681l2.796,15.633L370.091,69.466z"/>
			<polygon fill="#E85E00" points="358.869,23.109 364.962,19.611 370.063,36.341 363.97,39.839 			"/>
			<polygon fill="#E85E00" points="383.119,45.326 377.026,48.824 363.97,39.839 370.063,36.341 			"/>
		</g>
		<polygon fill="#FFFFFF" points="364.274,40.259 363.346,39.724 369.927,35.895 370.063,36.341 370.496,36.639 		"/>
	</g>
	<g>
		<g>
			<polygon fill="#E8A200" points="406.577,43.432 411.678,60.162 424.734,69.147 414.83,73.185 417.799,89.79 406.577,75.344 
				395.355,76.832 398.324,63.655 388.42,48.181 401.477,54.272 			"/>
			<path fill="#E85E00" d="M382.327,51.679l6.093-3.498l9.41,4.39c0,0-0.032,6.327,0,6.478s-3.879,0.339-4.142,0.339
				C393.425,59.388,382.327,51.679,382.327,51.679z"/>
			<path fill="#E85E00" d="M417.799,89.79l-6.093,3.498l-2.968-16.604c0,0,2.952-3.117,2.939-3.117s3.321,0.564,3.321,0.564
				L417.799,89.79z"/>
			<polygon fill="#FF6600" points="400.484,46.93 405.585,63.66 418.642,72.645 408.738,76.683 411.706,93.287 400.484,78.841 
				389.263,80.329 392.231,67.152 382.327,51.679 395.384,57.77 			"/>
			<path fill="#FFFFFF" d="M411.706,93.287l-2.968-16.604l9.903-4.038l-13.056-8.985l-5.102-16.73l-5.101,10.84l-13.057-6.091
				l0.91,1.421l12.581,5.869l4.486-9.536l4.508,14.791l11.94,8.217l-9.033,3.681l2.796,15.633L411.706,93.287z"/>
			<polygon fill="#E85E00" points="400.484,46.93 406.577,43.432 411.678,60.162 405.585,63.66 			"/>
			<polygon fill="#E85E00" points="424.734,69.147 418.642,72.645 405.585,63.66 411.678,60.162 			"/>
		</g>
		<polygon fill="#FFFFFF" points="405.89,64.08 404.961,63.544 411.542,59.715 411.678,60.162 412.111,60.46 		"/>
	</g>
	<g>
		<g>
			<polygon fill="#E8A200" points="342.1,63.046 347.2,79.776 360.257,88.761 350.354,92.799 353.321,109.403 342.1,94.957 
				330.878,96.445 333.847,83.269 323.942,67.795 336.999,73.886 			"/>
			<path fill="#E85E00" d="M317.851,71.292l6.092-3.498l9.41,4.39c0,0-0.032,6.328,0,6.478c0.033,0.15-3.879,0.338-4.142,0.338
				C328.947,79.001,317.851,71.292,317.851,71.292z"/>
			<path fill="#E85E00" d="M353.321,109.403l-6.092,3.498l-2.969-16.605c0,0,2.953-3.116,2.939-3.116
				c-0.013,0,3.321,0.563,3.321,0.563L353.321,109.403z"/>
			<polygon fill="#FF6600" points="336.007,66.543 341.108,83.273 354.164,92.259 344.261,96.296 347.229,112.901 336.007,98.455 
				324.785,99.943 327.754,86.767 317.851,71.292 330.906,77.384 			"/>
			<path fill="#FFFFFF" d="M347.229,112.901l-2.969-16.605l9.903-4.037l-13.056-8.985l-5.102-16.73l-5.101,10.841l-13.056-6.091
				l0.909,1.421l12.581,5.868l4.486-9.535l4.508,14.791l11.94,8.217l-9.033,3.681l2.796,15.633L347.229,112.901z"/>
			<polygon fill="#E85E00" points="336.007,66.543 342.1,63.046 347.2,79.776 341.108,83.273 			"/>
			<polygon fill="#E85E00" points="360.257,88.761 354.164,92.259 341.108,83.273 347.2,79.776 			"/>
		</g>
		<polygon fill="#FFFFFF" points="341.412,83.694 340.483,83.158 347.064,79.329 347.2,79.776 347.634,80.074 		"/>
	</g>
	<g>
		<g>
			<polygon fill="#E8A200" points="383.715,86.867 388.815,103.597 401.872,112.582 391.969,116.62 394.937,133.224 
				383.715,118.778 372.493,120.267 375.462,107.09 365.558,91.616 378.614,97.707 			"/>
			<path fill="#E85E00" d="M359.466,95.113l6.092-3.498l9.41,4.39c0,0-0.032,6.327,0,6.478c0.033,0.15-3.878,0.339-4.142,0.339
				S359.466,95.113,359.466,95.113z"/>
			<path fill="#E85E00" d="M394.937,133.224l-6.092,3.498l-2.969-16.604c0,0,2.953-3.117,2.939-3.117
				c-0.013,0,3.322,0.564,3.322,0.564L394.937,133.224z"/>
			<polygon fill="#FF6600" points="377.623,90.364 382.724,107.094 395.779,116.08 385.876,120.117 388.845,136.722 
				377.623,122.276 366.4,123.764 369.369,110.587 359.466,95.113 372.521,101.205 			"/>
			<path fill="#FFFFFF" d="M388.845,136.722l-2.969-16.604l9.903-4.038l-13.056-8.985l-5.101-16.73l-5.102,10.84l-13.056-6.091
				l0.909,1.422l12.581,5.868l4.487-9.536l4.507,14.791l11.94,8.217l-9.033,3.681l2.796,15.633L388.845,136.722z"/>
			<polygon fill="#E85E00" points="377.623,90.364 383.715,86.867 388.815,103.597 382.724,107.094 			"/>
			<polygon fill="#E85E00" points="401.872,112.582 395.779,116.08 382.724,107.094 388.815,103.597 			"/>
		</g>
		<polygon fill="#FFFFFF" points="383.027,107.515 382.099,106.979 388.68,103.149 388.815,103.597 389.249,103.895 		"/>
	</g>
	<g>
		<g>
			<polygon fill="#E8A200" points="425.33,110.688 430.432,127.418 443.487,136.403 433.584,140.44 436.553,157.045 425.33,142.599 
				414.108,144.087 417.077,130.911 407.174,115.437 420.229,121.528 			"/>
			<path fill="#E85E00" d="M401.081,118.935l6.093-3.498l9.409,4.391c0,0-0.032,6.327,0,6.478c0.033,0.15-3.878,0.338-4.142,0.338
				S401.081,118.935,401.081,118.935z"/>
			<path fill="#E85E00" d="M436.553,157.045l-6.093,3.498l-2.969-16.605c0,0,2.953-3.117,2.94-3.117
				c-0.014,0,3.321,0.564,3.321,0.564L436.553,157.045z"/>
			<polygon fill="#FF6600" points="419.238,114.185 424.339,130.915 437.396,139.9 427.491,143.938 430.46,160.543 419.238,146.097 
				408.017,147.585 410.984,134.408 401.081,118.935 414.137,125.025 			"/>
			<path fill="#FFFFFF" d="M430.46,160.543l-2.969-16.605l9.904-4.038l-13.057-8.985l-5.101-16.73l-5.102,10.84l-13.056-6.091
				l0.909,1.421l12.581,5.868l4.487-9.535l4.508,14.791l11.939,8.217l-9.033,3.681l2.796,15.633L430.46,160.543z"/>
			<polygon fill="#E85E00" points="419.238,114.185 425.33,110.688 430.432,127.418 424.339,130.915 			"/>
			<polygon fill="#E85E00" points="443.487,136.403 437.396,139.9 424.339,130.915 430.432,127.418 			"/>
		</g>
		<polygon fill="#FFFFFF" points="424.643,131.336 423.715,130.8 430.295,126.971 430.432,127.418 430.864,127.716 		"/>
	</g>
</g>
<g>
	<g>
		<g>
			<path fill="#5793CE" d="M249.455,310.163c0,0-5.596-2.822-9.032,1.38s-8.349,14.121-8.501,20.824
				c-0.152,6.702,5.305,6.25,8.548,4.664c3.243-1.587,12.718-15.331,13.292-18.024c0.573-2.692-0.677-6.334-1.588-7.047
				C251.262,311.248,249.455,310.163,249.455,310.163z"/>
			<path fill="#D4ECFF" d="M250.676,308.814l0.26,5.798c0.055,1.232-0.565,2.407-1.639,3.016c-0.978,0.555-2.397,0.979-4.316,0.671
				c-4.215-0.678-4.592-1.882-4.893-7.678S250.676,308.814,250.676,308.814z"/>
			<g>
				<path fill="#5793CE" d="M228.972,299.016c0,0-5.596-2.822-9.032,1.38s-8.349,14.122-8.501,20.824
					c-0.152,6.703,5.305,6.251,8.548,4.664s12.719-15.331,13.292-18.023c0.573-2.693-0.677-6.335-1.588-7.048
					C230.778,300.101,228.972,299.016,228.972,299.016z"/>
				<path fill="#D4ECFF" d="M230.193,297.668l0.259,5.797c0.055,1.232-0.565,2.407-1.639,3.016
					c-0.977,0.555-2.396,0.979-4.316,0.672c-4.215-0.678-4.592-1.883-4.893-7.678C219.304,293.678,230.193,297.668,230.193,297.668z
					"/>
				<path fill="#173D7A" d="M280.124,191.232c-1.656-26.948-29.184,3.964-29.184,3.964L232.1,213.663l-16.965,18.638
					c-3.313,3.639-4.855,8.554-4.215,13.434l6.863,52.259c0.339,2.581,2.548,4.484,5.15,4.464c0.735-0.006,1.577-0.072,2.542-0.223
					c6.122-0.954,5.671-6.775,5.671-6.775l-1.255-48.877l35.629-21.478C265.521,225.104,281.78,218.18,280.124,191.232z"/>
			</g>
			<path fill="#173D7A" d="M300.607,201.499c-1.656-26.947-29.184,3.965-29.184,3.965l-18.841,18.467l-16.966,18.637
				c-3.313,3.64-4.854,8.555-4.214,13.435l6.863,52.259c0.339,2.581,2.547,4.484,5.15,4.464c0.734-0.006,1.577-0.073,2.542-0.224
				c6.122-0.953,5.671-6.774,5.671-6.774l-1.219-47.471l35.593-22.884C286.004,235.372,302.263,228.447,300.607,201.499z"/>
			<path fill="#ED852F" d="M284.322,114.996c20.869,8.652,20.451,20.989,20.451,20.989s-4.088,45.227-2.692,75.432
				c0.583,12.627-67.087,13.591-56.995-20.097c11.898-39.719,7.438-71.874,13.009-76.724
				C263.665,109.747,278.924,112.758,284.322,114.996z"/>
			
				<ellipse transform="matrix(0.9684 0.2494 -0.2494 0.9684 39.6147 -66.1015)" fill="#FFC2B0" cx="280.612" cy="123.25" rx="10.764" ry="7.923"/>
			<path fill="#FFFFFF" d="M282.68,131.014l-3.84,4.169c-0.499,0.541-0.736,1.272-0.652,2.003l2.64,22.827
				c0.074,0.64-0.103,1.284-0.494,1.795l-8.262,10.808c-0.366,0.479-1.12,0.348-1.303-0.227l-4.498-14.156
				c-0.171-0.536-0.154-1.114,0.047-1.64l7.912-20.732c0.174-0.454,0.212-0.948,0.112-1.423l-1.158-5.496L282.68,131.014z"/>
			<path fill="#FFFFFF" d="M282.158,132.374c-1.224,0-2.493-0.156-3.771-0.485c-2.988-0.771-5.587-2.361-7.316-4.481
				c-1.801-2.209-2.457-4.728-1.848-7.091c1.227-4.763,7.329-7.325,13.615-5.705c6.279,1.617,10.391,6.809,9.164,11.572l0,0
				C291.024,129.978,286.95,132.374,282.158,132.374z M279.017,116.115c-3.876,0-7.115,1.802-7.862,4.699
				c-0.446,1.735,0.073,3.628,1.463,5.332c1.462,1.793,3.688,3.146,6.268,3.811c5.213,1.342,10.232-0.573,11.186-4.271
				c0.951-3.697-2.516-7.799-7.73-9.142C281.21,116.253,280.089,116.115,279.017,116.115z"/>
			<path fill="#FFC2B0" d="M275.954,114.055c0,0,0.181,0.837-0.181,7.451c-0.113,2.079,7.166,4.021,9.048,2.139
				c1.882-1.882,1.129-3.839,1.581-10.915C286.854,105.655,275.954,114.055,275.954,114.055z"/>
			<path fill="#EA9C92" d="M286.402,112.73c0,0-1.793,6.561-10.63,9.077l0.134-5.962L286.402,112.73z"/>
			<circle fill="#FFC2B0" cx="276.447" cy="100.083" r="16.064"/>
			<path fill="#EA9C92" d="M280.137,100.672c0,0-8.845,3.789-14.969,3.833c-6.124,0.043-4.774-5.085-4.774-5.085l18.18-2.627
				L280.137,100.672z"/>
			<path fill="#D4ECFF" d="M263.342,101.671c0,0,7.705-3.271,14.465-1.907c1.588,0.32,3.062,1.17,4.084,2.428
				c0.334,0.41,0.757,0.785,1.236,0.894c1.198,0.272,3.16-4.701,5.49-4.814s3.885,1.536,1.974,4.594
				c-1.91,3.058-1.264,6.481-0.385,6.972s11.759-7.102,3.535-23.392c-8.223-16.29-30.669-7.063-33.918-3.762
				c0,0-3.423,2.982-6.206,0.329C253.617,83.011,250.498,106.382,263.342,101.671z"/>
			<path fill="#FFC2B0" d="M293.066,169.028v12.221c0,1.4-0.59,2.736-1.625,3.679l-25.105,22.889l2.853,4.362l34.588-22.679
				c1.547-1.123,2.545-2.85,2.745-4.751l2.365-22.679L293.066,169.028z"/>
			<path fill="#ED852F" d="M303.007,129.874c0,0,7.615,11.455,10.453,41.604c0,0-13.01,4.208-20.394,1.819
				C285.683,170.909,303.007,129.874,303.007,129.874z"/>
			<path fill="#DF7425" d="M291.676,144.357c0,0-2.982,15.958-3.151,23.458c-0.047,2.061,1.212,3.922,3.151,4.624l0,0V144.357z"/>
		</g>
		<g>
			<path fill="#5793CE" d="M285.162,223.707l-5.549-0.732l-35.818-20.68c-1.148-0.663-3.154-0.58-4.48,0.186l-25.38,14.648
				l-3.355-0.443v3.34l0.003,0.001c-0.021,0.44,0.229,0.863,0.771,1.176l40.593,23.437c1.148,0.663,3.154,0.58,4.479-0.186
				l27.641-15.953c0.746-0.431,1.118-0.985,1.097-1.507l0,0V223.707z"/>
			<path fill="#396CAA" d="M258.249,210.641l-2.545-1.47h-27.978l-13.792,7.958l-3.355-0.443v3.34l0.003,0.001
				c-0.021,0.44,0.229,0.863,0.771,1.176l40.593,23.437c0.606,0.35,1.453,0.49,2.312,0.434L258.249,210.641z"/>
			<path fill="#5793CE" d="M212.068,216.883l-1.489-0.197v3.34l0.003,0.001c-0.021,0.44,0.229,0.863,0.771,1.176l0.716,0.413
				V216.883z"/>
			<path fill="#5793CE" d="M252.354,244.828c1.089,0.413,2.646,0.323,3.807-0.236v-5.683h-3.807V244.828z"/>
			<path fill="#FFFFFF" d="M251.945,241.301l-40.593-23.437c-1.148-0.663-1.004-1.821,0.321-2.587l27.641-15.953
				c1.326-0.765,3.332-0.848,4.48-0.186l40.593,23.437c1.148,0.663,1.004,1.821-0.322,2.587l-27.641,15.953
				C255.1,241.881,253.094,241.964,251.945,241.301z"/>
			<path fill="#D4ECFF" d="M251.259,237.748l-33.753-19.486c-0.955-0.552-0.835-1.515,0.268-2.151l14.812-8.329
				c1.103-0.637,2.771-0.705,3.726-0.154l33.752,19.487c0.955,0.551,0.836,1.514-0.267,2.15l-14.813,8.329
				C253.881,238.23,252.213,238.3,251.259,237.748z"/>
		</g>
		<path fill="#FFC2B0" d="M240.885,198.556l-0.421,2.801c-0.357,2.387-0.296,4.817,0.184,7.182l0.499,2.468
			c0.282,1.393,1.384,2.473,2.781,2.727l0,0c1.092,0.199,2.122-0.568,2.246-1.67l0.67-5.988c0,0,1.531,2.008,2.271,2.008
			c0.739,0-0.828-5.997-2.501-9.391S240.885,198.556,240.885,198.556z"/>
		<path fill="#FFC2B0" d="M254.645,154.041l-4.356,8.621c-1.029,2.039-1.636,4.264-1.782,6.543l-1.892,29.486l-5.729-0.136
			l-2.602-33.114c-0.08-1.023-0.03-2.051,0.148-3.061l2.971-16.792L254.645,154.041z"/>
		<g>
			<path fill="#173D7A" d="M250.57,243.552l-3.403-4.443l-35.793-20.724c-1.147-0.664-2.076-2.443-2.075-3.975l0.031-29.305
				l-2.058-2.687l1.934-1.12l0.002,0.003c0.37-0.239,0.862-0.232,1.403,0.081l40.564,23.486c1.147,0.664,2.076,2.444,2.074,3.976
				l-0.034,31.913c-0.001,0.861-0.297,1.461-0.759,1.702l0,0L250.57,243.552z"/>
			<path fill="#396CAA" d="M225.817,226.748l-2.543-1.473l-13.959-24.246l0.015-15.924l-2.058-2.687l1.934-1.12l0.002,0.003
				c0.37-0.239,0.862-0.232,1.403,0.081l40.564,23.486c0.606,0.351,1.149,1.015,1.529,1.787L225.817,226.748z"/>
			<path fill="#5793CE" d="M208.186,183.611l-0.913-1.192l1.934-1.12l0.002,0.003c0.37-0.239,0.862-0.232,1.403,0.081l0.715,0.414
				L208.186,183.611z"/>
			<path fill="#274F89" d="M251.544,205.127c0.901,0.738,1.6,2.131,1.694,3.418l-3.964,2.288l-1.899-3.299L251.544,205.127z"/>
			<path fill="#5793CE" d="M249.244,205.986l-40.564-23.485c-1.147-0.664-2.079,0.038-2.081,1.569l-0.034,31.914
				c-0.002,1.531,0.927,3.311,2.074,3.976l40.564,23.485c1.147,0.664,2.079-0.038,2.081-1.569l0.034-31.914
				C251.32,208.431,250.392,206.651,249.244,205.986z"/>
		</g>
		<path fill="#FFC2B0" d="M269.188,212.179l-0.649,1.347c-0.749,1.551-1.925,2.854-3.391,3.758l-4.029,2.484
			c-1.254,0.772-2.841,0.836-4.113,0.095c-0.046-0.026-0.092-0.055-0.138-0.083c-1.28-0.802-1.396-2.641-0.342-3.724l4.21-4.329
			c0,0-2.365,1.813-3.028,1.082c-0.485-0.534,2.294-3.145,4.429-3.23c2.134-0.085,4.199-1.762,4.199-1.762L269.188,212.179z"/>
		<path fill="#ED852F" d="M258.513,114.533c0,0-15.436,16.795-21.662,32.203c0,0,5.278,9.509,18.198,13.241
			S258.513,114.533,258.513,114.533z"/>
		<path fill="#DF7425" d="M252.143,158.98l2.502-24.168l-5.896,22.643C249.8,158.003,250.937,158.513,252.143,158.98z"/>
		<path fill="#FFFFFF" d="M270.073,111.144l-4.147-1.139c0,0,1.98,3.114,4.871,3.909s3.341-1.653,3.341-1.653L270.073,111.144z"/>
	</g>
	<circle fill="#FFFFFF" cx="289.917" cy="104.505" r="2.31"/>
</g>
<path fill="#173D7A" d="M413.806,285.189l-6.734,3.889c-0.895,0.516-1.619-0.032-1.619-1.225l0,0c0-1.192,0.725-2.578,1.619-3.094
	l6.734-3.889c0.895-0.517,1.619,0.031,1.619,1.225l0,0C415.425,283.288,414.7,284.673,413.806,285.189z"/>
<g>
	<g>
		<path fill="#E85E00" d="M385.371,171.043l-51.512-29.74c-1.02-0.588-1.94-0.611-2.663-0.214c0.001-0.004,0.004-0.033,0.004-0.033
			l-4.996,2.887c0,0,2.212,0.806,3.511,1.283v37.513c0,3.052,1.855,6.597,4.145,7.919l49.235,28.426v4.401l5.048-2.907l-0.026-0.01
			c0.853-0.52,1.399-1.662,1.399-3.304v-38.302C389.516,175.91,387.66,172.365,385.371,171.043z"/>
		<path fill="#FF6600" d="M380.283,223.331l-51.512-29.74c-2.289-1.321-4.145-4.867-4.145-7.919v-38.303
			c0-3.052,1.855-4.455,4.145-3.133l51.512,29.741c2.289,1.321,4.145,4.867,4.145,7.919v38.302
			C384.428,223.25,382.572,224.652,380.283,223.331z"/>
		<path fill="#FFFFFF" d="M381.545,173.388l-51.512-29.74c-1.255-0.725-2.365-0.607-3.125,0.128
			c0.563-0.055,1.189,0.072,1.863,0.461l51.512,29.74c2.289,1.321,4.145,4.867,4.145,7.919v38.303c0,1.38-0.393,2.398-1.02,3.004
			c1.348-0.133,2.281-1.44,2.281-3.593v-38.303C385.689,178.255,383.834,174.709,381.545,173.388z"/>
	</g>
	<g>
		<path fill="#FFFFFF" d="M346.094,180.392c0,2.216-1.556,3.115-3.476,2.007c-1.919-1.108-3.476-3.804-3.476-6.021
			c0-2.216,1.557-3.114,3.476-2.006C344.538,175.48,346.094,178.175,346.094,180.392z"/>
		<path fill="#FFFFFF" d="M356.623,186.471c0,2.217-1.556,3.114-3.476,2.006c-1.919-1.107-3.476-3.803-3.476-6.02
			c0-2.216,1.557-3.114,3.476-2.006C355.067,181.559,356.623,184.254,356.623,186.471z"/>
		<path fill="#FFFFFF" d="M367.152,192.55c0,2.216-1.556,3.114-3.476,2.006s-3.476-3.803-3.476-6.02
			c0-2.216,1.556-3.115,3.476-2.007C365.597,187.638,367.152,190.333,367.152,192.55z"/>
	</g>
</g>
<g opacity="0.2">
	<g>
		<g>
			<path fill="#FF6600" d="M385.371,233.396l-51.512-29.74c-1.02-0.588-1.94-0.61-2.663-0.213c0.001-0.004,0.004-0.033,0.004-0.033
				l-4.996,2.887c0,0,2.212,0.807,3.511,1.283v37.513c0,3.052,1.855,6.597,4.145,7.919l49.235,28.426v4.401l5.048-2.907
				l-0.026-0.009c0.853-0.521,1.399-1.662,1.399-3.304v-38.303C389.516,238.264,387.66,234.719,385.371,233.396z"/>
			<path fill="#FF6600" d="M380.283,285.685l-51.512-29.74c-2.289-1.321-4.145-4.867-4.145-7.919v-38.303
				c0-3.052,1.855-4.455,4.145-3.133l51.512,29.74c2.289,1.322,4.145,4.867,4.145,7.919v38.303
				C384.428,285.604,382.572,287.006,380.283,285.685z"/>
			<path fill="#FF6600" d="M381.545,235.741l-51.512-29.739c-1.255-0.726-2.365-0.607-3.125,0.127
				c0.563-0.055,1.189,0.072,1.863,0.461l51.512,29.74c2.289,1.321,4.145,4.867,4.145,7.919v38.303c0,1.38-0.393,2.398-1.02,3.005
				c1.348-0.133,2.281-1.441,2.281-3.594V243.66C385.689,240.608,383.834,237.063,381.545,235.741z"/>
		</g>
	</g>
	<g>
		<path fill="#FFFFFF" d="M346.094,242.745c0,2.217-1.556,3.115-3.476,2.007c-1.919-1.108-3.476-3.804-3.476-6.02
			c0-2.217,1.557-3.115,3.476-2.007C344.538,237.834,346.094,240.529,346.094,242.745z"/>
		<path fill="#FFFFFF" d="M356.623,248.824c0,2.217-1.556,3.115-3.476,2.007c-1.919-1.108-3.476-3.804-3.476-6.021
			c0-2.216,1.557-3.114,3.476-2.006C355.067,243.913,356.623,246.607,356.623,248.824z"/>
		<path fill="#FFFFFF" d="M367.152,254.903c0,2.216-1.556,3.114-3.476,2.007c-1.92-1.108-3.476-3.804-3.476-6.021
			c0-2.216,1.556-3.114,3.476-2.006S367.152,252.687,367.152,254.903z"/>
	</g>
</g>
<g>
	<polygon fill="#D4ECFF" points="319.229,264.414 384.354,226.814 380.196,224.414 315.071,262.015 	"/>
	<polygon fill="#D4ECFF" points="364.541,253.453 397.517,234.414 393.359,232.015 360.385,251.053 	"/>
	<polygon fill="#FF6600" points="348.538,262.691 359.233,256.518 355.076,254.117 344.382,260.292 	"/>
	<polygon fill="#FFFFFF" points="332.392,272.015 343.086,265.84 338.93,263.439 328.234,269.614 	"/>
	<polygon fill="#FFFFFF" points="364.172,246.066 390.935,230.614 386.778,228.215 360.016,243.666 	"/>
	<polygon fill="#D4ECFF" points="331.504,264.928 358.267,249.476 354.109,247.076 327.347,262.527 	"/>
	<g>
		<path fill="#FF6600" d="M351.317,231.898c1.339,0.772,3.51,0.772,4.85-0.001c1.339-0.772,1.339-2.026,0-2.8
			c-1.34-0.772-3.511-0.772-4.85,0C349.978,229.871,349.978,231.125,351.317,231.898z"/>
		<path fill="#FFFFFF" d="M344.07,236.082c1.34,0.772,3.511,0.773,4.85,0c1.34-0.773,1.34-2.027,0-2.801
			c-1.339-0.772-3.51-0.772-4.85,0C342.731,234.055,342.731,235.309,344.07,236.082z"/>
		<path fill="#D4ECFF" d="M336.824,240.266c1.339,0.773,3.511,0.773,4.85,0s1.339-2.027,0-2.801c-1.339-0.772-3.511-0.772-4.85,0
			C335.485,238.238,335.485,239.492,336.824,240.266z"/>
		<path fill="#FF6600" d="M329.578,244.449c1.339,0.773,3.51,0.773,4.85,0c1.339-0.773,1.339-2.027,0-2.801
			c-1.34-0.772-3.511-0.772-4.85,0.001C328.238,242.422,328.238,243.676,329.578,244.449z"/>
		<path fill="#FFFFFF" d="M322.331,248.633c1.34,0.773,3.511,0.773,4.85,0c1.34-0.773,1.34-2.027,0-2.8
			c-1.339-0.773-3.51-0.773-4.85,0C320.992,246.605,320.992,247.859,322.331,248.633z"/>
	</g>
</g>
<g>
	<polygon fill="#FF6600" points="187.24,175.396 198.205,169.065 193.943,166.604 182.978,172.936 	"/>
	<polygon fill="#FFFFFF" points="171.971,184.211 182.937,177.881 178.675,175.42 167.709,181.751 	"/>
	<polygon fill="#FFFFFF" points="189.685,181.776 204.953,172.961 200.691,170.501 185.422,179.316 	"/>
	<polygon fill="#D4ECFF" points="178.719,188.107 185.419,184.239 181.157,181.778 174.458,185.646 	"/>
</g>
<g>
	<g>
		<path fill="#D5DAE0" d="M324.682,367.892c-10.858,6.269-28.462,6.269-39.32-0.001c-10.858-6.269-10.858-16.433-0.001-22.701
			c10.858-6.269,28.462-6.269,39.32,0C335.539,351.459,335.539,361.623,324.682,367.892z"/>
		<path fill="#E85E00" d="M337.561,339.137v-9.136h-1.725c-1.549-2.666-4.128-5.178-7.807-7.301
			c-12.707-7.337-33.311-7.337-46.018,0c-3.679,2.123-6.258,4.635-7.807,7.301h-1.722v9.087h0.002
			c-0.021,4.824,3.151,9.653,9.527,13.334c12.707,7.337,33.311,7.337,46.018,0.001C334.385,348.754,337.562,343.945,337.561,339.137
			z"/>
		<path fill="#FF6600" d="M328.03,343.286c-12.707,7.336-33.311,7.336-46.019-0.001c-12.707-7.337-12.708-19.232,0-26.568
			c12.707-7.337,33.311-7.336,46.018,0C340.737,324.054,340.737,335.949,328.03,343.286z"/>
		<path fill="#FFFFFF" d="M328.03,343.285c-12.707,7.337-33.311,7.337-46.018,0c-6.091-3.516-9.229-8.08-9.482-12.687
			c-0.274,5.006,2.864,10.062,9.482,13.882c12.707,7.338,33.311,7.338,46.018,0c6.617-3.82,9.756-8.875,9.481-13.881
			C337.259,335.205,334.12,339.77,328.03,343.285z"/>
	</g>
	<g>
		<path fill="#FFFFFF" d="M289.337,336.221c-0.547-0.315-0.858-0.746-0.857-1.198l0.033-12.24c0.002-0.933,1.315-1.689,2.933-1.688
			c1.618,0.001,2.924,0.76,2.924,1.694l-0.027,10.149l29.457-3.606c1.583-0.194,3.137,0.39,3.473,1.303
			c0.337,0.913-0.676,1.812-2.257,2.005l-32.999,4.041c-0.865,0.105-1.767-0.02-2.453-0.341
			C289.484,336.301,289.408,336.262,289.337,336.221z"/>
	</g>
</g>
<path fill="#D5DAE0" d="M142.847,303.367l29.919-17.109c5.476-3.132,4.79-8.602-1.534-12.218l0,0
	c-6.323-3.616-15.889-4.008-21.365-0.877l-29.919,17.109c-5.476,3.132-4.79,8.602,1.534,12.218l0,0
	C127.806,306.105,137.371,306.498,142.847,303.367z"/>
<g>
	<g>
		<path fill="#173D7A" d="M153.148,258.387l0.012-5.737l6.852-34.193l-6.768-4.142l-13.559,7.413L139.59,265.8
			c-0.006,2.966,1.116,4.972,2.839,5.624v0.003l6.029,3.753l0.757-2.838l1.036-5.17
			C151.997,264.624,153.142,261.368,153.148,258.387z"/>
		<path fill="#5793CE" d="M153.117,275.049L153.117,275.049c-3.744,2.047-6.771-0.24-6.76-5.108l0.097-44.071l13.559-7.414
			l-0.097,44.072C159.905,267.396,156.861,273.002,153.117,275.049z"/>
	</g>
	<g>
		<path fill="#FF6600" d="M189.715,194.724c0,11.186-7.929,15.72-17.709,10.127s-17.709-19.195-17.709-30.381
			s7.928-15.719,17.709-10.126C181.786,169.937,189.715,183.538,189.715,194.724z"/>
		<polygon fill="#FF6600" points="184.702,205.977 133.165,235.248 105.461,194.027 159.152,163.316 		"/>
	</g>
	<path fill="#D4ECFF" d="M164.433,209.662c0-11.505-8.155-25.495-18.214-31.248c-4.572-2.614-8.747-3.071-11.945-1.718l-0.004-0.008
		l-0.066,0.033c-0.027,0.013-0.054,0.026-0.082,0.039c-0.141,0.063-0.278,0.131-0.415,0.2c-19.02,9.259-40.069,13.685-61.252,12.868
		l-6.001-0.232l48.857,82.928l2.646-5.066c9.651-18.473,23.755-34.294,41.051-46.069
		C162.355,219.525,164.433,215.465,164.433,209.662z"/>
	<path fill="#D4ECFF" d="M121.009,253.783c0-22.069-15.644-48.906-34.941-59.941c-9.624-5.503-18.338-6.037-24.657-2.452v-0.001
		l-0.034,0.02c-0.016,0.009-0.032,0.019-0.047,0.027l-5.733,3.327l2.003-0.415c-4.076,4.206-6.474,10.834-6.474,19.474
		c0,22.07,15.644,48.907,34.941,59.942c7.573,4.331,14.583,5.583,20.306,4.174l-0.908,1.323l5.278-3.056
		c0.028-0.016,0.055-0.032,0.083-0.048l0.19-0.11l-0.007,0.001C117.193,272.375,121.009,264.681,121.009,253.783z"/>
	<path fill="#FFFFFF" d="M116.919,256.146c0-22.07-15.644-48.907-34.941-59.942c-9.494-5.429-18.103-6.019-24.4-2.592l-0.877,0.509
		c-0.3,0.188-0.592,0.388-0.88,0.595l1.778-0.368c-4.076,4.206-6.474,10.834-6.474,19.474c0,22.07,15.644,48.907,34.941,59.942
		c7.573,4.331,14.583,5.583,20.306,4.174l-0.828,1.206C112.535,275.834,116.919,267.83,116.919,256.146z"/>
	<path fill="#5793CE" d="M115.761,256.821c0,22.069-15.644,31.015-34.941,19.979c-19.298-11.035-34.941-37.871-34.941-59.941
		s15.644-31.015,34.941-19.98C100.117,207.914,115.761,234.752,115.761,256.821z"/>
	<path fill="#173D7A" d="M111.476,254.371c0,19.363-13.725,27.211-30.656,17.529c-16.931-9.682-30.656-33.228-30.656-52.591
		c0-19.362,13.725-27.211,30.656-17.529C97.75,211.462,111.476,235.008,111.476,254.371z"/>
	<path fill="#FFFFFF" d="M82.251,271.293c-16.931-9.682-30.656-33.228-30.656-52.591c0-10.168,3.786-17.158,9.833-20.104
		c-6.875,2.498-11.264,9.764-11.264,20.712c0,19.363,13.725,42.909,30.656,52.591c8.04,4.598,15.355,5.239,20.823,2.575
		C96.359,276.396,89.608,275.5,82.251,271.293z"/>
	<g>
		<defs>
			<path id="SVGID_3_" d="M111.476,254.371c0,19.363-13.725,27.211-30.656,17.529c-16.931-9.682-30.656-33.228-30.656-52.591
				c0-19.362,13.725-27.211,30.656-17.529C97.75,211.462,111.476,235.008,111.476,254.371z"/>
		</defs>
		<clipPath id="SVGID_4_">
			<use xlink:href="#SVGID_3_"  overflow="visible"/>
		</clipPath>
		<g clip-path="url(#SVGID_4_)">
			<polygon fill="#D4ECFF" points="76.231,229.582 120.712,195.517 136.864,223.272 84.656,244.49 			"/>
			<path fill="#5793CE" d="M86.941,240.341c0,3.867-2.741,5.435-6.122,3.501c-3.381-1.934-6.122-6.636-6.122-10.502
				c0-3.867,2.741-5.435,6.122-3.501C84.201,231.772,86.941,236.475,86.941,240.341z"/>
		</g>
	</g>
	<g>
		<g>
			<path fill="#E85E00" d="M143.088,258.765l-0.24-0.137c-0.89-0.505-1.614-1.866-1.617-3.039l-0.025-8.499
				c-0.003-1.173,0.715-1.715,1.605-1.209l0.24,0.137c0.89,0.506,1.614,1.866,1.617,3.039l0.025,8.499
				C144.696,258.729,143.978,259.27,143.088,258.765z"/>
		</g>
	</g>
</g>
<g>
	<polygon fill="#D5DAE0" points="145.081,359.305 126.333,348.479 145.081,337.655 163.83,348.479 	"/>
	<polygon fill="#173D7A" points="163.83,336.2 145.081,347.025 145.081,325.377 163.83,314.552 	"/>
	<polygon fill="#D4ECFF" points="145.081,325.377 126.333,314.552 145.081,303.728 163.83,314.552 	"/>
	<polygon fill="#5793CE" points="145.081,347.025 126.333,336.2 126.333,314.552 145.081,325.377 	"/>
</g>
<g>
	<polygon fill="#D5DAE0" points="427.289,353.303 410.828,343.799 427.289,334.295 443.75,343.799 	"/>
	<polygon fill="#E85E00" points="443.75,333.019 427.289,342.522 427.289,323.516 443.75,314.012 	"/>
	<polygon fill="#FF6600" points="427.289,323.516 410.828,314.012 427.289,304.508 443.75,314.012 	"/>
	<polygon fill="#FF6600" points="427.289,342.522 410.828,333.019 410.828,314.012 427.289,323.516 	"/>
</g>
<g>
	<path fill="#D5DAE0" d="M44.96,332.826c-4.94,2.852-12.95,2.852-17.891,0c-4.94-2.853-4.94-7.478,0-10.33
		c4.94-2.852,12.95-2.852,17.891,0.001S49.9,329.974,44.96,332.826z"/>
	<circle fill="#D4ECFF" cx="36.015" cy="308.009" r="13.87"/>
	<path fill="#5793CE" d="M43.37,296.265c1.809,2.343,2.896,5.271,2.896,8.461c0,7.659-6.209,13.869-13.87,13.869
		c-2.705,0-5.221-0.786-7.354-2.126c2.536,3.285,6.502,5.41,10.973,5.41c7.66,0,13.87-6.21,13.87-13.87
		C49.884,303.054,47.278,298.718,43.37,296.265z"/>
</g>
</svg>
