<?xml version="1.0" encoding="utf-8"?>
<!-- Generator: Adobe Illustrator 16.0.0, SVG Export Plug-In . SVG Version: 6.00 Build 0)  -->
<!DOCTYPE svg PUBLIC "-//W3C//DTD SVG 1.1//EN" "http://www.w3.org/Graphics/SVG/1.1/DTD/svg11.dtd">
<svg version="1.1" id="Слой_1" xmlns="http://www.w3.org/2000/svg" xmlns:xlink="http://www.w3.org/1999/xlink" x="0px" y="0px"
	 width="342px" height="400px" viewBox="0 0 342 400" enable-background="new 0 0 342 400" xml:space="preserve">
<g>
	<g>
		<path fill="#5793CE" d="M217.496,143.328c-0.465,0-0.841-0.377-0.841-0.841v-34.613c0-0.465,0.376-0.842,0.841-0.842
			s0.841,0.377,0.841,0.842v34.613C218.337,142.951,217.961,143.328,217.496,143.328z"/>
		<g>
			<g>
				<rect x="214.489" y="105.697" fill="#5793CE" width="6.014" height="12.977"/>
				<path fill="#5793CE" d="M219.622,119.901c-1.174,0.678-3.078,0.678-4.252,0c-1.175-0.678-1.175-1.777,0-2.455
					c1.174-0.678,3.078-0.678,4.252,0C220.797,118.124,220.797,119.223,219.622,119.901z"/>
			</g>
			<g>
				<rect x="212.624" y="87.611" fill="#5793CE" width="9.744" height="20.353"/>
				<path fill="#396CAA" d="M214.489,107.832v4.392c1.765,0.806,4.249,0.806,6.014,0v-4.392
					C218.738,107.025,216.254,107.025,214.489,107.832z"/>
				<path fill="#5793CE" d="M220.941,109.953c-1.902,1.099-4.987,1.099-6.891,0c-1.902-1.099-1.902-2.88,0-3.979
					s4.988-1.099,6.891,0S222.844,108.854,220.941,109.953z"/>
			</g>
		</g>
	</g>
	<g>
		<path fill="#5793CE" d="M251.251,162.321c-0.465,0-0.841-0.377-0.841-0.841v-34.613c0-0.465,0.376-0.841,0.841-0.841
			s0.841,0.376,0.841,0.841v34.613C252.092,161.944,251.716,162.321,251.251,162.321z"/>
		<g>
			<g>
				<rect x="248.245" y="124.69" fill="#5793CE" width="6.014" height="12.977"/>
				<path fill="#5793CE" d="M253.378,138.895c-1.175,0.678-3.078,0.678-4.253,0c-1.174-0.678-1.174-1.777,0-2.455
					c1.175-0.678,3.078-0.678,4.253,0C254.552,137.117,254.552,138.217,253.378,138.895z"/>
			</g>
			<g>
				<rect x="246.379" y="106.604" fill="#5793CE" width="9.745" height="20.353"/>
				<path fill="#396CAA" d="M248.245,126.825v4.391c1.765,0.806,4.249,0.807,6.014,0v-4.392
					C252.494,126.019,250.01,126.019,248.245,126.825z"/>
				<path fill="#5793CE" d="M254.697,128.946c-1.903,1.099-4.988,1.099-6.891,0c-1.903-1.099-1.903-2.88,0-3.979
					c1.902-1.098,4.987-1.098,6.891,0C256.6,126.067,256.6,127.848,254.697,128.946z"/>
			</g>
		</g>
	</g>
	<g>
		<g>
			<polygon fill="#5793CE" points="284.063,140.375 297.129,132.68 284.686,117.149 281.414,122.494 			"/>
			<path fill="#5793CE" d="M189.194,55.14l20.853-11.997c0,0-0.784,11.973-0.784,11.997c0,0.025-11.979,3.71-11.979,3.71
				L189.194,55.14z"/>
			<path fill="#5793CE" d="M287.695,101.322c-1.588-0.916-3.103-1.451-4.512-1.672c-2.103-11.05-9.791-22.783-18.959-28.076
				c-2.757-1.592-5.379-2.442-7.758-2.625c-1.251-13.393-10.563-28.613-21.871-35.142c-5.907-3.411-11.267-3.814-15.221-1.726
				v-0.011l-0.191,0.111c-0.102,0.056-0.201,0.114-0.301,0.173l-12.296,7.262l4.086,3.227c-3.668,1.603-5.986,5.716-5.986,11.797
				c0,11.212,7.872,24.847,17.583,30.454l65.426,46.719c7.292,4.21,13.203,0.797,13.203-7.623
				C300.898,115.771,294.987,105.532,287.695,101.322z"/>
			<path fill="#5793CE" d="M205.294,49.704l28.222-16.489c-5.479-2.857-10.429-3.093-14.141-1.133v-0.011l-0.191,0.111
				c-0.102,0.056-0.201,0.114-0.301,0.173l-12.296,7.262l4.086,3.227C208.108,43.965,206.208,46.315,205.294,49.704z"/>
			<path fill="#5793CE" d="M257.412,98.212l20.592-12.084c-3.531-6.108-8.395-11.445-13.779-14.554
				c-0.712-0.411-1.415-0.771-2.108-1.085l-26.191,15.317L257.412,98.212z"/>
			<path fill="#D4ECFF" d="M212.389,40.966l9.177,5.298l16.806-9.898c-1.228-0.954-2.487-1.815-3.775-2.559
				c-2.035-1.175-4.003-1.985-5.873-2.467L212.389,40.966z"/>
			<path fill="#D4ECFF" d="M275.733,82.572l-16.436,9.685l5.717,6.375l14.919-8.809C278.754,87.296,277.336,84.853,275.733,82.572z"
				/>
			<path fill="#D4ECFF" d="M274.785,108.927c-1.587-0.916-3.102-1.451-4.512-1.672c-2.102-11.05-9.791-22.783-18.958-28.076
				c-2.758-1.592-5.38-2.442-7.758-2.625c-1.252-13.393-10.563-28.613-21.872-35.141c-12.161-7.021-22.02-1.33-22.02,12.712
				c0,0.477,0.014,0.957,0.036,1.439c-8.893-4.124-15.841,0.523-15.841,11.057c0,11.213,7.872,24.848,17.583,30.454l73.341,42.344
				c7.292,4.21,13.203,0.797,13.203-7.623C287.988,123.375,282.077,113.137,274.785,108.927z"/>
			<g>
				<path fill="#FFFFFF" d="M199.702,55.563c-0.022-0.482-0.036-0.963-0.036-1.439c0-0.021,0.002-0.04,0.002-0.06
					c-4.913-1.91-9.135-1.079-11.784,1.987C190.762,53.682,194.947,53.358,199.702,55.563z"/>
				<path fill="#FFFFFF" d="M275.859,107.88c-1.588-0.917-3.103-1.451-4.512-1.672c-2.103-11.049-9.791-22.783-18.959-28.076
					c-2.757-1.592-5.379-2.443-7.758-2.625c-1.251-13.393-10.563-28.613-21.871-35.142c-7.576-4.374-14.258-3.813-18.22,0.627
					c4.036-3.449,10.215-3.582,17.146,0.42c11.309,6.528,20.62,21.749,21.872,35.141c2.378,0.183,5,1.034,7.758,2.626
					c9.167,5.293,16.856,17.026,18.958,28.076c1.41,0.221,2.925,0.756,4.512,1.672c7.292,4.21,13.203,14.449,13.203,22.868
					c0,3.039-0.778,5.413-2.104,7.024c1.978-1.524,3.179-4.286,3.179-8.071C289.063,122.329,283.151,112.09,275.859,107.88z"/>
			</g>
			<g>
				<path fill="#396CAA" d="M198.151,58.908l5.514,2.556l-0.28-6.07c-0.021-0.426-0.032-0.849-0.032-1.27
					c0-5.419,1.636-9.348,4.606-11.063c2.97-1.713,7.191-1.167,11.884,1.543c10.093,5.827,18.896,20.011,20.044,32.292l0.29,3.094
					l3.098,0.238c1.905,0.146,3.989,0.867,6.198,2.143c8.016,4.628,15.241,15.383,17.18,25.572l0.485,2.551l2.564,0.402
					c1.021,0.161,2.112,0.572,3.24,1.223c6.158,3.556,11.36,12.566,11.36,19.676c0,2.661-0.738,4.613-2.024,5.356
					c-1.285,0.742-3.345,0.406-5.649-0.925l-73.342-42.343c-8.531-4.925-15.739-17.411-15.739-27.262
					c0-3.866,1.14-6.811,3.128-8.081c0.817-0.521,1.807-0.782,2.923-0.782C194.956,57.757,196.5,58.142,198.151,58.908z"/>
			</g>
		</g>
		<g>
			<polygon fill="#5793CE" points="234.755,104.874 236.689,103.902 234.785,102.459 			"/>
			<polygon fill="#5793CE" points="228.944,78.738 230.823,77.789 230.857,78.772 			"/>
			<polygon fill="#5793CE" points="240.274,98.764 242.234,97.778 238.462,94.19 			"/>
			<g>
				<path fill="#5793CE" d="M236.124,103.84l-9.16-5.395c-0.465-0.273-0.841-0.963-0.839-1.54l0.03-10.604l10.844,6.386
					l-0.03,10.604C236.967,103.868,236.589,104.114,236.124,103.84z"/>
				<path fill="#5793CE" d="M230.803,77.801l-9.893,6.366c-0.42,0.27-0.081,1.277,0.557,1.653l10.104,5.95l10.104,5.951
					c0.637,0.375,0.981-0.229,0.564-0.992l-9.824-17.979C231.99,77.973,231.23,77.525,230.803,77.801z"/>
			</g>
			<g>
				<path fill="#D4ECFF" d="M234.159,104.829L225,99.435c-0.465-0.274-0.841-0.964-0.839-1.54l0.03-10.605l10.843,6.386
					l-0.03,10.604C235.003,104.857,234.624,105.103,234.159,104.829z"/>
				<path fill="#D4ECFF" d="M228.839,78.79l-9.894,6.366c-0.42,0.271-0.08,1.277,0.557,1.653l10.104,5.951l10.104,5.951
					c0.638,0.375,0.981-0.229,0.564-0.992l-9.824-17.979C230.026,78.962,229.266,78.515,228.839,78.79z"/>
			</g>
		</g>
	</g>
	<path fill="#D4ECFF" d="M216.573,116.424c0,0.597-0.419,0.839-0.937,0.541c-0.517-0.298-0.936-1.024-0.936-1.621
		s0.419-0.838,0.936-0.541C216.154,115.102,216.573,115.827,216.573,116.424z"/>
	<path fill="#D4ECFF" d="M250.408,135.694c0,0.597-0.419,0.839-0.937,0.541c-0.517-0.299-0.936-1.024-0.936-1.621
		c0-0.597,0.419-0.839,0.936-0.541C249.989,134.371,250.408,135.097,250.408,135.694z"/>
</g>
<g>
	<g>
		<g>
			<path fill="#B5B5B5" d="M189.951,266.559l-42.86-24.439c-1.567-0.904-1.371-2.485,0.439-3.53l24.661-14.238
				c1.811-1.045,4.548-1.158,6.115-0.253l42.861,24.439c1.567,0.904,1.37,2.485-0.439,3.53l-24.661,14.238
				C194.257,267.351,191.519,267.464,189.951,266.559z"/>
			<path fill="#396CAA" d="M224.988,240.31L224.988,240.31V140.249l-39.779-10.411l-7.327-4.23c-1.681-0.971-4.618-0.849-6.56,0.272
				l-6.836,3.946l-21.217-0.012l6.283,96.595c-0.048,0.657,0.318,1.291,1.126,1.757l39.697,29.953
				c1.682,0.971,4.619,0.85,6.561-0.271l26.455-15.273C224.511,241.927,225.051,241.09,224.988,240.31z"/>
			<path fill="#D4ECFF" d="M174.839,124.957c-1.231,0.03-2.508,0.34-3.517,0.923l-6.836,3.946l-21.217-0.012v100.33
				c-0.048,0.656,0.318,1.291,1.126,1.758l45.979,26.217c0.808,0.467,1.906,0.679,3.045,0.65l0.474-100.956L174.839,124.957z"/>
			<path fill="#5793CE" d="M190.797,258.326c1.45,0.621,3.549,0.587,5.244-0.06V156.62h-5.244V258.326z"/>
			<path fill="#D4ECFF" d="M190.375,157.825l-45.979-26.218c-1.682-0.971-1.471-2.667,0.471-3.788l26.456-15.273
				c1.941-1.121,4.879-1.243,6.56-0.272l45.979,26.218c1.682,0.97,1.471,2.666-0.471,3.787l-26.455,15.274
				C194.994,158.674,192.057,158.796,190.375,157.825z"/>
			<path fill="#FAFDFF" d="M223.391,140.419l-26.455,15.274c-1.941,1.121-4.879,1.243-6.561,0.272l-45.979-26.218
				c-0.375-0.217-0.65-0.47-0.839-0.744c-0.578,0.929-0.316,1.938,0.839,2.604l45.979,26.218c1.682,0.971,4.619,0.849,6.561-0.272
				l26.455-15.274c1.509-0.871,1.967-2.088,1.311-3.043C224.438,139.66,223.999,140.067,223.391,140.419z"/>
			<g>
				<path fill="#173D7A" d="M191.676,147.199l-30.612-17.744c-0.787-0.455-0.688-1.248,0.221-1.773l12.38-7.147
					c0.908-0.525,2.283-0.582,3.069-0.128l30.612,17.745c0.787,0.454,0.688,1.248-0.221,1.772l-12.38,7.147
					C193.837,147.597,192.462,147.654,191.676,147.199z"/>
				<g>
					<path fill="#D4ECFF" d="M175.149,130.252l-1.774-1.024c-0.108-0.063-0.095-0.173,0.031-0.245l1.712-0.989
						c0.126-0.072,0.316-0.08,0.425-0.018l1.774,1.024c0.108,0.063,0.095,0.173-0.03,0.245l-1.713,0.989
						C175.448,130.307,175.258,130.314,175.149,130.252z"/>
					<path fill="#D4ECFF" d="M181.075,133.659l-1.773-1.024c-0.109-0.063-0.096-0.172,0.03-0.245l1.713-0.989
						c0.126-0.073,0.315-0.081,0.425-0.018l1.773,1.024c0.109,0.063,0.096,0.173-0.03,0.246l-1.713,0.989
						C181.374,133.714,181.185,133.722,181.075,133.659z"/>
					<path fill="#D4ECFF" d="M187.002,137.067l-1.774-1.024c-0.108-0.063-0.095-0.173,0.03-0.246l1.713-0.989
						c0.126-0.073,0.316-0.081,0.425-0.018l1.774,1.024c0.108,0.063,0.095,0.173-0.031,0.246l-1.713,0.988
						C187.301,137.122,187.11,137.13,187.002,137.067z"/>
					<path fill="#D4ECFF" d="M192.928,140.475l-1.774-1.024c-0.108-0.063-0.095-0.173,0.031-0.245l1.713-0.989
						c0.125-0.072,0.315-0.08,0.425-0.018l1.773,1.024c0.108,0.063,0.095,0.173-0.03,0.245l-1.713,0.989
						C193.227,140.529,193.036,140.537,192.928,140.475z"/>
				</g>
				<path fill="#5793CE" d="M161.063,129.455l0.036,0.021c0.06-0.043,0.115-0.087,0.185-0.126l12.38-7.148
					c0.908-0.524,2.283-0.581,3.069-0.127l30.576,17.724c0.726-0.519,0.763-1.226,0.036-1.646l-30.612-17.745
					c-0.786-0.454-2.161-0.397-3.069,0.128l-12.38,7.147C160.375,128.207,160.276,129,161.063,129.455z"/>
			</g>
		</g>
		<g>
			<path fill="#173D7A" d="M202.101,177.649l17.405-9.965c0.979-0.565,1.773-2.083,1.773-3.389v-6.225
				c0-1.306-0.794-1.906-1.773-1.34l-17.405,9.965c-0.979,0.565-1.773,2.083-1.773,3.389v6.224
				C200.327,177.615,201.121,178.215,202.101,177.649z"/>
			<path fill="#FFFFFF" d="M220.367,156.543c0.273,0.258,0.445,0.698,0.445,1.295v6.225c0,1.306-0.794,2.823-1.773,3.389
				l-17.405,9.965c-0.314,0.182-0.605,0.231-0.861,0.188c0.325,0.307,0.797,0.353,1.328,0.046l17.405-9.965
				c0.979-0.565,1.773-2.083,1.773-3.389v-6.225C221.279,157.185,220.909,156.635,220.367,156.543z"/>
			<g>
				<path fill="#396CAA" d="M207.336,170.888l1.597-0.921c0.213-0.124,0.387-0.454,0.387-0.739v-1.705
					c0-0.285-0.174-0.416-0.387-0.292l-1.597,0.921c-0.214,0.124-0.387,0.454-0.387,0.739v1.705
					C206.949,170.881,207.122,171.011,207.336,170.888z"/>
				<path fill="#FFFFFF" d="M212.674,167.806l1.597-0.922c0.214-0.123,0.387-0.454,0.387-0.738v-1.706
					c0-0.285-0.173-0.416-0.387-0.292l-1.597,0.922c-0.213,0.124-0.386,0.454-0.386,0.739v1.706
					C212.288,167.798,212.461,167.929,212.674,167.806z"/>
			</g>
		</g>
		<g>
			<path fill="#173D7A" d="M202.101,222.627l17.405-9.966c0.979-0.565,1.773-2.082,1.773-3.388v-6.225
				c0-1.306-0.794-1.906-1.773-1.341l-17.405,9.966c-0.979,0.564-1.773,2.082-1.773,3.388v6.225
				C200.327,222.592,201.121,223.192,202.101,222.627z"/>
			<path fill="#FFFFFF" d="M220.367,201.521c0.273,0.258,0.445,0.698,0.445,1.295v6.224c0,1.307-0.794,2.823-1.773,3.389
				l-17.405,9.966c-0.314,0.181-0.605,0.231-0.861,0.188c0.325,0.307,0.797,0.353,1.328,0.046l17.405-9.966
				c0.979-0.565,1.773-2.082,1.773-3.388v-6.225C221.279,202.162,220.909,201.612,220.367,201.521z"/>
			<g>
				<path fill="#396CAA" d="M207.336,215.865l1.597-0.922c0.213-0.123,0.387-0.454,0.387-0.738V212.5
					c0-0.285-0.174-0.416-0.387-0.293l-1.597,0.922c-0.214,0.123-0.387,0.454-0.387,0.738v1.706
					C206.949,215.857,207.122,215.988,207.336,215.865z"/>
				<path fill="#FFFFFF" d="M212.674,212.783l1.597-0.922c0.214-0.123,0.387-0.454,0.387-0.738v-1.706
					c0-0.284-0.173-0.415-0.387-0.292l-1.597,0.922c-0.213,0.123-0.386,0.454-0.386,0.738v1.706
					C212.288,212.775,212.461,212.906,212.674,212.783z"/>
			</g>
		</g>
		<g>
			<path fill="#173D7A" d="M202.101,245.115l17.405-9.965c0.979-0.566,1.773-2.083,1.773-3.389v-6.225
				c0-1.306-0.794-1.906-1.773-1.341l-17.405,9.966c-0.979,0.565-1.773,2.082-1.773,3.389v6.224
				C200.327,245.08,201.121,245.681,202.101,245.115z"/>
			<path fill="#FFFFFF" d="M220.367,224.009c0.273,0.259,0.445,0.698,0.445,1.295v6.225c0,1.306-0.794,2.823-1.773,3.388
				l-17.405,9.966c-0.314,0.182-0.605,0.231-0.861,0.188c0.325,0.307,0.797,0.353,1.328,0.046l17.405-9.965
				c0.979-0.566,1.773-2.083,1.773-3.389v-6.225C221.279,224.65,220.909,224.102,220.367,224.009z"/>
			<g>
				<path fill="#396CAA" d="M207.336,238.354l1.597-0.922c0.213-0.123,0.387-0.453,0.387-0.738v-1.705
					c0-0.285-0.174-0.416-0.387-0.293l-1.597,0.922c-0.214,0.123-0.387,0.454-0.387,0.739v1.705
					C206.949,238.346,207.122,238.477,207.336,238.354z"/>
				<path fill="#FFFFFF" d="M212.674,235.271l1.597-0.922c0.214-0.123,0.387-0.454,0.387-0.738v-1.705
					c0-0.285-0.173-0.416-0.387-0.293l-1.597,0.922c-0.213,0.123-0.386,0.454-0.386,0.738v1.706
					C212.288,235.264,212.461,235.395,212.674,235.271z"/>
			</g>
		</g>
		<g>
			<path fill="#173D7A" d="M202.101,200.138l17.405-9.965c0.979-0.565,1.773-2.083,1.773-3.389v-6.224
				c0-1.306-0.794-1.906-1.773-1.34l-17.405,9.965c-0.979,0.565-1.773,2.083-1.773,3.389v6.224
				C200.327,200.104,201.121,200.704,202.101,200.138z"/>
			<path fill="#FFFFFF" d="M220.367,179.032c0.273,0.258,0.445,0.697,0.445,1.295v6.224c0,1.306-0.794,2.823-1.773,3.389
				l-17.405,9.965c-0.314,0.182-0.605,0.231-0.861,0.188c0.325,0.307,0.797,0.353,1.328,0.045l17.405-9.965
				c0.979-0.565,1.773-2.083,1.773-3.389v-6.224C221.279,179.673,220.909,179.124,220.367,179.032z"/>
			<g>
				<path fill="#396CAA" d="M207.336,193.377l1.597-0.922c0.213-0.124,0.387-0.454,0.387-0.739v-1.706
					c0-0.284-0.174-0.415-0.387-0.292l-1.597,0.922c-0.214,0.123-0.387,0.454-0.387,0.738v1.706
					C206.949,193.369,207.122,193.5,207.336,193.377z"/>
				<path fill="#FFFFFF" d="M212.674,190.294l1.597-0.922c0.214-0.124,0.387-0.454,0.387-0.739v-1.705
					c0-0.285-0.173-0.416-0.387-0.292l-1.597,0.921c-0.213,0.124-0.386,0.454-0.386,0.739v1.705
					C212.288,190.287,212.461,190.418,212.674,190.294z"/>
			</g>
		</g>
	</g>
	<g>
		<path fill="#5793CE" d="M187.025,171.278l-40.155-23.184c-0.898-0.519-1.627-1.911-1.627-3.109v-7.657
			c0-1.198,0.729-1.749,1.627-1.23l40.155,23.183c0.899,0.52,1.628,1.911,1.628,3.109v7.657
			C188.653,171.246,187.925,171.797,187.025,171.278z"/>
		<path opacity="0.4" fill="#D4ECFF" d="M185.873,168.593l-37.85-21.852c-0.456-0.264-0.826-0.97-0.826-1.578v-5.756
			c0-0.608,0.37-0.888,0.826-0.624l37.85,21.852c0.456,0.263,0.825,0.969,0.825,1.578v5.756
			C186.698,168.577,186.329,168.856,185.873,168.593z"/>
		<path fill="#D4ECFF" d="M155.911,148.385l-5.648-3.261c-0.443-0.255-0.802-0.941-0.802-1.532l0,0c0-0.591,0.359-0.862,0.802-0.606
			l5.648,3.262c0.443,0.255,0.802,0.941,0.802,1.532l0,0C156.713,148.369,156.354,148.641,155.911,148.385z"/>
		<path fill="#173D7A" d="M160.725,150.095c0,0.591-0.414,0.83-0.926,0.535c-0.511-0.295-0.926-1.013-0.926-1.604
			s0.415-0.83,0.926-0.535C160.311,148.787,160.725,149.505,160.725,150.095z"/>
		<path fill="#173D7A" d="M163.991,151.98c0,0.591-0.415,0.83-0.926,0.535c-0.512-0.295-0.926-1.013-0.926-1.604
			s0.414-0.83,0.926-0.535C163.576,150.672,163.991,151.39,163.991,151.98z"/>
		<path fill="#D4ECFF" d="M167.257,153.866c0,0.59-0.414,0.83-0.926,0.535s-0.926-1.013-0.926-1.604c0-0.59,0.414-0.829,0.926-0.534
			S167.257,153.276,167.257,153.866z"/>
		<path fill="#173D7A" d="M170.522,155.752c0,0.59-0.414,0.83-0.926,0.534c-0.511-0.295-0.926-1.013-0.926-1.604
			c0-0.59,0.415-0.83,0.926-0.534C170.108,154.443,170.522,155.161,170.522,155.752z"/>
		<path fill="#173D7A" d="M184.281,165.388l-1.902-1.099c-0.284-0.164-0.515-0.604-0.515-0.983v-2.013
			c0-0.379,0.23-0.553,0.515-0.389l1.902,1.098c0.284,0.165,0.515,0.604,0.515,0.983v2.013
			C184.796,165.378,184.565,165.552,184.281,165.388z"/>
	</g>
	<g>
		<path fill="#5793CE" d="M187.025,184.78l-40.155-23.184c-0.898-0.519-1.627-1.911-1.627-3.109v-7.657
			c0-1.199,0.729-1.75,1.627-1.23l40.155,23.184c0.899,0.519,1.628,1.911,1.628,3.109v7.657
			C188.653,184.748,187.925,185.299,187.025,184.78z"/>
		<path opacity="0.4" fill="#D4ECFF" d="M185.873,182.096l-37.85-21.853c-0.456-0.264-0.826-0.97-0.826-1.578v-5.756
			c0-0.608,0.37-0.887,0.826-0.624l37.85,21.853c0.456,0.263,0.825,0.969,0.825,1.577v5.756
			C186.698,182.079,186.329,182.359,185.873,182.096z"/>
		<path fill="#D4ECFF" d="M155.911,161.887l-5.648-3.261c-0.443-0.256-0.802-0.941-0.802-1.532l0,0c0-0.59,0.359-0.861,0.802-0.606
			l5.648,3.261c0.443,0.256,0.802,0.941,0.802,1.532l0,0C156.713,161.871,156.354,162.143,155.911,161.887z"/>
		<path fill="#FFFFFF" d="M160.725,163.597c0,0.59-0.414,0.83-0.926,0.535c-0.511-0.295-0.926-1.014-0.926-1.604
			c0-0.59,0.415-0.83,0.926-0.535C160.311,162.289,160.725,163.007,160.725,163.597z"/>
		<path fill="#173D7A" d="M163.991,165.483c0,0.59-0.415,0.83-0.926,0.535c-0.512-0.296-0.926-1.014-0.926-1.604
			c0-0.591,0.414-0.83,0.926-0.535C163.576,164.174,163.991,164.893,163.991,165.483z"/>
		<path fill="#D4ECFF" d="M167.257,167.368c0,0.591-0.414,0.83-0.926,0.535s-0.926-1.013-0.926-1.604s0.414-0.83,0.926-0.535
			C166.843,166.06,167.257,166.778,167.257,167.368z"/>
		<path fill="#173D7A" d="M170.522,169.254c0,0.591-0.414,0.83-0.926,0.535c-0.511-0.295-0.926-1.013-0.926-1.604
			s0.415-0.83,0.926-0.535C170.108,167.946,170.522,168.664,170.522,169.254z"/>
		<path fill="#173D7A" d="M184.281,178.89l-1.902-1.098c-0.284-0.164-0.515-0.604-0.515-0.983v-2.014
			c0-0.379,0.23-0.553,0.515-0.389l1.902,1.099c0.284,0.164,0.515,0.604,0.515,0.983v2.013
			C184.796,178.88,184.565,179.054,184.281,178.89z"/>
	</g>
	<g>
		<path fill="#5793CE" d="M187.025,198.282l-40.155-23.184c-0.898-0.519-1.627-1.911-1.627-3.109v-7.657
			c0-1.198,0.729-1.749,1.627-1.23l40.155,23.184c0.899,0.519,1.628,1.911,1.628,3.109v7.656
			C188.653,198.25,187.925,198.801,187.025,198.282z"/>
		<path opacity="0.4" fill="#D4ECFF" d="M185.873,195.598l-37.85-21.853c-0.456-0.263-0.826-0.97-0.826-1.577v-5.757
			c0-0.608,0.37-0.887,0.826-0.624l37.85,21.853c0.456,0.263,0.825,0.97,0.825,1.577v5.757
			C186.698,195.582,186.329,195.861,185.873,195.598z"/>
		<path fill="#D4ECFF" d="M155.911,175.389l-5.648-3.261c-0.443-0.256-0.802-0.941-0.802-1.532l0,0c0-0.59,0.359-0.861,0.802-0.605
			l5.648,3.261c0.443,0.256,0.802,0.941,0.802,1.532l0,0C156.713,175.374,156.354,175.645,155.911,175.389z"/>
		<path fill="#FFFFFF" d="M160.725,177.099c0,0.59-0.414,0.83-0.926,0.535c-0.511-0.295-0.926-1.013-0.926-1.604
			s0.415-0.83,0.926-0.534C160.311,175.791,160.725,176.509,160.725,177.099z"/>
		<path fill="#173D7A" d="M163.991,178.985c0,0.59-0.415,0.83-0.926,0.535c-0.512-0.295-0.926-1.013-0.926-1.604
			c0-0.591,0.414-0.83,0.926-0.535C163.576,177.677,163.991,178.395,163.991,178.985z"/>
		<path fill="#D4ECFF" d="M167.257,180.871c0,0.59-0.414,0.83-0.926,0.535c-0.512-0.295-0.926-1.014-0.926-1.604
			c0-0.591,0.414-0.83,0.926-0.535S167.257,180.28,167.257,180.871z"/>
		<path fill="#173D7A" d="M170.522,182.756c0,0.591-0.414,0.83-0.926,0.535c-0.511-0.295-0.926-1.013-0.926-1.604
			s0.415-0.83,0.926-0.535C170.108,181.448,170.522,182.166,170.522,182.756z"/>
		<path fill="#173D7A" d="M184.281,192.392l-1.902-1.099c-0.284-0.164-0.515-0.604-0.515-0.983v-2.013
			c0-0.379,0.23-0.553,0.515-0.389l1.902,1.099c0.284,0.164,0.515,0.604,0.515,0.983v2.013
			C184.796,192.382,184.565,192.556,184.281,192.392z"/>
	</g>
	<g>
		<path fill="#5793CE" d="M187.025,211.784l-40.155-23.183c-0.898-0.519-1.627-1.911-1.627-3.109v-7.657
			c0-1.198,0.729-1.749,1.627-1.23l40.155,23.184c0.899,0.519,1.628,1.911,1.628,3.109v7.657
			C188.653,211.753,187.925,212.304,187.025,211.784z"/>
		<path opacity="0.4" fill="#D4ECFF" d="M185.873,209.1l-37.85-21.853c-0.456-0.263-0.826-0.969-0.826-1.577v-5.757
			c0-0.607,0.37-0.887,0.826-0.624l37.85,21.853c0.456,0.264,0.825,0.97,0.825,1.577v5.757
			C186.698,209.084,186.329,209.363,185.873,209.1z"/>
		<path fill="#D4ECFF" d="M155.911,188.892l-5.648-3.262c-0.443-0.255-0.802-0.941-0.802-1.532l0,0c0-0.59,0.359-0.862,0.802-0.606
			l5.648,3.261c0.443,0.255,0.802,0.941,0.802,1.532l0,0C156.713,188.876,156.354,189.147,155.911,188.892z"/>
		<path fill="#173D7A" d="M160.725,190.602c0,0.59-0.414,0.83-0.926,0.534c-0.511-0.295-0.926-1.013-0.926-1.604
			c0-0.59,0.415-0.829,0.926-0.534C160.311,189.293,160.725,190.011,160.725,190.602z"/>
		<path fill="#173D7A" d="M163.991,192.487c0,0.59-0.415,0.83-0.926,0.534c-0.512-0.295-0.926-1.013-0.926-1.604
			c0-0.59,0.414-0.83,0.926-0.534C163.576,191.179,163.991,191.896,163.991,192.487z"/>
		<path fill="#D4ECFF" d="M167.257,194.373c0,0.59-0.414,0.829-0.926,0.534c-0.512-0.295-0.926-1.013-0.926-1.604
			s0.414-0.83,0.926-0.534C166.843,193.064,167.257,193.782,167.257,194.373z"/>
		<path fill="#173D7A" d="M170.522,196.258c0,0.59-0.414,0.83-0.926,0.535c-0.511-0.295-0.926-1.014-0.926-1.604
			c0-0.591,0.415-0.83,0.926-0.535C170.108,194.95,170.522,195.668,170.522,196.258z"/>
		<path fill="#D4ECFF" d="M184.281,205.895l-1.902-1.099c-0.284-0.164-0.515-0.604-0.515-0.983V201.8c0-0.379,0.23-0.554,0.515-0.39
			l1.902,1.099c0.284,0.164,0.515,0.604,0.515,0.983v2.013C184.796,205.884,184.565,206.059,184.281,205.895z"/>
	</g>
	<g>
		<path fill="#5793CE" d="M187.025,225.287l-40.155-23.184c-0.898-0.52-1.627-1.911-1.627-3.109v-7.657
			c0-1.198,0.729-1.749,1.627-1.23l40.155,23.183c0.899,0.519,1.628,1.911,1.628,3.109v7.657
			C188.653,225.255,187.925,225.806,187.025,225.287z"/>
		<path opacity="0.4" fill="#D4ECFF" d="M185.873,222.602l-37.85-21.852c-0.456-0.263-0.826-0.969-0.826-1.578v-5.756
			c0-0.608,0.37-0.887,0.826-0.624l37.85,21.852c0.456,0.264,0.825,0.97,0.825,1.578v5.756
			C186.698,222.586,186.329,222.865,185.873,222.602z"/>
		<path fill="#D4ECFF" d="M155.911,202.394l-5.648-3.261c-0.443-0.255-0.802-0.941-0.802-1.532l0,0c0-0.591,0.359-0.862,0.802-0.606
			l5.648,3.262c0.443,0.255,0.802,0.941,0.802,1.531l0,0C156.713,202.378,156.354,202.649,155.911,202.394z"/>
		<path fill="#173D7A" d="M160.725,204.104c0,0.59-0.414,0.83-0.926,0.534c-0.511-0.295-0.926-1.013-0.926-1.604
			c0-0.59,0.415-0.829,0.926-0.534C160.311,202.795,160.725,203.514,160.725,204.104z"/>
		<path fill="#FFFFFF" d="M163.991,205.989c0,0.591-0.415,0.829-0.926,0.534c-0.512-0.295-0.926-1.013-0.926-1.604
			c0-0.59,0.414-0.829,0.926-0.534C163.576,204.681,163.991,205.398,163.991,205.989z"/>
		<path fill="#D4ECFF" d="M167.257,207.875c0,0.59-0.414,0.83-0.926,0.534c-0.512-0.295-0.926-1.013-0.926-1.604
			s0.414-0.829,0.926-0.534S167.257,207.284,167.257,207.875z"/>
		<path fill="#FFFFFF" d="M170.522,209.761c0,0.59-0.414,0.829-0.926,0.534c-0.511-0.295-0.926-1.014-0.926-1.604
			s0.415-0.83,0.926-0.534C170.108,208.452,170.522,209.17,170.522,209.761z"/>
		<path fill="#D4ECFF" d="M184.281,219.396l-1.902-1.099c-0.284-0.164-0.515-0.604-0.515-0.983v-2.013
			c0-0.379,0.23-0.554,0.515-0.389l1.902,1.099c0.284,0.164,0.515,0.604,0.515,0.982v2.014
			C184.796,219.387,184.565,219.561,184.281,219.396z"/>
	</g>
	<g>
		<path fill="#5793CE" d="M187.025,238.789l-40.155-23.184c-0.898-0.52-1.627-1.911-1.627-3.109v-7.657
			c0-1.198,0.729-1.749,1.627-1.229l40.155,23.183c0.899,0.52,1.628,1.911,1.628,3.11v7.656
			C188.653,238.757,187.925,239.308,187.025,238.789z"/>
		<path opacity="0.4" fill="#D4ECFF" d="M185.873,236.104l-37.85-21.852c-0.456-0.264-0.826-0.97-0.826-1.578v-5.756
			c0-0.608,0.37-0.888,0.826-0.624l37.85,21.853c0.456,0.263,0.825,0.969,0.825,1.577v5.757
			C186.698,236.088,186.329,236.367,185.873,236.104z"/>
		<path fill="#D4ECFF" d="M155.911,215.896l-5.648-3.261c-0.443-0.256-0.802-0.941-0.802-1.532l0,0c0-0.591,0.359-0.862,0.802-0.606
			l5.648,3.262c0.443,0.256,0.802,0.941,0.802,1.531l0,0C156.713,215.88,156.354,216.151,155.911,215.896z"/>
		<path fill="#173D7A" d="M160.725,217.605c0,0.591-0.414,0.83-0.926,0.535c-0.511-0.296-0.926-1.014-0.926-1.604
			c0-0.591,0.415-0.83,0.926-0.535C160.311,216.297,160.725,217.016,160.725,217.605z"/>
		<path fill="#173D7A" d="M163.991,219.491c0,0.591-0.415,0.83-0.926,0.534c-0.512-0.295-0.926-1.013-0.926-1.604
			c0-0.59,0.414-0.829,0.926-0.534C163.576,218.184,163.991,218.901,163.991,219.491z"/>
		<path fill="#D4ECFF" d="M167.257,221.377c0,0.591-0.414,0.83-0.926,0.535c-0.512-0.296-0.926-1.014-0.926-1.604
			c0-0.591,0.414-0.83,0.926-0.535S167.257,220.787,167.257,221.377z"/>
		<path fill="#173D7A" d="M170.522,223.263c0,0.591-0.414,0.829-0.926,0.534c-0.511-0.295-0.926-1.013-0.926-1.604
			c0-0.59,0.415-0.829,0.926-0.534C170.108,221.954,170.522,222.672,170.522,223.263z"/>
		<path fill="#173D7A" d="M184.281,232.898l-1.902-1.099c-0.284-0.164-0.515-0.604-0.515-0.983v-2.013
			c0-0.379,0.23-0.553,0.515-0.389l1.902,1.099c0.284,0.164,0.515,0.604,0.515,0.982v2.014
			C184.796,232.889,184.565,233.063,184.281,232.898z"/>
	</g>
	<g>
		<path fill="#5793CE" d="M187.025,252.291l-40.155-23.184c-0.898-0.519-1.627-1.911-1.627-3.109v-7.656
			c0-1.199,0.729-1.75,1.627-1.23l40.155,23.184c0.899,0.519,1.628,1.91,1.628,3.109v7.656
			C188.653,252.259,187.925,252.81,187.025,252.291z"/>
		<path opacity="0.4" fill="#D4ECFF" d="M185.873,249.606l-37.85-21.853c-0.456-0.264-0.826-0.97-0.826-1.578v-5.756
			c0-0.607,0.37-0.888,0.826-0.624l37.85,21.853c0.456,0.263,0.825,0.97,0.825,1.577v5.757
			C186.698,249.59,186.329,249.869,185.873,249.606z"/>
		<path fill="#D4ECFF" d="M155.911,229.397l-5.648-3.261c-0.443-0.256-0.802-0.941-0.802-1.531l0,0c0-0.591,0.359-0.862,0.802-0.607
			l5.648,3.262c0.443,0.256,0.802,0.941,0.802,1.532l0,0C156.713,229.382,156.354,229.653,155.911,229.397z"/>
		<path fill="#FFFFFF" d="M181.864,243.567c0,1.115-0.783,1.567-1.749,1.01s-1.749-1.913-1.749-3.028s0.783-1.567,1.749-1.01
			S181.864,242.452,181.864,243.567z"/>
		<path fill="#173D7A" d="M160.725,231.277c0,0.59-0.414,0.829-0.926,0.533c-0.511-0.295-0.926-1.013-0.926-1.604
			c0-0.59,0.415-0.829,0.926-0.533C160.311,229.969,160.725,230.687,160.725,231.277z"/>
		<path fill="#D4ECFF" d="M163.991,233.162c0,0.591-0.415,0.83-0.926,0.535c-0.512-0.296-0.926-1.014-0.926-1.604
			c0-0.591,0.414-0.83,0.926-0.535C163.576,231.854,163.991,232.572,163.991,233.162z"/>
		<path fill="#173D7A" d="M167.257,235.048c0,0.591-0.414,0.83-0.926,0.534c-0.512-0.295-0.926-1.013-0.926-1.604
			c0-0.59,0.414-0.829,0.926-0.534C166.843,233.74,167.257,234.457,167.257,235.048z"/>
	</g>
</g>
<g>
	<g>
		<g>
			<path fill="#B5B5B5" d="M246.915,299.207l-42.86-24.439c-1.567-0.904-1.371-2.485,0.438-3.53l24.661-14.238
				c1.81-1.045,4.548-1.158,6.115-0.253l42.861,24.439c1.567,0.904,1.37,2.485-0.439,3.53l-24.661,14.238
				C251.221,299.999,248.482,300.112,246.915,299.207z"/>
			<path fill="#396CAA" d="M281.952,272.958L281.952,272.958V172.897l-39.779-10.411l-7.327-4.23
				c-1.681-0.971-4.618-0.849-6.56,0.272l-6.837,3.947l-21.217-0.012l6.283,96.595c-0.048,0.657,0.318,1.291,1.126,1.758
				l39.697,29.953c1.682,0.971,4.618,0.849,6.561-0.272l26.455-15.273C281.475,274.576,282.015,273.738,281.952,272.958z"/>
			<path fill="#D4ECFF" d="M231.803,157.606c-1.231,0.03-2.508,0.34-3.517,0.922l-6.837,3.947l-21.217-0.012v100.33
				c-0.048,0.656,0.319,1.291,1.127,1.758l45.979,26.218c0.808,0.466,1.906,0.678,3.044,0.65l0.475-100.957L231.803,157.606z"/>
			<path fill="#5793CE" d="M247.761,290.975c1.45,0.622,3.548,0.587,5.244-0.06V189.269h-5.244V290.975z"/>
			<path fill="#D4ECFF" d="M247.339,190.474l-45.979-26.218c-1.682-0.971-1.471-2.667,0.471-3.787l26.456-15.274
				c1.941-1.121,4.879-1.243,6.56-0.271l45.979,26.217c1.682,0.971,1.471,2.667-0.471,3.788l-26.455,15.274
				C251.957,191.323,249.021,191.444,247.339,190.474z"/>
			<path fill="#FAFDFF" d="M280.354,173.067l-26.455,15.274c-1.942,1.121-4.879,1.242-6.561,0.271l-45.979-26.217
				c-0.375-0.217-0.65-0.47-0.839-0.745c-0.578,0.93-0.315,1.938,0.839,2.604l45.979,26.218c1.682,0.971,4.618,0.85,6.561-0.271
				l26.455-15.274c1.509-0.871,1.967-2.088,1.31-3.043C281.4,172.309,280.963,172.716,280.354,173.067z"/>
			<g>
				<path fill="#173D7A" d="M248.64,179.848l-30.612-17.745c-0.787-0.455-0.688-1.248,0.221-1.772l12.38-7.147
					c0.908-0.524,2.282-0.582,3.069-0.127l30.612,17.745c0.787,0.455,0.688,1.248-0.221,1.772l-12.38,7.147
					C250.801,180.246,249.426,180.303,248.64,179.848z"/>
				<g>
					<path fill="#D4ECFF" d="M232.113,162.9l-1.774-1.024c-0.108-0.063-0.095-0.172,0.03-0.245l1.713-0.989
						c0.126-0.073,0.316-0.081,0.425-0.018l1.774,1.024c0.108,0.063,0.095,0.173-0.031,0.245l-1.712,0.989
						C232.412,162.955,232.222,162.963,232.113,162.9z"/>
					<path fill="#D4ECFF" d="M238.039,166.308l-1.773-1.023c-0.109-0.063-0.096-0.173,0.03-0.246l1.713-0.989
						c0.125-0.073,0.315-0.081,0.425-0.018l1.773,1.024c0.109,0.063,0.096,0.172-0.03,0.246l-1.713,0.988
						C238.338,166.363,238.148,166.371,238.039,166.308z"/>
					<path fill="#D4ECFF" d="M243.965,169.715l-1.773-1.024c-0.109-0.063-0.096-0.173,0.03-0.245l1.713-0.989
						c0.126-0.072,0.316-0.08,0.425-0.018l1.773,1.024c0.109,0.063,0.096,0.172-0.03,0.245l-1.713,0.989
						C244.265,169.771,244.074,169.778,243.965,169.715z"/>
					<path fill="#D4ECFF" d="M249.892,173.123l-1.774-1.024c-0.108-0.063-0.095-0.172,0.031-0.245l1.713-0.988
						c0.125-0.073,0.315-0.081,0.424-0.018l1.774,1.024c0.108,0.063,0.095,0.173-0.03,0.245l-1.713,0.989
						C250.19,173.178,250,173.186,249.892,173.123z"/>
				</g>
				<path fill="#5793CE" d="M218.027,162.104l0.036,0.021c0.06-0.042,0.115-0.086,0.185-0.126l12.38-7.147
					c0.908-0.524,2.282-0.582,3.069-0.128l30.576,17.724c0.725-0.519,0.763-1.226,0.036-1.646l-30.612-17.745
					c-0.787-0.455-2.161-0.397-3.069,0.127l-12.38,7.147C217.339,160.855,217.24,161.649,218.027,162.104z"/>
			</g>
		</g>
		<g>
			<path fill="#173D7A" d="M259.064,210.298l17.405-9.965c0.979-0.565,1.773-2.083,1.773-3.389v-6.224
				c0-1.306-0.794-1.906-1.773-1.34l-17.405,9.965c-0.979,0.565-1.773,2.083-1.773,3.389v6.224
				C257.291,210.264,258.085,210.863,259.064,210.298z"/>
			<path fill="#FFFFFF" d="M277.331,189.192c0.273,0.258,0.445,0.698,0.445,1.295v6.224c0,1.306-0.794,2.823-1.773,3.389
				l-17.405,9.965c-0.314,0.182-0.605,0.231-0.861,0.188c0.325,0.307,0.797,0.354,1.328,0.046l17.405-9.965
				c0.979-0.565,1.773-2.083,1.773-3.389v-6.224C278.243,189.833,277.873,189.284,277.331,189.192z"/>
			<g>
				<path fill="#396CAA" d="M264.3,203.537l1.597-0.922c0.213-0.123,0.386-0.454,0.386-0.738v-1.706
					c0-0.285-0.173-0.415-0.386-0.292l-1.597,0.922c-0.214,0.123-0.387,0.454-0.387,0.738v1.705
					C263.913,203.529,264.086,203.66,264.3,203.537z"/>
				<path fill="#FFFFFF" d="M269.638,200.455l1.597-0.921c0.214-0.124,0.387-0.454,0.387-0.739v-1.705
					c0-0.285-0.173-0.416-0.387-0.292l-1.597,0.921c-0.213,0.124-0.386,0.454-0.386,0.739v1.705
					C269.252,200.447,269.425,200.578,269.638,200.455z"/>
			</g>
		</g>
		<g>
			<path fill="#173D7A" d="M259.064,255.275l17.405-9.965c0.979-0.566,1.773-2.083,1.773-3.389v-6.225
				c0-1.306-0.794-1.906-1.773-1.34l-17.405,9.965c-0.979,0.565-1.773,2.082-1.773,3.389v6.224
				C257.291,255.24,258.085,255.841,259.064,255.275z"/>
			<path fill="#FFFFFF" d="M277.331,234.169c0.273,0.259,0.445,0.698,0.445,1.295v6.225c0,1.306-0.794,2.823-1.773,3.388
				l-17.405,9.966c-0.314,0.182-0.605,0.231-0.861,0.188c0.325,0.307,0.797,0.353,1.328,0.046l17.405-9.965
				c0.979-0.566,1.773-2.083,1.773-3.389v-6.225C278.243,234.811,277.873,234.262,277.331,234.169z"/>
			<g>
				<path fill="#396CAA" d="M264.3,248.514l1.597-0.922c0.213-0.123,0.386-0.453,0.386-0.738v-1.705
					c0-0.285-0.173-0.416-0.386-0.293l-1.597,0.922c-0.214,0.123-0.387,0.454-0.387,0.738v1.706
					C263.913,248.506,264.086,248.637,264.3,248.514z"/>
				<path fill="#FFFFFF" d="M269.638,245.432l1.597-0.922c0.214-0.123,0.387-0.454,0.387-0.738v-1.705
					c0-0.285-0.173-0.416-0.387-0.293l-1.597,0.922c-0.213,0.123-0.386,0.454-0.386,0.738v1.706
					C269.252,245.424,269.425,245.555,269.638,245.432z"/>
			</g>
		</g>
		<g>
			<path fill="#173D7A" d="M259.064,277.764l17.405-9.965c0.979-0.565,1.773-2.083,1.773-3.389v-6.225
				c0-1.306-0.794-1.906-1.773-1.34l-17.405,9.965c-0.979,0.565-1.773,2.082-1.773,3.389v6.225
				C257.291,277.729,258.085,278.329,259.064,277.764z"/>
			<path fill="#FFFFFF" d="M277.331,256.658c0.273,0.258,0.445,0.697,0.445,1.295v6.224c0,1.306-0.794,2.823-1.773,3.389
				l-17.405,9.965c-0.314,0.182-0.605,0.231-0.861,0.188c0.325,0.307,0.797,0.353,1.328,0.046l17.405-9.965
				c0.979-0.565,1.773-2.083,1.773-3.389v-6.225C278.243,257.299,277.873,256.75,277.331,256.658z"/>
			<g>
				<path fill="#396CAA" d="M264.3,271.002l1.597-0.921c0.213-0.124,0.386-0.454,0.386-0.739v-1.705
					c0-0.285-0.173-0.416-0.386-0.292l-1.597,0.922c-0.214,0.123-0.387,0.454-0.387,0.738v1.705
					C263.913,270.995,264.086,271.126,264.3,271.002z"/>
				<path fill="#FFFFFF" d="M269.638,267.92l1.597-0.922c0.214-0.123,0.387-0.453,0.387-0.738v-1.705
					c0-0.285-0.173-0.416-0.387-0.293l-1.597,0.922c-0.213,0.124-0.386,0.454-0.386,0.739v1.705
					C269.252,267.912,269.425,268.043,269.638,267.92z"/>
			</g>
		</g>
		<g>
			<path fill="#173D7A" d="M259.064,232.787l17.405-9.966c0.979-0.565,1.773-2.082,1.773-3.388v-6.225
				c0-1.307-0.794-1.906-1.773-1.341l-17.405,9.966c-0.979,0.564-1.773,2.082-1.773,3.388v6.225
				C257.291,232.752,258.085,233.353,259.064,232.787z"/>
			<path fill="#FFFFFF" d="M277.331,211.681c0.273,0.258,0.445,0.698,0.445,1.295v6.224c0,1.307-0.794,2.824-1.773,3.389
				l-17.405,9.965c-0.314,0.182-0.605,0.231-0.861,0.188c0.325,0.307,0.797,0.353,1.328,0.046l17.405-9.966
				c0.979-0.565,1.773-2.082,1.773-3.388v-6.225C278.243,212.322,277.873,211.772,277.331,211.681z"/>
			<g>
				<path fill="#396CAA" d="M264.3,226.025l1.597-0.922c0.213-0.123,0.386-0.454,0.386-0.738v-1.706
					c0-0.284-0.173-0.415-0.386-0.292l-1.597,0.922c-0.214,0.123-0.387,0.454-0.387,0.738v1.706
					C263.913,226.018,264.086,226.148,264.3,226.025z"/>
				<path fill="#FFFFFF" d="M269.638,222.943l1.597-0.922c0.214-0.123,0.387-0.454,0.387-0.738v-1.706
					c0-0.284-0.173-0.415-0.387-0.292l-1.597,0.922c-0.213,0.123-0.386,0.454-0.386,0.738v1.705
					C269.252,222.936,269.425,223.066,269.638,222.943z"/>
			</g>
		</g>
	</g>
	<g>
		<path fill="#5793CE" d="M243.989,203.927l-40.154-23.184c-0.899-0.519-1.628-1.911-1.628-3.109v-7.657
			c0-1.199,0.729-1.75,1.628-1.23l40.154,23.183c0.899,0.519,1.628,1.911,1.628,3.109v7.657
			C245.617,203.895,244.889,204.445,243.989,203.927z"/>
		<path opacity="0.4" fill="#D4ECFF" d="M242.837,201.242l-37.85-21.853c-0.456-0.264-0.825-0.97-0.825-1.578v-5.756
			c0-0.608,0.369-0.888,0.825-0.624l37.85,21.853c0.456,0.263,0.825,0.969,0.825,1.577v5.757
			C243.662,201.226,243.293,201.505,242.837,201.242z"/>
		<path fill="#D4ECFF" d="M212.875,181.033l-5.648-3.261c-0.443-0.256-0.802-0.941-0.802-1.532l0,0c0-0.59,0.358-0.861,0.802-0.606
			l5.648,3.261c0.443,0.256,0.802,0.941,0.802,1.532l0,0C213.677,181.018,213.318,181.289,212.875,181.033z"/>
		<path fill="#173D7A" d="M217.688,182.744c0,0.59-0.414,0.83-0.926,0.535c-0.511-0.295-0.926-1.014-0.926-1.604
			c0-0.591,0.415-0.83,0.926-0.535C217.274,181.436,217.688,182.153,217.688,182.744z"/>
		<path fill="#173D7A" d="M220.955,184.629c0,0.591-0.415,0.83-0.926,0.535c-0.512-0.296-0.926-1.014-0.926-1.604
			c0-0.591,0.414-0.83,0.926-0.535C220.54,183.321,220.955,184.039,220.955,184.629z"/>
		<path fill="#D4ECFF" d="M224.221,186.515c0,0.591-0.414,0.83-0.926,0.535s-0.926-1.013-0.926-1.604s0.414-0.83,0.926-0.535
			C223.807,185.207,224.221,185.925,224.221,186.515z"/>
		<path fill="#173D7A" d="M227.486,188.4c0,0.591-0.414,0.83-0.926,0.535c-0.511-0.295-0.926-1.013-0.926-1.604
			s0.415-0.83,0.926-0.535C227.072,187.092,227.486,187.81,227.486,188.4z"/>
		<path fill="#173D7A" d="M241.245,198.036l-1.903-1.098c-0.284-0.164-0.514-0.604-0.514-0.983v-2.013
			c0-0.379,0.229-0.553,0.514-0.389l1.903,1.099c0.284,0.164,0.515,0.604,0.515,0.983v2.013
			C241.76,198.026,241.529,198.2,241.245,198.036z"/>
	</g>
	<g>
		<path fill="#5793CE" d="M243.989,217.429l-40.154-23.184c-0.899-0.519-1.628-1.911-1.628-3.109v-7.656
			c0-1.199,0.729-1.75,1.628-1.23l40.154,23.184c0.899,0.519,1.628,1.911,1.628,3.109v7.657
			C245.617,217.396,244.889,217.948,243.989,217.429z"/>
		<path opacity="0.4" fill="#D4ECFF" d="M242.837,214.744l-37.85-21.853c-0.456-0.263-0.825-0.97-0.825-1.577v-5.757
			c0-0.608,0.369-0.887,0.825-0.624l37.85,21.853c0.456,0.263,0.825,0.97,0.825,1.577v5.757
			C243.662,214.729,243.293,215.008,242.837,214.744z"/>
		<path fill="#D4ECFF" d="M212.875,194.536l-5.648-3.261c-0.443-0.256-0.802-0.941-0.802-1.532l0,0c0-0.59,0.358-0.861,0.802-0.605
			l5.648,3.261c0.443,0.255,0.802,0.941,0.802,1.532l0,0C213.677,194.52,213.318,194.791,212.875,194.536z"/>
		<path fill="#FFFFFF" d="M217.688,196.246c0,0.59-0.414,0.829-0.926,0.534c-0.511-0.295-0.926-1.013-0.926-1.604
			s0.415-0.83,0.926-0.534C217.274,194.938,217.688,195.655,217.688,196.246z"/>
		<path fill="#173D7A" d="M220.955,198.131c0,0.59-0.415,0.83-0.926,0.535c-0.512-0.295-0.926-1.013-0.926-1.604
			c0-0.591,0.414-0.83,0.926-0.535C220.54,196.823,220.955,197.541,220.955,198.131z"/>
		<path fill="#D4ECFF" d="M224.221,200.017c0,0.59-0.414,0.83-0.926,0.535c-0.512-0.295-0.926-1.014-0.926-1.604
			c0-0.591,0.414-0.83,0.926-0.535S224.221,199.427,224.221,200.017z"/>
		<path fill="#173D7A" d="M227.486,201.902c0,0.591-0.414,0.83-0.926,0.535c-0.511-0.296-0.926-1.014-0.926-1.604
			c0-0.591,0.415-0.83,0.926-0.535C227.072,200.595,227.486,201.313,227.486,201.902z"/>
		<path fill="#173D7A" d="M241.245,211.539l-1.903-1.1c-0.284-0.163-0.514-0.604-0.514-0.982v-2.014
			c0-0.379,0.229-0.553,0.514-0.389l1.903,1.099c0.284,0.164,0.515,0.604,0.515,0.983v2.013
			C241.76,211.528,241.529,211.703,241.245,211.539z"/>
	</g>
	<g>
		<path fill="#5793CE" d="M243.989,230.931l-40.154-23.183c-0.899-0.52-1.628-1.912-1.628-3.109v-7.657
			c0-1.198,0.729-1.749,1.628-1.23l40.154,23.184c0.899,0.519,1.628,1.911,1.628,3.109v7.657
			C245.617,230.899,244.889,231.45,243.989,230.931z"/>
		<path opacity="0.4" fill="#D4ECFF" d="M242.837,228.246l-37.85-21.853c-0.456-0.263-0.825-0.97-0.825-1.577v-5.756
			c0-0.608,0.369-0.887,0.825-0.625l37.85,21.853c0.456,0.264,0.825,0.97,0.825,1.578v5.756
			C243.662,228.23,243.293,228.51,242.837,228.246z"/>
		<path fill="#D4ECFF" d="M212.875,208.038l-5.648-3.262c-0.443-0.255-0.802-0.941-0.802-1.531l0,0c0-0.591,0.358-0.862,0.802-0.606
			l5.648,3.262c0.443,0.255,0.802,0.941,0.802,1.531l0,0C213.677,208.022,213.318,208.293,212.875,208.038z"/>
		<path fill="#FFFFFF" d="M217.688,209.748c0,0.59-0.414,0.83-0.926,0.534c-0.511-0.295-0.926-1.013-0.926-1.604
			c0-0.59,0.415-0.829,0.926-0.534C217.274,208.439,217.688,209.157,217.688,209.748z"/>
		<path fill="#173D7A" d="M220.955,211.634c0,0.59-0.415,0.829-0.926,0.534c-0.512-0.295-0.926-1.013-0.926-1.604
			c0-0.59,0.414-0.83,0.926-0.534C220.54,210.325,220.955,211.043,220.955,211.634z"/>
		<path fill="#D4ECFF" d="M224.221,213.52c0,0.59-0.414,0.829-0.926,0.534s-0.926-1.013-0.926-1.604s0.414-0.829,0.926-0.534
			S224.221,212.929,224.221,213.52z"/>
		<path fill="#173D7A" d="M227.486,215.404c0,0.591-0.414,0.83-0.926,0.535c-0.511-0.295-0.926-1.014-0.926-1.604
			c0-0.591,0.415-0.83,0.926-0.535C227.072,214.097,227.486,214.814,227.486,215.404z"/>
		<path fill="#173D7A" d="M241.245,225.041l-1.903-1.099c-0.284-0.164-0.514-0.604-0.514-0.983v-2.013
			c0-0.379,0.229-0.554,0.514-0.39l1.903,1.099c0.284,0.164,0.515,0.604,0.515,0.983v2.014
			C241.76,225.03,241.529,225.205,241.245,225.041z"/>
	</g>
	<g>
		<path fill="#5793CE" d="M243.989,244.434l-40.154-23.184c-0.899-0.52-1.628-1.911-1.628-3.109v-7.657
			c0-1.198,0.729-1.749,1.628-1.23l40.154,23.184c0.899,0.519,1.628,1.911,1.628,3.109v7.657
			C245.617,244.401,244.889,244.952,243.989,244.434z"/>
		<path opacity="0.4" fill="#D4ECFF" d="M242.837,241.748l-37.85-21.852c-0.456-0.264-0.825-0.97-0.825-1.578v-5.756
			c0-0.608,0.369-0.888,0.825-0.625l37.85,21.854c0.456,0.263,0.825,0.969,0.825,1.577v5.756
			C243.662,241.732,243.293,242.012,242.837,241.748z"/>
		<path fill="#D4ECFF" d="M212.875,221.54l-5.648-3.261c-0.443-0.256-0.802-0.942-0.802-1.532l0,0c0-0.591,0.358-0.862,0.802-0.606
			l5.648,3.262c0.443,0.256,0.802,0.941,0.802,1.531l0,0C213.677,221.524,213.318,221.796,212.875,221.54z"/>
		<path fill="#173D7A" d="M217.688,223.25c0,0.591-0.414,0.83-0.926,0.534c-0.511-0.295-0.926-1.013-0.926-1.604
			c0-0.59,0.415-0.829,0.926-0.534C217.274,221.941,217.688,222.66,217.688,223.25z"/>
		<path fill="#173D7A" d="M220.955,225.136c0,0.591-0.415,0.829-0.926,0.534c-0.512-0.295-0.926-1.013-0.926-1.604
			c0-0.59,0.414-0.829,0.926-0.534C220.54,223.827,220.955,224.545,220.955,225.136z"/>
		<path fill="#D4ECFF" d="M224.221,227.021c0,0.59-0.414,0.83-0.926,0.534c-0.512-0.295-0.926-1.013-0.926-1.604
			s0.414-0.829,0.926-0.534S224.221,226.431,224.221,227.021z"/>
		<path fill="#173D7A" d="M227.486,228.907c0,0.59-0.414,0.829-0.926,0.534c-0.511-0.295-0.926-1.014-0.926-1.604
			s0.415-0.83,0.926-0.534C227.072,227.599,227.486,228.316,227.486,228.907z"/>
		<path fill="#D4ECFF" d="M241.245,238.543l-1.903-1.099c-0.284-0.164-0.514-0.604-0.514-0.983v-2.013
			c0-0.379,0.229-0.553,0.514-0.389l1.903,1.099c0.284,0.164,0.515,0.604,0.515,0.982v2.014
			C241.76,238.533,241.529,238.707,241.245,238.543z"/>
	</g>
	<g>
		<path fill="#5793CE" d="M243.989,257.936l-40.154-23.184c-0.899-0.52-1.628-1.911-1.628-3.109v-7.657
			c0-1.198,0.729-1.749,1.628-1.229l40.154,23.184c0.899,0.519,1.628,1.91,1.628,3.109v7.656
			C245.617,257.903,244.889,258.454,243.989,257.936z"/>
		<path opacity="0.4" fill="#D4ECFF" d="M242.837,255.251l-37.85-21.853c-0.456-0.264-0.825-0.97-0.825-1.578v-5.756
			c0-0.608,0.369-0.888,0.825-0.624l37.85,21.853c0.456,0.263,0.825,0.969,0.825,1.577v5.757
			C243.662,255.234,243.293,255.514,242.837,255.251z"/>
		<path fill="#D4ECFF" d="M212.875,235.042l-5.648-3.261c-0.443-0.256-0.802-0.941-0.802-1.532l0,0c0-0.591,0.358-0.862,0.802-0.606
			l5.648,3.262c0.443,0.256,0.802,0.941,0.802,1.531l0,0C213.677,235.026,213.318,235.298,212.875,235.042z"/>
		<path fill="#173D7A" d="M217.688,236.752c0,0.591-0.414,0.83-0.926,0.535c-0.511-0.296-0.926-1.014-0.926-1.604
			c0-0.591,0.415-0.83,0.926-0.535C217.274,235.443,217.688,236.162,217.688,236.752z"/>
		<path fill="#FFFFFF" d="M220.955,238.638c0,0.591-0.415,0.83-0.926,0.534c-0.512-0.295-0.926-1.013-0.926-1.604
			c0-0.59,0.414-0.829,0.926-0.534C220.54,237.33,220.955,238.048,220.955,238.638z"/>
		<path fill="#D4ECFF" d="M224.221,240.523c0,0.591-0.414,0.83-0.926,0.535c-0.512-0.296-0.926-1.014-0.926-1.604
			c0-0.591,0.414-0.83,0.926-0.535S224.221,239.934,224.221,240.523z"/>
		<path fill="#FFFFFF" d="M227.486,242.409c0,0.591-0.414,0.829-0.926,0.534c-0.511-0.295-0.926-1.013-0.926-1.604
			c0-0.59,0.415-0.829,0.926-0.534C227.072,241.101,227.486,241.818,227.486,242.409z"/>
		<path fill="#D4ECFF" d="M241.245,252.045l-1.903-1.099c-0.284-0.164-0.514-0.604-0.514-0.983v-2.013
			c0-0.379,0.229-0.553,0.514-0.389l1.903,1.099c0.284,0.164,0.515,0.604,0.515,0.982v2.014
			C241.76,252.035,241.529,252.209,241.245,252.045z"/>
	</g>
	<g>
		<path fill="#5793CE" d="M243.989,271.438l-40.154-23.184c-0.899-0.519-1.628-1.911-1.628-3.109v-7.656
			c0-1.199,0.729-1.75,1.628-1.23l40.154,23.184c0.899,0.519,1.628,1.91,1.628,3.109v7.656
			C245.617,271.405,244.889,271.957,243.989,271.438z"/>
		<path opacity="0.4" fill="#D4ECFF" d="M242.837,268.753l-37.85-21.853c-0.456-0.264-0.825-0.97-0.825-1.578v-5.756
			c0-0.607,0.369-0.888,0.825-0.624l37.85,21.853c0.456,0.263,0.825,0.969,0.825,1.577v5.757
			C243.662,268.736,243.293,269.016,242.837,268.753z"/>
		<path fill="#D4ECFF" d="M212.875,248.545l-5.648-3.262c-0.443-0.256-0.802-0.941-0.802-1.532l0,0c0-0.59,0.358-0.861,0.802-0.606
			l5.648,3.262c0.443,0.256,0.802,0.941,0.802,1.532l0,0C213.677,248.528,213.318,248.8,212.875,248.545z"/>
		<path fill="#173D7A" d="M217.688,250.254c0,0.591-0.414,0.83-0.926,0.535c-0.511-0.295-0.926-1.014-0.926-1.604
			c0-0.591,0.415-0.83,0.926-0.535C217.274,248.946,217.688,249.664,217.688,250.254z"/>
		<path fill="#173D7A" d="M220.955,252.141c0,0.59-0.415,0.829-0.926,0.534c-0.512-0.296-0.926-1.014-0.926-1.604
			c0-0.591,0.414-0.83,0.926-0.534C220.54,250.832,220.955,251.55,220.955,252.141z"/>
		<path fill="#D4ECFF" d="M224.221,254.025c0,0.591-0.414,0.83-0.926,0.535c-0.512-0.296-0.926-1.014-0.926-1.604
			c0-0.591,0.414-0.83,0.926-0.535C223.807,252.718,224.221,253.436,224.221,254.025z"/>
		<path fill="#173D7A" d="M227.486,255.911c0,0.591-0.414,0.83-0.926,0.534c-0.511-0.295-0.926-1.013-0.926-1.604
			c0-0.59,0.415-0.829,0.926-0.534C227.072,254.604,227.486,255.321,227.486,255.911z"/>
		<path fill="#173D7A" d="M241.245,265.547l-1.903-1.098c-0.284-0.164-0.514-0.604-0.514-0.983v-2.013
			c0-0.379,0.229-0.554,0.514-0.39l1.903,1.099c0.284,0.164,0.515,0.604,0.515,0.982v2.014
			C241.76,265.537,241.529,265.711,241.245,265.547z"/>
	</g>
	<g>
		<path fill="#5793CE" d="M243.989,284.939l-40.154-23.184c-0.899-0.519-1.628-1.91-1.628-3.109v-7.656
			c0-1.198,0.729-1.75,1.628-1.23l40.154,23.184c0.899,0.519,1.628,1.911,1.628,3.109v7.656
			C245.617,284.908,244.889,285.459,243.989,284.939z"/>
		<path opacity="0.4" fill="#D4ECFF" d="M242.837,282.255l-37.85-21.853c-0.456-0.264-0.825-0.97-0.825-1.577v-5.757
			c0-0.607,0.369-0.887,0.825-0.624l37.85,21.853c0.456,0.264,0.825,0.97,0.825,1.578v5.756
			C243.662,282.238,243.293,282.518,242.837,282.255z"/>
		<path fill="#D4ECFF" d="M212.875,262.047l-5.648-3.262c-0.443-0.256-0.802-0.941-0.802-1.531l0,0c0-0.591,0.358-0.862,0.802-0.606
			l5.648,3.261c0.443,0.256,0.802,0.941,0.802,1.532l0,0C213.677,262.031,213.318,262.303,212.875,262.047z"/>
		<path fill="#FFFFFF" d="M218.721,264.487c0,1.115-0.783,1.567-1.748,1.01c-0.966-0.558-1.749-1.914-1.749-3.029
			c0-1.114,0.783-1.566,1.749-1.009C217.938,262.016,218.721,263.372,218.721,264.487z"/>
		<path fill="#173D7A" d="M225.485,268.445c0,0.591-0.414,0.83-0.926,0.535c-0.511-0.295-0.926-1.014-0.926-1.604
			c0-0.591,0.415-0.83,0.926-0.535C225.071,267.138,225.485,267.855,225.485,268.445z"/>
		<path fill="#D4ECFF" d="M228.752,270.332c0,0.59-0.415,0.829-0.926,0.534c-0.512-0.296-0.926-1.014-0.926-1.604
			c0-0.591,0.414-0.83,0.926-0.534C228.337,269.023,228.752,269.741,228.752,270.332z"/>
		<path fill="#173D7A" d="M232.018,272.217c0,0.591-0.414,0.83-0.926,0.535c-0.511-0.296-0.926-1.014-0.926-1.604
			c0-0.591,0.415-0.83,0.926-0.535C231.604,270.909,232.018,271.627,232.018,272.217z"/>
		<path fill="#D4ECFF" d="M241.245,279.049l-1.903-1.098c-0.284-0.164-0.514-0.604-0.514-0.983v-2.013
			c0-0.379,0.229-0.554,0.514-0.389l1.903,1.098c0.284,0.164,0.515,0.604,0.515,0.983v2.013
			C241.76,279.039,241.529,279.213,241.245,279.049z"/>
	</g>
</g>
<path fill="#5793CE" d="M177.199,273.953c-0.202,0-0.398-0.104-0.507-0.292c-0.161-0.278-0.065-0.636,0.214-0.798l7.92-4.581
	c0.897-0.52,1.456-1.487,1.456-2.524v-4.191c0-0.322,0.262-0.584,0.584-0.584s0.584,0.262,0.584,0.584v4.191
	c0,1.453-0.781,2.809-2.039,3.536l-7.921,4.581C177.398,273.928,177.298,273.953,177.199,273.953z"/>
<g>
	<g>
		<g>
			<g>
				
					<rect x="171.088" y="270.273" transform="matrix(0.4975 0.8674 -0.8674 0.4975 326.1363 -12.0836)" fill="#5793CE" width="4.821" height="10.405"/>
				<path fill="#5793CE" d="M179.713,273.877c0.004-1.087-0.756-2.411-1.695-2.957c-0.94-0.547-1.705-0.108-1.708,0.979
					s0.756,2.411,1.696,2.957C178.945,275.402,179.71,274.964,179.713,273.877z"/>
			</g>
			<g>
				
					<rect x="159.578" y="273.059" transform="matrix(0.4975 0.8675 -0.8675 0.4975 326.1022 -0.502)" fill="#5793CE" width="7.813" height="16.318"/>
				<path fill="#396CAA" d="M169.271,275.121l3.054-1.752c1.265,0.906,2.256,2.634,2.399,4.183l-3.055,1.751
					C170.405,278.397,169.414,276.67,169.271,275.121z"/>
				<path fill="#5793CE" d="M173.32,278.762c0.005-1.762-1.226-3.907-2.749-4.792c-1.522-0.886-2.762-0.175-2.767,1.587
					s1.226,3.906,2.748,4.792C172.076,281.234,173.314,280.523,173.32,278.762z"/>
			</g>
		</g>
	</g>
	<path fill="#D4ECFF" d="M176.866,272.76c0.442-0.254,0.443-0.667,0.003-0.923c-0.441-0.257-1.157-0.259-1.6-0.005
		s-0.443,0.667-0.003,0.924C175.708,273.012,176.424,273.014,176.866,272.76z"/>
</g>
<g>
	<g>
		<path fill="#B5B5B5" d="M139.498,370.015L39.84,312.478c-2.819-1.628-2.466-4.471,0.79-6.351l67.859-39.166
			c3.255-1.879,8.18-2.083,10.999-0.455l99.658,57.537c2.819,1.627,2.466,4.471-0.79,6.35l-67.859,39.166
			C147.241,371.438,142.316,371.643,139.498,370.015z"/>
		<path fill="#5793CE" d="M163.557,367.283c-0.101,0-0.203-0.026-0.297-0.081l-19.071-11.295c-0.278-0.165-0.37-0.523-0.205-0.8
			c0.163-0.278,0.521-0.369,0.8-0.205l19.071,11.294c0.277,0.165,0.369,0.523,0.205,0.801
			C163.951,367.181,163.757,367.283,163.557,367.283z"/>
		<path fill="#173D7A" d="M221.047,313.299l-13.623-1.799l-87.936-50.771c-2.819-1.628-7.744-1.424-10.999,0.456l-62.311,35.962
			l-8.237-1.087v4.674h0.008c-0.054,1.08,0.561,2.119,1.891,2.888l99.658,57.537c2.819,1.628,7.744,1.424,10.999-0.456
			l67.859-39.165c1.831-1.058,2.744-2.42,2.691-3.699l0,0V313.299z"/>
		<path fill="#396CAA" d="M154.975,281.218l-6.248-3.606H80.04l-33.862,19.536l-8.237-1.087v4.674h0.008
			c-0.054,1.08,0.561,2.119,1.891,2.888l99.658,57.537c1.49,0.86,3.568,1.204,5.676,1.063L154.975,281.218z"/>
		<path fill="#5793CE" d="M41.596,296.543l-3.656-0.482v4.674h0.008c-0.054,1.08,0.561,2.119,1.891,2.888l1.756,1.014V296.543z"/>
		<path fill="#274F89" d="M140.501,361.625c2.672,1.014,6.493,0.793,9.345-0.58V350.62h-9.345V361.625z"/>
		<path fill="#D4ECFF" d="M139.498,356.491L39.84,298.954c-2.819-1.628-2.466-4.472,0.79-6.351l67.859-39.166
			c3.255-1.879,8.18-2.083,10.999-0.455l99.658,57.537c2.819,1.627,2.466,4.471-0.79,6.35l-67.859,39.166
			C147.241,357.914,142.316,358.119,139.498,356.491z"/>
		<path fill="#FFFFFF" d="M218.355,315.162l-67.859,39.166c-3.255,1.879-8.18,2.084-10.999,0.456L39.84,297.246
			c-0.924-0.533-1.501-1.198-1.752-1.916c-0.441,1.333,0.121,2.682,1.752,3.624l99.658,57.537c2.819,1.628,7.744,1.423,10.999-0.456
			l67.859-39.166c2.188-1.263,3.059-2.96,2.543-4.433C220.577,313.408,219.728,314.371,218.355,315.162z"/>
		<g>
			<path fill="#173D7A" d="M82.226,279.905l-4.509-2.603c-0.362-0.21-0.316-0.574,0.102-0.816l5.322-3.072
				c0.418-0.242,1.05-0.268,1.413-0.059l4.509,2.604c0.362,0.209,0.316,0.574-0.102,0.814l-5.322,3.073
				C83.22,280.088,82.587,280.114,82.226,279.905z"/>
			<path fill="#173D7A" d="M89.189,283.926l-4.509-2.604c-0.362-0.209-0.316-0.574,0.102-0.815l5.322-3.073
				c0.418-0.24,1.051-0.268,1.413-0.059l4.509,2.604c0.362,0.209,0.316,0.574-0.102,0.816l-5.322,3.072
				C90.184,284.108,89.551,284.135,89.189,283.926z"/>
			<path fill="#173D7A" d="M96.152,287.946l-4.509-2.604c-0.362-0.209-0.316-0.574,0.102-0.815l5.322-3.073
				c0.418-0.241,1.051-0.268,1.413-0.058l4.509,2.603c0.362,0.209,0.316,0.574-0.102,0.815l-5.322,3.073
				C97.147,288.129,96.515,288.155,96.152,287.946z"/>
			<path fill="#173D7A" d="M105.783,284.626l-4.509-2.604c-0.362-0.209-0.316-0.574,0.102-0.815l4.468-2.579
				c0.418-0.241,1.05-0.268,1.413-0.059l4.509,2.603c0.362,0.209,0.317,0.574-0.101,0.816l-4.468,2.579
				C106.777,284.809,106.146,284.835,105.783,284.626z"/>
			<path fill="#173D7A" d="M112.747,288.646l-4.509-2.604c-0.362-0.209-0.316-0.574,0.102-0.815l4.468-2.579
				c0.418-0.242,1.05-0.268,1.413-0.059l4.509,2.604c0.362,0.209,0.316,0.573-0.102,0.814l-4.468,2.58
				C113.741,288.829,113.109,288.855,112.747,288.646z"/>
			<path fill="#173D7A" d="M119.71,292.667l-4.509-2.604c-0.362-0.209-0.316-0.574,0.102-0.815l4.468-2.58
				c0.418-0.241,1.051-0.268,1.413-0.059l4.509,2.604c0.362,0.209,0.316,0.574-0.102,0.815l-4.468,2.579
				C120.705,292.85,120.072,292.876,119.71,292.667z"/>
			<path fill="#173D7A" d="M126.673,296.688l-4.509-2.604c-0.362-0.209-0.317-0.574,0.101-0.816l4.468-2.579
				c0.418-0.241,1.051-0.268,1.413-0.059l4.509,2.604c0.362,0.209,0.316,0.574-0.102,0.815l-4.468,2.58
				C127.668,296.87,127.036,296.896,126.673,296.688z"/>
			<path fill="#173D7A" d="M133.637,300.707l-4.509-2.604c-0.362-0.209-0.317-0.574,0.101-0.815l4.468-2.579
				c0.418-0.241,1.051-0.268,1.413-0.059l4.509,2.604c0.362,0.209,0.316,0.574-0.102,0.815l-4.468,2.579
				C134.631,300.891,133.999,300.916,133.637,300.707z"/>
			<path fill="#173D7A" d="M140.6,304.728l-4.509-2.604c-0.362-0.209-0.317-0.574,0.101-0.815l4.468-2.579
				c0.418-0.241,1.051-0.268,1.413-0.059l4.509,2.604c0.362,0.209,0.316,0.573-0.102,0.815l-4.468,2.579
				C141.595,304.91,140.962,304.937,140.6,304.728z"/>
			<path fill="#173D7A" d="M147.563,308.748l-4.509-2.604c-0.362-0.209-0.317-0.574,0.101-0.815l4.468-2.579
				c0.418-0.242,1.05-0.268,1.412-0.059l4.509,2.604c0.362,0.209,0.316,0.573-0.102,0.814l-4.468,2.58
				C148.558,308.931,147.926,308.957,147.563,308.748z"/>
			<path fill="#173D7A" d="M154.527,312.769l-4.509-2.604c-0.362-0.209-0.317-0.574,0.102-0.815l4.467-2.58
				c0.418-0.241,1.051-0.268,1.413-0.059l4.509,2.604c0.362,0.209,0.316,0.574-0.102,0.815l-4.468,2.58
				C155.521,312.951,154.89,312.978,154.527,312.769z"/>
			<path fill="#173D7A" d="M161.49,316.789l-4.509-2.604c-0.362-0.209-0.316-0.574,0.102-0.815l4.468-2.58
				c0.418-0.241,1.051-0.267,1.412-0.058l4.51,2.603c0.361,0.209,0.316,0.574-0.102,0.815l-4.468,2.58
				C162.485,316.972,161.853,316.998,161.49,316.789z"/>
			<path fill="#173D7A" d="M168.454,320.809l-4.509-2.604c-0.362-0.209-0.317-0.573,0.101-0.814l4.468-2.58
				c0.418-0.241,1.051-0.268,1.413-0.059l4.509,2.604c0.362,0.209,0.316,0.574-0.102,0.815l-4.468,2.579
				C169.448,320.992,168.816,321.018,168.454,320.809z"/>
			<path fill="#396CAA" d="M116.043,282.723l-4.509-2.604c-0.362-0.209-0.316-0.574,0.102-0.815l4.468-2.579
				c0.418-0.242,1.05-0.268,1.412-0.059l4.509,2.604c0.362,0.209,0.317,0.574-0.101,0.814l-4.468,2.58
				C117.038,282.905,116.405,282.932,116.043,282.723z"/>
			<path fill="#396CAA" d="M108.976,278.643l-4.509-2.604c-0.362-0.209-0.316-0.574,0.102-0.815l4.468-2.579
				c0.418-0.242,1.05-0.269,1.413-0.059l4.509,2.604c0.362,0.209,0.317,0.573-0.101,0.814l-4.468,2.58
				C109.97,278.825,109.338,278.852,108.976,278.643z"/>
			<path fill="#173D7A" d="M101.897,274.555l-9.711-5.606c-0.362-0.209-0.316-0.574,0.102-0.815l4.468-2.58
				c0.418-0.24,1.05-0.267,1.413-0.058l9.711,5.606c0.362,0.209,0.316,0.574-0.102,0.815l-4.468,2.58
				C102.892,274.738,102.259,274.764,101.897,274.555z"/>
			<path fill="#173D7A" d="M106.845,269.585l-7.881-4.55c-0.362-0.209-0.316-0.574,0.102-0.816l4.468-2.579
				c0.418-0.241,1.05-0.268,1.413-0.059l7.881,4.55c0.362,0.209,0.317,0.574-0.101,0.816l-4.468,2.579
				C107.84,269.768,107.207,269.794,106.845,269.585z"/>
			<path fill="#396CAA" d="M123.007,286.743l-4.509-2.604c-0.362-0.209-0.316-0.574,0.102-0.815l4.468-2.58
				c0.418-0.241,1.05-0.268,1.413-0.059l4.509,2.604c0.362,0.209,0.317,0.574-0.101,0.816l-4.468,2.579
				C124.001,286.926,123.369,286.952,123.007,286.743z"/>
			<path fill="#173D7A" d="M129.97,290.764l-4.509-2.604c-0.362-0.209-0.316-0.574,0.102-0.815l4.468-2.58
				c0.418-0.241,1.05-0.268,1.413-0.058l4.509,2.603c0.362,0.209,0.317,0.574-0.101,0.815l-4.468,2.58
				C130.964,290.946,130.332,290.973,129.97,290.764z"/>
			<path fill="#173D7A" d="M136.934,294.783l-4.509-2.604c-0.362-0.209-0.316-0.573,0.102-0.814l4.468-2.58
				c0.418-0.241,1.05-0.268,1.413-0.059l4.509,2.604c0.362,0.209,0.317,0.574-0.101,0.815l-4.468,2.579
				C137.928,294.967,137.296,294.992,136.934,294.783z"/>
			<path fill="#173D7A" d="M143.897,298.804l-4.509-2.604c-0.362-0.209-0.316-0.573,0.102-0.815l4.468-2.579
				c0.418-0.241,1.051-0.268,1.413-0.059l4.509,2.604c0.362,0.209,0.316,0.574-0.102,0.815l-4.468,2.579
				C144.892,298.986,144.259,299.013,143.897,298.804z"/>
			<path fill="#173D7A" d="M150.86,302.824l-4.509-2.604c-0.362-0.209-0.317-0.574,0.101-0.815l4.468-2.579
				c0.418-0.242,1.051-0.268,1.413-0.059l4.509,2.604c0.362,0.209,0.317,0.574-0.102,0.815l-4.467,2.579
				C151.855,303.007,151.223,303.033,150.86,302.824z"/>
			<path fill="#173D7A" d="M157.824,306.845l-4.509-2.604c-0.362-0.209-0.317-0.574,0.101-0.815l4.468-2.58
				c0.418-0.24,1.051-0.267,1.413-0.058l4.509,2.603c0.362,0.209,0.316,0.574-0.102,0.816l-4.468,2.579
				C158.818,307.027,158.186,307.054,157.824,306.845z"/>
			<path fill="#173D7A" d="M164.787,310.865l-4.509-2.604c-0.362-0.209-0.316-0.574,0.102-0.815l4.468-2.579
				c0.418-0.242,1.05-0.268,1.412-0.059l4.509,2.603c0.362,0.209,0.317,0.574-0.101,0.815l-4.468,2.58
				C165.781,311.048,165.149,311.074,164.787,310.865z"/>
			<path fill="#173D7A" d="M171.751,314.885l-4.51-2.603c-0.361-0.209-0.316-0.574,0.102-0.815l4.468-2.58
				c0.418-0.241,1.051-0.268,1.413-0.059l4.509,2.604c0.362,0.209,0.316,0.574-0.102,0.815l-4.468,2.58
				C172.745,315.068,172.113,315.094,171.751,314.885z"/>
			<path fill="#173D7A" d="M178.714,318.905l-4.509-2.603c-0.362-0.209-0.316-0.574,0.102-0.816l4.468-2.579
				c0.418-0.241,1.05-0.268,1.412-0.059l4.509,2.604c0.362,0.209,0.317,0.574-0.101,0.815l-4.468,2.579
				C179.709,319.088,179.076,319.115,178.714,318.905z"/>
			<path fill="#173D7A" d="M191.094,326.053l-9.839-5.68c-0.362-0.209-0.316-0.574,0.102-0.816l4.468-2.579
				c0.418-0.241,1.051-0.268,1.412-0.059l9.839,5.681c0.362,0.209,0.316,0.574-0.102,0.815l-4.468,2.579
				C192.088,326.235,191.456,326.262,191.094,326.053z"/>
			<path fill="#173D7A" d="M204.65,318.226l-8.304-4.794c-0.362-0.209-0.317-0.574,0.102-0.815l4.468-2.58
				c0.418-0.241,1.05-0.268,1.412-0.059l8.304,4.795c0.362,0.209,0.317,0.574-0.102,0.815l-4.468,2.579
				C205.645,318.408,205.013,318.435,204.65,318.226z"/>
			<path fill="#173D7A" d="M135.201,285.956l-4.509-2.603c-0.362-0.209-0.316-0.574,0.102-0.816l4.468-2.579
				c0.418-0.241,1.05-0.268,1.413-0.059l4.509,2.604c0.362,0.209,0.317,0.574-0.101,0.815l-4.468,2.58
				C136.196,286.139,135.563,286.165,135.201,285.956z"/>
			<path fill="#173D7A" d="M128.064,281.836l-4.509-2.604c-0.362-0.209-0.317-0.574,0.101-0.815l4.468-2.579
				c0.418-0.241,1.051-0.268,1.413-0.059l4.509,2.604c0.362,0.209,0.316,0.574-0.102,0.815l-4.468,2.579
				C129.059,282.019,128.427,282.045,128.064,281.836z"/>
			<path fill="#396CAA" d="M120.928,277.716l-4.509-2.604c-0.362-0.209-0.317-0.574,0.102-0.815l4.467-2.58
				c0.418-0.241,1.051-0.268,1.413-0.058l4.509,2.603c0.362,0.209,0.316,0.574-0.102,0.816l-4.468,2.579
				C121.922,277.898,121.29,277.925,120.928,277.716z"/>
			<path fill="#173D7A" d="M113.792,273.596l-4.509-2.604c-0.362-0.209-0.316-0.574,0.102-0.815l4.468-2.58
				c0.418-0.241,1.05-0.268,1.412-0.059l4.509,2.604c0.362,0.209,0.316,0.574-0.102,0.815l-4.468,2.58
				C114.786,273.778,114.153,273.805,113.792,273.596z"/>
			<path fill="#173D7A" d="M142.165,289.977l-4.509-2.604c-0.362-0.209-0.317-0.574,0.101-0.815l4.468-2.579
				c0.418-0.242,1.051-0.268,1.413-0.059l4.509,2.604c0.362,0.209,0.316,0.574-0.102,0.815l-4.468,2.579
				C143.159,290.159,142.527,290.186,142.165,289.977z"/>
			<path fill="#173D7A" d="M149.128,293.997l-4.509-2.604c-0.362-0.209-0.317-0.574,0.101-0.815l4.468-2.58
				c0.418-0.24,1.051-0.267,1.413-0.058l4.509,2.603c0.362,0.209,0.317,0.574-0.102,0.816l-4.467,2.579
				C150.123,294.18,149.49,294.206,149.128,293.997z"/>
			<path fill="#173D7A" d="M156.092,298.018l-4.509-2.604c-0.362-0.209-0.317-0.574,0.101-0.815l4.468-2.579
				c0.418-0.242,1.051-0.268,1.413-0.059l4.509,2.604c0.362,0.208,0.316,0.573-0.102,0.814l-4.468,2.58
				C157.086,298.2,156.453,298.227,156.092,298.018z"/>
			<path fill="#173D7A" d="M163.055,302.037l-4.509-2.603c-0.362-0.209-0.316-0.574,0.102-0.815l4.468-2.58
				c0.418-0.241,1.05-0.268,1.412-0.059l4.509,2.604c0.362,0.209,0.317,0.574-0.101,0.815l-4.468,2.579
				C164.049,302.221,163.417,302.246,163.055,302.037z"/>
			<path fill="#173D7A" d="M170.019,306.058l-4.51-2.603c-0.361-0.209-0.316-0.574,0.102-0.816l4.468-2.579
				c0.418-0.241,1.051-0.268,1.413-0.059l4.509,2.604c0.362,0.209,0.316,0.574-0.102,0.815l-4.468,2.58
				C171.013,306.241,170.381,306.268,170.019,306.058z"/>
			<path fill="#173D7A" d="M176.981,310.078l-4.509-2.604c-0.362-0.209-0.316-0.574,0.102-0.815l4.468-2.579
				c0.418-0.241,1.05-0.268,1.412-0.059l4.509,2.604c0.362,0.209,0.317,0.574-0.101,0.815l-4.468,2.579
				C177.977,310.262,177.344,310.287,176.981,310.078z"/>
			<path fill="#173D7A" d="M183.945,314.099l-4.509-2.604c-0.362-0.209-0.317-0.574,0.101-0.815l4.468-2.579
				c0.418-0.241,1.051-0.268,1.413-0.059l4.509,2.603c0.362,0.21,0.316,0.574-0.102,0.816l-4.468,2.579
				C184.939,314.281,184.308,314.308,183.945,314.099z"/>
			<path fill="#173D7A" d="M190.908,318.119l-4.509-2.604c-0.362-0.209-0.316-0.574,0.102-0.815l4.468-2.579
				c0.418-0.242,1.051-0.268,1.412-0.059l4.51,2.604c0.361,0.209,0.316,0.573-0.102,0.814l-4.468,2.58
				C191.903,318.302,191.271,318.328,190.908,318.119z"/>
			<path fill="#173D7A" d="M197.872,322.14l-4.509-2.604c-0.362-0.209-0.317-0.574,0.101-0.815l4.468-2.58
				c0.419-0.241,1.051-0.268,1.413-0.059l4.509,2.604c0.362,0.209,0.316,0.574-0.102,0.815l-4.468,2.58
				C198.866,322.322,198.234,322.349,197.872,322.14z"/>
			<path fill="#173D7A" d="M131.535,276.012l-4.509-2.603c-0.362-0.209-0.316-0.574,0.102-0.815l4.468-2.58
				c0.418-0.241,1.05-0.268,1.412-0.059l4.509,2.604c0.362,0.209,0.317,0.574-0.101,0.815l-4.468,2.58
				C132.529,276.195,131.896,276.221,131.535,276.012z"/>
			<path fill="#173D7A" d="M124.606,272.012l-4.509-2.604c-0.362-0.209-0.317-0.574,0.102-0.815l4.468-2.579
				c0.418-0.241,1.05-0.268,1.412-0.059l4.509,2.604c0.362,0.209,0.317,0.574-0.102,0.815l-4.468,2.579
				C125.6,272.195,124.968,272.221,124.606,272.012z"/>
			<path fill="#173D7A" d="M117.677,268.012l-4.509-2.604c-0.362-0.209-0.317-0.574,0.102-0.815l4.468-2.579
				c0.418-0.242,1.05-0.268,1.412-0.059l4.509,2.604c0.362,0.209,0.316,0.574-0.102,0.814l-4.468,2.58
				C118.671,268.194,118.039,268.221,117.677,268.012z"/>
			<path fill="#173D7A" d="M110.748,264.012l-4.509-2.604c-0.362-0.209-0.317-0.574,0.101-0.815l4.468-2.58
				c0.418-0.241,1.051-0.268,1.413-0.059l4.509,2.604c0.362,0.209,0.316,0.574-0.102,0.815l-4.468,2.58
				C111.743,264.194,111.11,264.221,110.748,264.012z"/>
			<path fill="#173D7A" d="M117.873,259.898l-4.509-2.604c-0.362-0.21-0.316-0.574,0.102-0.816l1.477-0.853
				c0.418-0.241,1.05-0.268,1.413-0.059l4.509,2.604c0.362,0.209,0.317,0.574-0.101,0.815l-1.477,0.853
				C118.868,260.08,118.235,260.107,117.873,259.898z"/>
			<path fill="#173D7A" d="M126.915,265.118l-4.509-2.604c-0.362-0.209-0.317-0.574,0.101-0.815l1.477-0.853
				c0.418-0.241,1.05-0.268,1.413-0.059l4.509,2.604c0.362,0.209,0.317,0.574-0.101,0.815l-1.477,0.853
				C127.91,265.301,127.277,265.327,126.915,265.118z"/>
			<path fill="#173D7A" d="M133.815,269.102l-4.509-2.604c-0.362-0.209-0.317-0.574,0.101-0.815l1.477-0.853
				c0.418-0.241,1.05-0.268,1.413-0.059l4.509,2.604c0.362,0.209,0.317,0.574-0.101,0.815l-1.477,0.853
				C134.81,269.285,134.177,269.311,133.815,269.102z"/>
			<path fill="#173D7A" d="M140.715,273.086l-4.509-2.604c-0.362-0.209-0.317-0.574,0.101-0.815l1.477-0.853
				c0.418-0.242,1.05-0.268,1.413-0.059l4.509,2.604c0.362,0.209,0.317,0.573-0.101,0.814l-1.477,0.854
				C141.709,273.269,141.077,273.295,140.715,273.086z"/>
			<path fill="#173D7A" d="M147.615,277.069l-4.509-2.604c-0.362-0.209-0.317-0.574,0.101-0.815l1.477-0.853
				c0.418-0.241,1.05-0.268,1.413-0.059l4.509,2.603c0.362,0.21,0.317,0.574-0.101,0.816l-1.477,0.853
				C148.609,277.252,147.977,277.278,147.615,277.069z"/>
			<path fill="#173D7A" d="M186.136,299.31l-4.509-2.604c-0.362-0.209-0.316-0.574,0.102-0.815l1.477-0.853
				c0.418-0.241,1.051-0.268,1.412-0.059l4.51,2.603c0.362,0.209,0.316,0.574-0.102,0.816l-1.477,0.853
				C187.131,299.492,186.498,299.519,186.136,299.31z"/>
			<path fill="#173D7A" d="M193.036,303.293l-4.51-2.604c-0.361-0.209-0.316-0.574,0.102-0.815l1.478-0.853
				c0.418-0.241,1.05-0.268,1.412-0.059l4.509,2.604c0.362,0.209,0.317,0.574-0.102,0.815l-1.477,0.853
				C194.03,303.476,193.397,303.502,193.036,303.293z"/>
			<path fill="#173D7A" d="M199.936,307.276l-4.509-2.603c-0.362-0.21-0.316-0.574,0.102-0.816l1.477-0.853
				c0.418-0.241,1.051-0.268,1.413-0.059l4.509,2.604c0.362,0.209,0.316,0.574-0.102,0.815l-1.477,0.853
				C200.93,307.459,200.298,307.485,199.936,307.276z"/>
			<path fill="#173D7A" d="M206.836,311.26l-4.51-2.603c-0.361-0.209-0.316-0.574,0.102-0.815l1.478-0.854
				c0.418-0.241,1.05-0.268,1.412-0.059l4.509,2.604c0.362,0.209,0.317,0.574-0.102,0.816l-1.477,0.853
				C207.83,311.443,207.198,311.469,206.836,311.26z"/>
			<path fill="#173D7A" d="M138.498,280.033l-4.509-2.604c-0.362-0.209-0.316-0.574,0.102-0.816l4.468-2.579
				c0.418-0.241,1.05-0.268,1.413-0.059l4.509,2.604c0.362,0.209,0.317,0.574-0.102,0.815l-4.467,2.58
				C139.492,280.215,138.86,280.242,138.498,280.033z"/>
			<path fill="#173D7A" d="M145.461,284.053l-4.509-2.604c-0.362-0.209-0.316-0.574,0.102-0.815l4.468-2.579
				c0.418-0.241,1.05-0.268,1.413-0.059l4.509,2.604c0.362,0.209,0.317,0.574-0.101,0.815l-4.468,2.579
				C146.456,284.236,145.823,284.262,145.461,284.053z"/>
			<path fill="#173D7A" d="M152.425,288.073l-4.509-2.604c-0.362-0.209-0.316-0.574,0.102-0.815l4.468-2.579
				c0.418-0.241,1.05-0.268,1.413-0.059l4.509,2.603c0.362,0.21,0.316,0.574-0.102,0.816l-4.467,2.579
				C153.419,288.256,152.787,288.282,152.425,288.073z"/>
			<path fill="#173D7A" d="M159.389,292.094l-4.51-2.604c-0.361-0.209-0.316-0.574,0.102-0.815l4.468-2.579
				c0.418-0.242,1.051-0.268,1.412-0.059l4.51,2.604c0.362,0.209,0.316,0.573-0.102,0.814l-4.468,2.58
				C160.383,292.276,159.75,292.303,159.389,292.094z"/>
			<path fill="#173D7A" d="M166.352,296.114l-4.509-2.604c-0.362-0.209-0.317-0.574,0.102-0.815l4.468-2.58
				c0.418-0.241,1.05-0.268,1.412-0.059l4.509,2.604c0.362,0.209,0.317,0.574-0.102,0.815l-4.468,2.58
				C167.346,296.297,166.714,296.323,166.352,296.114z"/>
			<path fill="#173D7A" d="M173.315,300.135l-4.51-2.604c-0.362-0.209-0.316-0.574,0.102-0.816l4.468-2.579
				c0.418-0.241,1.051-0.268,1.412-0.059l4.51,2.604c0.362,0.209,0.316,0.574-0.102,0.815l-4.468,2.58
				C174.31,300.317,173.677,300.344,173.315,300.135z"/>
			<path fill="#173D7A" d="M180.278,304.154l-4.509-2.604c-0.362-0.209-0.316-0.574,0.102-0.814l4.468-2.58
				c0.418-0.241,1.05-0.268,1.412-0.059l4.509,2.604c0.362,0.209,0.317,0.574-0.101,0.815l-4.468,2.579
				C181.272,304.338,180.641,304.363,180.278,304.154z"/>
			<path fill="#173D7A" d="M187.242,308.175l-4.51-2.604c-0.361-0.209-0.316-0.574,0.102-0.815l4.468-2.579
				c0.418-0.241,1.051-0.268,1.413-0.059l4.509,2.604c0.362,0.209,0.316,0.573-0.102,0.815l-4.468,2.579
				C188.236,308.357,187.604,308.384,187.242,308.175z"/>
			<path fill="#173D7A" d="M194.205,312.195l-4.509-2.604c-0.362-0.209-0.316-0.574,0.102-0.815l4.468-2.579
				c0.418-0.242,1.05-0.268,1.412-0.059l4.509,2.604c0.362,0.209,0.317,0.574-0.101,0.814l-4.468,2.58
				C195.2,312.378,194.567,312.404,194.205,312.195z"/>
			<path fill="#173D7A" d="M98.687,280.529l-13.28-7.668c-0.362-0.209-0.316-0.573,0.102-0.814l4.468-2.58
				c0.418-0.241,1.05-0.268,1.412-0.059l13.28,7.667c0.362,0.209,0.317,0.574-0.101,0.815l-4.468,2.58
				C99.682,280.712,99.049,280.738,98.687,280.529z"/>
			<path fill="#173D7A" d="M184.234,329.92l-13.28-7.667c-0.361-0.209-0.316-0.574,0.102-0.815l4.468-2.58
				c0.418-0.241,1.051-0.268,1.413-0.059l13.279,7.668c0.362,0.209,0.316,0.573-0.102,0.814l-4.468,2.58
				C185.229,330.103,184.597,330.129,184.234,329.92z"/>
			<path fill="#173D7A" d="M156.387,322.723l-4.509-2.604c-0.362-0.209-0.316-0.574,0.102-0.815l5.322-3.073
				c0.419-0.241,1.051-0.268,1.413-0.059l4.509,2.604c0.362,0.209,0.316,0.574-0.102,0.815l-5.322,3.073
				C157.381,322.905,156.749,322.932,156.387,322.723z"/>
			<path fill="#173D7A" d="M105.818,293.526l-7.211-4.163c-0.362-0.209-0.316-0.574,0.102-0.815l5.322-3.073
				c0.418-0.241,1.051-0.268,1.413-0.059l7.211,4.164c0.362,0.209,0.316,0.574-0.102,0.814l-5.322,3.073
				C106.813,293.709,106.18,293.735,105.818,293.526z"/>
			<path fill="#173D7A" d="M149.677,318.849l-7.211-4.163c-0.362-0.209-0.316-0.574,0.102-0.815l5.322-3.073
				c0.418-0.241,1.05-0.268,1.413-0.059l7.211,4.164c0.361,0.209,0.316,0.573-0.102,0.814l-5.322,3.073
				C150.672,319.031,150.039,319.058,149.677,318.849z"/>
			<path fill="#173D7A" d="M115.865,299.327l-7.211-4.163c-0.362-0.209-0.316-0.574,0.102-0.816l5.322-3.072
				c0.418-0.241,1.05-0.268,1.413-0.059l7.211,4.163c0.362,0.209,0.316,0.574-0.102,0.815l-5.322,3.073
				C116.859,299.51,116.227,299.536,115.865,299.327z"/>
			<path fill="#173D7A" d="M115.539,291.245l31.353,18.102c0.389,0.225,0.389,0.589,0,0.813l-5.427,3.133
				c-0.389,0.225-1.02,0.225-1.409,0l-31.353-18.102L115.539,291.245z"/>
			<path fill="#173D7A" d="M175.849,330.012l5.022,2.899c0.297,0.172,0.26,0.471-0.083,0.669l-2.178,1.257
				c-0.343,0.198-0.86,0.22-1.157,0.048l-5.023-2.899c-0.296-0.171-0.259-0.471,0.084-0.669l2.177-1.257
				C175.033,329.861,175.552,329.84,175.849,330.012z"/>
			<path fill="#173D7A" d="M168.827,325.958l5.022,2.899c0.297,0.172,0.26,0.471-0.083,0.669l-2.177,1.257
				c-0.343,0.197-0.861,0.219-1.158,0.048l-5.022-2.899c-0.297-0.172-0.26-0.471,0.083-0.669l2.177-1.257
				C168.012,325.809,168.53,325.787,168.827,325.958z"/>
			<path fill="#173D7A" d="M161.863,321.938l5.023,2.9c0.296,0.171,0.259,0.471-0.084,0.668l-2.177,1.257
				c-0.343,0.198-0.861,0.22-1.158,0.048l-5.022-2.899c-0.297-0.171-0.26-0.471,0.083-0.669l2.178-1.257
				C161.049,321.788,161.566,321.766,161.863,321.938z"/>
			<path fill="#173D7A" d="M172.673,323.738l5.022,2.899c0.297,0.171,0.26,0.471-0.083,0.669l-2.178,1.257
				c-0.343,0.197-0.86,0.219-1.157,0.048l-5.023-2.9c-0.296-0.171-0.259-0.471,0.084-0.668l2.177-1.257
				C171.857,323.588,172.376,323.566,172.673,323.738z"/>
		</g>
	</g>
	<path fill="#5793CE" d="M113.582,334.838c-0.778,0-1.527-0.162-2.098-0.492h0l-34.806-20.095c-0.644-0.372-0.998-0.913-0.998-1.524
		c0-0.693,0.474-1.365,1.299-1.842l23.042-13.303c1.414-0.816,3.497-0.894,4.742-0.174l34.805,20.095
		c0.644,0.371,0.999,0.913,0.999,1.524c0,0.693-0.474,1.364-1.3,1.841l-23.041,13.303
		C115.461,334.612,114.5,334.838,113.582,334.838z M112.026,333.404c0.909,0.524,2.583,0.444,3.655-0.175l23.041-13.302
		c0.474-0.274,0.757-0.609,0.757-0.9c0-0.279-0.285-0.485-0.455-0.583L104.22,298.35c-0.909-0.524-2.583-0.445-3.656,0.174
		l-23.041,13.303c-0.474,0.273-0.756,0.61-0.756,0.9c0,0.278,0.285,0.485,0.455,0.583L112.026,333.404L112.026,333.404z"/>
	<g>
		<path fill="#FFFFFF" d="M105.543,312.945l3.412-1.912c0.316-0.177,0.87-0.15,1.236,0.059l0,0c0.366,0.211,0.407,0.524,0.09,0.701
			l-3.411,1.912c-0.316,0.177-0.87,0.15-1.236-0.059l0,0C105.267,313.436,105.227,313.122,105.543,312.945z"/>
		<path fill="#FFFFFF" d="M98.299,317.003l5.03-2.818c0.316-0.177,0.87-0.15,1.236,0.06l0,0c0.366,0.209,0.407,0.523,0.09,0.7
			l-5.03,2.818c-0.316,0.178-0.87,0.151-1.236-0.059l0,0C98.023,317.494,97.983,317.181,98.299,317.003z"/>
		<path fill="#FFFFFF" d="M116.833,319.212l6.511-3.647c0.316-0.178,0.87-0.151,1.236,0.059l0,0c0.366,0.21,0.406,0.523,0.09,0.701
			l-6.512,3.647c-0.316,0.178-0.87,0.151-1.236-0.059l0,0C116.556,319.703,116.516,319.39,116.833,319.212z"/>
		<path fill="#FFFFFF" d="M115.657,313.574l2.131-1.193c0.316-0.178,0.87-0.151,1.236,0.059l0,0c0.366,0.21,0.406,0.523,0.09,0.701
			l-2.131,1.193c-0.317,0.178-0.87,0.151-1.236-0.059l0,0C115.38,314.066,115.34,313.752,115.657,313.574z"/>
		<path fill="#FFFFFF" d="M110.864,309.964l1.368-0.767c0.317-0.178,0.87-0.15,1.236,0.059l0,0c0.366,0.21,0.406,0.523,0.089,0.701
			l-1.368,0.767c-0.316,0.177-0.87,0.151-1.236-0.059l0,0C110.588,310.455,110.547,310.141,110.864,309.964z"/>
		<path fill="#FFFFFF" d="M104.978,306.966l1.699-0.952c0.316-0.177,0.87-0.15,1.236,0.059l0,0c0.366,0.21,0.406,0.524,0.09,0.701
			l-1.699,0.952c-0.317,0.177-0.87,0.151-1.236-0.059l0,0C104.701,307.457,104.661,307.143,104.978,306.966z"/>
		<path fill="#FFFFFF" d="M98.368,310.668l4.479-2.509c0.316-0.177,0.87-0.151,1.236,0.059l0,0c0.366,0.21,0.406,0.523,0.089,0.701
			l-4.479,2.509c-0.316,0.178-0.87,0.151-1.236-0.059l0,0C98.092,311.159,98.052,310.846,98.368,310.668z"/>
		<path fill="#FFFFFF" d="M100.678,306.227l3.221-1.805c0.316-0.177,0.87-0.15,1.236,0.059l0,0c0.366,0.211,0.406,0.524,0.09,0.701
			l-3.22,1.805c-0.317,0.177-0.87,0.15-1.236-0.059l0,0C100.401,306.718,100.361,306.404,100.678,306.227z"/>
		<path fill="#FFFFFF" d="M107.729,318.016l5.692-3.188c0.316-0.177,0.87-0.151,1.236,0.059l0,0c0.366,0.21,0.407,0.523,0.09,0.701
			l-5.692,3.188c-0.316,0.178-0.87,0.151-1.236-0.059l0,0C107.453,318.508,107.413,318.193,107.729,318.016z"/>
		<path fill="#FFFFFF" d="M110.645,319.53l9.921-5.558c0.316-0.178,0.87-0.151,1.236,0.059l0,0c0.366,0.21,0.407,0.523,0.09,0.701
			l-9.92,5.558c-0.316,0.178-0.87,0.151-1.236-0.059l0,0C110.369,320.021,110.329,319.708,110.645,319.53z"/>
		<path fill="#FFFFFF" d="M109.318,313.979l5.692-3.189c0.317-0.178,0.87-0.15,1.236,0.059l0,0c0.366,0.21,0.406,0.523,0.09,0.701
			l-5.692,3.189c-0.316,0.177-0.87,0.15-1.236-0.06l0,0C109.042,314.469,109.001,314.155,109.318,313.979z"/>
		<path fill="#FFFFFF" d="M103.412,320.435l2.068-1.158c0.317-0.178,0.87-0.151,1.236,0.059l0,0c0.366,0.21,0.406,0.523,0.09,0.701
			l-2.068,1.158c-0.316,0.178-0.87,0.151-1.236-0.059l0,0C103.136,320.926,103.096,320.612,103.412,320.435z"/>
		<path fill="#FFFFFF" d="M102.612,311.439l6.842-3.834c0.316-0.177,0.87-0.15,1.236,0.059l0,0c0.366,0.21,0.406,0.524,0.09,0.701
			l-6.842,3.834c-0.316,0.177-0.87,0.15-1.236-0.059l0,0C102.335,311.93,102.295,311.616,102.612,311.439z"/>
	</g>
</g>
<path fill="#5793CE" d="M204.19,271.409c-0.763,0-1.526-0.197-2.211-0.593l-30.7-17.774c-0.956-0.554-1.534-1.544-1.545-2.649
	s0.547-2.107,1.492-2.681l8.494-5.143c0.276-0.167,0.635-0.078,0.803,0.197c0.167,0.276,0.078,0.636-0.197,0.803l-8.494,5.143
	c-0.589,0.356-0.937,0.981-0.93,1.669c0.007,0.688,0.367,1.305,0.963,1.649l30.699,17.774c1.032,0.598,2.306,0.579,3.322-0.041
	l10.571-6.46c0.275-0.17,0.636-0.081,0.803,0.193c0.169,0.275,0.082,0.635-0.193,0.803l-10.571,6.46
	C205.788,271.193,204.989,271.409,204.19,271.409z"/>
<g>
	<g>
		<g>
			<path fill="#173D7A" d="M223.255,198.404c0,0-2.121-1.07-3.425,0.523c-1.303,1.593-3.165,5.354-3.223,7.896
				c-0.059,2.542,2.011,2.37,3.24,1.769c1.23-0.602,4.822-5.813,5.04-6.834s-0.256-2.402-0.602-2.672
				C223.94,198.815,223.255,198.404,223.255,198.404z"/>
			<path fill="#D4ECFF" d="M223.718,197.893l0.099,2.198c0.021,0.467-0.215,0.913-0.621,1.143c-0.371,0.211-0.909,0.372-1.637,0.255
				c-1.599-0.257-1.741-0.713-1.855-2.911S223.718,197.893,223.718,197.893z"/>
			<g>
				<path fill="#173D7A" d="M215.488,194.178c0,0-2.121-1.07-3.425,0.523c-1.303,1.593-3.165,5.354-3.223,7.896
					c-0.058,2.542,2.011,2.37,3.24,1.769c1.23-0.602,4.822-5.813,5.04-6.834c0.218-1.021-0.256-2.402-0.602-2.672
					C216.174,194.589,215.488,194.178,215.488,194.178z"/>
				<path fill="#D4ECFF" d="M215.951,193.667l0.099,2.199c0.021,0.467-0.214,0.912-0.621,1.143c-0.371,0.21-0.909,0.372-1.637,0.254
					c-1.599-0.257-1.741-0.714-1.855-2.911C211.822,192.154,215.951,193.667,215.951,193.667z"/>
				<path fill="#FDD762" d="M234.884,153.31c-0.628-10.217-11.065,1.504-11.065,1.504l-7.144,7.001l-6.433,7.067
					c-1.257,1.38-1.841,3.243-1.599,5.094l2.603,19.814c0.129,0.979,0.966,1.7,1.953,1.692c0.278-0.002,0.598-0.027,0.964-0.084
					c2.321-0.361,2.149-2.569,2.149-2.569l-0.476-18.532l13.51-8.144C229.347,166.153,235.512,163.527,234.884,153.31z"/>
			</g>
			<path fill="#FDD762" d="M242.65,157.203c-0.628-10.218-11.065,1.503-11.065,1.503l-7.144,7.002l-6.434,7.066
				c-1.256,1.38-1.84,3.244-1.598,5.094l2.603,19.815c0.129,0.979,0.966,1.7,1.953,1.692c0.278-0.002,0.598-0.028,0.964-0.084
				c2.321-0.361,2.149-2.569,2.149-2.569l-0.476-18.532l13.51-8.144C237.113,170.046,243.278,167.42,242.65,157.203z"/>
			<path fill="#FF6600" d="M236.476,124.404c7.913,3.28,7.754,7.958,7.754,7.958s-1.55,17.148-1.021,28.601
				c0.221,4.788-25.438,5.153-21.61-7.62c4.512-15.061,2.82-27.252,4.933-29.091C228.643,122.414,234.429,123.556,236.476,124.404z"
				/>
			
				<ellipse transform="matrix(0.9684 0.2494 -0.2494 0.9684 39.2398 -54.6014)" fill="#FFC2B0" cx="235.069" cy="127.534" rx="4.082" ry="3.004"/>
			<path fill="#FFFFFF" d="M235.67,130.995c-0.475,0-0.962-0.062-1.445-0.187c-1.133-0.292-2.118-0.896-2.773-1.699
				c-0.684-0.837-0.933-1.792-0.701-2.688c0.466-1.806,2.78-2.777,5.162-2.163c1.133,0.292,2.118,0.896,2.774,1.699
				c0.683,0.838,0.932,1.792,0.7,2.688c-0.23,0.897-0.909,1.612-1.912,2.016C236.923,130.884,236.308,130.995,235.67,130.995z
				 M234.464,124.828c-1.47,0-2.698,0.684-2.981,1.781c-0.169,0.658,0.027,1.376,0.555,2.022c0.555,0.68,1.398,1.192,2.377,1.444
				c0.977,0.251,1.964,0.211,2.778-0.117c0.773-0.311,1.293-0.844,1.462-1.502l0,0c0.169-0.657-0.027-1.375-0.555-2.021
				c-0.554-0.68-1.398-1.193-2.377-1.445C235.295,124.88,234.87,124.828,234.464,124.828z"/>
			<path fill="#FFC2B0" d="M233.303,124.047c0,0,0.068,0.317-0.069,2.825c-0.043,0.788,2.718,1.524,3.432,0.812
				c0.713-0.714,0.428-1.456,0.599-4.139C237.436,120.862,233.303,124.047,233.303,124.047z"/>
			<path fill="#EA9C92" d="M237.264,123.545c0,0-0.68,2.487-4.03,3.441l0.051-2.261L237.264,123.545z"/>
			<circle fill="#FFC2B0" cx="233.49" cy="118.75" r="6.091"/>
			<path fill="#EA9C92" d="M234.889,118.973c0,0-3.354,1.437-5.676,1.453s-1.811-1.928-1.811-1.928l6.894-0.996L234.889,118.973z"/>
			<path fill="#FF6600" d="M228.521,119.352c0,0,2.921-1.24,5.484-0.723c0.603,0.122,1.161,0.444,1.549,0.92
				c0.126,0.156,0.287,0.298,0.469,0.339c0.454,0.104,1.198-1.782,2.081-1.825c0.884-0.043,1.474,0.582,0.749,1.742
				s-0.479,2.458-0.146,2.643c0.333,0.187,3.868-2.521,0.75-8.697s-11.038-2.85-12.27-1.598c0,0-1.298,1.131-2.354,0.124
				C224.833,112.276,223.65,121.138,228.521,119.352z"/>
			<path fill="#FFC2B0" d="M239.791,144.891v4.634c0,0.531-0.224,1.038-0.616,1.396l-9.52,8.678l1.082,1.654l12.57-8.23
				c0.587-0.426,0.966-1.081,1.041-1.802l0.85-8.967L239.791,144.891z"/>
			<path fill="#FF6600" d="M243.56,130.045c0,0,2.888,4.344,3.964,15.775c0,0-4.933,1.595-7.732,0.689
				C236.991,145.604,243.56,130.045,243.56,130.045z"/>
			<path fill="#DD7224" d="M239.264,135.537c0,0-1.131,6.05-1.195,8.894c-0.018,0.782,0.46,1.487,1.195,1.753l0,0V135.537z"/>
		</g>
		<g>
			<path fill="#173D7A" d="M236.794,165.624l-2.104-0.278l-13.581-7.841c-0.435-0.252-1.195-0.22-1.698,0.07l-9.623,5.554
				l-1.272-0.168v1.267h0.001c-0.008,0.167,0.087,0.327,0.292,0.446l15.392,8.886c0.436,0.251,1.196,0.22,1.698-0.07l10.48-6.049
				c0.283-0.163,0.424-0.374,0.416-0.571l0,0V165.624z"/>
			<path fill="#396CAA" d="M226.59,160.669l-0.966-0.557h-10.607l-5.229,3.017l-1.272-0.168v1.267h0.001
				c-0.008,0.167,0.087,0.327,0.292,0.446l15.392,8.886c0.229,0.133,0.551,0.186,0.877,0.165L226.59,160.669z"/>
			<path fill="#5793CE" d="M209.079,163.036l-0.564-0.075v1.267h0.001c-0.008,0.167,0.087,0.327,0.292,0.446l0.271,0.156V163.036z"
				/>
			<path fill="#274F89" d="M224.354,173.632c0.412,0.156,1.002,0.122,1.443-0.09v-2.154h-1.443V173.632z"/>
			<path fill="#FFFFFF" d="M224.199,172.294l-15.392-8.886c-0.436-0.251-0.381-0.69,0.122-0.981l10.48-6.049
				c0.503-0.291,1.264-0.322,1.698-0.07l15.392,8.886c0.436,0.251,0.381,0.69-0.122,0.98l-10.48,6.049
				C225.396,172.514,224.635,172.545,224.199,172.294z"/>
			<path fill="#D4ECFF" d="M223.938,170.947l-12.798-7.389c-0.361-0.209-0.316-0.574,0.102-0.815l5.616-3.158
				c0.418-0.241,1.051-0.268,1.412-0.059l12.798,7.389c0.362,0.209,0.317,0.574-0.102,0.815l-5.615,3.158
				C224.934,171.13,224.301,171.156,223.938,170.947z"/>
		</g>
		<path fill="#FFC2B0" d="M220.005,156.087l-0.159,1.062c-0.136,0.905-0.112,1.826,0.069,2.723l0.189,0.936
			c0.107,0.528,0.524,0.938,1.055,1.034l0,0c0.414,0.076,0.805-0.215,0.852-0.633l0.254-2.271c0,0,0.581,0.762,0.861,0.762
			s-0.313-2.274-0.948-3.561C221.544,154.852,220.005,156.087,220.005,156.087z"/>
		<path fill="#FFC2B0" d="M225.223,139.208l-1.651,3.269c-0.391,0.773-0.621,1.617-0.676,2.481l-0.718,11.181l-2.173-0.052
			l-0.985-12.556c-0.031-0.388-0.012-0.778,0.056-1.161l1.127-6.367L225.223,139.208z"/>
		<g>
			<path fill="#173D7A" d="M223.678,173.147l-1.29-1.685l-13.572-7.857c-0.435-0.252-0.787-0.927-0.786-1.507l0.012-11.111
				l-0.78-1.019l0.733-0.424l0.001,0.001c0.14-0.091,0.326-0.088,0.532,0.03l15.38,8.905c0.436,0.252,0.787,0.927,0.787,1.507
				l-0.014,12.101c0,0.327-0.112,0.554-0.287,0.646l0,0L223.678,173.147z"/>
			<path fill="#396CAA" d="M214.293,166.776l-0.965-0.559l-5.293-9.193l0.006-6.038l-0.78-1.019l0.733-0.424l0.001,0.001
				c0.14-0.091,0.326-0.088,0.532,0.03l15.38,8.905c0.23,0.133,0.437,0.385,0.58,0.678L214.293,166.776z"/>
			<path fill="#5793CE" d="M207.607,150.42l-0.347-0.452l0.733-0.424l0.001,0.001c0.14-0.091,0.326-0.088,0.532,0.03l0.271,0.157
				L207.607,150.42z"/>
			<path fill="#274F89" d="M224.047,158.579c0.342,0.28,0.606,0.808,0.643,1.295l-1.503,0.868l-0.72-1.251L224.047,158.579z"/>
			<path fill="#FFFFFF" d="M223.175,158.904L207.794,150c-0.435-0.252-0.788,0.014-0.789,0.595l-0.013,12.101
				c-0.001,0.581,0.352,1.255,0.787,1.507l15.38,8.905c0.436,0.252,0.788-0.015,0.789-0.595l0.013-12.1
				C223.962,159.831,223.61,159.156,223.175,158.904z"/>
		</g>
		<path fill="#FFC2B0" d="M230.737,161.252l-0.246,0.511c-0.284,0.588-0.73,1.083-1.286,1.425l-1.527,0.942
			c-0.476,0.292-1.077,0.316-1.56,0.036c-0.018-0.01-0.035-0.021-0.053-0.032c-0.485-0.304-0.529-1.001-0.13-1.412l1.597-1.641
			c0,0-0.896,0.687-1.148,0.41c-0.184-0.203,0.87-1.192,1.68-1.225c0.81-0.032,1.592-0.668,1.592-0.668L230.737,161.252z"/>
		<path fill="#FF6600" d="M226.689,124.229c0,0-5.853,6.368-8.214,12.21c0,0,2.001,3.605,6.9,5.021
			C230.274,142.874,226.689,124.229,226.689,124.229z"/>
		<path fill="#DD7224" d="M224.273,141.081l0.949-9.163l-2.235,8.585C223.386,140.711,223.816,140.904,224.273,141.081z"/>
		<path fill="#FFFFFF" d="M231.073,122.943l-1.573-0.432c0,0,0.751,1.181,1.847,1.481c1.097,0.302,1.267-0.626,1.267-0.626
			L231.073,122.943z"/>
	</g>
</g>
<g>
	<g>
		<g>
			<g>
				
					<rect x="240.647" y="289.829" transform="matrix(-0.6321 0.7749 -0.7749 -0.6321 625.3098 293.1781)" fill="#5793CE" width="4.822" height="10.404"/>
				<path fill="#5793CE" d="M246.774,300.262c1.017-0.386,1.981-1.568,2.155-2.643c0.174-1.072-0.51-1.63-1.525-1.244
					c-1.017,0.387-1.981,1.569-2.155,2.643S245.759,300.648,246.774,300.262z"/>
			</g>
			<g>
				
					<rect x="232.41" y="284.219" transform="matrix(-0.6321 0.7749 -0.7749 -0.6321 610.0483 289.4088)" fill="#5793CE" width="7.813" height="10.628"/>
				<path fill="#396CAA" d="M241.876,290.956l2.729,2.226c-0.394,1.505-1.652,3.049-3.048,3.736l-2.729-2.225
					C239.223,293.188,240.481,291.645,241.876,290.956z"/>
				<path fill="#5793CE" d="M239.925,296.04c1.647-0.626,3.21-2.542,3.492-4.281c0.281-1.739-0.825-2.642-2.472-2.016
					c-1.647,0.625-3.211,2.542-3.492,4.281S238.278,296.666,239.925,296.04z"/>
				<path fill="#5793CE" d="M231.686,289.32c1.647-0.625,3.21-2.542,3.492-4.281c0.281-1.738-0.825-2.641-2.472-2.016
					c-1.647,0.625-3.21,2.543-3.492,4.281C228.933,289.044,230.039,289.946,231.686,289.32z"/>
				<path fill="#D4ECFF" d="M231.907,287.953c0.932-0.354,1.816-1.438,1.976-2.422c0.159-0.983-0.467-1.494-1.398-1.141
					c-0.932,0.354-1.815,1.438-1.976,2.422C230.35,287.797,230.976,288.307,231.907,287.953z"/>
			</g>
		</g>
	</g>
	<path fill="#D4ECFF" d="M246.799,297.203c0.396,0.322,0.781,0.176,0.863-0.328c0.081-0.503-0.173-1.172-0.568-1.494
		s-0.781-0.176-0.863,0.327C246.149,296.212,246.403,296.881,246.799,297.203z"/>
</g>
<path fill="#5793CE" d="M171.194,370.72c-1.309,0-2.618-0.358-3.814-1.078l-5.174-3.063c-0.277-0.165-0.369-0.523-0.205-0.801
	c0.165-0.275,0.521-0.367,0.801-0.205l5.177,3.065c2.033,1.224,4.45,1.214,6.47-0.025c2.019-1.237,3.124-3.388,2.956-5.751
	l-0.11-1.562c-1.816-25.539-5.197-73.077,14.838-78.204c6.901-1.767,11.626-3.458,15.076-4.692
	c10.277-3.678,10.985-3.479,25.161,7.228c0.258,0.194,0.309,0.561,0.114,0.817c-0.193,0.259-0.562,0.31-0.817,0.114
	c-14.082-10.634-14.271-10.565-24.064-7.06c-3.472,1.243-8.226,2.944-15.181,4.724c-19.09,4.887-15.754,51.791-13.962,76.99
	l0.111,1.562c0.198,2.807-1.114,5.36-3.512,6.831C173.852,370.349,172.523,370.72,171.194,370.72z"/>
<g>
	<path fill="#B5B5B5" d="M223.898,376.988c-7.401,4.273-19.402,4.273-26.804,0s-7.402-11.202,0-15.476
		c7.401-4.272,19.401-4.272,26.803,0.001C231.3,365.787,231.3,372.715,223.898,376.988z"/>
	<g>
		<path fill="#173D7A" d="M219.538,364.562c1.067,0.456,1.739,1.646,1.65,2.925c-0.042,0.604-0.115,1.166-0.24,1.431
			c-0.34,0.713-1.453,1.691-3.23,0.989s-5.724-4.41-5.871-6.838C211.572,358.561,216.728,363.361,219.538,364.562z"/>
		<path fill="#173D7A" d="M209.098,372.019c0,0,0.426,2.6,0.219,3.076c-0.207,0.476-1.443,1.493-3.271,1.273
			s-7.084-2.032-8.254-5.497c-1.815-5.37,10.146,0.403,10.146,0.403L209.098,372.019z"/>
		<path fill="#FDD762" d="M203.961,330.464l-0.406,40.579c0.042,1.411,0.967,2.604,2.21,2.813c0.154,0.026,0.318,0.047,0.494,0.063
			c1.259,0.11,1.992-0.43,2.411-0.997c0.339-0.46,0.517-1.042,0.542-1.638l0.519-17.323l2.586-15.488l3.578,27.412
			c0.058,0.741,0.412,1.427,0.983,1.805c0.395,0.261,0.93,0.464,1.631,0.442c1.024-0.03,1.735-0.578,2.169-1.068
			c0.345-0.387,0.525-0.92,0.519-1.467l-1.419-16.494l-0.527-21.037L203.961,330.464z"/>
		<path fill="#FFC2B0" d="M209.216,294.141l0.642,3.698c0,0,0.024,1.261-1.385,1.61c-1.408,0.35-1.844-0.56-1.844-0.56l-0.637-4.164
			L209.216,294.141z"/>
		<path fill="#FFC2B0" d="M201.697,294.252c2.354,2.344,5.947,2.54,8.027,0.438c2.08-2.104,1.858-5.707-0.495-8.052
			c-2.354-2.344-5.947-2.54-8.027-0.438S199.344,291.908,201.697,294.252z"/>
		<path fill="#ED852F" d="M209.049,297.906c0.098-0.04,5.977-3.825,8.149,0.136c3.543,6.46,3.335,27.251,2.216,29.944
			c-1.035,2.492-3.621,4.33-5.433,5.365c-1.612,0.922-3.417,1.485-5.273,1.5c-1.837,0.016-5.359-1.618-5.231-4.02
			c0.588-11.046-0.389-20.356-1.291-29.391C202.186,301.441,203.313,300.229,209.049,297.906z"/>
		<path fill="#D8892B" d="M212.316,338.472l3.578,27.412c0.058,0.741,0.412,1.427,0.983,1.805c0.093,0.063,0.196,0.12,0.306,0.173
			c-0.743-0.557-2.912-23.565-3.313-26.125C213.469,339.176,212.316,338.472,212.316,338.472z"/>
	</g>
	<polygon fill="#FFC2B0" points="190.249,299.125 187.055,288.662 188.742,287.963 192.508,296.162 	"/>
	<polygon fill="#FFC2B0" points="222.451,290.879 220.057,279.986 218.149,280.008 218.866,289.041 	"/>
	<path fill="#ED852F" d="M202.186,301.441c0,0-5.739,1.145-9.389-5.537c-0.322-0.59-1.176-0.677-1.515-0.16
		c-0.585,0.892-1.36,2.258-0.959,3.734c1.777,6.53,11.426,7.975,13.159,11.762C205.215,315.028,202.186,301.441,202.186,301.441z"/>
	<path fill="#ED852F" d="M212.777,296.549c0,0,4.546,0.35,5.2-3.585c0.337-2.026,0.438-3.235,0.456-3.933
		c0.014-0.473,0.423-0.83,0.892-0.771c1.089,0.135,2.774,0.46,3.003,1.189c0.341,1.089,0.983,6.432-3.507,14.629
		C215.88,309.449,212.777,296.549,212.777,296.549z"/>
	<path fill="#FFC2B0" d="M220.066,280.014l-0.044-1.242c-0.015-0.438-0.143-0.866-0.371-1.24l-1.259-2.068l-0.328-0.414
		c-0.304-0.382-0.846-0.475-1.259-0.215l-0.289,0.182c-0.369,0.232-0.582,0.648-0.554,1.084l0.651,1.768l-0.824-0.16
		c-0.16-0.031-0.314,0.074-0.343,0.235l0,0c-0.024,0.136,0.05,0.271,0.178,0.323l1.346,0.542l1.221,1.729L220.066,280.014z"/>
	<path fill="#FFC2B0" d="M187.009,288.718l-0.381-1.183c-0.135-0.418-0.159-0.863-0.072-1.293l0.481-2.373l0.169-0.501
		c0.155-0.462,0.634-0.733,1.11-0.629l0.334,0.073c0.427,0.093,0.768,0.411,0.889,0.83l-0.012,1.884l0.72-0.43
		c0.141-0.084,0.321-0.037,0.403,0.104l0,0c0.069,0.119,0.045,0.271-0.059,0.364l-1.08,0.967l-0.632,2.294L187.009,288.718z"/>
	<path fill="#DD7224" d="M204.874,309.355c0.523,2.387-0.945,20.911,3.834,25.496c-1.837,0.016-5.359-1.618-5.231-4.02
		c0.394-7.407,0.08-14.026-0.438-20.313c-1.874-2.429-7.03-3.975-10.256-7.088C193.018,303.504,204.355,306.993,204.874,309.355z"/>
	<path fill="#FFFFFF" d="M211.162,296.861l-0.816-0.838c0,0-1.343,1.371-2.421,1.609c0,0-1.299,0.368-1.933,0.4l-0.525,1.448
		C205.467,299.481,209.742,299.176,211.162,296.861z"/>
	<path fill="#173D7A" d="M205.142,292.563c-0.202,0.101-0.435,0.107-0.634,0.002c-0.348-0.183-0.911-1.564-1.634-1.463
		c-1.131,0.158-2.768,2.531-4.806-0.779c-1.06-1.721-0.438-2.65-0.953-3.627c0,0,0.181,0.53,4.617-2.178
		c4.438-2.708,8.065,0.593,9.19,2.479c1.125,1.888,1.854,5.576-1.058,7.657c-0.482,0.345-3.59-0.271-3.654-0.531
		c-0.063-0.261,0.769-0.68,0.299-1.288C206.117,292.327,205.669,292.299,205.142,292.563z"/>
</g>
</svg>
