<?xml version="1.0" encoding="utf-8"?>
<!-- Generator: Adobe Illustrator 16.0.0, SVG Export Plug-In . SVG Version: 6.00 Build 0)  -->
<!DOCTYPE svg PUBLIC "-//W3C//DTD SVG 1.1//EN" "http://www.w3.org/Graphics/SVG/1.1/DTD/svg11.dtd">
<svg version="1.1" id="Слой_1" xmlns="http://www.w3.org/2000/svg" xmlns:xlink="http://www.w3.org/1999/xlink" x="0px" y="0px"
	 width="384px" height="326px" viewBox="0 0 384 326" enable-background="new 0 0 384 326" xml:space="preserve">
<g>
	<path fill="#B5B5B5" d="M207.944,276.882L91.978,209.929c-3.281-1.894-2.869-5.202,0.919-7.389l78.964-45.575
		c3.788-2.188,9.519-2.425,12.799-0.531l115.967,66.953c3.28,1.895,2.869,5.203-0.919,7.39l-78.965,45.575
		C216.955,278.539,211.225,278.776,207.944,276.882z"/>
	<path fill="#173D7A" d="M327.788,104.781L211.821,37.827c-1.347-0.777-2.716-0.897-3.93-0.481l0.007-0.012l-0.21,0.079
		c-0.018,0.007-0.034,0.013-0.052,0.02l-4.19,1.604l3.761,1.842c-0.017,0.069-0.038,0.134-0.054,0.204l-18.889,85.982
		c-0.945,4.303,0.947,9.326,4.228,11.221l113.178,65.343l-0.403,4.796l4.58-1.774c1.539-0.721,2.771-2.348,3.28-4.666l18.889-85.981
		C332.961,111.698,331.068,106.675,327.788,104.781z"/>
	<path fill="#396CAA" d="M327.788,104.781L211.821,37.827c-1.347-0.777-2.716-0.897-3.93-0.481l0.007-0.012l-0.21,0.079
		c-0.018,0.007-0.034,0.013-0.052,0.02l-4.19,1.604l3.761,1.842c-0.017,0.069-0.038,0.134-0.054,0.204L194.704,97.75l56.741,44.206
		l80.006-32.554C330.682,107.409,329.404,105.714,327.788,104.781z"/>
	<path fill="#274F89" d="M323.415,117.998l8.828-3.759c0.161-3.419-1.254-6.95-3.577-8.84l-13.973,5.878L323.415,117.998z"/>
	<path fill="#D4ECFF" d="M301.237,207.969l-115.966-66.954c-3.281-1.893-5.174-6.917-4.229-11.22l18.889-85.982
		c0.945-4.303,4.371-6.256,7.651-4.361l115.967,66.953c3.28,1.894,5.174,6.918,4.229,11.221l-18.889,85.981
		C307.944,207.91,304.519,209.862,301.237,207.969z"/>
	<path fill="#FFFFFF" d="M298.724,201.573l-109.064-62.938c-3.002-1.733-4.733-6.331-3.869-10.269l17.285-78.681
		c0.865-3.937,4-5.724,7.002-3.991l109.064,62.938c3.002,1.733,4.734,6.33,3.869,10.268l-17.285,78.682
		C304.86,201.519,301.726,203.306,298.724,201.573z"/>
	<path fill="#FFFFFF" d="M298.724,201.573l-109.064-62.938c-3.002-1.733-4.733-6.331-3.869-10.269l17.285-78.681
		c0.865-3.937,4-5.724,7.002-3.991l109.064,62.938c3.002,1.733,4.734,6.33,3.869,10.268l-17.285,78.682
		C304.86,201.519,301.726,203.306,298.724,201.573z"/>
	<path fill="#173D7A" d="M302.839,210.885l-15.852-2.094L184.66,149.713c-3.28-1.895-9.011-1.656-12.799,0.53l-72.508,41.848
		l-9.585-1.266v5.438l0.01,0.001c-0.063,1.257,0.653,2.466,2.201,3.359l115.966,66.954c3.28,1.894,9.011,1.656,12.799-0.531
		l78.965-45.574c2.131-1.23,3.193-2.816,3.131-4.305l0,0V210.885z"/>
	<path fill="#396CAA" d="M225.954,173.554l-7.271-4.197h-79.927l-39.404,22.734l-9.585-1.266v5.438l0.01,0.001
		c-0.063,1.257,0.653,2.466,2.201,3.359l115.966,66.954c1.733,1,4.151,1.4,6.605,1.237L225.954,173.554z"/>
	<path fill="#5793CE" d="M94.021,191.387l-4.254-0.562v5.438l0.01,0.001c-0.063,1.257,0.653,2.466,2.201,3.359l2.043,1.181V191.387z
		"/>
	<path fill="#274F89" d="M209.112,267.121c3.109,1.179,7.555,0.922,10.875-0.676v-12.131h-10.875V267.121z"/>
	<path fill="#D4ECFF" d="M207.944,261.146L91.978,194.192c-3.281-1.895-2.869-5.202,0.919-7.39l78.964-45.575
		c3.788-2.187,9.519-2.424,12.799-0.53l115.967,66.953c3.28,1.895,2.869,5.202-0.919,7.39l-78.965,45.575
		C216.955,262.802,211.225,263.039,207.944,261.146z"/>
	<path fill="#FFFFFF" d="M299.708,213.054l-78.965,45.575c-3.788,2.187-9.519,2.424-12.799,0.53L91.978,192.206
		c-1.076-0.621-1.747-1.396-2.04-2.231c-0.513,1.552,0.141,3.121,2.04,4.218l115.966,66.953c3.28,1.895,9.011,1.656,12.799-0.53
		l78.965-45.575c2.546-1.47,3.559-3.445,2.958-5.159C302.293,211.012,301.304,212.132,299.708,213.054z"/>
	<g>
		<path fill="#B9DFF9" d="M141.3,172.026l-5.247-3.029c-0.421-0.243-0.368-0.667,0.118-0.948l6.193-3.576
			c0.486-0.281,1.223-0.312,1.644-0.068l5.247,3.029c0.421,0.243,0.368,0.668-0.118,0.949l-6.193,3.575
			C142.457,172.239,141.722,172.27,141.3,172.026z"/>
		<path fill="#B9DFF9" d="M149.403,176.705l-5.247-3.029c-0.422-0.243-0.369-0.668,0.118-0.949l6.192-3.575
			c0.487-0.28,1.223-0.312,1.645-0.068l5.246,3.029c0.422,0.243,0.369,0.668-0.117,0.949l-6.193,3.575
			C150.561,176.918,149.824,176.948,149.403,176.705z"/>
		<path fill="#B9DFF9" d="M157.506,181.383l-5.247-3.029c-0.421-0.243-0.368-0.668,0.118-0.948l6.193-3.575
			c0.486-0.282,1.223-0.313,1.644-0.069l5.247,3.03c0.421,0.242,0.368,0.667-0.118,0.948l-6.193,3.576
			C158.663,181.596,157.928,181.627,157.506,181.383z"/>
		<path fill="#B9DFF9" d="M168.713,177.52l-5.247-3.029c-0.421-0.243-0.368-0.668,0.118-0.948l5.199-3.002
			c0.486-0.281,1.222-0.312,1.644-0.068l5.247,3.029c0.421,0.243,0.368,0.668-0.118,0.949l-5.199,3.001
			C169.87,177.732,169.134,177.763,168.713,177.52z"/>
		<path fill="#B9DFF9" d="M176.815,182.198l-5.247-3.029c-0.421-0.243-0.368-0.669,0.118-0.949l5.199-3.002
			c0.486-0.28,1.223-0.312,1.644-0.068l5.247,3.03c0.421,0.243,0.368,0.668-0.118,0.948l-5.199,3.002
			C177.973,182.411,177.237,182.441,176.815,182.198z"/>
		<path fill="#B9DFF9" d="M184.919,186.876l-5.247-3.029c-0.422-0.243-0.368-0.668,0.118-0.949l5.198-3.001
			c0.487-0.281,1.223-0.312,1.644-0.068l5.247,3.029c0.422,0.243,0.369,0.668-0.117,0.949l-5.199,3.001
			C186.076,187.089,185.34,187.119,184.919,186.876z"/>
		<path fill="#B9DFF9" d="M193.021,191.555l-5.247-3.029c-0.421-0.243-0.368-0.668,0.118-0.949l5.199-3.002
			c0.486-0.28,1.223-0.311,1.644-0.067l5.247,3.029c0.421,0.243,0.368,0.668-0.118,0.948l-5.199,3.002
			C194.179,191.768,193.443,191.798,193.021,191.555z"/>
		<path fill="#B9DFF9" d="M201.125,196.232l-5.247-3.028c-0.422-0.244-0.368-0.669,0.118-0.95l5.198-3.001
			c0.486-0.281,1.223-0.312,1.644-0.068l5.247,3.029c0.422,0.243,0.369,0.668-0.118,0.949l-5.198,3.002
			C202.282,196.445,201.546,196.476,201.125,196.232z"/>
		<path fill="#B9DFF9" d="M209.228,200.911l-5.247-3.029c-0.421-0.243-0.368-0.668,0.118-0.949l5.199-3.002
			c0.486-0.28,1.222-0.31,1.644-0.067l5.247,3.029c0.421,0.243,0.368,0.668-0.118,0.948l-5.199,3.002
			C210.385,201.124,209.649,201.154,209.228,200.911z"/>
		<path fill="#B9DFF9" d="M217.331,205.589l-5.247-3.029c-0.422-0.243-0.369-0.668,0.117-0.948l5.199-3.002
			c0.486-0.281,1.223-0.312,1.644-0.068l5.247,3.029c0.422,0.243,0.369,0.668-0.118,0.949l-5.198,3.002
			C218.488,205.802,217.752,205.832,217.331,205.589z"/>
		<path fill="#B9DFF9" d="M225.434,210.268l-5.247-3.029c-0.421-0.242-0.368-0.668,0.118-0.949l5.199-3.002
			c0.486-0.28,1.222-0.311,1.644-0.067l5.247,3.029c0.421,0.243,0.368,0.668-0.118,0.949l-5.199,3.001
			C226.591,210.48,225.854,210.511,225.434,210.268z"/>
		<path fill="#B9DFF9" d="M233.536,214.945l-5.247-3.028c-0.421-0.244-0.368-0.669,0.118-0.949l5.199-3.002
			c0.486-0.281,1.223-0.312,1.644-0.068l5.247,3.029c0.421,0.243,0.368,0.668-0.118,0.949l-5.198,3.002
			C234.693,215.158,233.958,215.189,233.536,214.945z"/>
		<path fill="#B9DFF9" d="M241.64,219.624l-5.247-3.029c-0.421-0.243-0.368-0.668,0.118-0.949l5.198-3.001
			c0.487-0.281,1.223-0.312,1.645-0.068l5.247,3.029c0.421,0.243,0.368,0.668-0.118,0.949l-5.199,3.001
			C242.797,219.837,242.061,219.867,241.64,219.624z"/>
		<path fill="#B9DFF9" d="M180.652,175.305l-5.247-3.029c-0.422-0.243-0.369-0.668,0.118-0.949l5.198-3.001
			c0.486-0.281,1.223-0.312,1.644-0.068l5.247,3.029c0.422,0.243,0.369,0.668-0.118,0.949l-5.198,3.001
			C181.81,175.518,181.073,175.548,180.652,175.305z"/>
		<path fill="#B9DFF9" d="M172.428,170.557l-5.247-3.029c-0.421-0.243-0.368-0.668,0.118-0.949l5.199-3.001
			c0.486-0.281,1.223-0.312,1.644-0.068l5.247,3.029c0.421,0.243,0.368,0.668-0.118,0.949l-5.198,3.001
			C173.585,170.77,172.85,170.8,172.428,170.557z"/>
		<path fill="#B9DFF9" d="M164.19,165.801l-11.301-6.524c-0.421-0.243-0.368-0.668,0.118-0.949l5.199-3.001
			c0.486-0.281,1.223-0.312,1.644-0.068l11.301,6.524c0.421,0.243,0.368,0.668-0.118,0.949l-5.199,3.001
			C165.348,166.014,164.612,166.044,164.19,165.801z"/>
		<path fill="#B9DFF9" d="M169.948,160.018l-9.171-5.295c-0.421-0.243-0.368-0.668,0.118-0.949l5.199-3.002
			c0.486-0.28,1.223-0.311,1.644-0.067l9.171,5.295c0.421,0.243,0.368,0.668-0.118,0.948l-5.199,3.002
			C171.105,160.23,170.37,160.261,169.948,160.018z"/>
		<path fill="#B9DFF9" d="M188.755,179.983l-5.247-3.029c-0.421-0.243-0.368-0.669,0.118-0.949l5.199-3.002
			c0.486-0.28,1.222-0.312,1.644-0.067l5.247,3.028c0.421,0.244,0.368,0.669-0.118,0.95l-5.199,3.001
			C189.912,180.195,189.176,180.227,188.755,179.983z"/>
		<path fill="#B9DFF9" d="M196.858,184.661l-5.247-3.029c-0.422-0.243-0.369-0.668,0.117-0.949l5.199-3.001
			c0.486-0.281,1.223-0.311,1.644-0.068l5.247,3.029c0.422,0.243,0.369,0.668-0.118,0.949l-5.198,3.001
			C198.016,184.874,197.279,184.904,196.858,184.661z"/>
		<path fill="#B9DFF9" d="M204.961,189.34l-5.247-3.029c-0.421-0.243-0.368-0.668,0.118-0.949l5.199-3.002
			c0.486-0.279,1.222-0.312,1.644-0.067l5.247,3.029c0.421,0.243,0.368,0.668-0.118,0.948l-5.199,3.002
			C206.118,189.553,205.382,189.583,204.961,189.34z"/>
		<path fill="#B9DFF9" d="M213.064,194.018l-5.248-3.029c-0.421-0.242-0.368-0.668,0.118-0.948l5.199-3.002
			c0.486-0.281,1.223-0.312,1.644-0.068l5.247,3.029c0.421,0.243,0.368,0.668-0.118,0.949l-5.199,3.001
			C214.221,194.23,213.485,194.261,213.064,194.018z"/>
		<path fill="#B9DFF9" d="M221.167,198.696l-5.247-3.029c-0.422-0.243-0.368-0.668,0.118-0.949l5.199-3.002
			c0.486-0.28,1.222-0.312,1.644-0.067l5.247,3.029c0.421,0.243,0.368,0.668-0.118,0.949l-5.199,3.001
			C222.324,198.909,221.588,198.939,221.167,198.696z"/>
		<path fill="#B9DFF9" d="M229.27,203.374l-5.247-3.029c-0.421-0.243-0.368-0.668,0.118-0.948l5.199-3.002
			c0.486-0.281,1.223-0.312,1.644-0.068l5.247,3.029c0.421,0.243,0.368,0.668-0.118,0.949l-5.199,3.002
			C230.427,203.587,229.691,203.617,229.27,203.374z"/>
		<path fill="#B9DFF9" d="M237.373,208.053l-5.247-3.029c-0.422-0.243-0.368-0.668,0.118-0.949l5.198-3.002
			c0.487-0.28,1.223-0.311,1.644-0.067l5.247,3.029c0.422,0.243,0.369,0.668-0.117,0.948l-5.199,3.002
			C238.53,208.266,237.794,208.296,237.373,208.053z"/>
		<path fill="#B9DFF9" d="M245.476,212.73l-5.247-3.029c-0.421-0.243-0.368-0.668,0.118-0.948l5.199-3.002
			c0.486-0.281,1.222-0.312,1.644-0.068l5.247,3.029c0.421,0.244,0.368,0.668-0.118,0.949l-5.199,3.002
			C246.633,212.943,245.897,212.974,245.476,212.73z"/>
		<path fill="#B9DFF9" d="M253.579,217.409l-5.247-3.029c-0.422-0.243-0.369-0.668,0.118-0.949l5.198-3.002
			c0.486-0.28,1.223-0.311,1.644-0.067l5.247,3.029c0.422,0.243,0.369,0.668-0.117,0.949l-5.199,3.001
			C254.736,217.622,254,217.652,253.579,217.409z"/>
		<path fill="#B9DFF9" d="M267.984,225.726l-11.449-6.609c-0.421-0.243-0.368-0.668,0.118-0.949l5.199-3.001
			c0.486-0.281,1.223-0.312,1.644-0.068l11.448,6.61c0.422,0.242,0.369,0.668-0.118,0.948l-5.198,3.002
			C269.142,225.938,268.405,225.97,267.984,225.726z"/>
		<path fill="#B9DFF9" d="M283.76,216.618l-9.663-5.579c-0.421-0.243-0.368-0.668,0.118-0.949l5.198-3.001
			c0.487-0.281,1.223-0.312,1.645-0.068l9.662,5.579c0.422,0.243,0.369,0.668-0.117,0.948l-5.199,3.002
			C284.917,216.831,284.181,216.861,283.76,216.618z"/>
		<path fill="#B9DFF9" d="M202.945,179.067l-5.247-3.028c-0.422-0.244-0.369-0.668,0.118-0.949l5.198-3.002
			c0.487-0.281,1.223-0.312,1.644-0.068l5.247,3.029c0.422,0.243,0.369,0.668-0.118,0.949L204.589,179
			C204.103,179.28,203.366,179.311,202.945,179.067z"/>
		<path fill="#B9DFF9" d="M194.641,174.273l-5.247-3.029c-0.421-0.244-0.368-0.668,0.118-0.949l5.199-3.002
			c0.486-0.28,1.222-0.312,1.644-0.068l5.247,3.029c0.421,0.244,0.368,0.669-0.118,0.95l-5.199,3.001
			C195.798,174.486,195.062,174.517,194.641,174.273z"/>
		<path fill="#B9DFF9" d="M186.336,169.479l-5.247-3.029c-0.421-0.243-0.368-0.668,0.118-0.949l5.199-3.001
			c0.486-0.281,1.222-0.312,1.644-0.068l5.247,3.029c0.421,0.243,0.368,0.668-0.118,0.949l-5.199,3.001
			C187.493,169.691,186.757,169.722,186.336,169.479z"/>
		<path fill="#B9DFF9" d="M178.031,164.684l-5.247-3.029c-0.421-0.243-0.368-0.668,0.118-0.948l5.199-3.002
			c0.486-0.281,1.222-0.312,1.644-0.068l5.247,3.029c0.421,0.243,0.368,0.668-0.118,0.949l-5.199,3.001
			C179.188,164.896,178.453,164.927,178.031,164.684z"/>
		<path fill="#B9DFF9" d="M211.048,183.746l-5.247-3.029c-0.421-0.243-0.368-0.668,0.118-0.949l5.199-3.002
			c0.486-0.28,1.222-0.311,1.644-0.067l5.247,3.029c0.421,0.243,0.368,0.668-0.118,0.949l-5.199,3.001
			C212.205,183.959,211.47,183.989,211.048,183.746z"/>
		<path fill="#B9DFF9" d="M219.151,188.424l-5.247-3.029c-0.422-0.243-0.369-0.668,0.117-0.948l5.199-3.002
			c0.486-0.281,1.223-0.312,1.644-0.068l5.247,3.029c0.422,0.243,0.369,0.668-0.118,0.949l-5.198,3.002
			C220.309,188.637,219.572,188.668,219.151,188.424z"/>
		<path fill="#B9DFF9" d="M227.254,193.103l-5.247-3.029c-0.421-0.243-0.368-0.668,0.118-0.949l5.199-3.001
			c0.486-0.281,1.222-0.312,1.644-0.068l5.247,3.029c0.421,0.243,0.368,0.668-0.118,0.949l-5.199,3.001
			C228.411,193.315,227.676,193.346,227.254,193.103z"/>
		<path fill="#B9DFF9" d="M235.357,197.781l-5.247-3.029c-0.422-0.244-0.369-0.669,0.117-0.949l5.199-3.002
			c0.486-0.281,1.223-0.312,1.644-0.068l5.247,3.029c0.421,0.243,0.368,0.669-0.118,0.949l-5.198,3.002
			C236.514,197.993,235.778,198.024,235.357,197.781z"/>
		<path fill="#B9DFF9" d="M243.46,202.459l-5.247-3.029c-0.421-0.243-0.368-0.668,0.118-0.949l5.199-3.001
			c0.486-0.281,1.222-0.312,1.644-0.068l5.247,3.029c0.421,0.243,0.368,0.668-0.118,0.949l-5.199,3.001
			C244.617,202.672,243.881,202.702,243.46,202.459z"/>
		<path fill="#B9DFF9" d="M251.563,207.138l-5.247-3.03c-0.421-0.243-0.368-0.668,0.118-0.948l5.199-3.002
			c0.486-0.28,1.223-0.312,1.644-0.068l5.247,3.029c0.421,0.243,0.368,0.669-0.118,0.949l-5.198,3.002
			C252.72,207.35,251.984,207.381,251.563,207.138z"/>
		<path fill="#B9DFF9" d="M259.666,211.815l-5.247-3.029c-0.422-0.243-0.368-0.668,0.118-0.949l5.198-3.001
			c0.487-0.281,1.223-0.312,1.645-0.068l5.247,3.029c0.421,0.243,0.368,0.668-0.118,0.949l-5.199,3.002
			C260.823,212.028,260.087,212.059,259.666,211.815z"/>
		<path fill="#B9DFF9" d="M267.769,216.494l-5.247-3.03c-0.421-0.243-0.368-0.668,0.118-0.948l5.199-3.002
			c0.486-0.28,1.223-0.312,1.644-0.068l5.247,3.029c0.421,0.244,0.368,0.669-0.118,0.949l-5.199,3.002
			C268.926,216.706,268.19,216.737,267.769,216.494z"/>
		<path fill="#B9DFF9" d="M275.872,221.172l-5.247-3.029c-0.422-0.243-0.368-0.668,0.118-0.949l5.198-3.001
			c0.486-0.281,1.223-0.312,1.644-0.068l5.247,3.029c0.422,0.243,0.369,0.668-0.117,0.949l-5.199,3.001
			C277.029,221.385,276.293,221.415,275.872,221.172z"/>
		<path fill="#B9DFF9" d="M198.679,167.497l-5.247-3.03c-0.422-0.243-0.369-0.668,0.118-0.948l5.198-3.002
			c0.486-0.281,1.223-0.312,1.644-0.068l5.247,3.029c0.422,0.243,0.369,0.668-0.118,0.949l-5.198,3.002
			C199.836,167.709,199.1,167.739,198.679,167.497z"/>
		<path fill="#B9DFF9" d="M190.615,162.842l-5.246-3.03c-0.422-0.243-0.369-0.668,0.117-0.948l5.199-3.002
			c0.486-0.28,1.223-0.312,1.644-0.067l5.247,3.028c0.421,0.244,0.368,0.669-0.118,0.949l-5.198,3.002
			C191.772,163.054,191.037,163.085,190.615,162.842z"/>
		<path fill="#B9DFF9" d="M182.553,158.187l-5.247-3.029c-0.421-0.243-0.368-0.668,0.118-0.949l5.199-3.002
			c0.486-0.28,1.223-0.311,1.644-0.067l5.247,3.029c0.421,0.243,0.368,0.668-0.118,0.948l-5.199,3.002
			C183.71,158.399,182.975,158.43,182.553,158.187z"/>
		<path fill="#B9DFF9" d="M174.49,153.531l-5.247-3.029c-0.421-0.243-0.368-0.668,0.118-0.949l5.199-3.001
			c0.486-0.281,1.222-0.312,1.644-0.068l5.247,3.029c0.421,0.243,0.368,0.668-0.118,0.949l-5.199,3.001
			C175.647,153.744,174.912,153.774,174.49,153.531z"/>
		<path fill="#B9DFF9" d="M182.781,148.746l-5.247-3.031c-0.421-0.243-0.368-0.668,0.118-0.948l1.719-0.992
			c0.486-0.281,1.222-0.312,1.644-0.068l5.247,3.029c0.421,0.243,0.368,0.668-0.118,0.949l-1.719,0.992
			C183.938,148.958,183.202,148.988,182.781,148.746z"/>
		<path fill="#B9DFF9" d="M193.303,154.819l-5.247-3.029c-0.421-0.243-0.368-0.668,0.118-0.949l1.719-0.992
			c0.486-0.28,1.223-0.312,1.644-0.067l5.247,3.029c0.421,0.243,0.368,0.668-0.118,0.948l-1.719,0.992
			C194.46,155.032,193.725,155.063,193.303,154.819z"/>
		<path fill="#B9DFF9" d="M201.332,159.455l-5.247-3.029c-0.421-0.243-0.368-0.668,0.118-0.949l1.719-0.992
			c0.486-0.281,1.223-0.312,1.644-0.068l5.247,3.029c0.421,0.243,0.368,0.669-0.118,0.949l-1.719,0.992
			C202.489,159.668,201.753,159.698,201.332,159.455z"/>
		<path fill="#B9DFF9" d="M209.361,164.091l-5.247-3.029c-0.422-0.243-0.368-0.668,0.118-0.949l1.719-0.991
			c0.486-0.282,1.222-0.313,1.644-0.069l5.247,3.029c0.421,0.243,0.368,0.669-0.118,0.949l-1.719,0.992
			C210.519,164.304,209.782,164.334,209.361,164.091z"/>
		<path fill="#B9DFF9" d="M217.391,168.727l-5.247-3.029c-0.422-0.244-0.369-0.669,0.117-0.949l1.719-0.992
			c0.487-0.281,1.223-0.312,1.644-0.068l5.247,3.029c0.422,0.243,0.369,0.668-0.117,0.949l-1.719,0.992
			C218.547,168.938,217.812,168.97,217.391,168.727z"/>
		<path fill="#B9DFF9" d="M262.215,194.606l-5.247-3.03c-0.421-0.242-0.368-0.668,0.118-0.948l1.719-0.992
			c0.486-0.281,1.223-0.312,1.644-0.068l5.247,3.029c0.422,0.243,0.369,0.668-0.118,0.949l-1.718,0.992
			C263.372,194.818,262.637,194.85,262.215,194.606z"/>
		<path fill="#B9DFF9" d="M270.244,199.241l-5.247-3.029c-0.421-0.243-0.368-0.668,0.118-0.948l1.719-0.993
			c0.486-0.28,1.223-0.311,1.644-0.067l5.247,3.029c0.421,0.243,0.368,0.668-0.118,0.949l-1.719,0.992
			C271.401,199.454,270.666,199.484,270.244,199.241z"/>
		<path fill="#B9DFF9" d="M278.273,203.877l-5.247-3.029c-0.421-0.243-0.368-0.668,0.118-0.949l1.719-0.992
			c0.486-0.28,1.222-0.312,1.644-0.067l5.247,3.029c0.421,0.243,0.368,0.668-0.118,0.948l-1.719,0.992
			C279.431,204.09,278.694,204.121,278.273,203.877z"/>
		<path fill="#B9DFF9" d="M286.303,208.513l-5.247-3.029c-0.422-0.243-0.368-0.668,0.118-0.949l1.719-0.992
			c0.486-0.28,1.222-0.312,1.644-0.068l5.246,3.03c0.422,0.243,0.369,0.668-0.117,0.948l-1.719,0.992
			C287.46,208.726,286.724,208.756,286.303,208.513z"/>
		<path fill="#B9DFF9" d="M206.781,172.175l-5.247-3.029c-0.421-0.243-0.368-0.668,0.118-0.949l5.199-3.002
			c0.486-0.28,1.222-0.311,1.644-0.067l5.247,3.029c0.421,0.243,0.368,0.668-0.118,0.948l-5.199,3.002
			C207.938,172.388,207.202,172.418,206.781,172.175z"/>
		<path fill="#B9DFF9" d="M214.885,176.853l-5.247-3.029c-0.422-0.243-0.369-0.668,0.117-0.948l5.199-3.002
			c0.486-0.281,1.223-0.312,1.644-0.068l5.247,3.029c0.422,0.243,0.368,0.668-0.118,0.949l-5.198,3.002
			C216.041,177.065,215.306,177.096,214.885,176.853z"/>
		<path fill="#B9DFF9" d="M222.987,181.531l-5.247-3.029c-0.421-0.243-0.368-0.668,0.118-0.949l5.199-3.002
			c0.486-0.28,1.222-0.311,1.644-0.067l5.247,3.029c0.421,0.243,0.368,0.668-0.118,0.949l-5.199,3.001
			C224.145,181.744,223.408,181.774,222.987,181.531z"/>
		<path fill="#B9DFF9" d="M231.09,186.21l-5.247-3.03c-0.421-0.243-0.368-0.668,0.118-0.948l5.199-3.002
			c0.486-0.281,1.223-0.312,1.644-0.068l5.247,3.029c0.421,0.243,0.368,0.668-0.118,0.949l-5.198,3.002
			C232.247,186.422,231.512,186.452,231.09,186.21z"/>
		<path fill="#B9DFF9" d="M239.193,190.888l-5.247-3.029c-0.421-0.243-0.368-0.668,0.118-0.949l5.199-3.002
			c0.486-0.28,1.222-0.311,1.644-0.067l5.247,3.029c0.421,0.243,0.368,0.668-0.118,0.949l-5.199,3.001
			C240.351,191.101,239.614,191.131,239.193,190.888z"/>
		<path fill="#B9DFF9" d="M247.296,195.565l-5.247-3.029c-0.421-0.243-0.368-0.668,0.118-0.948l5.199-3.002
			c0.486-0.281,1.223-0.312,1.644-0.068l5.247,3.029c0.421,0.243,0.368,0.668-0.118,0.949l-5.199,3.002
			C248.453,195.778,247.718,195.81,247.296,195.565z"/>
		<path fill="#B9DFF9" d="M255.399,200.244l-5.247-3.029c-0.422-0.243-0.369-0.668,0.118-0.949l5.198-3.001
			c0.486-0.281,1.223-0.312,1.644-0.068l5.247,3.029c0.422,0.243,0.369,0.668-0.117,0.948l-5.199,3.002
			C256.557,200.457,255.82,200.487,255.399,200.244z"/>
		<path fill="#B9DFF9" d="M263.502,204.923l-5.247-3.029c-0.421-0.244-0.368-0.669,0.118-0.949l5.199-3.002
			c0.486-0.281,1.222-0.312,1.644-0.068l5.247,3.029c0.421,0.244,0.368,0.669-0.118,0.949l-5.199,3.002
			C264.659,205.135,263.924,205.166,263.502,204.923z"/>
		<path fill="#B9DFF9" d="M271.605,209.601l-5.247-3.029c-0.422-0.243-0.369-0.668,0.118-0.948l5.198-3.002
			c0.486-0.281,1.223-0.312,1.644-0.068l5.247,3.029c0.422,0.243,0.369,0.668-0.118,0.949l-5.198,3.001
			C272.763,209.813,272.026,209.844,271.605,209.601z"/>
		<path fill="#B9DFF9" d="M160.455,172.752l-15.453-8.921c-0.421-0.244-0.368-0.669,0.118-0.949l5.199-3.002
			c0.486-0.281,1.223-0.312,1.644-0.068l15.453,8.922c0.421,0.243,0.368,0.668-0.118,0.949l-5.199,3.002
			C161.612,172.965,160.877,172.996,160.455,172.752z"/>
		<path fill="#B9DFF9" d="M260.002,230.226l-15.453-8.922c-0.421-0.243-0.368-0.668,0.118-0.948l5.199-3.002
			c0.486-0.281,1.223-0.312,1.644-0.068l15.453,8.922c0.421,0.243,0.368,0.668-0.118,0.949l-5.199,3.001
			C261.159,230.438,260.424,230.469,260.002,230.226z"/>
		<path fill="#B9DFF9" d="M227.598,221.851l-5.247-3.029c-0.422-0.243-0.369-0.668,0.118-0.949l6.193-3.575
			c0.486-0.281,1.222-0.312,1.644-0.068l5.247,3.029c0.421,0.243,0.368,0.668-0.118,0.949l-6.193,3.575
			C228.755,222.063,228.019,222.094,227.598,221.851z"/>
		<path fill="#B9DFF9" d="M168.753,187.877l-8.391-4.845c-0.422-0.243-0.369-0.668,0.118-0.949l6.192-3.575
			c0.487-0.281,1.223-0.312,1.644-0.068l8.392,4.845c0.422,0.243,0.369,0.668-0.118,0.949l-6.193,3.575
			C169.91,188.09,169.175,188.121,168.753,187.877z"/>
		<path fill="#B9DFF9" d="M219.79,217.343l-8.392-4.845c-0.421-0.243-0.368-0.668,0.118-0.949l6.193-3.575
			c0.486-0.281,1.223-0.312,1.644-0.068l8.392,4.845c0.421,0.243,0.368,0.668-0.118,0.949l-6.193,3.575
			C220.947,217.556,220.211,217.586,219.79,217.343z"/>
		<path fill="#B9DFF9" d="M180.444,194.627l-8.392-4.845c-0.421-0.243-0.368-0.669,0.118-0.949l6.193-3.576
			c0.486-0.28,1.222-0.312,1.644-0.067l8.392,4.845c0.421,0.243,0.368,0.668-0.118,0.948l-6.193,3.576
			C181.602,194.839,180.865,194.871,180.444,194.627z"/>
		<path fill="#B9DFF9" d="M180.064,185.222l36.483,21.064c0.453,0.261,0.453,0.685,0,0.946l-6.315,3.646
			c-0.452,0.261-1.187,0.261-1.639,0l-36.484-21.064L180.064,185.222z"/>
		<path fill="#B9DFF9" d="M250.244,230.333l5.845,3.374c0.345,0.199,0.302,0.548-0.097,0.778l-2.534,1.462
			c-0.398,0.23-1.002,0.256-1.347,0.057l-5.845-3.375c-0.346-0.199-0.302-0.547,0.097-0.777l2.533-1.463
			C249.295,230.158,249.898,230.133,250.244,230.333z"/>
		<path fill="#B9DFF9" d="M242.073,225.615l5.845,3.375c0.346,0.199,0.303,0.547-0.097,0.777l-2.533,1.463
			c-0.398,0.23-1.002,0.255-1.348,0.056l-5.844-3.374c-0.346-0.199-0.303-0.548,0.097-0.778l2.533-1.462
			C241.125,225.441,241.729,225.416,242.073,225.615z"/>
		<path fill="#B9DFF9" d="M233.971,220.938l5.845,3.374c0.346,0.199,0.302,0.548-0.097,0.778l-2.533,1.463
			c-0.399,0.229-1.002,0.255-1.348,0.056l-5.845-3.375c-0.345-0.199-0.302-0.547,0.097-0.777l2.533-1.463
			C233.022,220.763,233.625,220.738,233.971,220.938z"/>
		<path fill="#B9DFF9" d="M246.549,223.032l5.844,3.374c0.346,0.2,0.303,0.548-0.097,0.778l-2.533,1.463
			c-0.398,0.229-1.002,0.255-1.347,0.056l-5.845-3.375c-0.346-0.199-0.303-0.547,0.097-0.777l2.533-1.463
			C245.6,222.857,246.203,222.833,246.549,223.032z"/>
	</g>
	<g>
		<polygon fill="#FBD483" points="292.1,114.285 239.399,83.858 240.077,80.433 292.777,110.859 		"/>
		<polygon fill="#FBD483" points="273.225,120.066 236.438,98.827 237.115,95.401 273.902,116.641 		"/>
		<polygon fill="#FFFFFF" points="269.744,109.718 237.918,91.343 238.596,87.917 270.422,106.292 		"/>
		<polygon fill="#F8C88B" points="290.619,121.77 274.706,112.582 275.384,109.156 291.297,118.344 		"/>
	</g>
</g>
<polygon fill="#0A2D60" points="291.611,147.965 282.301,192.106 248.869,172.813 256.172,158.468 "/>
<path fill="#5793CE" d="M188.036,215.816L188.036,215.816c-9.299-5.368-9.299-18.791,0-24.159l46.743-26.987l47.521,27.437
	l-41.067,23.71C224.774,225.319,204.495,225.319,188.036,215.816z"/>
<polygon fill="#D4ECFF" points="230.907,79.315 214.467,69.824 215.167,66.284 231.608,75.776 "/>
<polygon fill="#FFFFFF" points="229.444,86.82 213.004,77.329 213.704,73.788 230.145,83.28 "/>
<g>
	<path fill="#5793CE" d="M87.454,167.26l0.017,0.001c-7.525-4.18-12.222-13.335-12.263-26.439
		c-0.082-25.944,18.097-57.661,40.523-70.703l16.185-9.411v-0.001l0,0l0,0l0.78,0.438l74.236,41.749l-18.808,12.224l-7.061,5.166
		l-9.721,10.155l-1.563,1.426l-10.346,15.672l-3.794,9.813l-2.813,7.802l-2.313,16.367l-0.159,1.413l0.835,6.901l2.387,8.544
		l3.367,5.789l4.898,5.814L87.454,167.26z"/>
	<path fill="#D4ECFF" d="M217.364,102.579l0.009,2.747l-49.264,28.604c0.835-1.914,2.412-3.501,4.024-5.093L217.364,102.579z"/>
	<polygon fill="#D4ECFF" points="291.603,145.218 217.364,102.579 172.419,129.557 166.793,136.106 158.343,150.952 
		153.035,165.792 151.306,177.392 151.089,188.974 158.34,205.54 167.768,211.049 177.463,211.552 189.091,206.727 281.007,152.654 
			"/>
	<path fill="#396CAA" d="M87.471,167.261c-6.296-3.497-10.6-10.488-11.866-20.351l75.72,43.399l2.253,8.067l3.367,5.789l4.898,5.814
		l-74.39-42.721L87.471,167.261z"/>
	<g>
		<path fill="#173D7A" d="M75.892,148.803c-0.432-2.47-0.675-5.126-0.684-7.981c-0.006-1.91,0.098-3.854,0.285-5.817l75.482,43.264
			l-0.46,3.251l-0.159,1.413l0.835,6.901l0.709,2.535L75.892,148.803z"/>
		<path fill="#173D7A" d="M291.611,147.965l-0.009-2.747l-101.345,58.894c-21.116,12.279-38.359,2.396-38.436-22.031
			c-0.077-24.429,17.041-54.294,38.156-66.574l16.963-9.865l-0.009-2.747l-16.963,9.864c-22.426,13.043-40.604,44.759-40.522,70.703
			c0.081,25.943,18.393,36.439,40.819,23.397L291.611,147.965z"/>
	</g>
</g>
<g>
	<polygon fill="#5793CE" points="251.161,153.232 205.53,126.625 202.668,128.261 248.299,154.869 	"/>
	<polygon fill="#5793CE" points="249.89,138.05 218.037,119.476 215.175,121.112 247.027,139.686 	"/>
	<polygon fill="#5793CE" points="239.34,139.119 211.783,123.05 208.921,124.687 236.478,140.755 	"/>
	<polygon fill="#5793CE" points="257.414,149.658 243.637,141.624 240.773,143.261 254.552,151.295 	"/>
</g>
<g>
	<polygon fill="#B5B5B5" points="38.901,187.695 25.138,179.75 38.9,171.804 52.664,179.75 	"/>
	<polygon fill="#E85E00" points="52.664,170.735 38.901,178.682 38.901,162.79 52.664,154.844 	"/>
	<polygon fill="#FBD483" points="38.901,162.79 25.138,154.844 38.9,146.898 52.664,154.844 	"/>
	<polygon fill="#ED852F" points="38.901,178.682 25.138,170.735 25.138,154.844 38.901,162.79 	"/>
</g>
<g>
	<polygon fill="#B5B5B5" points="317.535,289.218 302.205,280.367 317.534,271.517 332.864,280.367 	"/>
	<polygon fill="#173D7A" points="332.865,270.327 317.535,279.179 317.535,261.478 332.865,252.626 	"/>
	<polygon fill="#D4ECFF" points="317.535,261.478 302.205,252.626 317.534,243.775 332.864,252.627 	"/>
	<polygon fill="#5793CE" points="317.535,279.179 302.205,270.327 302.205,252.626 317.535,261.478 	"/>
</g>
<g>
	<polygon fill="#B5B5B5" points="134.175,295.952 118.845,287.102 134.174,278.251 149.504,287.102 	"/>
	<polygon fill="#173D7A" points="149.505,277.062 134.175,285.912 134.175,268.211 149.505,259.36 	"/>
	<polygon fill="#D4ECFF" points="134.175,268.211 118.845,259.36 134.174,250.51 149.504,259.36 	"/>
	<polygon fill="#5793CE" points="134.175,285.912 118.845,277.062 118.845,259.36 134.175,268.211 	"/>
</g>
<g>
	<g>
		<path fill="#5793CE" d="M204.971,169.206c-9.097,5.252-23.847,5.252-32.943,0c-9.098-5.253-9.098-13.769-0.001-19.021
			s23.847-5.252,32.944,0C214.067,155.438,214.068,163.954,204.971,169.206z"/>
		<path fill="#E85E00" d="M211.793,152.778v-4.282h-1.234c-1.108-1.909-2.955-3.707-5.588-5.227c-9.098-5.253-23.848-5.253-32.944,0
			c-2.633,1.52-4.479,3.317-5.588,5.227h-1.233v4.247h0.002c-0.016,3.454,2.256,6.91,6.82,9.546c9.097,5.252,23.847,5.252,32.943,0
			C209.52,159.663,211.794,156.221,211.793,152.778z"/>
		<path fill="#FF6600" d="M204.971,158.006c-9.097,5.252-23.847,5.252-32.943,0c-9.098-5.252-9.098-13.768-0.001-19.021
			c9.097-5.252,23.847-5.252,32.944,0.001C214.067,144.238,214.068,152.754,204.971,158.006z"/>
		<path fill="#FFFFFF" d="M204.971,158.006c-9.097,5.253-23.847,5.253-32.943,0c-4.36-2.517-6.607-5.784-6.788-9.082
			c-0.196,3.583,2.05,7.203,6.788,9.938c9.097,5.253,23.847,5.253,32.943,0c4.737-2.734,6.984-6.354,6.787-9.938
			C211.577,152.222,209.331,155.489,204.971,158.006z"/>
	</g>
	<g>
		<path fill="#FFFFFF" d="M177.271,152.948c-0.392-0.226-0.614-0.534-0.613-0.857l0.023-8.762c0.001-0.668,0.941-1.21,2.1-1.209
			c1.158,0.001,2.093,0.544,2.093,1.213l-0.02,7.267l21.088-2.583c1.134-0.139,2.246,0.279,2.486,0.934
			c0.241,0.653-0.483,1.297-1.615,1.435l-23.624,2.893c-0.619,0.076-1.265-0.013-1.757-0.243
			C177.376,153.006,177.322,152.979,177.271,152.948z"/>
	</g>
</g>
<g>
	<path fill="#FBD483" d="M290.465,127.632c-0.416,0.909-1.468,1.232-2.35,0.724c-0.881-0.509-1.258-1.658-0.842-2.566
		c0.417-0.908,1.469-1.232,2.35-0.724C290.505,125.574,290.882,126.724,290.465,127.632z"/>
	<path fill="#FFFFFF" d="M296.095,130.882c-0.417,0.908-1.469,1.232-2.35,0.724c-0.882-0.509-1.259-1.657-0.842-2.565
		c0.416-0.909,1.469-1.233,2.35-0.725C296.135,128.824,296.511,129.974,296.095,130.882z"/>
	<path fill="#FBD483" d="M301.724,134.132c-0.416,0.909-1.468,1.232-2.35,0.724c-0.881-0.509-1.258-1.657-0.842-2.565
		c0.417-0.909,1.469-1.233,2.351-0.725C301.764,132.074,302.141,133.224,301.724,134.132z"/>
	<path fill="#FBD483" d="M307.354,137.383c-0.417,0.908-1.469,1.232-2.35,0.724c-0.882-0.509-1.259-1.658-0.842-2.566
		c0.416-0.909,1.469-1.232,2.35-0.724S307.77,136.474,307.354,137.383z"/>
</g>
<path fill="#173D7A" d="M132.696,61.145l-0.78-0.438l0,0v0.001l-16.185,9.411c-5.313,3.09-10.381,7.236-15.031,12.096l27.715,16.002
	l34.639-19.999L132.696,61.145z"/>
<g>
	<g>
		<g>
			<path fill="#FF6600" d="M162.309,61.627l-5.025-2.901l18.529-10.698c0.876-0.506,0.876-1.327,0-1.833l-18.93-10.929
				c-0.875-0.506-2.299-0.506-3.175,0l-18.529,10.698l-5.026-2.902l18.53-10.698c3.646-2.104,9.579-2.104,13.226,0l18.931,10.93
				c3.646,2.105,3.646,5.53,0,7.636L162.309,61.627z"/>
		</g>
		<g>
			<path fill="#F8C687" d="M170.418,62.904c0-2.687-1.634-5.808-3.648-6.971L133.196,36.55c-0.902-0.521-1.727-0.558-2.363-0.202
				l-0.002-0.001L90.745,59.641l38.765,29.21l39.492-22.921c0.121-0.056,0.239-0.12,0.349-0.203l0,0l0,0
				C170.011,65.227,170.418,64.247,170.418,62.904z"/>
			<path fill="#ED852F" d="M129.51,88.851l39.492-22.921c0.121-0.056,0.239-0.12,0.349-0.203l0,0l0,0
				c0.66-0.5,1.067-1.479,1.067-2.822c0-1.282-0.375-2.662-0.983-3.882l-45.018,25.991L129.51,88.851z"/>
			<path fill="#FF6600" d="M126.984,88.747L93.412,69.363c-2.015-1.163-3.648-4.284-3.648-6.971l0,0
				c0-2.688,1.633-3.922,3.648-2.759l33.573,19.384c2.016,1.163,3.649,4.284,3.649,6.972l0,0
				C130.634,88.676,129,89.91,126.984,88.747z"/>
			<path fill="#FFFFFF" d="M127.389,78.833L93.816,59.45c-0.927-0.535-1.77-0.558-2.414-0.171c0.577-0.175,1.267-0.074,2.009,0.354
				l33.573,19.384c2.016,1.163,3.649,4.284,3.649,6.971v0.001c0,1.451-0.479,2.474-1.235,2.929c0.987-0.301,1.639-1.416,1.639-3.112
				v-0.001C131.037,83.118,129.404,79.997,127.389,78.833z"/>
		</g>
		<path fill="#FFFFFF" d="M121.956,82.21l-4.036-2.328c-0.401-0.232-0.728-0.854-0.728-1.39l0,0c0-0.536,0.326-0.781,0.728-0.55
			l4.036,2.328c0.401,0.232,0.728,0.854,0.728,1.39l0,0C122.684,82.195,122.357,82.441,121.956,82.21z"/>
	</g>
	<g>
		<path fill="#F8AB49" d="M126.509,54.65c1.218-0.72,1.206-1.867-0.026-2.562s-3.219-0.673-4.437,0.047s-1.206,1.866,0.026,2.561
			S125.291,55.372,126.509,54.65z"/>
		<path fill="#FFFFFF" d="M133.269,58.46c1.218-0.721,1.206-1.867-0.026-2.562s-3.219-0.674-4.437,0.046
			c-1.218,0.721-1.205,1.867,0.027,2.562S132.052,59.18,133.269,58.46z"/>
		<path fill="#FFFFFF" d="M140.029,62.269c1.218-0.72,1.205-1.866-0.027-2.561s-3.218-0.674-4.436,0.046s-1.206,1.868,0.026,2.562
			C136.825,63.01,138.812,62.989,140.029,62.269z"/>
	</g>
</g>
<g>
	<path fill="#B5B5B5" d="M59.944,265.763l-30.702-17.726c-1.884-1.088-1.648-2.988,0.528-4.244l29.645-17.115
		c2.176-1.257,5.467-1.393,7.352-0.305l30.702,17.726c1.884,1.088,1.648,2.988-0.528,4.244l-29.645,17.115
		C65.12,266.714,61.828,266.851,59.944,265.763z"/>
	<path fill="#396CAA" d="M98.73,235.528L98.73,235.528v-10.593l-23.753-0.014l-8.21-4.74c-1.884-1.088-5.176-0.951-7.352,0.305
		l-7.66,4.423l-23.775-0.014v10.895c-0.054,0.736,0.357,1.447,1.263,1.97l30.702,17.726c1.884,1.088,5.175,0.951,7.351-0.305
		l29.645-17.115C98.195,237.341,98.801,236.402,98.73,235.528z"/>
	<path fill="#396CAA" d="M63.356,219.453c-1.379,0.033-2.81,0.381-3.941,1.033l-7.66,4.423l-23.775-0.014v10.895
		c-0.054,0.736,0.357,1.447,1.263,1.97l30.702,17.726c0.905,0.522,2.136,0.761,3.412,0.729V219.453z"/>
	<path fill="#5793CE" d="M30.671,224.897l-2.691-0.002v10.895c-0.054,0.736,0.357,1.447,1.263,1.97l1.428,0.825V224.897z"/>
	<path fill="#5793CE" d="M60.417,255.717c1.625,0.697,3.976,0.658,5.876-0.066v-12.37h-5.876V255.717z"/>
	<path fill="#D4ECFF" d="M59.944,244.63l-30.702-17.726c-1.884-1.088-1.648-2.988,0.528-4.244l29.645-17.115
		c2.176-1.256,5.467-1.393,7.352-0.305l30.702,17.726c1.884,1.088,1.648,2.988-0.528,4.244l-29.645,17.115
		C65.12,245.582,61.828,245.718,59.944,244.63z"/>
	<path fill="#FFFFFF" d="M96.94,225.125L67.295,242.24c-2.176,1.257-5.467,1.394-7.351,0.306l-30.702-17.727
		c-0.42-0.242-0.729-0.526-0.94-0.834c-0.647,1.042-0.354,2.172,0.94,2.919l30.702,17.726c1.884,1.088,5.175,0.952,7.351-0.305
		L96.94,227.21c1.69-0.977,2.204-2.339,1.468-3.41C98.113,224.275,97.622,224.731,96.94,225.125z"/>
	<g>
		<path fill="#D4ECFF" d="M87.438,238.324c0,0.79-0.555,1.752-1.24,2.147c-0.685,0.396-1.24,0.075-1.24-0.716
			s0.555-1.752,1.24-2.147C86.883,237.213,87.438,237.533,87.438,238.324z"/>
		<path fill="#D4ECFF" d="M91.428,236.021c0,0.791-0.555,1.752-1.24,2.147c-0.685,0.396-1.24,0.075-1.24-0.716
			s0.555-1.752,1.24-2.147C90.873,234.909,91.428,235.229,91.428,236.021z"/>
		<path fill="#D4ECFF" d="M95.417,233.717c0,0.791-0.555,1.753-1.24,2.148c-0.685,0.395-1.24,0.074-1.24-0.717
			c0-0.79,0.555-1.752,1.24-2.147C94.862,232.605,95.417,232.926,95.417,233.717z"/>
	</g>
	<g>
		<path fill="#5793CE" d="M61.759,233.641l-14.367-8.295c-0.882-0.509-0.771-1.398,0.247-1.986l13.872-8.009
			c1.019-0.588,2.559-0.651,3.44-0.143l14.367,8.295c0.882,0.509,0.771,1.398-0.247,1.986L65.2,233.498
			C64.182,234.086,62.641,234.149,61.759,233.641z"/>
		<path fill="#D4ECFF" d="M63.135,226.695l-1.987-1.147c-0.122-0.07-0.107-0.193,0.034-0.274l1.919-1.108
			c0.141-0.081,0.354-0.09,0.476-0.02l1.988,1.147c0.122,0.07,0.106,0.193-0.034,0.274l-1.919,1.108
			C63.47,226.757,63.257,226.766,63.135,226.695z"/>
		<path fill="#396CAA" d="M47.393,225.346l0.041,0.023c0.067-0.048,0.129-0.097,0.207-0.142l13.872-8.009
			c1.019-0.588,2.559-0.652,3.44-0.143l14.326,8.271c0.813-0.582,0.855-1.374,0.041-1.844l-14.367-8.295
			c-0.882-0.509-2.422-0.445-3.44,0.143l-13.872,8.009C46.622,223.947,46.511,224.837,47.393,225.346z"/>
	</g>
</g>
</svg>
