<?xml version="1.0" encoding="utf-8"?>
<!-- Generator: Adobe Illustrator 16.0.0, SVG Export Plug-In . SVG Version: 6.00 Build 0)  -->
<!DOCTYPE svg PUBLIC "-//W3C//DTD SVG 1.1//EN" "http://www.w3.org/Graphics/SVG/1.1/DTD/svg11.dtd">
<svg version="1.1" id="Слой_1" xmlns="http://www.w3.org/2000/svg" xmlns:xlink="http://www.w3.org/1999/xlink" x="0px" y="0px"
	 width="393px" height="400px" viewBox="0 0 393 400" enable-background="new 0 0 393 400" xml:space="preserve">
<g>
	<g>
		<path opacity="0.5" fill="#C4D9E8" d="M355.704,261.656l-22.711-13.215c-1.917-1.106-1.677-3.039,0.536-4.317l21.647-12.612
			c2.213-1.277,5.562-1.417,7.478-0.311l22.712,13.215c1.917,1.106,1.676,3.039-0.537,4.317l-21.647,12.612
			C360.969,262.623,357.621,262.762,355.704,261.656z"/>
		<path fill="#173D7A" d="M386.65,233.648L386.65,233.648v-4.55l-24.162-0.014l0.166-0.005c-1.916-1.107-5.265-0.969-7.478,0.31
			l0.716-0.299l-24.184-0.014v4.856c-0.055,0.749,0.363,1.472,1.284,2.004l22.711,13.214c1.917,1.106,5.265,0.968,7.478-0.31
			l21.647-12.613C386.105,235.492,386.722,234.537,386.65,233.648z"/>
		<path fill="#396CAA" d="M359.186,228.338c-1.403,0.034-2.858,0.388-4.009,1.052l0.716-0.299l-24.184-0.014v4.856
			c-0.055,0.749,0.363,1.472,1.284,2.004l22.711,13.214c0.921,0.532,2.173,0.772,3.471,0.741L359.186,228.338z"/>
		<path fill="#B2D3EA" d="M334.445,229.079l-2.736-0.002v4.856c-0.055,0.749,0.363,1.472,1.284,2.004l1.452,0.839V229.079z"/>
		<path fill="#274F89" d="M356.186,249.387c1.653,0.709,4.044,0.669,5.978-0.068v-6.356h-5.978V249.387z"/>
		<path fill="#D4ECFF" d="M355.704,244.335l-22.711-13.214c-1.917-1.106-1.677-3.039,0.536-4.317l21.647-12.612
			c2.213-1.278,5.562-1.417,7.478-0.311l22.712,13.215c1.917,1.106,1.676,3.039-0.537,4.316l-21.647,12.613
			C360.969,245.303,357.621,245.441,355.704,244.335z"/>
	</g>
	<g>
		<path fill="#FFFFFF" d="M365.042,234.014l-14.968-8.641c-0.893-0.516-0.893-1.352,0-1.867c0.893-0.515,2.34-0.515,3.232,0
			l14.968,8.643c0.892,0.515,0.892,1.351,0,1.865C367.382,234.529,365.934,234.529,365.042,234.014z"/>
	</g>
</g>
<path opacity="0.5" fill="#C4D9E8" d="M128.759,170.271c-8.651,4.995-22.677,4.995-31.328,0c-8.651-4.995-8.651-13.093-0.001-18.087
	c8.651-4.995,22.678-4.995,31.328,0C137.409,157.179,137.409,165.277,128.759,170.271z"/>
<g>
	<path opacity="0.5" fill="#C4D9E8" d="M194.73,331.586L55.152,251c-3.948-2.279-3.453-6.262,1.106-8.894l95.042-54.854
		c4.559-2.632,11.456-2.918,15.404-0.639l139.578,80.586c3.948,2.279,3.453,6.261-1.105,8.894l-95.043,54.854
		C205.576,333.579,198.679,333.865,194.73,331.586z"/>
	<path fill="#173D7A" d="M342.08,119.413L199.763,37.246c-1.652-0.954-3.332-1.102-4.822-0.591l0.009-0.015l-0.259,0.098
		c-0.021,0.008-0.042,0.015-0.063,0.024l-5.144,1.968l4.616,2.26c-0.021,0.085-0.047,0.165-0.066,0.251L170.854,146.76
		c-1.16,5.281,1.163,11.446,5.189,13.77l138.894,80.19l-0.495,5.887l5.621-2.18c1.889-0.883,3.4-2.88,4.025-5.725l23.182-105.52
		C348.43,127.902,346.106,121.737,342.08,119.413z"/>
	<path fill="#396CAA" d="M342.08,119.413L199.763,37.246c-1.652-0.954-3.332-1.102-4.822-0.591l0.009-0.015l-0.259,0.098
		c-0.021,0.008-0.042,0.015-0.063,0.024l-5.144,1.968l4.616,2.26c-0.021,0.085-0.047,0.165-0.066,0.251l-15.277,69.543
		l69.634,54.251l98.185-39.952C345.632,122.639,344.064,120.559,342.08,119.413z"/>
	<path fill="#274F89" d="M336.714,135.633l10.834-4.613c0.198-4.195-1.538-8.53-4.39-10.848l-17.148,7.213L336.714,135.633z"/>
	<path fill="#D4ECFF" d="M309.497,246.048L167.18,163.881c-4.025-2.324-6.349-8.489-5.188-13.771l23.181-105.519
		c1.16-5.281,5.364-7.677,9.391-5.353l142.316,82.167c4.026,2.324,6.35,8.489,5.189,13.771l-23.181,105.52
		C317.728,245.976,313.523,248.372,309.497,246.048z"/>
	<path fill="#FFFFFF" d="M306.412,238.199L172.565,160.96c-3.684-2.127-5.81-7.768-4.748-12.601l21.213-96.559
		c1.062-4.833,4.908-7.025,8.593-4.898l133.847,77.238c3.684,2.127,5.81,7.769,4.748,12.601l-21.213,96.56
		C313.943,238.133,310.097,240.326,306.412,238.199z"/>
	<path fill="#FFFFFF" d="M306.412,238.199L172.565,160.96c-3.684-2.127-5.81-7.768-4.748-12.601l21.213-96.559
		c1.062-4.833,4.908-7.025,8.593-4.898l133.847,77.238c3.684,2.127,5.81,7.769,4.748,12.601l-21.213,96.56
		C313.943,238.133,310.097,240.326,306.412,238.199z"/>
	<path fill="#173D7A" d="M311.462,249.626l-19.453-2.568l-125.578-72.503c-4.026-2.324-11.059-2.033-15.707,0.651l-88.984,51.356
		l-11.763-1.554v6.675l0.011,0.001c-0.077,1.543,0.801,3.026,2.701,4.123l142.317,82.167c4.026,2.324,11.059,2.033,15.707-0.651
		l96.908-55.931c2.614-1.51,3.919-3.455,3.842-5.282l0,0V249.626z"/>
	<path fill="#396CAA" d="M217.107,203.813l-8.922-5.15h-98.09l-48.356,27.9l-11.763-1.554v6.675l0.011,0.001
		c-0.077,1.543,0.801,3.026,2.701,4.123l142.317,82.167c2.128,1.229,5.096,1.719,8.106,1.519L217.107,203.813z"/>
	<path fill="#5793CE" d="M55.196,225.698l-5.22-0.689v6.675l0.011,0.001c-0.077,1.543,0.801,3.026,2.701,4.123l2.508,1.448V225.698z
		"/>
	<path fill="#274F89" d="M196.438,318.641c3.815,1.447,9.272,1.132,13.346-0.829v-14.888h-13.346V318.641z"/>
	<path fill="#D4ECFF" d="M195.005,311.308L52.688,229.141c-4.026-2.324-3.521-6.384,1.128-9.068l96.908-55.931
		c4.648-2.684,11.681-2.976,15.707-0.65l142.316,82.166c4.026,2.325,3.521,6.385-1.127,9.069l-96.908,55.931
		C206.063,313.341,199.031,313.633,195.005,311.308z"/>
	<g>
		<path fill="#173D7A" d="M113.218,201.939l-6.439-3.718c-0.517-0.298-0.452-0.82,0.145-1.165l7.601-4.388
			c0.598-0.345,1.5-0.382,2.018-0.083l6.439,3.718c0.517,0.298,0.452,0.82-0.146,1.165l-7.601,4.388
			C114.638,202.2,113.734,202.237,113.218,201.939z"/>
		<path fill="#173D7A" d="M123.162,207.68l-6.439-3.717c-0.517-0.299-0.452-0.82,0.145-1.165l7.601-4.388
			c0.598-0.345,1.5-0.383,2.018-0.084l6.439,3.718c0.517,0.299,0.452,0.819-0.146,1.165l-7.601,4.388
			C124.582,207.941,123.679,207.979,123.162,207.68z"/>
		<path fill="#173D7A" d="M133.106,213.422l-6.439-3.718c-0.518-0.299-0.452-0.82,0.145-1.165l7.601-4.388
			c0.597-0.345,1.5-0.382,2.018-0.084l6.438,3.718c0.518,0.299,0.452,0.82-0.145,1.164l-7.601,4.389
			C134.526,213.683,133.623,213.72,133.106,213.422z"/>
		<path fill="#173D7A" d="M146.859,208.68l-6.439-3.717c-0.517-0.299-0.452-0.82,0.145-1.165l6.381-3.684
			c0.597-0.345,1.5-0.382,2.017-0.084l6.439,3.718c0.518,0.299,0.452,0.82-0.145,1.165l-6.38,3.684
			C148.279,208.941,147.376,208.979,146.859,208.68z"/>
		<path fill="#173D7A" d="M156.804,214.422l-6.439-3.718c-0.517-0.299-0.452-0.82,0.145-1.165l6.381-3.684
			c0.597-0.345,1.5-0.382,2.017-0.084l6.439,3.719c0.517,0.298,0.452,0.819-0.145,1.164l-6.381,3.684
			C158.224,214.683,157.32,214.72,156.804,214.422z"/>
		<path fill="#173D7A" d="M166.748,220.163l-6.439-3.718c-0.518-0.299-0.452-0.82,0.145-1.165l6.38-3.684
			c0.598-0.345,1.501-0.382,2.018-0.083l6.439,3.717c0.517,0.299,0.452,0.82-0.145,1.165l-6.381,3.684
			C168.168,220.424,167.265,220.461,166.748,220.163z"/>
		<path fill="#173D7A" d="M176.691,225.904l-6.438-3.718c-0.518-0.299-0.452-0.82,0.145-1.165l6.38-3.684
			c0.598-0.345,1.5-0.382,2.018-0.084l6.439,3.719c0.517,0.299,0.452,0.819-0.146,1.164l-6.38,3.684
			C178.112,226.165,177.209,226.203,176.691,225.904z"/>
		<path fill="#173D7A" d="M186.636,231.646l-6.438-3.718c-0.518-0.299-0.453-0.82,0.145-1.165l6.38-3.684
			c0.598-0.345,1.5-0.382,2.018-0.083l6.439,3.717c0.517,0.299,0.452,0.82-0.146,1.165l-6.38,3.684
			C188.057,231.906,187.153,231.943,186.636,231.646z"/>
		<path fill="#173D7A" d="M196.58,237.387l-6.439-3.718c-0.517-0.299-0.452-0.82,0.146-1.165l6.38-3.684
			c0.597-0.345,1.5-0.382,2.018-0.083l6.438,3.718c0.518,0.298,0.452,0.819-0.145,1.164l-6.38,3.684
			C198,237.647,197.098,237.686,196.58,237.387z"/>
		<path fill="#173D7A" d="M206.524,243.128l-6.439-3.718c-0.517-0.299-0.452-0.82,0.146-1.164l6.38-3.684
			c0.597-0.346,1.5-0.383,2.017-0.084l6.439,3.718c0.518,0.298,0.452,0.819-0.145,1.164l-6.38,3.684
			C207.944,243.389,207.041,243.426,206.524,243.128z"/>
		<path fill="#173D7A" d="M216.469,248.869l-6.439-3.718c-0.517-0.298-0.452-0.819,0.145-1.165l6.381-3.684
			c0.597-0.344,1.5-0.382,2.017-0.083l6.439,3.718c0.517,0.299,0.452,0.82-0.145,1.164l-6.381,3.684
			C217.889,249.13,216.985,249.168,216.469,248.869z"/>
		<path fill="#173D7A" d="M226.413,254.61l-6.439-3.718c-0.518-0.299-0.452-0.819,0.145-1.164l6.381-3.684
			c0.597-0.346,1.5-0.383,2.017-0.084l6.439,3.718c0.517,0.298,0.452,0.819-0.145,1.164l-6.381,3.685
			C227.833,254.871,226.93,254.909,226.413,254.61z"/>
		<path fill="#173D7A" d="M236.357,260.352l-6.439-3.718c-0.518-0.298-0.452-0.819,0.145-1.165l6.38-3.683
			c0.598-0.345,1.501-0.383,2.018-0.084l6.439,3.718c0.517,0.299,0.452,0.82-0.146,1.164l-6.38,3.684
			C237.777,260.613,236.874,260.65,236.357,260.352z"/>
		<path fill="#396CAA" d="M161.512,205.962l-6.439-3.718c-0.518-0.299-0.452-0.82,0.145-1.164l6.381-3.684
			c0.597-0.345,1.5-0.383,2.017-0.084l6.439,3.718c0.517,0.299,0.452,0.819-0.145,1.165l-6.381,3.684
			C162.932,206.223,162.028,206.261,161.512,205.962z"/>
		<path fill="#396CAA" d="M151.419,200.135l-6.439-3.718c-0.517-0.298-0.452-0.819,0.145-1.164l6.381-3.684
			c0.597-0.345,1.5-0.382,2.017-0.084l6.439,3.718c0.518,0.299,0.452,0.82-0.145,1.165l-6.381,3.684
			C152.839,200.396,151.936,200.434,151.419,200.135z"/>
		<path fill="#173D7A" d="M141.31,194.299l-13.868-8.007c-0.518-0.299-0.452-0.82,0.145-1.165l6.38-3.684
			c0.598-0.345,1.501-0.382,2.018-0.084l13.868,8.008c0.518,0.298,0.452,0.819-0.145,1.164l-6.38,3.684
			C142.729,194.56,141.827,194.597,141.31,194.299z"/>
		<path fill="#173D7A" d="M148.376,187.201l-11.255-6.498c-0.517-0.299-0.452-0.82,0.145-1.165l6.381-3.684
			c0.597-0.345,1.5-0.382,2.017-0.083l11.255,6.498c0.518,0.298,0.452,0.82-0.145,1.165l-6.38,3.684
			C149.796,187.462,148.893,187.499,148.376,187.201z"/>
		<path fill="#396CAA" d="M171.456,211.703l-6.439-3.718c-0.518-0.298-0.452-0.819,0.145-1.164l6.38-3.684
			c0.598-0.345,1.501-0.383,2.018-0.084l6.439,3.718c0.517,0.299,0.452,0.82-0.146,1.164l-6.38,3.684
			C172.876,211.965,171.973,212.002,171.456,211.703z"/>
		<path fill="#173D7A" d="M181.399,217.444l-6.438-3.718c-0.518-0.298-0.452-0.819,0.145-1.164l6.38-3.684
			c0.598-0.345,1.5-0.383,2.018-0.084l6.439,3.718c0.517,0.299,0.452,0.819-0.146,1.165l-6.38,3.684
			C182.82,217.705,181.917,217.743,181.399,217.444z"/>
		<path fill="#173D7A" d="M191.344,223.186l-6.439-3.718c-0.517-0.298-0.452-0.819,0.146-1.164l6.38-3.684
			c0.597-0.345,1.5-0.382,2.018-0.084l6.438,3.718c0.518,0.299,0.452,0.82-0.145,1.165l-6.38,3.684
			C192.764,223.447,191.861,223.484,191.344,223.186z"/>
		<path fill="#173D7A" d="M201.288,228.928l-6.439-3.719c-0.517-0.298-0.452-0.819,0.146-1.164l6.38-3.684
			c0.597-0.345,1.5-0.382,2.017-0.084l6.439,3.718c0.518,0.299,0.452,0.82-0.145,1.165l-6.38,3.684
			C202.708,229.188,201.805,229.226,201.288,228.928z"/>
		<path fill="#173D7A" d="M211.232,234.668l-6.439-3.717c-0.517-0.299-0.452-0.82,0.145-1.165l6.381-3.684
			c0.597-0.345,1.5-0.382,2.017-0.083l6.439,3.717c0.518,0.299,0.452,0.82-0.145,1.165l-6.381,3.684
			C212.652,234.93,211.749,234.967,211.232,234.668z"/>
		<path fill="#173D7A" d="M221.177,240.41l-6.439-3.718c-0.517-0.299-0.452-0.82,0.145-1.165l6.381-3.684
			c0.597-0.345,1.5-0.382,2.017-0.084l6.439,3.718c0.517,0.299,0.452,0.82-0.145,1.165l-6.381,3.684
			C222.597,240.671,221.693,240.708,221.177,240.41z"/>
		<path fill="#173D7A" d="M231.121,246.151l-6.439-3.718c-0.518-0.299-0.452-0.82,0.145-1.165l6.381-3.684
			c0.597-0.345,1.5-0.382,2.017-0.083l6.439,3.717c0.517,0.299,0.452,0.82-0.145,1.165l-6.381,3.684
			C232.541,246.412,231.638,246.449,231.121,246.151z"/>
		<path fill="#173D7A" d="M241.064,251.893l-6.438-3.718c-0.518-0.299-0.452-0.82,0.145-1.165l6.38-3.684
			c0.598-0.345,1.5-0.382,2.018-0.083l6.439,3.718c0.517,0.298,0.452,0.819-0.146,1.164l-6.38,3.684
			C242.485,252.153,241.582,252.191,241.064,251.893z"/>
		<path fill="#173D7A" d="M251.009,257.634l-6.439-3.718c-0.517-0.299-0.452-0.82,0.146-1.165l6.38-3.684
			c0.597-0.345,1.5-0.382,2.018-0.083l6.439,3.718c0.517,0.298,0.452,0.819-0.146,1.164l-6.38,3.684
			C252.429,257.895,251.526,257.932,251.009,257.634z"/>
		<path fill="#173D7A" d="M268.688,267.84l-14.05-8.111c-0.517-0.299-0.452-0.82,0.145-1.164l6.381-3.684
			c0.597-0.346,1.5-0.383,2.017-0.084l14.05,8.111c0.518,0.299,0.452,0.82-0.145,1.165l-6.38,3.684
			C270.107,268.102,269.205,268.139,268.688,267.84z"/>
		<path fill="#173D7A" d="M288.048,256.663l-11.858-6.847c-0.518-0.299-0.452-0.82,0.145-1.165l6.38-3.684
			c0.598-0.345,1.5-0.382,2.018-0.083l11.858,6.846c0.517,0.299,0.452,0.82-0.145,1.165l-6.381,3.684
			C289.468,256.924,288.564,256.961,288.048,256.663z"/>
		<path fill="#173D7A" d="M188.87,210.58l-6.439-3.718c-0.517-0.298-0.452-0.82,0.145-1.164l6.381-3.685
			c0.597-0.344,1.5-0.382,2.017-0.083l6.439,3.718c0.518,0.298,0.452,0.819-0.145,1.164l-6.381,3.684
			C190.29,210.841,189.387,210.879,188.87,210.58z"/>
		<path fill="#173D7A" d="M178.679,204.696l-6.439-3.718c-0.517-0.298-0.452-0.82,0.145-1.165l6.381-3.684
			c0.597-0.345,1.5-0.382,2.017-0.083l6.439,3.717c0.517,0.299,0.452,0.82-0.145,1.165l-6.381,3.684
			C180.099,204.957,179.195,204.994,178.679,204.696z"/>
		<path fill="#396CAA" d="M168.487,198.812l-6.439-3.717c-0.518-0.298-0.452-0.82,0.145-1.165l6.381-3.684
			c0.597-0.345,1.5-0.382,2.017-0.084l6.439,3.718c0.517,0.299,0.452,0.82-0.145,1.165l-6.381,3.684
			C169.907,199.073,169.004,199.11,168.487,198.812z"/>
		<path fill="#173D7A" d="M158.295,192.928l-6.438-3.718c-0.518-0.298-0.452-0.82,0.145-1.165l6.38-3.684
			c0.598-0.345,1.5-0.382,2.018-0.083l6.439,3.718c0.517,0.298,0.452,0.82-0.146,1.164l-6.38,3.684
			C159.716,193.189,158.813,193.227,158.295,192.928z"/>
		<path fill="#173D7A" d="M198.814,216.321l-6.439-3.718c-0.517-0.299-0.452-0.82,0.145-1.164l6.381-3.684
			c0.597-0.346,1.5-0.383,2.017-0.084l6.439,3.718c0.517,0.298,0.452,0.819-0.145,1.164l-6.381,3.684
			C200.234,216.582,199.331,216.619,198.814,216.321z"/>
		<path fill="#173D7A" d="M208.759,222.063l-6.439-3.718c-0.518-0.298-0.452-0.819,0.145-1.165l6.38-3.684
			c0.598-0.344,1.501-0.382,2.018-0.083l6.439,3.718c0.517,0.299,0.452,0.82-0.145,1.164l-6.381,3.684
			C210.179,222.324,209.275,222.361,208.759,222.063z"/>
		<path fill="#173D7A" d="M218.702,227.804l-6.438-3.718c-0.518-0.299-0.452-0.82,0.145-1.164l6.38-3.684
			c0.598-0.345,1.5-0.383,2.018-0.084l6.439,3.718c0.517,0.298,0.452,0.819-0.146,1.165l-6.38,3.684
			C220.123,228.064,219.22,228.103,218.702,227.804z"/>
		<path fill="#173D7A" d="M228.646,233.545l-6.439-3.718c-0.517-0.298-0.452-0.819,0.146-1.164l6.38-3.684
			c0.597-0.345,1.5-0.383,2.018-0.084l6.439,3.718c0.517,0.299,0.452,0.82-0.146,1.164l-6.38,3.684
			C230.066,233.807,229.164,233.844,228.646,233.545z"/>
		<path fill="#173D7A" d="M238.591,239.286l-6.439-3.718c-0.517-0.299-0.452-0.819,0.146-1.164l6.38-3.684
			c0.597-0.345,1.5-0.383,2.018-0.084l6.438,3.718c0.518,0.299,0.452,0.819-0.145,1.165l-6.38,3.684
			C240.011,239.547,239.108,239.585,238.591,239.286z"/>
		<path fill="#173D7A" d="M248.535,245.027l-6.439-3.718c-0.517-0.298-0.452-0.819,0.145-1.164l6.381-3.684
			c0.597-0.345,1.5-0.382,2.017-0.084l6.439,3.718c0.518,0.299,0.452,0.82-0.145,1.165l-6.38,3.684
			C249.955,245.289,249.052,245.326,248.535,245.027z"/>
		<path fill="#173D7A" d="M258.479,250.77l-6.439-3.719c-0.517-0.298-0.452-0.819,0.145-1.164l6.381-3.684
			c0.597-0.345,1.5-0.383,2.017-0.084l6.439,3.718c0.517,0.299,0.452,0.82-0.145,1.165l-6.381,3.684
			C259.899,251.03,258.996,251.067,258.479,250.77z"/>
		<path fill="#173D7A" d="M268.424,256.51l-6.439-3.717c-0.518-0.299-0.452-0.82,0.145-1.165l6.381-3.684
			c0.597-0.345,1.5-0.382,2.017-0.084l6.439,3.718c0.517,0.299,0.452,0.82-0.145,1.165l-6.381,3.684
			C269.844,256.771,268.94,256.809,268.424,256.51z"/>
		<path fill="#173D7A" d="M278.367,262.252l-6.438-3.718c-0.518-0.299-0.452-0.82,0.145-1.165l6.38-3.684
			c0.598-0.345,1.5-0.382,2.018-0.084l6.439,3.718c0.517,0.299,0.452,0.82-0.146,1.165l-6.38,3.684
			C279.788,262.513,278.885,262.55,278.367,262.252z"/>
		<path fill="#173D7A" d="M183.634,196.379l-6.439-3.718c-0.517-0.298-0.452-0.82,0.146-1.165l6.38-3.684
			c0.597-0.345,1.5-0.382,2.017-0.084l6.439,3.718c0.518,0.299,0.452,0.82-0.145,1.165l-6.381,3.684
			C185.054,196.641,184.15,196.678,183.634,196.379z"/>
		<path fill="#173D7A" d="M173.739,190.667l-6.439-3.718c-0.517-0.298-0.452-0.82,0.145-1.165l6.381-3.684
			c0.597-0.345,1.5-0.382,2.017-0.083l6.439,3.718c0.517,0.298,0.452,0.82-0.145,1.165l-6.381,3.684
			C175.159,190.928,174.256,190.965,173.739,190.667z"/>
		<path fill="#173D7A" d="M163.845,184.954l-6.439-3.718c-0.518-0.299-0.452-0.82,0.145-1.165l6.38-3.684
			c0.598-0.345,1.501-0.382,2.018-0.083l6.439,3.717c0.517,0.298,0.452,0.82-0.145,1.165l-6.381,3.684
			C165.265,185.215,164.361,185.252,163.845,184.954z"/>
		<path fill="#173D7A" d="M153.949,179.241l-6.438-3.718c-0.518-0.299-0.452-0.82,0.145-1.165l6.38-3.684
			c0.598-0.345,1.5-0.382,2.018-0.083l6.439,3.718c0.517,0.298,0.452,0.819-0.146,1.164l-6.38,3.684
			C155.37,179.502,154.467,179.54,153.949,179.241z"/>
		<path fill="#173D7A" d="M164.124,173.367l-6.438-3.718c-0.518-0.298-0.452-0.82,0.145-1.165l2.109-1.218
			c0.597-0.345,1.5-0.382,2.017-0.083l6.439,3.718c0.517,0.298,0.452,0.82-0.145,1.165l-2.109,1.218
			C165.545,173.628,164.642,173.665,164.124,173.367z"/>
		<path fill="#173D7A" d="M177.037,180.822l-6.439-3.717c-0.517-0.299-0.452-0.82,0.145-1.165l2.109-1.218
			c0.598-0.345,1.5-0.382,2.018-0.083l6.439,3.718c0.517,0.298,0.452,0.82-0.146,1.165l-2.109,1.218
			C178.457,181.083,177.554,181.12,177.037,180.822z"/>
		<path fill="#173D7A" d="M186.891,186.511l-6.439-3.718c-0.517-0.298-0.452-0.82,0.145-1.165l2.109-1.217
			c0.598-0.345,1.5-0.383,2.018-0.084l6.438,3.718c0.518,0.298,0.453,0.82-0.145,1.165l-2.109,1.218
			C188.311,186.771,187.407,186.81,186.891,186.511z"/>
		<path fill="#173D7A" d="M196.744,192.2l-6.439-3.718c-0.517-0.298-0.452-0.82,0.145-1.165l2.109-1.218
			c0.597-0.345,1.5-0.382,2.018-0.083l6.438,3.718c0.518,0.298,0.452,0.82-0.145,1.165l-2.109,1.218
			C198.164,192.461,197.261,192.498,196.744,192.2z"/>
		<path fill="#173D7A" d="M206.598,197.889l-6.439-3.718c-0.517-0.299-0.452-0.82,0.145-1.165l2.109-1.218
			c0.597-0.345,1.5-0.382,2.018-0.083l6.438,3.718c0.518,0.298,0.452,0.819-0.145,1.164l-2.109,1.218
			C208.018,198.149,207.114,198.187,206.598,197.889z"/>
		<path fill="#173D7A" d="M261.608,229.648l-6.439-3.717c-0.518-0.299-0.452-0.82,0.145-1.165l2.109-1.218
			c0.597-0.345,1.5-0.382,2.017-0.084l6.439,3.718c0.518,0.299,0.452,0.82-0.145,1.165l-2.109,1.218
			C263.028,229.91,262.125,229.947,261.608,229.648z"/>
		<path fill="#173D7A" d="M271.461,235.338l-6.438-3.718c-0.518-0.299-0.452-0.82,0.145-1.165l2.109-1.217
			c0.597-0.346,1.5-0.383,2.017-0.084l6.439,3.718c0.518,0.298,0.452,0.819-0.145,1.164l-2.109,1.218
			C272.882,235.599,271.979,235.637,271.461,235.338z"/>
		<path fill="#173D7A" d="M281.314,241.027l-6.438-3.719c-0.518-0.298-0.452-0.819,0.145-1.164l2.109-1.218
			c0.597-0.345,1.5-0.382,2.017-0.084l6.439,3.718c0.517,0.299,0.452,0.82-0.145,1.165l-2.109,1.218
			C282.735,241.288,281.832,241.325,281.314,241.027z"/>
		<path fill="#173D7A" d="M291.168,246.716l-6.438-3.718c-0.518-0.299-0.452-0.82,0.145-1.165l2.109-1.218
			c0.597-0.344,1.5-0.382,2.017-0.083l6.439,3.718c0.517,0.299,0.452,0.819-0.145,1.164l-2.109,1.218
			C292.589,246.977,291.686,247.014,291.168,246.716z"/>
		<path fill="#173D7A" d="M193.578,202.121l-6.439-3.718c-0.517-0.298-0.452-0.82,0.145-1.165l6.381-3.684
			c0.597-0.345,1.5-0.382,2.017-0.084l6.439,3.718c0.517,0.298,0.452,0.82-0.145,1.165l-6.381,3.684
			C194.998,202.382,194.095,202.419,193.578,202.121z"/>
		<path fill="#173D7A" d="M203.522,207.861l-6.439-3.717c-0.518-0.299-0.452-0.82,0.145-1.165l6.381-3.684
			c0.597-0.345,1.5-0.382,2.017-0.083l6.439,3.717c0.517,0.299,0.452,0.82-0.145,1.165l-6.381,3.684
			C204.942,208.123,204.039,208.16,203.522,207.861z"/>
		<path fill="#173D7A" d="M213.467,213.604l-6.439-3.718c-0.518-0.299-0.452-0.82,0.145-1.165l6.38-3.684
			c0.598-0.345,1.501-0.382,2.018-0.084l6.439,3.719c0.517,0.298,0.452,0.819-0.146,1.164l-6.38,3.684
			C214.887,213.864,213.983,213.901,213.467,213.604z"/>
		<path fill="#173D7A" d="M223.41,219.345l-6.438-3.718c-0.518-0.299-0.452-0.82,0.145-1.165l6.38-3.684
			c0.598-0.345,1.5-0.382,2.018-0.083l6.439,3.717c0.517,0.299,0.452,0.82-0.146,1.165l-6.38,3.684
			C224.831,219.605,223.928,219.643,223.41,219.345z"/>
		<path fill="#173D7A" d="M233.354,225.086l-6.439-3.718c-0.517-0.299-0.452-0.82,0.146-1.165l6.38-3.684
			c0.597-0.345,1.5-0.382,2.018-0.084l6.438,3.719c0.518,0.298,0.452,0.819-0.145,1.164l-6.38,3.684
			C234.774,225.347,233.872,225.385,233.354,225.086z"/>
		<path fill="#173D7A" d="M243.299,230.827l-6.439-3.718c-0.517-0.299-0.452-0.82,0.146-1.165l6.38-3.684
			c0.597-0.345,1.5-0.382,2.017-0.083l6.439,3.717c0.518,0.299,0.452,0.82-0.145,1.165l-6.38,3.684
			C244.719,231.088,243.815,231.125,243.299,230.827z"/>
		<path fill="#173D7A" d="M253.243,236.568l-6.439-3.718c-0.517-0.299-0.452-0.82,0.145-1.165l6.381-3.684
			c0.597-0.344,1.5-0.382,2.017-0.083l6.439,3.718c0.518,0.298,0.452,0.819-0.145,1.164l-6.381,3.684
			C254.663,236.829,253.76,236.867,253.243,236.568z"/>
		<path fill="#173D7A" d="M263.188,242.31l-6.439-3.718c-0.517-0.299-0.452-0.82,0.145-1.164l6.381-3.685
			c0.597-0.345,1.5-0.382,2.017-0.083l6.439,3.718c0.517,0.298,0.452,0.819-0.145,1.164l-6.381,3.684
			C264.607,242.57,263.704,242.607,263.188,242.31z"/>
		<path fill="#173D7A" d="M273.132,248.051l-6.439-3.718c-0.518-0.299-0.452-0.819,0.145-1.165l6.38-3.684
			c0.598-0.344,1.501-0.382,2.018-0.083l6.439,3.718c0.517,0.299,0.452,0.819-0.146,1.164l-6.38,3.684
			C274.552,248.312,273.648,248.35,273.132,248.051z"/>
		<path fill="#173D7A" d="M136.726,202.829l-18.965-10.949c-0.517-0.298-0.452-0.82,0.146-1.165l6.38-3.684
			c0.597-0.345,1.5-0.382,2.018-0.084l18.964,10.949c0.518,0.299,0.452,0.82-0.145,1.165l-6.381,3.684
			C138.146,203.09,137.242,203.128,136.726,202.829z"/>
		<path fill="#173D7A" d="M258.893,273.362l-18.965-10.949c-0.517-0.298-0.452-0.819,0.145-1.164l6.381-3.684
			c0.597-0.345,1.5-0.382,2.017-0.084l18.965,10.949c0.517,0.298,0.452,0.819-0.145,1.165l-6.381,3.684
			C260.313,273.623,259.409,273.661,258.893,273.362z"/>
		<path fill="#173D7A" d="M219.124,263.084l-6.439-3.718c-0.517-0.298-0.452-0.819,0.145-1.164l7.601-4.389
			c0.598-0.345,1.5-0.382,2.018-0.083l6.439,3.718c0.517,0.298,0.452,0.819-0.146,1.164L221.141,263
			C220.544,263.346,219.641,263.383,219.124,263.084z"/>
		<path fill="#173D7A" d="M146.909,221.391l-10.298-5.945c-0.518-0.299-0.452-0.82,0.145-1.165l7.601-4.388
			c0.597-0.345,1.5-0.383,2.017-0.084l10.299,5.945c0.517,0.299,0.452,0.82-0.146,1.165l-7.6,4.388
			C148.329,221.652,147.426,221.689,146.909,221.391z"/>
		<path fill="#173D7A" d="M209.543,257.553l-10.299-5.946c-0.517-0.298-0.452-0.819,0.146-1.164l7.601-4.389
			c0.597-0.345,1.5-0.382,2.017-0.083l10.298,5.945c0.518,0.299,0.452,0.82-0.145,1.164l-7.601,4.389
			C210.963,257.813,210.06,257.851,209.543,257.553z"/>
		<path fill="#173D7A" d="M161.257,229.674l-10.299-5.945c-0.517-0.299-0.452-0.82,0.146-1.164l7.601-4.389
			c0.597-0.345,1.5-0.382,2.017-0.084l10.298,5.946c0.518,0.298,0.452,0.819-0.145,1.164l-7.601,4.389
			C162.677,229.936,161.773,229.973,161.257,229.674z"/>
		<path fill="#173D7A" d="M160.791,218.133l44.773,25.85c0.556,0.32,0.556,0.841,0,1.162l-7.751,4.475
			c-0.556,0.32-1.456,0.32-2.012,0l-44.773-25.851L160.791,218.133z"/>
		<path fill="#173D7A" d="M246.916,273.494l7.173,4.141c0.424,0.244,0.371,0.672-0.118,0.955l-3.109,1.795
			c-0.489,0.282-1.229,0.313-1.653,0.068l-7.173-4.142c-0.424-0.244-0.371-0.672,0.119-0.954l3.108-1.795
			C245.752,273.279,246.492,273.249,246.916,273.494z"/>
		<path fill="#173D7A" d="M236.89,267.705l7.173,4.141c0.424,0.245,0.37,0.672-0.119,0.955l-3.108,1.795
			c-0.49,0.282-1.229,0.313-1.653,0.068l-7.173-4.141c-0.424-0.245-0.371-0.673,0.118-0.955l3.109-1.795
			C235.726,267.491,236.466,267.46,236.89,267.705z"/>
		<path fill="#173D7A" d="M226.945,261.963l7.173,4.142c0.424,0.245,0.371,0.672-0.118,0.955l-3.109,1.795
			c-0.489,0.282-1.229,0.313-1.653,0.068l-7.173-4.142c-0.424-0.244-0.371-0.672,0.118-0.954l3.109-1.795
			C225.781,261.75,226.521,261.719,226.945,261.963z"/>
		<path fill="#173D7A" d="M242.381,264.534l7.173,4.142c0.424,0.244,0.371,0.672-0.118,0.954l-3.109,1.795
			c-0.489,0.282-1.229,0.313-1.653,0.069l-7.173-4.142c-0.424-0.245-0.371-0.672,0.118-0.954l3.109-1.796
			C241.217,264.32,241.957,264.289,242.381,264.534z"/>
	</g>
</g>
<path fill="#D4ECFF" d="M323.755,113.828l-46.114-26.624l-41.612-18.139l-7.949,33.264c0,0-11.314,40.924,27.948,88.976
	c49.925,3.44,58.542-39.041,58.542-39.041L323.755,113.828z"/>
<g>
	<polygon fill="#173D7A" points="311.901,106.987 323.753,113.829 329.153,111.952 312.95,102.598 236.026,69.066 234.633,74.895 	
		"/>
	<polygon fill="#396CAA" points="323.753,113.829 311.901,106.987 310.67,112.141 322.521,118.979 	"/>
</g>
<g>
	<g opacity="0.5">
		<path fill="#D4ECFF" d="M225.203,88.664l-8.645-4.991c-0.802-0.463-1.274-1.609-1.055-2.56l0,0c0.22-0.95,1.048-1.346,1.85-0.883
			l8.645,4.991c0.802,0.463,1.274,1.609,1.055,2.56l0,0C226.833,88.731,226.005,89.126,225.203,88.664z"/>
		<path fill="#D4ECFF" d="M245.795,100.552l-12.747-7.359c-0.802-0.463-1.274-1.609-1.055-2.56l0,0
			c0.22-0.951,1.048-1.346,1.85-0.883l12.747,7.359c0.802,0.463,1.274,1.609,1.055,2.56l0,0
			C247.425,100.62,246.597,101.016,245.795,100.552z"/>
		<path fill="#D4ECFF" d="M210.135,129.015l-8.645-4.991c-0.803-0.463-1.274-1.609-1.056-2.56l0,0
			c0.22-0.951,1.048-1.346,1.85-0.883l8.645,4.991c0.803,0.463,1.274,1.609,1.056,2.56l0,0
			C211.765,129.083,210.937,129.478,210.135,129.015z"/>
		<path fill="#D4ECFF" d="M228.49,139.613l-12.747-7.359c-0.802-0.463-1.274-1.609-1.055-2.56l0,0c0.22-0.95,1.048-1.346,1.85-0.883
			l12.747,7.359c0.802,0.463,1.274,1.609,1.055,2.56l0,0C230.12,139.681,229.292,140.076,228.49,139.613z"/>
		<path fill="#D4ECFF" d="M199.702,82.115l-5.4-3.118c-0.802-0.463-1.274-1.608-1.055-2.56l0,0c0.22-0.951,1.048-1.346,1.85-0.883
			l5.4,3.118c0.802,0.463,1.274,1.609,1.055,2.56l0,0C201.332,82.183,200.504,82.578,199.702,82.115z"/>
		<path fill="#D4ECFF" d="M216.346,99.9l-16.5-9.526c-0.802-0.463-1.274-1.609-1.055-2.56l0,0c0.22-0.951,1.048-1.346,1.85-0.883
			l16.5,9.526c0.802,0.463,1.274,1.609,1.055,2.56l0,0C217.976,99.968,217.147,100.363,216.346,99.9z"/>
		<path fill="#D4ECFF" d="M201.916,107.919l-5.4-3.118c-0.803-0.463-1.274-1.609-1.055-2.56l0,0c0.219-0.951,1.047-1.346,1.85-0.883
			l5.4,3.118c0.802,0.463,1.273,1.609,1.055,2.56l0,0C203.546,107.987,202.718,108.382,201.916,107.919z"/>
		<path fill="#D4ECFF" d="M231.269,157.567l-14.424-8.328c-0.802-0.463-1.274-1.609-1.055-2.56l0,0
			c0.22-0.95,1.048-1.346,1.85-0.883l14.424,8.328c0.802,0.463,1.274,1.609,1.055,2.56l0,0
			C232.898,157.635,232.07,158.03,231.269,157.567z"/>
		<path fill="#D4ECFF" d="M196.651,121.23l-3.466-2.001c-0.803-0.463-1.274-1.609-1.056-2.56l0,0c0.22-0.95,1.048-1.346,1.85-0.883
			l3.467,2.001c0.802,0.463,1.274,1.609,1.055,2.561l0,0C198.281,121.298,197.453,121.693,196.651,121.23z"/>
		<path fill="#D4ECFF" d="M194.159,136.143l-4.305-2.486c-0.802-0.463-1.274-1.609-1.055-2.56l0,0c0.22-0.95,1.048-1.346,1.85-0.883
			l4.305,2.485c0.802,0.463,1.274,1.609,1.055,2.56l0,0C195.79,136.21,194.962,136.605,194.159,136.143z"/>
		<path fill="#D4ECFF" d="M210.906,145.811l-11.35-6.552c-0.802-0.463-1.274-1.609-1.055-2.561l0,0
			c0.22-0.95,1.048-1.346,1.85-0.883l11.35,6.553c0.802,0.463,1.274,1.609,1.055,2.56l0,0
			C212.536,145.879,211.708,146.274,210.906,145.811z"/>
		<path fill="#D4ECFF" d="M196.35,145.582l-8.16-4.711c-0.802-0.463-1.274-1.609-1.055-2.56l0,0c0.22-0.951,1.048-1.346,1.85-0.883
			l8.16,4.711c0.802,0.463,1.274,1.609,1.055,2.561l0,0C197.979,145.649,197.151,146.045,196.35,145.582z"/>
		<path fill="#D4ECFF" d="M243.645,164.748l-5.24-3.025c-0.803-0.463-1.274-1.609-1.055-2.561l0,0
			c0.219-0.95,1.047-1.346,1.85-0.883l5.24,3.026c0.802,0.463,1.274,1.609,1.055,2.56l0,0
			C245.274,164.816,244.446,165.211,243.645,164.748z"/>
		<path fill="#D4ECFF" d="M222.004,119.518l-14.424-8.328c-0.802-0.463-1.274-1.609-1.055-2.56l0,0
			c0.219-0.951,1.047-1.347,1.85-0.883l14.424,8.328c0.802,0.463,1.273,1.609,1.055,2.56l0,0
			C223.634,119.585,222.806,119.98,222.004,119.518z"/>
	</g>
	<path fill="#D4ECFF" d="M223.319,112.102l-25.139-14.514c-0.802-0.463-1.274-1.609-1.055-2.561l0,0
		c0.22-0.95,1.048-1.346,1.85-0.883l25.139,14.514c0.802,0.463,1.274,1.609,1.055,2.56l0,0
		C224.949,112.169,224.121,112.564,223.319,112.102z"/>
	<path fill="#D4ECFF" d="M209.273,120.343l-14.423-8.328c-0.803-0.463-1.274-1.609-1.055-2.56l0,0
		c0.219-0.95,1.047-1.346,1.849-0.883l14.424,8.328c0.803,0.463,1.274,1.609,1.055,2.56l0,0
		C210.904,120.411,210.076,120.806,209.273,120.343z"/>
	<path fill="#D4ECFF" d="M232.943,125.833l-5.24-3.026c-0.803-0.463-1.274-1.609-1.055-2.56l0,0c0.219-0.951,1.047-1.346,1.85-0.883
		l5.24,3.025c0.802,0.463,1.274,1.609,1.055,2.56l0,0C234.573,125.901,233.745,126.297,232.943,125.833z"/>
	<path fill="#D4ECFF" d="M284.674,122.999l-31.034-17.917c-0.802-0.463-1.274-1.609-1.055-2.56l0,0
		c0.22-0.951,1.048-1.346,1.85-0.883l31.034,17.918c0.802,0.463,1.273,1.609,1.055,2.56l0,0
		C286.304,123.067,285.476,123.462,284.674,122.999z"/>
	<path fill="#D4ECFF" d="M208.858,136.453l-17.339-10.01c-0.802-0.463-1.274-1.609-1.055-2.56l0,0
		c0.22-0.951,1.048-1.346,1.85-0.883l17.339,10.01c0.802,0.463,1.273,1.609,1.055,2.56l0,0
		C210.488,136.521,209.66,136.917,208.858,136.453z"/>
	<path fill="#D4ECFF" d="M208.714,79.143l-12.747-7.359c-0.802-0.463-1.274-1.609-1.055-2.56l0,0c0.22-0.951,1.048-1.346,1.85-0.883
		l12.747,7.359c0.802,0.463,1.274,1.609,1.055,2.56l0,0C210.344,79.211,209.516,79.606,208.714,79.143z"/>
	<path fill="#D4ECFF" d="M194.078,152.446l-14.763-8.524c-0.802-0.463-1.274-1.609-1.055-2.56l0,0
		c0.219-0.951,1.047-1.346,1.85-0.883l14.763,8.523c0.802,0.463,1.274,1.609,1.055,2.56l0,0
		C195.708,152.514,194.88,152.909,194.078,152.446z"/>
</g>
<g>
	<path fill="#E85E00" d="M294.642,62.168c-12.051-8.653-24.565-15.878-37.329-21.552l-25.285-11.241l-8.103,3.156
		c0,0,3.557,1.901,6.515,3.487l-12.005,50.234c0,0-11.314,40.924,27.948,88.977c7.535,0.519,14.123-0.013,19.889-1.282
		c-0.119,0.472-0.199,0.795-0.199,0.795l7.291-2.854c0.678-0.249,1.341-0.509,1.991-0.779l0.154-0.06c0,0-0.007,0-0.01-0.001
		c24.425-10.232,29.426-34.859,29.426-34.859l13.593-56.878L294.642,62.168z"/>
	<path fill="#E85E00" d="M257.313,40.616l-25.285-11.241l-8.103,3.156c0,0,3.557,1.901,6.515,3.487l-4.356,18.228l45.074,29.308
		l39.259-1.088l8.102-3.156l-23.876-17.142C282.591,53.516,270.076,46.291,257.313,40.616z"/>
	<path fill="#ED852F" d="M269.231,54.065l8.151-3.113c-6.6-3.865-13.298-7.325-20.07-10.336l-25.285-11.241l-8.103,3.156
		c0,0,3.557,1.901,6.515,3.487l-0.258,1.077C245.953,44.006,269.231,54.065,269.231,54.065z"/>
	<path fill="#FF6600" d="M270.957,47.333l-15.178,5.687l12.713,7.34l15.066-5.645C279.399,52.088,275.198,49.62,270.957,47.333z"/>
	<path fill="#F8AB49" d="M296.823,139.344l13.593-56.878L286.54,65.324c-12.052-8.653-24.565-15.878-37.329-21.552l-25.286-11.241
		l-13.592,56.878c0,0-11.314,40.924,27.948,88.976C288.205,181.825,296.823,139.344,296.823,139.344z"/>
	<path fill="#FF6600" d="M241.447,172.202c-17.739-22.523-23.663-43.028-25.483-56.432c-2.035-14.98,0.461-24.604,0.479-24.672
		l11.876-49.676l18.316,8.143c12.347,5.489,24.529,12.523,36.208,20.909l20.418,14.66l-12.604,52.738l-0.047,0.213
		c-0.019,0.091-2.041,9.314-9.229,18.04C272.101,167.389,258.669,172.793,241.447,172.202z"/>
</g>
<g>
	<path fill="#FFFFFF" d="M256.643,110.519c-0.397,1.22,0.137,2.704,1.193,3.314s2.236,0.115,2.634-1.104
		c0.398-1.221-0.136-2.705-1.192-3.315C258.22,108.803,257.041,109.298,256.643,110.519z"/>
	<path fill="#FFFFFF" d="M250.485,106.964c-0.397,1.22,0.137,2.704,1.193,3.314s2.236,0.115,2.634-1.105
		c0.398-1.22-0.136-2.705-1.192-3.314C252.063,105.249,250.884,105.743,250.485,106.964z"/>
	<path fill="#FBD483" d="M244.328,103.409c-0.397,1.22,0.137,2.704,1.193,3.314c1.057,0.61,2.236,0.115,2.635-1.105
		c0.397-1.22-0.137-2.704-1.193-3.314S244.727,102.188,244.328,103.409z"/>
</g>
<g>
	<path fill="#D4ECFF" d="M305.045,209.828c-0.398,1.221,0.136,2.705,1.192,3.314c1.058,0.611,2.236,0.116,2.635-1.104
		c0.397-1.22-0.137-2.704-1.193-3.314S305.442,208.608,305.045,209.828z"/>
	<path fill="#D4ECFF" d="M298.888,206.273c-0.398,1.221,0.136,2.705,1.192,3.314c1.058,0.61,2.236,0.116,2.635-1.104
		c0.397-1.221-0.137-2.704-1.193-3.314S299.285,205.053,298.888,206.273z"/>
	<path fill="#D4ECFF" d="M292.73,202.719c-0.398,1.221,0.136,2.705,1.192,3.314c1.058,0.61,2.237,0.115,2.635-1.104
		c0.398-1.221-0.137-2.704-1.193-3.314S293.128,201.498,292.73,202.719z"/>
</g>
<g>
	<path opacity="0.5" fill="#C4D9E8" d="M48.989,332.545c-6.616,3.819-17.343,3.819-23.959-0.001c-6.616-3.819-6.616-10.013,0-13.833
		c6.616-3.819,17.343-3.819,23.959,0.001C55.604,322.531,55.604,328.725,48.989,332.545z"/>
	<g>
		<path fill="#F2B42A" d="M27.293,205.395c0,0,0.442,9.11,1.136,15.232c0.693,6.123,15.438-4.702,15.438-4.702v-6.971
			L27.293,205.395z"/>
		<g>
			<path fill="#173D7A" d="M35.147,318.744c0.222,0.553,4.042,5.204,7.863,6.367c1.661,0.506,2.778,0.571,3.51,0.484
				c0.734-0.087,1.188-0.845,0.94-1.541c-0.657-1.851-2.542-5.706-7.33-8.08C33.652,312.764,35.147,318.744,35.147,318.744z"/>
			<path fill="#173D7A" d="M33.874,320.53c0,0,1.439,3.378,1.882,6.202c0.271,1.722-0.675,3.959-1.453,5.443
				c-0.483,0.92-1.708,1.127-2.478,0.428c-1.249-1.133-2.838-3.101-3.101-5.927c-0.443-4.763,0-5.593,0-5.593L33.874,320.53z"/>
			<path fill="#FDD762" d="M24.67,262.977c0,0-0.499,6.006,0,12.65s2.282,37.718,2.614,45.193c0,0-0.166,2.263,4.215,1.765
				s4.028-3.011,4.028-3.011s6.153-0.083,6.347-3.71s6.302-43.309,6.302-57.575L24.67,262.977z"/>
			<g>
				<path fill="#FFC2B0" d="M50.452,231.918l3.015,4.669l10.362,12.517c0,0-0.356,1.161-1.646,1.465
					c-1.008,0.238-9.723-8.077-13.487-11.726c-1-0.97-1.166-2.513-0.397-3.673L50.452,231.918z"/>
				<path fill="#ED852F" d="M44.571,212.754c0,0,4.789-0.125,6.456,6.796s2.971,15.587,1.521,16.307
					c-4.352,2.161-7.106-0.368-7.106-0.368L44.571,212.754z"/>
				<path fill="#F8AB49" d="M46.004,213.047c-0.817-0.341-1.733-0.386-2.584-0.142c-4.08,1.172-19.419,5.673-21.948,7.835
					c-2.921,2.496,4.38,16.525,4.275,21.125c-0.105,4.6-0.624,10.022-1.03,15.023c-0.406,5-0.957,7.741,3.134,9.867
					c4.09,2.126,11.073,2.225,16.3-1.759c5.228-3.983,4.279-6.708,4.062-9.6S46.215,240,46.369,236.449c0,0,1.842-1.356,3.206-3.684
					c1.364-2.326-1.045-6.604-2.046-9.385c-1-2.78,0.564-5.96,0.254-8.229C47.625,213.984,46.878,213.412,46.004,213.047z"/>
				
					<ellipse transform="matrix(0.9919 -0.1271 0.1271 0.9919 -27.487 6.2621)" fill="#FFFFFF" cx="35.338" cy="218.568" rx="5.81" ry="4.613"/>
				
					<ellipse transform="matrix(0.9919 -0.127 0.127 0.9919 -27.4691 6.2568)" fill="#FFC2B0" cx="35.337" cy="218.568" rx="4.153" ry="3.296"/>
				<path fill="#FFC2B0" d="M37.196,212.111c0,0-2.769-2.277-3.313-1.124s-0.992,6.104-0.992,6.104l5.499,1.478l-0.834-5.016
					C37.555,213.553,38.656,212.62,37.196,212.111z"/>
				<circle fill="#FFC2B0" cx="37.594" cy="206.203" r="8.211"/>
				<path fill="#EA9C92" d="M33.5,212.422c-0.049,0.259-0.096,0.536-0.14,0.819c0.552,2.856,4.827,4.107,4.827,4.107l-0.631-3.796
					c0,0,0.518-0.439,0.372-0.879C36.237,212.141,34.108,211.668,33.5,212.422z"/>
				<circle fill="#FFC2B0" cx="37.594" cy="206.203" r="8.211"/>
				<polygon fill="#FFC2B0" points="17.364,240.959 18.283,262.931 21.495,263.262 23.586,243.482 				"/>
				<path fill="#ED852F" d="M27.92,239.122c-1.063-4.692-3.163-15.058-3.163-15.058l-0.897,10.311
					c1.036,3.057,1.925,5.863,1.888,7.49c-0.062,2.699-0.267,5.684-0.507,8.699v0.01C25.24,250.574,28.983,243.814,27.92,239.122z"
					/>
				<path fill="#ED852F" d="M22.086,220.289c0,0-2.569,0.982-4.022,8.871c-1.454,7.89-2.541,15.793,0.051,16.812
					c2.591,1.019,4.757,1.784,5.519-0.326s1.234-12.278,1.33-15.935C25.059,226.054,25.198,221.012,22.086,220.289z"/>
				<path fill="#FFC2B0" d="M63.061,248.188c0,0,1.391,0.511,2.396,1.606c0.825,0.898,1.277,1.66,1.637,2.198
					c0.8,1.193,1.475,3.773,0.987,4.095s-3.278-4.319-3.728-3.24c-0.45,1.08,0.004,2.077-0.573,2.094
					c-0.577,0.016-2.582-4.665-4.159-6.116S63.061,248.188,63.061,248.188z"/>
			</g>
			<path fill="#D8892B" d="M35.528,319.574c0,0,0.762-0.011,1.758-0.182l0,0l1.205-48.303L35.528,319.574z"/>
		</g>
		<path fill="#FFC2B0" d="M18.309,262.746c0,0-0.849,5.129-0.722,6.771c0.128,1.643,1.007,4.353,1.674,4.295
			s0.022-6.605,1.194-5.953c1.172,0.652,1.295,1.771,1.826,1.376c0.531-0.396-0.926-5.992-0.538-8.419
			C22.132,258.389,18.309,262.746,18.309,262.746z"/>
		<path fill="#EA9C92" d="M40.747,206.92c4.119,1.463,4.921,0.57,4.96,0.522c0.038-0.248,0.068-0.499,0.083-0.755
			c0.054-0.91-0.049-1.791-0.274-2.624l-10.686-1.442C34.831,202.621,36.518,205.418,40.747,206.92z"/>
		<path fill="#F2B42A" d="M46.086,198.507c-0.971-0.832-4.474-4.946-10.749-3.975c-3.921,0.607-7.228,3.282-7.96,9.385
			c-0.494,4.112,1.015,8.162,3.795,11.156c0.151-0.07,0.307-0.134,0.446-0.226c1.572-1.034,1.741-1.604,1.741-1.608l0.347-3.114
			c-0.011-0.441-0.342-0.836-0.783-0.863c-0.341-0.021-0.756-0.186-1.15-0.701c-0.901-1.179-0.485-3.016,1.317-3.085
			c0.942-0.036,1.306-0.546,1.44-1.024c0.116-0.416,0.555-0.647,0.961-0.5c2.051,0.742,7.104,2.342,10.356,1.42
			C50.009,204.193,47.057,199.339,46.086,198.507z"/>
		<path fill="#FFFFFF" d="M41.407,210.629l2.512-0.69c0,0-1.199,1.886-2.95,2.367c-1.75,0.481-2.023-1.001-2.023-1.001
			L41.407,210.629z"/>
	</g>
</g>
<g>
	<path opacity="0.5" fill="#C4D9E8" d="M88.946,365.136l-24.939-14.398c-1.531-0.884-1.339-2.428,0.429-3.448l24.081-13.903
		c1.768-1.021,4.441-1.131,5.972-0.247l24.939,14.398c1.53,0.884,1.338,2.428-0.429,3.448l-24.081,13.903
		C93.15,365.909,90.477,366.02,88.946,365.136z"/>
	<g>
		<path fill="#E85E00" d="M127.7,336.57L127.7,336.57v-10.775l-24.162-0.014l-8.352-4.822c-1.917-1.106-5.265-0.968-7.478,0.311
			l-7.792,4.498l-24.184-0.013v11.082c-0.054,0.749,0.363,1.472,1.284,2.003l31.23,18.031c1.917,1.106,5.265,0.967,7.478-0.311
			l30.155-17.41C127.156,338.414,127.772,337.459,127.7,336.57z"/>
		<path fill="#DD7224" d="M91.717,320.218c-1.403,0.034-2.858,0.388-4.008,1.052l-7.792,4.498l-24.184-0.013v11.082
			c-0.054,0.749,0.363,1.472,1.284,2.003l31.23,18.031c0.921,0.531,2.173,0.772,3.47,0.741V320.218z"/>
		<path fill="#F8AB49" d="M58.47,325.756l-2.737-0.001v11.082c-0.054,0.749,0.363,1.472,1.284,2.003l1.453,0.839V325.756z"/>
		<path fill="#E85E00" d="M88.728,357.106c1.653,0.708,4.044,0.669,5.978-0.068v-12.583h-5.978V357.106z"/>
		<path fill="#FF6600" d="M88.247,345.828l-31.23-18.03c-1.917-1.106-1.676-3.039,0.537-4.317l30.155-17.41
			c2.213-1.277,5.561-1.416,7.478-0.31l31.229,18.03c1.917,1.107,1.677,3.04-0.536,4.318l-30.155,17.409
			C93.512,346.797,90.164,346.936,88.247,345.828z"/>
		<path fill="#E85E00" d="M88.809,342.583l-26.171-15.109c-1.606-0.928-1.405-2.547,0.45-3.618l25.27-14.59
			c1.855-1.07,4.661-1.187,6.267-0.26l26.171,15.11c1.605,0.927,1.404,2.547-0.45,3.618l-25.271,14.589
			C93.221,343.395,90.415,343.511,88.809,342.583z"/>
		<g>
			<path fill="#FDD762" d="M116.214,339.414c0,0.805-0.564,1.782-1.262,2.185c-0.696,0.402-1.261,0.076-1.261-0.729
				c0-0.804,0.564-1.782,1.261-2.185C115.649,338.283,116.214,338.609,116.214,339.414z"/>
			<path fill="#FDD762" d="M120.272,337.07c0,0.805-0.565,1.783-1.262,2.186s-1.262,0.076-1.262-0.729s0.565-1.782,1.262-2.185
				S120.272,336.267,120.272,337.07z"/>
			<path fill="#FDD762" d="M124.33,334.728c0,0.805-0.564,1.782-1.261,2.185s-1.262,0.076-1.262-0.728
				c0-0.805,0.565-1.783,1.262-2.185C123.766,333.598,124.33,333.924,124.33,334.728z"/>
		</g>
	</g>
	<g>
		<path fill="#E85E00" d="M127.7,319.095L127.7,319.095v-10.775l-24.162-0.014l-8.352-4.821c-1.917-1.107-5.265-0.969-7.478,0.31
			l-7.792,4.499l-24.184-0.014v11.082c-0.054,0.749,0.363,1.472,1.284,2.003l31.23,18.03c1.917,1.107,5.265,0.969,7.478-0.31
			l30.155-17.409C127.156,320.938,127.772,319.983,127.7,319.095z"/>
		<path fill="#DD7224" d="M91.717,302.742c-1.403,0.034-2.858,0.388-4.008,1.052l-7.792,4.499l-24.184-0.014v11.082
			c-0.054,0.749,0.363,1.472,1.284,2.003l31.23,18.03c0.921,0.532,2.173,0.773,3.47,0.742V302.742z"/>
		<path fill="#F8AB49" d="M58.47,308.28l-2.737-0.001v11.082c-0.054,0.749,0.363,1.472,1.284,2.003l1.453,0.839V308.28z"/>
		<path fill="#E85E00" d="M88.728,339.631c1.653,0.708,4.044,0.669,5.978-0.068v-12.583h-5.978V339.631z"/>
		<path fill="#FF6600" d="M88.247,328.354l-31.23-18.031c-1.917-1.106-1.676-3.039,0.537-4.317l30.155-17.409
			c2.213-1.278,5.561-1.417,7.478-0.311l31.229,18.031c1.917,1.105,1.677,3.039-0.536,4.316l-30.155,17.41
			C93.512,329.32,90.164,329.46,88.247,328.354z"/>
		<path fill="#E85E00" d="M88.809,325.107l-26.171-15.109c-1.606-0.928-1.405-2.547,0.45-3.618l25.27-14.59
			c1.855-1.07,4.661-1.187,6.267-0.26l26.171,15.11c1.605,0.927,1.404,2.547-0.45,3.617l-25.271,14.59
			C93.221,325.919,90.415,326.035,88.809,325.107z"/>
		<g>
			<path fill="#FDD762" d="M116.214,321.938c0,0.805-0.564,1.782-1.262,2.185c-0.696,0.402-1.261,0.076-1.261-0.729
				s0.564-1.782,1.261-2.185C115.649,320.808,116.214,321.134,116.214,321.938z"/>
			<path fill="#FDD762" d="M120.272,319.596c0,0.804-0.565,1.782-1.262,2.185c-0.696,0.401-1.262,0.076-1.262-0.729
				s0.565-1.782,1.262-2.185S120.272,318.791,120.272,319.596z"/>
			<path fill="#FDD762" d="M124.33,317.252c0,0.805-0.564,1.783-1.261,2.185c-0.696,0.402-1.262,0.076-1.262-0.728
				c0-0.805,0.565-1.783,1.262-2.186C123.766,316.122,124.33,316.448,124.33,317.252z"/>
		</g>
	</g>
	<g>
		<path fill="#E85E00" d="M127.7,301.619L127.7,301.619v-10.775l-24.162-0.014l-8.352-4.822c-1.917-1.106-5.265-0.967-7.478,0.311
			l-7.792,4.498l-24.184-0.013v11.082c-0.054,0.749,0.363,1.472,1.284,2.003l31.23,18.031c1.917,1.106,5.265,0.967,7.478-0.311
			l30.155-17.41C127.156,303.463,127.772,302.508,127.7,301.619z"/>
		<path fill="#DD7224" d="M91.717,285.267c-1.403,0.034-2.858,0.388-4.008,1.052l-7.792,4.498l-24.184-0.013v11.082
			c-0.054,0.749,0.363,1.472,1.284,2.003l31.23,18.031c0.921,0.531,2.173,0.772,3.47,0.741V285.267z"/>
		<path fill="#F8AB49" d="M58.47,290.805l-2.737-0.001v11.082c-0.054,0.749,0.363,1.472,1.284,2.003l1.453,0.839V290.805z"/>
		<path fill="#E85E00" d="M88.728,322.155c1.653,0.708,4.044,0.669,5.978-0.068v-12.583h-5.978V322.155z"/>
		<path fill="#FF6600" d="M88.247,310.877l-31.23-18.03c-1.917-1.106-1.676-3.039,0.537-4.317l30.155-17.41
			c2.213-1.277,5.561-1.416,7.478-0.31l31.229,18.03c1.917,1.107,1.677,3.04-0.536,4.317l-30.155,17.41
			C93.512,311.846,90.164,311.984,88.247,310.877z"/>
		<path fill="#F8AB49" d="M125.88,291.037l-30.155,17.41c-2.213,1.277-5.561,1.416-7.478,0.31l-31.23-18.03
			c-0.427-0.247-0.741-0.536-0.957-0.849c-0.658,1.06-0.36,2.209,0.957,2.969l31.23,18.03c1.917,1.107,5.265,0.969,7.478-0.31
			l30.155-17.41c1.72-0.993,2.242-2.38,1.493-3.468C127.072,290.172,126.573,290.637,125.88,291.037z"/>
		<g>
			<path fill="#FDD762" d="M116.214,304.463c0,0.805-0.564,1.782-1.262,2.185c-0.696,0.402-1.261,0.076-1.261-0.728
				c0-0.805,0.564-1.783,1.261-2.186C115.649,303.332,116.214,303.658,116.214,304.463z"/>
			<path fill="#FDD762" d="M120.272,302.119c0,0.805-0.565,1.783-1.262,2.186s-1.262,0.076-1.262-0.729s0.565-1.782,1.262-2.185
				S120.272,301.315,120.272,302.119z"/>
			<path fill="#FDD762" d="M124.33,299.776c0,0.805-0.564,1.782-1.261,2.185s-1.262,0.076-1.262-0.729
				c0-0.804,0.565-1.782,1.262-2.184C123.766,298.646,124.33,298.973,124.33,299.776z"/>
		</g>
		<g>
			<path fill="#E85E00" d="M90.093,300.178l-14.614-8.437c-0.897-0.519-0.784-1.423,0.251-2.021l14.111-8.146
				c1.036-0.599,2.603-0.663,3.499-0.146l14.614,8.438c0.896,0.518,0.784,1.422-0.251,2.021l-14.111,8.146
				C92.557,300.631,90.99,300.696,90.093,300.178z"/>
			<path fill="#F8AB49" d="M91.493,293.113l-2.022-1.167c-0.124-0.071-0.108-0.196,0.035-0.279l1.953-1.128
				c0.143-0.082,0.36-0.091,0.484-0.02l2.022,1.168c0.124,0.071,0.108,0.196-0.035,0.279l-1.953,1.127
				C91.833,293.177,91.617,293.186,91.493,293.113z"/>
			<path fill="#F8AB49" d="M75.479,291.741l0.042,0.023c0.068-0.049,0.131-0.099,0.21-0.145l14.111-8.146
				c1.036-0.599,2.603-0.663,3.499-0.146l14.573,8.414c0.826-0.592,0.869-1.397,0.041-1.876l-14.614-8.438
				c-0.896-0.518-2.463-0.453-3.499,0.146l-14.111,8.146C74.695,290.318,74.583,291.223,75.479,291.741z"/>
		</g>
	</g>
	<path fill="#E85E00" d="M78.914,330.631l-12.643-7.3c-0.779-0.45-1.412-1.657-1.412-2.696l0,0c0-1.04,0.632-1.518,1.412-1.067
		l12.643,7.3c0.779,0.449,1.411,1.657,1.411,2.696l0,0C80.325,330.603,79.693,331.08,78.914,330.631z"/>
	<path fill="#E85E00" d="M80.044,329.934l-12.643-7.299c-0.78-0.45-1.411-1.658-1.411-2.697c0-0.175,0.023-0.327,0.057-0.469
		c-0.673-0.245-1.188,0.229-1.188,1.166c0,1.039,0.632,2.246,1.411,2.696l12.643,7.3c0.648,0.374,1.188,0.1,1.354-0.598
		C80.194,330.006,80.121,329.979,80.044,329.934z"/>
</g>
<g>
	<path fill="#E85E00" d="M84.891,230.495l-3.259-1.86l0.001,0.005c-0.293-0.237-0.703-0.257-1.159,0.007l-22.323,12.889
		c-0.889,0.513-1.609,1.89-1.609,3.074v37.357c0,2.035,1.088,3.916,2.854,4.93l0.497,0.285l0.325-4.047l21.866-12.624v-39.422
		l0.428,2.328L84.891,230.495z"/>
	<path fill="#E85E00" d="M81.632,228.635l0.001,0.005c-0.293-0.237-0.703-0.257-1.159,0.007l-22.323,12.888
		c-0.521,0.302-0.98,0.902-1.274,1.585l25.207,14.553v-26.583l0.428,2.328l2.379-2.922L81.632,228.635z"/>
	<path fill="#F8AB49" d="M61.542,247.254l2.519-1.455l-6.512-3.76c-0.54,0.604-0.928,1.498-0.992,2.337L61.542,247.254z"/>
	<path fill="#F8AB49" d="M85.435,272.436l-25.542,14.746v-40.647c0-1.185,0.721-2.562,1.61-3.075l22.323-12.889
		c0.889-0.513,1.61,0.032,1.61,1.217V272.436z"/>
</g>
<g>
	<g>
		<path fill="#FF6600" d="M70.067,282.424c0,0.717-0.503,1.007-1.124,0.648s-1.124-1.229-1.124-1.946s0.503-1.007,1.124-0.649
			C69.564,280.836,70.067,281.707,70.067,282.424z"/>
		<polygon fill="#F8AB49" points="64.391,282.573 68.122,280.415 69.78,283.123 66.037,285.287 		"/>
		<path fill="#DD7224" d="M66.359,284.564c0,0.717-0.503,1.007-1.124,0.648s-1.124-1.229-1.124-1.946
			c0-0.716,0.503-1.007,1.124-0.648S66.359,283.848,66.359,284.564z"/>
		<path fill="#E85E00" d="M65.815,284.25c0,0.37-0.259,0.52-0.58,0.335s-0.58-0.634-0.58-1.004s0.259-0.52,0.58-0.335
			C65.556,283.432,65.815,283.881,65.815,284.25z"/>
	</g>
	<g>
		<path fill="#FF6600" d="M83.134,275.045c0,0.717-0.503,1.008-1.124,0.648c-0.621-0.357-1.124-1.229-1.124-1.946
			c0-0.716,0.503-1.007,1.124-0.648S83.134,274.328,83.134,275.045z"/>
		<polygon fill="#F8AB49" points="77.458,275.194 81.189,273.037 82.847,275.744 79.104,277.909 		"/>
		<path fill="#DD7224" d="M79.426,277.186c0,0.717-0.503,1.008-1.124,0.649s-1.124-1.229-1.124-1.946s0.503-1.008,1.124-0.648
			C78.923,275.598,79.426,276.47,79.426,277.186z"/>
		<path fill="#E85E00" d="M78.882,276.872c0,0.369-0.259,0.52-0.58,0.335c-0.32-0.186-0.58-0.635-0.58-1.004
			c0-0.37,0.26-0.52,0.58-0.335C78.623,276.053,78.882,276.502,78.882,276.872z"/>
	</g>
</g>
<path opacity="0.5" fill="#C4D9E8" d="M301.009,338.126l-18.526-10.696c-1.137-0.656-0.994-1.803,0.318-2.561l17.889-10.328
	c1.313-0.758,3.299-0.84,4.436-0.184l18.526,10.695c1.137,0.657,0.994,1.804-0.318,2.562l-17.889,10.328
	C304.132,338.7,302.146,338.782,301.009,338.126z"/>
<g>
	<path fill="#E85E00" d="M339.244,306.029L339.244,306.029v-10.775l-24.162-0.014l-8.352-4.822
		c-1.916-1.105-5.265-0.967-7.478,0.311l-7.792,4.499l-24.184-0.014v11.082c-0.055,0.749,0.362,1.472,1.284,2.003l31.229,18.031
		c1.917,1.106,5.265,0.968,7.478-0.311l30.155-17.41C338.7,307.873,339.316,306.918,339.244,306.029z"/>
	<path fill="#FF6600" d="M303.261,289.678c-1.402,0.033-2.858,0.387-4.008,1.051l-7.792,4.499l-24.184-0.014v11.082
		c-0.055,0.749,0.362,1.472,1.284,2.003l31.229,18.031c0.921,0.531,2.173,0.772,3.47,0.741V289.678z"/>
	<path fill="#FF6600" d="M270.014,295.215l-2.736-0.001v11.082c-0.055,0.749,0.362,1.472,1.284,2.003l1.452,0.84V295.215z"/>
	<path fill="#E85E00" d="M300.272,326.565c1.652,0.708,4.044,0.669,5.977-0.068v-12.583h-5.977V326.565z"/>
	<path fill="#FF6600" d="M299.791,315.288l-31.229-18.03c-1.917-1.107-1.677-3.04,0.536-4.318l30.155-17.409
		c2.213-1.278,5.562-1.417,7.478-0.311l31.23,18.03c1.916,1.107,1.676,3.04-0.537,4.318l-30.155,17.409
		C305.056,316.256,301.707,316.395,299.791,315.288z"/>
	<g>
		<path fill="#FBD483" d="M327.758,308.873c0,0.805-0.564,1.782-1.262,2.185c-0.696,0.402-1.261,0.076-1.261-0.728
			c0-0.805,0.564-1.783,1.261-2.186C327.193,307.742,327.758,308.068,327.758,308.873z"/>
		<path fill="#FBD483" d="M331.816,306.53c0,0.804-0.565,1.782-1.262,2.185s-1.262,0.076-1.262-0.729s0.565-1.782,1.262-2.185
			S331.816,305.726,331.816,306.53z"/>
		<path fill="#FBD483" d="M335.875,304.187c0,0.805-0.565,1.782-1.262,2.185c-0.697,0.402-1.262,0.077-1.262-0.728
			s0.564-1.782,1.262-2.185C335.31,303.057,335.875,303.383,335.875,304.187z"/>
	</g>
</g>
<path fill="#E85E00" d="M287.489,308.186l12.302,7.102c1.916,1.107,5.265,0.969,7.478-0.31l21.885-12.635l0.14-0.167l-17.658-9.781
	L287.489,308.186z"/>
<polygon fill="#E85E00" points="292.546,311.105 292.546,322.147 287.972,319.544 285.874,308.834 289.456,309.32 "/>
<polygon fill="#FF6600" points="277.686,313.567 278.789,314.205 280.958,303.854 279.604,303.271 275.458,304.688 "/>
<g>
	<path opacity="0.5" fill="#C4D9E8" d="M291.466,349.402c-7.01,4.048-18.377,4.048-25.388,0s-7.012-10.61-0.001-14.658
		s18.378-4.047,25.389,0C298.477,338.792,298.477,345.354,291.466,349.402z"/>
	<g>
		<path fill="#173D7A" d="M287.274,337.074c0,0-2.804-1.414-4.526,0.691c-1.722,2.106-4.184,7.077-4.26,10.436
			c-0.076,3.359,2.658,3.133,4.283,2.338c1.626-0.795,6.374-7.683,6.661-9.032s-0.339-3.175-0.796-3.531
			C288.18,337.618,287.274,337.074,287.274,337.074z"/>
		<path fill="#E8A200" d="M287.887,336.398l0.13,2.906c0.027,0.617-0.283,1.206-0.821,1.511c-0.489,0.278-1.201,0.491-2.163,0.337
			c-2.112-0.34-2.301-0.943-2.452-3.848C282.43,334.399,287.887,336.398,287.887,336.398z"/>
		<g>
			<path fill="#173D7A" d="M277.01,331.488c0,0-2.804-1.414-4.526,0.691c-1.722,2.106-4.184,7.077-4.26,10.436
				c-0.076,3.359,2.658,3.133,4.283,2.338s6.374-7.684,6.661-9.033c0.287-1.349-0.339-3.174-0.796-3.531
				C277.915,332.032,277.01,331.488,277.01,331.488z"/>
			<path fill="#E8A200" d="M277.622,330.813l0.13,2.905c0.027,0.618-0.283,1.206-0.821,1.512c-0.49,0.278-1.201,0.491-2.163,0.336
				c-2.112-0.339-2.301-0.942-2.452-3.848C272.165,328.813,277.622,330.813,277.622,330.813z"/>
			<path fill="#FDD762" d="M302.644,277.475c-0.83-13.504-14.625,1.987-14.625,1.987l-9.441,9.254l-8.502,9.34
				c-1.66,1.824-2.433,4.286-2.111,6.732l3.439,26.188c0.17,1.293,1.276,2.246,2.58,2.236c0.369-0.003,0.791-0.036,1.274-0.111
				c3.068-0.479,2.842-3.396,2.842-3.396l-0.629-24.493l17.854-10.764C295.325,294.449,303.474,290.979,302.644,277.475z"/>
		</g>
		<path fill="#FDD762" d="M312.908,282.62c-0.83-13.504-14.625,1.987-14.625,1.987l-9.441,9.254l-8.502,9.34
			c-1.66,1.824-2.433,4.286-2.111,6.732l3.439,26.188c0.17,1.293,1.276,2.247,2.58,2.236c0.369-0.002,0.791-0.035,1.274-0.111
			c3.068-0.478,2.842-3.395,2.842-3.395l-0.629-24.494l17.854-10.763C305.59,299.595,313.738,296.125,312.908,282.62z"/>
		<path fill="#ED852F" d="M304.747,239.271c10.458,4.336,10.249,10.518,10.249,10.518s-2.049,22.665-1.35,37.801
			c0.292,6.328-33.619,6.811-28.562-10.07c5.963-19.904,3.728-36.018,6.52-38.448C294.396,236.641,302.042,238.15,304.747,239.271z"
			/>
		<circle fill="#FFC2B0" cx="300.801" cy="231.798" r="8.05"/>
		
			<ellipse transform="matrix(0.9684 0.2494 -0.2494 0.9684 70.2731 -67.846)" fill="#FFC2B0" cx="302.889" cy="243.408" rx="5.394" ry="3.97"/>
		<path fill="#FFC2B0" d="M300.554,238.8c0,0,0.091,0.419-0.091,3.733c-0.057,1.042,3.592,2.016,4.534,1.072
			c0.943-0.943,0.566-1.924,0.793-5.47C306.016,234.59,300.554,238.8,300.554,238.8z"/>
		<path fill="#FF6600" d="M294.233,232.594c0,0,3.861-1.639,7.249-0.956c0.796,0.161,1.534,0.587,2.047,1.217
			c0.167,0.206,0.379,0.394,0.619,0.448c0.601,0.136,1.584-2.356,2.751-2.413c1.168-0.057,1.946,0.771,0.989,2.303
			s-0.634,3.247-0.193,3.493s5.112-3.332,0.991-11.495c-4.12-8.163-14.588-3.767-16.216-2.112c0,0-1.716,1.494-3.11,0.165
			C289.36,223.243,287.797,234.955,294.233,232.594z"/>
		<path fill="#FFC2B0" d="M309.129,266.348v6.125c0,0.701-0.296,1.371-0.813,1.844l-12.581,11.47l1.43,2.186l16.613-12.049
			c0.776-0.563,1.276-1.428,1.376-2.381l1.123-10.681L309.129,266.348z"/>
		<path fill="#ED852F" d="M314.11,246.728c0,0,3.816,5.739,5.238,20.849c0,0-6.52,2.108-10.22,0.912
			C305.429,267.291,314.11,246.728,314.11,246.728z"/>
		<path fill="#DD7224" d="M308.433,253.984c0,0-1.495,7.998-1.579,11.756c-0.023,1.033,0.607,1.966,1.579,2.316l0,0V253.984z"/>
	</g>
	<g>
		<path fill="#173D7A" d="M305.168,293.749l-2.78-0.366l-17.95-10.363c-0.575-0.333-1.58-0.291-2.244,0.093l-12.72,7.341
			l-1.681-0.223v1.674h0.001c-0.011,0.221,0.115,0.434,0.387,0.59l20.342,11.744c0.575,0.332,1.58,0.291,2.245-0.093l13.852-7.994
			c0.373-0.216,0.56-0.494,0.549-0.755l0,0V293.749z"/>
		<path fill="#396CAA" d="M291.682,287.201l-1.275-0.736h-14.021l-6.912,3.988l-1.681-0.223v1.674h0.001
			c-0.011,0.221,0.115,0.434,0.387,0.59l20.342,11.744c0.304,0.176,0.729,0.246,1.158,0.218L291.682,287.201z"/>
		<path fill="#5793CE" d="M268.539,290.329l-0.746-0.099v1.674h0.001c-0.011,0.221,0.115,0.434,0.387,0.59l0.358,0.207V290.329z"/>
		<path fill="#274F89" d="M288.728,304.334c0.545,0.207,1.325,0.162,1.907-0.119v-2.848h-1.907V304.334z"/>
		<path fill="#FFFFFF" d="M288.522,302.566l-20.342-11.745c-0.576-0.332-0.504-0.912,0.161-1.296l13.852-7.994
			c0.664-0.385,1.669-0.426,2.244-0.094l20.343,11.744c0.575,0.333,0.503,0.913-0.161,1.297l-13.852,7.994
			C290.103,302.856,289.098,302.898,288.522,302.566z"/>
		<path fill="#D4ECFF" d="M288.178,300.786l-16.914-9.766c-0.479-0.276-0.418-0.759,0.135-1.078l7.422-4.174
			c0.553-0.319,1.389-0.354,1.867-0.077l16.914,9.766c0.479,0.275,0.419,0.758-0.134,1.077l-7.423,4.174
			C289.492,301.027,288.656,301.063,288.178,300.786z"/>
	</g>
	<path fill="#FFC2B0" d="M282.979,281.145l-0.211,1.404c-0.179,1.195-0.147,2.414,0.092,3.6l0.251,1.236
		c0.141,0.697,0.693,1.238,1.394,1.366l0,0c0.547,0.1,1.063-0.285,1.125-0.837l0.336-3.001c0,0,0.768,1.006,1.139,1.006
		c0.37,0-0.415-3.005-1.253-4.706C285.013,279.513,282.979,281.145,282.979,281.145z"/>
	<path fill="#FFC2B0" d="M289.875,258.838l-2.183,4.32c-0.517,1.021-0.82,2.137-0.894,3.278l-0.947,14.776l-2.872-0.068
		l-1.304-16.594c-0.04-0.512-0.015-1.027,0.074-1.533l1.489-8.415L289.875,258.838z"/>
	<g>
		<path fill="#173D7A" d="M287.998,303.611l-1.706-2.227L268.355,291c-0.575-0.333-1.041-1.225-1.04-1.992l0.016-14.685
			l-1.031-1.347l0.97-0.562l0.001,0.001c0.186-0.119,0.432-0.116,0.703,0.041l20.327,11.77c0.575,0.333,1.041,1.225,1.04,1.992
			l-0.018,15.992c0,0.432-0.148,0.732-0.38,0.854l0,0L287.998,303.611z"/>
		<path fill="#396CAA" d="M275.594,295.191l-1.274-0.738l-6.995-12.15l0.007-7.979l-1.031-1.347l0.97-0.562l0.001,0.001
			c0.186-0.119,0.432-0.116,0.703,0.041l20.327,11.77c0.305,0.176,0.577,0.508,0.767,0.896L275.594,295.191z"/>
		<path fill="#5793CE" d="M266.758,273.574l-0.458-0.598l0.97-0.562l0.001,0.001c0.186-0.119,0.432-0.116,0.703,0.041l0.358,0.207
			L266.758,273.574z"/>
		<path fill="#274F89" d="M288.486,284.356c0.451,0.369,0.801,1.067,0.849,1.712l-1.986,1.147l-0.952-1.653L288.486,284.356z"/>
		<path fill="#FFFFFF" d="M287.333,284.787l-20.327-11.77c-0.575-0.333-1.043,0.02-1.043,0.787l-0.018,15.992
			c-0.001,0.768,0.465,1.659,1.039,1.992l20.328,11.77c0.575,0.332,1.042-0.02,1.043-0.787l0.018-15.992
			C288.373,286.012,287.908,285.12,287.333,284.787z"/>
	</g>
	<path fill="#FFC2B0" d="M297.164,287.972l-0.326,0.675c-0.375,0.777-0.965,1.431-1.699,1.884l-2.02,1.245
		c-0.628,0.387-1.423,0.418-2.061,0.047c-0.023-0.014-0.046-0.027-0.069-0.041c-0.642-0.402-0.699-1.324-0.171-1.866l2.109-2.169
		c0,0-1.186,0.908-1.518,0.542c-0.243-0.269,1.149-1.576,2.22-1.619c1.069-0.043,2.104-0.883,2.104-0.883L297.164,287.972z"/>
	<path fill="#ED852F" d="M291.813,239.039c0,0-7.735,8.417-10.855,16.138c0,0,2.645,4.766,9.119,6.636
		S291.813,239.039,291.813,239.039z"/>
	<path fill="#DD7224" d="M288.621,261.313l1.254-12.11l-2.954,11.347C287.447,260.823,288.017,261.078,288.621,261.313z"/>
	<path fill="#FFFFFF" d="M297.607,237.341l-2.079-0.571c0,0,0.992,1.562,2.441,1.959c1.448,0.398,1.674-0.828,1.674-0.828
		L297.607,237.341z"/>
</g>
<g>
	<path fill="#B2D3EA" d="M146.051,230.534c-10.561-6.097-27.681-6.097-38.24,0s-10.56,15.981,0,22.078
		c10.561,6.097,27.681,6.097,38.24,0S156.61,236.631,146.051,230.534z M126.275,241.782c-2.716,1.567-7.119,1.567-9.834-0.001
		c-2.716-1.567-2.716-4.109-0.001-5.678c2.716-1.567,7.119-1.567,9.835,0C128.991,237.672,128.991,240.214,126.275,241.782z"/>
	<path fill="#B2D3EA" d="M151.756,247.715c-1.411,1.403-3.152,2.727-5.233,3.928s-4.372,2.207-6.803,3.021l5.169,2.984l7.79,0.4
		l3.854,2.225l-1.573,0.908l2.917,1.685l3.146-1.816l5.097,2.942l-5.121,2.957l3.764,2.173l3.65,2.107l4.55-2.626l6.741,3.892
		l-2.574,1.486l4.331,2.5l2.573-1.485l2.032,1.173l-2.047,4.071l6.552,3.782h24.073L151.756,247.715z"/>
</g>
<g>
	<path fill="#E8A200" d="M153.97,239.427v-7.311l-2.153,1.216c-1.318-1.791-3.235-3.471-5.766-4.933
		c-10.561-6.097-27.681-6.097-38.24,0c-2.929,1.69-5.042,3.674-6.346,5.786l-1.573-2.069v7.311
		c-0.006,3.999,2.634,7.999,7.919,11.051c10.561,6.097,27.681,6.097,38.24,0C151.336,247.427,153.976,243.426,153.97,239.427z
		 M126.183,234.662c-2.716,1.568-7.118,1.568-9.834,0s-2.716-4.109,0-5.678s7.118-1.568,9.834,0S128.898,233.094,126.183,234.662z"
		/>
	<path fill="#FDD762" d="M124.667,245.189l-11.668-5.751l-10.369-6.85c-0.441,0.522-0.831,1.055-1.165,1.597l-1.573-2.069v7.311
		c-0.006,3.999,2.634,7.999,7.919,11.051c4.704,2.716,10.709,4.218,16.856,4.515V245.189z"/>
	<path fill="#FDD762" d="M146.051,221.077c-10.561-6.097-27.681-6.097-38.24,0s-10.56,15.981,0,22.078
		c10.561,6.097,27.681,6.097,38.24,0S156.61,227.174,146.051,221.077z M126.275,232.325c-2.716,1.567-7.119,1.567-9.834-0.001
		c-2.716-1.567-2.716-4.109-0.001-5.678c2.716-1.567,7.119-1.567,9.835,0C128.991,228.215,128.991,230.757,126.275,232.325z"/>
	<path fill="#E8A200" d="M131.58,224.938h-14.675c-1.342,0.309-2.648,0.683-3.906,1.12v12.437h18.581V224.938z M126.183,234.662
		c-2.716,1.568-7.118,1.568-9.834,0s-2.716-4.109,0-5.678s7.118-1.568,9.834,0S128.898,233.094,126.183,234.662z"/>
	<path fill="#F2B42A" d="M143.783,222.387c-9.308-5.374-24.398-5.374-33.706,0c-9.307,5.373-9.307,14.086,0.001,19.459
		c9.308,5.374,24.398,5.374,33.706,0.001C153.091,236.473,153.091,227.76,143.783,222.387z M126.275,232.325
		c-2.716,1.567-7.119,1.567-9.834-0.001c-2.716-1.567-2.716-4.109-0.001-5.678c2.716-1.567,7.119-1.567,9.835,0
		C128.991,228.215,128.991,230.757,126.275,232.325z"/>
	<path fill="#E8A200" d="M110.077,224.404c9.308-5.373,24.398-5.373,33.706,0c4.209,2.431,6.508,5.543,6.91,8.722
		c0.488-3.851-1.812-7.796-6.91-10.739c-9.308-5.374-24.398-5.374-33.706,0c-5.099,2.943-7.396,6.889-6.909,10.738
		C103.57,229.947,105.869,226.834,110.077,224.404z"/>
	<g>
		<path fill="#F2B42A" d="M151.756,245.525c-1.411,1.403-3.152,2.727-5.233,3.928c-2.081,1.202-4.372,2.207-6.803,3.021l5.169,2.984
			l7.79,0.4l3.854,2.226l-1.573,0.908l2.917,1.684l3.146-1.815l5.097,2.942l-5.121,2.956l3.764,2.174l3.65,2.107l4.55-2.627
			l6.741,3.893l-2.574,1.486l4.331,2.5l2.573-1.486l2.032,1.174l-2.047,4.07l6.552,3.783h24.073L151.756,245.525z"/>
		<path fill="#FDD762" d="M151.756,240.242c-1.411,1.403-3.152,2.727-5.233,3.928c-2.081,1.202-4.372,2.207-6.803,3.021l5.169,2.984
			l7.79,0.4l3.854,2.225l-1.573,0.908l2.917,1.685l3.146-1.816l5.097,2.943l-5.121,2.956l3.764,2.174l3.65,2.107l4.55-2.627
			l6.741,3.893l-2.574,1.485l4.331,2.501l2.573-1.486l2.032,1.174l-2.047,4.07l6.552,3.782l24.073,0.001L151.756,240.242z"/>
		<rect x="190.57" y="276.55" fill="#E8A200" width="24.073" height="5.283"/>
		<polygon fill="#E8A200" points="181.46,274.293 181.46,269.01 184.033,267.523 184.033,272.807 		"/>
		<polygon fill="#EEAD00" points="177.129,266.509 177.129,271.793 181.46,274.293 181.46,269.01 		"/>
		<polygon fill="#E8A200" points="172.962,261.131 172.962,266.414 168.412,269.041 168.412,263.758 		"/>
		<polygon fill="#EEAD00" points="160.998,259.477 160.998,264.76 168.412,269.041 168.412,263.758 		"/>
		<polygon fill="#EEAD00" points="184.033,272.807 184.019,278.051 190.57,281.834 190.57,276.55 		"/>
		<polygon fill="#EEAD00" points="157.876,255.394 157.876,260.677 154.959,258.993 154.959,253.709 		"/>
		<polygon fill="#E8A200" points="144.889,250.176 144.889,255.459 152.679,255.859 152.679,250.576 		"/>
		<polygon fill="#E8A200" points="198.215,272.807 152.173,246.201 154.731,244.724 203.304,272.79 		"/>
		<polygon fill="#F2B42A" points="154.731,246.004 201.102,272.797 203.304,272.79 154.731,244.724 152.173,246.201 
			153.281,246.841 		"/>
		<polygon fill="#E8A200" points="144.889,255.459 144.889,250.176 139.72,247.191 139.72,252.475 		"/>
		<polygon fill="#E8A200" points="161.022,253.577 161.022,258.861 157.876,260.677 157.876,255.394 		"/>
	</g>
	<path fill="#FDD762" d="M143.783,222.387c-5.23-3.02-12.286-4.343-19.116-3.969v2.019c6.83-0.374,13.886,0.948,19.116,3.968
		c4.209,2.431,6.508,5.544,6.91,8.722C151.182,229.275,148.882,225.33,143.783,222.387z"/>
</g>
<path fill="#FDD762" d="M75.138,259.556l0.004-2.335c0-0.143-0.116-0.192-0.259-0.109l-1.955,1.123
	c-0.144,0.082-0.26,0.266-0.26,0.408l-0.004,2.335c0,0.144,0.116,0.192,0.259,0.11l1.955-1.123
	C75.021,259.882,75.138,259.699,75.138,259.556z"/>
<g>
	<g>
		<path opacity="0.5" fill="#C4D9E8" d="M162.456,386.765l-22.711-13.214c-1.917-1.106-1.676-3.039,0.537-4.317l21.646-12.612
			c2.214-1.278,5.562-1.417,7.479-0.311l22.711,13.215c1.917,1.106,1.677,3.039-0.537,4.316l-21.646,12.613
			C167.721,387.732,164.373,387.871,162.456,386.765z"/>
		<path fill="#173D7A" d="M193.402,358.758L193.402,358.758v-4.55l-24.162-0.014l0.167-0.005c-1.917-1.107-5.265-0.969-7.479,0.31
			l0.716-0.299l-24.184-0.014v4.856c-0.055,0.749,0.363,1.472,1.284,2.004l22.711,13.214c1.917,1.106,5.265,0.968,7.479-0.31
			l21.646-12.613C192.858,360.601,193.474,359.646,193.402,358.758z"/>
		<path fill="#396CAA" d="M165.938,353.447c-1.402,0.034-2.858,0.388-4.009,1.052l0.716-0.299l-24.184-0.014v4.856
			c-0.055,0.749,0.363,1.472,1.284,2.004l22.711,13.214c0.922,0.531,2.174,0.772,3.471,0.741L165.938,353.447z"/>
		<path fill="#B2D3EA" d="M141.198,354.188l-2.737-0.001v4.856c-0.055,0.749,0.363,1.472,1.284,2.004l1.453,0.838V354.188z"/>
		<path fill="#274F89" d="M162.938,374.496c1.653,0.708,4.045,0.669,5.978-0.068v-6.357h-5.978V374.496z"/>
		<path fill="#D4ECFF" d="M162.456,369.444l-22.711-13.214c-1.917-1.107-1.676-3.04,0.537-4.317l21.646-12.612
			c2.214-1.278,5.562-1.417,7.479-0.311l22.711,13.214c1.917,1.106,1.677,3.04-0.537,4.317l-21.646,12.613
			C167.721,370.412,164.373,370.551,162.456,369.444z"/>
	</g>
	<g>
		<path fill="#FFFFFF" d="M156.827,359.123c-0.893-0.516-0.893-1.351,0-1.866l14.967-8.641c0.893-0.516,2.34-0.516,3.232,0
			c0.892,0.515,0.892,1.351,0,1.866l-14.968,8.641C159.167,359.639,157.719,359.639,156.827,359.123z"/>
	</g>
	<g>
		<path fill="#FFFFFF" d="M171.794,359.123l-14.968-8.642c-0.892-0.515-0.892-1.351,0-1.866c0.893-0.515,2.34-0.515,3.232,0
			l14.968,8.642c0.893,0.516,0.893,1.352,0,1.866C174.134,359.639,172.687,359.639,171.794,359.123z"/>
	</g>
</g>
<g>
	<g>
		<path opacity="0.5" fill="#C4D9E8" d="M56.563,119.64l-22.711-13.214c-1.917-1.106-1.676-3.04,0.537-4.317l21.647-12.612
			c2.213-1.278,5.561-1.417,7.478-0.31L86.224,102.4c1.917,1.106,1.676,3.039-0.537,4.317L64.04,119.33
			C61.827,120.608,58.479,120.747,56.563,119.64z"/>
		<path fill="#173D7A" d="M87.508,92.716L87.508,92.716v-4.55l-24.162-0.013l0.167-0.005c-1.917-1.107-5.265-0.968-7.478,0.31
			l0.716-0.299l-24.184-0.013v4.856c-0.055,0.749,0.363,1.472,1.284,2.003l22.711,13.214c1.917,1.107,5.265,0.968,7.478-0.31
			l21.647-12.612C86.964,94.56,87.58,93.605,87.508,92.716z"/>
		<path fill="#396CAA" d="M60.043,87.406c-1.403,0.034-2.858,0.387-4.008,1.051l0.716-0.299l-24.184-0.013v4.856
			c-0.055,0.749,0.363,1.472,1.284,2.003l22.711,13.214c0.921,0.532,2.173,0.773,3.47,0.742L60.043,87.406z"/>
		<path fill="#B2D3EA" d="M35.304,88.146l-2.737-0.001v4.856c-0.055,0.749,0.363,1.472,1.284,2.003l1.453,0.839V88.146z"/>
		<path fill="#274F89" d="M57.043,108.455c1.653,0.708,4.044,0.669,5.978-0.068v-6.357h-5.978V108.455z"/>
		<path fill="#D4ECFF" d="M56.563,103.403L33.851,90.188c-1.917-1.106-1.676-3.04,0.537-4.317l21.647-12.612
			c2.213-1.278,5.561-1.417,7.478-0.31l22.711,13.214c1.917,1.106,1.676,3.039-0.537,4.317L64.04,103.093
			C61.827,104.371,58.479,104.509,56.563,103.403z"/>
	</g>
	<path fill="#FFFFFF" d="M66.988,85.484c-0.867,0.5-2.272,0.5-3.14,0c-0.867-0.501-0.867-1.313,0-1.813
		c0.867-0.501,2.272-0.501,3.14,0C67.855,84.172,67.855,84.983,66.988,85.484z"/>
	<path fill="#FFFFFF" d="M55.738,92.234c-0.867,0.5-2.272,0.5-3.14,0c-0.867-0.501-0.867-1.313,0-1.813
		c0.867-0.501,2.272-0.501,3.14,0C56.605,90.922,56.605,91.733,55.738,92.234z"/>
	<g>
		<path fill="#FFFFFF" d="M65.9,93.082L50.933,84.44c-0.893-0.516-0.893-1.352,0-1.866c0.892-0.516,2.34-0.516,3.232,0l14.968,8.642
			c0.892,0.515,0.892,1.351,0,1.866S66.792,93.597,65.9,93.082z"/>
	</g>
</g>
</svg>
