<?xml version="1.0" encoding="utf-8"?>
<!-- Generator: Adobe Illustrator 16.0.0, SVG Export Plug-In . SVG Version: 6.00 Build 0)  -->
<!DOCTYPE svg PUBLIC "-//W3C//DTD SVG 1.1//EN" "http://www.w3.org/Graphics/SVG/1.1/DTD/svg11.dtd">
<svg version="1.1" id="Слой_1" xmlns="http://www.w3.org/2000/svg" xmlns:xlink="http://www.w3.org/1999/xlink" x="0px" y="0px"
	 width="390.53px" height="400px" viewBox="0 0 390.53 400" enable-background="new 0 0 390.53 400" xml:space="preserve">
<g>
	<g>
		<path fill="#B5B5B5" d="M236.681,328.201l-80.915-46.139c-2.959-1.708-2.588-4.692,0.829-6.666l46.557-26.879
			c3.417-1.973,8.586-2.188,11.545-0.479l80.916,46.139c2.959,1.709,2.588,4.693-0.829,6.666l-46.557,26.879
			C244.81,329.695,239.641,329.91,236.681,328.201z"/>
		<path fill="#396CAA" d="M302.826,278.646L302.826,278.646V89.744l-75.097-19.655l-13.833-7.986
			c-3.175-1.833-8.72-1.603-12.386,0.514l-12.905,7.451l-40.055-0.022l11.86,182.358c-0.09,1.24,0.602,2.438,2.127,3.318
			l74.942,56.548c3.175,1.832,8.72,1.603,12.386-0.514l49.944-28.836C301.925,281.699,302.945,280.118,302.826,278.646z"/>
		<path fill="#D4ECFF" d="M208.15,60.875c-2.323,0.056-4.734,0.642-6.64,1.741l-12.905,7.451l-40.055-0.022v189.41
			c-0.091,1.24,0.602,2.438,2.127,3.318l86.803,49.496c1.526,0.88,3.6,1.279,5.748,1.228l0.896-190.594L208.15,60.875z"/>
		<path fill="#5793CE" d="M238.277,312.659c2.738,1.173,6.699,1.108,9.9-0.112V120.65h-9.9V312.659z"/>
		<path fill="#D4ECFF" d="M237.48,122.926L150.678,73.43c-3.175-1.833-2.776-5.034,0.889-7.151l49.944-28.835
			c3.666-2.116,9.211-2.346,12.386-0.513L300.7,86.426c3.174,1.833,2.776,5.034-0.89,7.151l-49.944,28.835
			C246.2,124.528,240.655,124.758,237.48,122.926z"/>
		<path fill="#FAFDFF" d="M299.811,90.064L249.866,118.9c-3.666,2.117-9.211,2.346-12.386,0.513l-86.803-49.496
			c-0.708-0.408-1.229-0.888-1.584-1.405c-1.091,1.755-0.597,3.659,1.584,4.918l86.803,49.496c3.175,1.833,8.72,1.603,12.386-0.514
			l49.944-28.835c2.849-1.645,3.714-3.942,2.474-5.746C301.786,88.632,300.959,89.401,299.811,90.064z"/>
		<g>
			<path fill="#173D7A" d="M239.937,102.866l-57.792-33.5c-1.485-0.857-1.299-2.355,0.416-3.346l23.372-13.494
				c1.715-0.991,4.31-1.098,5.795-0.241l57.792,33.5c1.485,0.858,1.299,2.356-0.416,3.346l-23.371,13.493
				C244.017,103.616,241.422,103.723,239.937,102.866z"/>
			<g>
				<path fill="#D4ECFF" d="M208.736,70.87l-3.349-1.934c-0.206-0.119-0.18-0.326,0.058-0.463l3.233-1.867
					c0.237-0.137,0.597-0.151,0.802-0.033l3.349,1.934c0.206,0.119,0.18,0.326-0.058,0.463l-3.233,1.867
					C209.301,70.974,208.942,70.989,208.736,70.87z"/>
				<path fill="#D4ECFF" d="M219.925,77.303l-3.35-1.933c-0.205-0.119-0.18-0.326,0.058-0.463l3.233-1.867
					c0.237-0.137,0.597-0.152,0.803-0.033l3.349,1.933c0.205,0.119,0.18,0.326-0.058,0.463l-3.233,1.866
					C220.489,77.407,220.13,77.422,219.925,77.303z"/>
				<path fill="#D4ECFF" d="M231.112,83.736l-3.349-1.934c-0.206-0.119-0.18-0.326,0.058-0.463l3.233-1.867
					c0.237-0.137,0.596-0.152,0.802-0.033l3.349,1.934c0.206,0.119,0.18,0.326-0.058,0.463l-3.233,1.867
					C231.677,83.84,231.317,83.854,231.112,83.736z"/>
				<path fill="#D4ECFF" d="M242.3,90.169l-3.349-1.934c-0.205-0.118-0.18-0.326,0.058-0.463l3.233-1.867
					c0.237-0.137,0.597-0.152,0.802-0.033l3.35,1.933c0.205,0.119,0.18,0.326-0.058,0.463l-3.234,1.867
					C242.864,90.273,242.506,90.288,242.3,90.169z"/>
			</g>
			<path fill="#5793CE" d="M182.145,69.365l0.068,0.04c0.113-0.081,0.218-0.164,0.348-0.239l23.372-13.494
				c1.715-0.991,4.31-1.098,5.795-0.24l57.724,33.46c1.369-0.98,1.44-2.314,0.068-3.107l-57.792-33.5
				c-1.485-0.857-4.08-0.75-5.795,0.241L182.561,66.02C180.846,67.01,180.659,68.508,182.145,69.365z"/>
		</g>
		<g>
			<path fill="#5793CE" d="M227.892,160.352l-64.14-37.031c-1.85-1.067-3.349-3.932-3.349-6.396v-11.751
				c0-2.465,1.499-3.599,3.349-2.531l64.14,37.031c1.849,1.067,3.348,3.932,3.348,6.397v11.75
				C231.239,160.286,229.74,161.419,227.892,160.352z"/>
			<g>
				<path fill="#173D7A" d="M223.04,149.964l-3.015-1.74c-0.402-0.232-0.729-0.857-0.729-1.395v-3.22
					c0-0.537,0.327-0.784,0.729-0.552l3.015,1.74c0.403,0.233,0.729,0.857,0.729,1.395v3.22
					C223.77,149.949,223.443,150.196,223.04,149.964z"/>
				<path fill="#173D7A" d="M212.962,144.145l-3.015-1.74c-0.403-0.233-0.729-0.857-0.729-1.395v-3.219
					c0-0.538,0.326-0.785,0.729-0.552l3.015,1.74c0.402,0.232,0.729,0.856,0.729,1.395v3.219
					C213.691,144.131,213.364,144.378,212.962,144.145z"/>
			</g>
		</g>
		<g>
			<path fill="#5793CE" d="M227.892,202.807l-64.14-37.03c-1.85-1.067-3.349-3.932-3.349-6.397v-11.75
				c0-2.466,1.499-3.599,3.349-2.531l64.14,37.031c1.849,1.068,3.348,3.932,3.348,6.397v11.751
				C231.239,202.741,229.74,203.875,227.892,202.807z"/>
			<g>
				<path fill="#173D7A" d="M223.04,192.419l-3.015-1.74c-0.402-0.232-0.729-0.857-0.729-1.394v-3.22
					c0-0.537,0.327-0.784,0.729-0.552l3.015,1.74c0.403,0.233,0.729,0.857,0.729,1.395v3.22
					C223.77,192.405,223.443,192.652,223.04,192.419z"/>
				<path fill="#D4ECFF" d="M212.962,186.601l-3.015-1.74c-0.403-0.232-0.729-0.857-0.729-1.395v-3.219
					c0-0.538,0.326-0.785,0.729-0.552l3.015,1.74c0.402,0.233,0.729,0.857,0.729,1.394v3.22
					C213.691,186.586,213.364,186.833,212.962,186.601z"/>
			</g>
		</g>
		<g>
			<path fill="#5793CE" d="M227.892,245.263l-64.14-37.03c-1.85-1.068-3.349-3.932-3.349-6.397v-11.75
				c0-2.465,1.499-3.599,3.349-2.531l64.14,37.031c1.849,1.067,3.348,3.932,3.348,6.397v11.75
				C231.239,245.197,229.74,246.33,227.892,245.263z"/>
			<g>
				<path fill="#D4ECFF" d="M223.04,234.875l-3.015-1.74c-0.402-0.232-0.729-0.856-0.729-1.395v-3.219
					c0-0.538,0.327-0.785,0.729-0.552l3.015,1.74c0.403,0.232,0.729,0.856,0.729,1.394v3.221
					C223.77,234.861,223.443,235.107,223.04,234.875z"/>
				<path fill="#173D7A" d="M212.962,229.057l-3.015-1.74c-0.403-0.233-0.729-0.857-0.729-1.395v-3.22
					c0-0.537,0.326-0.784,0.729-0.552l3.015,1.74c0.402,0.232,0.729,0.857,0.729,1.395v3.22
					C213.691,229.042,213.364,229.289,212.962,229.057z"/>
			</g>
		</g>
		<g>
			<path fill="#5793CE" d="M227.892,287.719l-64.14-37.031c-1.85-1.067-3.349-3.932-3.349-6.396V232.54
				c0-2.466,1.499-3.599,3.349-2.531l64.14,37.031c1.849,1.067,3.348,3.932,3.348,6.396v11.751
				C231.239,287.652,229.74,288.786,227.892,287.719z"/>
			<g>
				<path fill="#D4ECFF" d="M223.04,277.331l-3.015-1.74c-0.402-0.233-0.729-0.857-0.729-1.395v-3.22
					c0-0.537,0.327-0.784,0.729-0.552l3.015,1.74c0.403,0.233,0.729,0.857,0.729,1.395v3.22
					C223.77,277.316,223.443,277.563,223.04,277.331z"/>
				<path fill="#D4ECFF" d="M212.962,271.512l-3.015-1.74c-0.403-0.232-0.729-0.856-0.729-1.395v-3.219
					c0-0.538,0.326-0.785,0.729-0.552l3.015,1.74c0.402,0.232,0.729,0.856,0.729,1.394v3.22
					C213.691,271.498,213.364,271.744,212.962,271.512z"/>
			</g>
		</g>
	</g>
	<g>
		<path fill="#173D7A" d="M259.618,160.352l32.858-18.813c1.849-1.067,3.348-3.932,3.348-6.397v-11.75
			c0-2.465-1.499-3.599-3.348-2.531l-32.858,18.813c-1.85,1.067-3.348,3.932-3.348,6.397v11.75
			C256.271,160.286,257.769,161.419,259.618,160.352z"/>
		<path fill="#173D7A" d="M259.618,202.807l32.858-18.813c1.849-1.068,3.348-3.932,3.348-6.397v-11.75
			c0-2.466-1.499-3.599-3.348-2.531l-32.858,18.813c-1.85,1.068-3.348,3.932-3.348,6.397v11.751
			C256.271,202.741,257.769,203.875,259.618,202.807z"/>
		<path fill="#173D7A" d="M259.618,245.263l32.858-18.813c1.849-1.067,3.348-3.932,3.348-6.396v-11.751
			c0-2.465-1.499-3.599-3.348-2.53l-32.858,18.813c-1.85,1.067-3.348,3.932-3.348,6.397v11.75
			C256.271,245.197,257.769,246.33,259.618,245.263z"/>
		<path fill="#173D7A" d="M259.618,287.719l32.858-18.813c1.849-1.067,3.348-3.932,3.348-6.397v-11.75
			c0-2.466-1.499-3.599-3.348-2.531l-32.858,18.813c-1.85,1.067-3.348,3.932-3.348,6.396v11.751
			C256.271,287.652,257.769,288.786,259.618,287.719z"/>
	</g>
</g>
<path opacity="0.5" fill="#173D7A" d="M216.431,135.716l-32.689-22.923c-11.692-8.199-23.456-15.392-35.19-21.563v168.225
	c-0.091,1.24,0.602,2.438,2.127,3.318l25.843,14.735c41.323-7.693,39.91-53.722,39.91-53.722V135.716z"/>
<g>
	<path fill="#E85E00" d="M196.327,231.794v-88.071L163.639,120.8c-16.501-11.571-33.144-21.18-49.645-28.662L81.305,77.314
		l-13.198,7.728l14.605,10.591v68.942c0,0-1.793,56.202,57.512,121.057c7.629,0.466,14.239-0.099,19.98-1.425l-0.983,3.193
		l11.611-6.842c1.002-0.538,1.964-1.105,2.889-1.698l0.165-0.097l-0.01-0.002C197.3,263.613,196.327,231.794,196.327,231.794z"/>
	<path fill="#ED852F" d="M138.75,104.898c-8.264-4.768-16.527-9.029-24.756-12.76L81.305,77.314l-13.198,7.728l14.605,10.591v41.619
		L138.75,104.898z"/>
	<path fill="#FF6600" d="M127.363,98.661l-27.548,15.904l22.691,13.102l27.557-15.909
		C142.501,106.969,134.926,102.597,127.363,98.661z"/>
	<path fill="#F8AB49" d="M183.13,239.521v-88.071l-32.689-22.923c-16.501-11.57-33.144-21.179-49.645-28.662L68.106,85.042v88.071
		c0,0-1.793,56.201,57.512,121.057C184.923,297.794,183.13,239.521,183.13,239.521z"/>
	<path fill="#FF6600" d="M160.345,274.229c-7.135,6.923-17.279,10.378-30.198,10.242c-52.735-59.406-52.199-110.567-52.188-111.043
		l0.005-73.093l18.763,8.509c15.917,7.218,32.085,16.556,48.055,27.755l28.492,19.98v82.945l0.005,0.303
		C173.284,240.038,173.562,261.406,160.345,274.229z"/>
	<g>
		<path fill="#FFFFFF" d="M130.668,197.385c0,1.647,1.156,3.651,2.583,4.474c1.427,0.824,2.583,0.156,2.583-1.491
			s-1.156-3.65-2.583-4.474S130.668,195.738,130.668,197.385z"/>
		<path fill="#FFFFFF" d="M122.356,192.587c0,1.647,1.156,3.65,2.583,4.474s2.583,0.156,2.583-1.492c0-1.647-1.156-3.65-2.583-4.474
			C123.513,190.271,122.356,190.939,122.356,192.587z"/>
		<path fill="#FBD483" d="M114.045,187.788c0,1.647,1.156,3.65,2.583,4.475c1.427,0.823,2.583,0.156,2.583-1.491
			c0-1.647-1.156-3.65-2.583-4.475C115.201,185.474,114.045,186.141,114.045,187.788z"/>
	</g>
</g>
<g>
	<g>
		<g>
			<path fill="#B5B5B5" d="M37.838,287.962l-20.19-11.748c-1.704-0.983-1.49-2.702,0.477-3.838l19.245-11.213
				c1.968-1.136,4.944-1.259,6.648-0.275l20.19,11.747c1.704,0.984,1.49,2.703-0.477,3.839l-19.245,11.212
				C42.519,288.822,39.542,288.945,37.838,287.962z"/>
			<path fill="#173D7A" d="M71.555,250.621L71.555,250.621v-5.072l-26.938-0.016l0.186-0.006c-2.137-1.233-5.87-1.078-8.337,0.346
				l0.798-0.333L10.3,245.525v5.414c-0.061,0.835,0.405,1.641,1.432,2.233l25.321,14.733c2.137,1.233,5.87,1.078,8.337-0.346
				l24.134-14.063C70.948,252.677,71.635,251.612,71.555,250.621z"/>
			<path fill="#396CAA" d="M40.934,244.701c-1.564,0.038-3.187,0.432-4.469,1.172l0.798-0.333L10.3,245.525v5.414
				c-0.061,0.835,0.405,1.641,1.432,2.233l25.321,14.733c1.027,0.593,2.423,0.861,3.869,0.826L40.934,244.701z"/>
			<path fill="#B2D3EA" d="M13.352,245.527l-3.051-0.002v5.414c-0.061,0.835,0.405,1.641,1.432,2.233l1.62,0.936V245.527z"/>
			<path fill="#274F89" d="M37.589,268.168c1.843,0.79,4.509,0.746,6.665-0.076v-7.087h-6.665V268.168z"/>
			<path fill="#D4ECFF" d="M37.053,262.536l-25.321-14.732c-2.137-1.234-1.869-3.39,0.599-4.813l24.134-14.063
				c2.468-1.424,6.2-1.579,8.337-0.345l25.321,14.732c2.137,1.233,1.869,3.389-0.599,4.813L45.39,262.19
				C42.922,263.615,39.19,263.77,37.053,262.536z"/>
		</g>
	</g>
	<g>
		<path fill="#396CAA" d="M36.661,241.883c-1.321,0.754-3.457,0.743-4.77-0.023c-1.313-0.768-1.308-2,0.014-2.754
			c1.321-0.754,3.456-0.744,4.77,0.023C37.987,239.896,37.981,241.129,36.661,241.883z"/>
		<path fill="#396CAA" d="M44.312,246.35c-1.321,0.754-3.456,0.744-4.77-0.023c-1.313-0.767-1.308-1.999,0.013-2.754
			c1.321-0.754,3.457-0.743,4.77,0.023C45.639,244.363,45.633,245.596,44.312,246.35z"/>
		<path fill="#396CAA" d="M51.964,250.818c-1.321,0.754-3.457,0.743-4.77-0.023c-1.313-0.768-1.307-2,0.014-2.754
			s3.456-0.744,4.77,0.023C53.291,248.831,53.285,250.064,51.964,250.818z"/>
	</g>
</g>
<g>
	<path fill="#FF6600" d="M314.154,185.352c0,0-0.529,10.919-1.36,18.258c-0.831,7.339-18.505-5.636-18.505-5.636v-8.355
		L314.154,185.352z"/>
	<g>
		<path fill="#173D7A" d="M304.741,321.211c-0.266,0.664-4.845,6.238-9.424,7.633c-1.991,0.605-3.33,0.685-4.207,0.58
			c-0.881-0.104-1.425-1.012-1.128-1.848c0.788-2.218,3.047-6.839,8.785-9.684C306.533,314.043,304.741,321.211,304.741,321.211z"/>
		<path fill="#173D7A" d="M306.268,323.353c0,0-1.726,4.048-2.257,7.433c-0.323,2.064,0.81,4.747,1.742,6.525
			c0.579,1.103,2.047,1.351,2.97,0.514c1.496-1.358,3.401-3.717,3.717-7.105c0.531-5.707,0-6.702,0-6.702L306.268,323.353z"/>
		<path fill="#FDD762" d="M317.299,254.369c0,0,0.598,7.199,0,15.163s-2.735,45.208-3.134,54.167c0,0,0.199,2.714-5.052,2.116
			c-5.252-0.598-4.828-3.608-4.828-3.608s-7.375-0.1-7.607-4.447c-0.232-4.347-7.554-51.909-7.554-69.009L317.299,254.369z"/>
		<g>
			<polygon fill="#FFC2B0" points="291.662,217.206 287.409,243.219 283.54,243.15 283.896,219.314 			"/>
			<path fill="#DD7224" d="M293.445,194.172c0,0-5.74-0.149-7.738,8.146c-1.998,8.295-3.561,18.682-1.823,19.545
				c5.217,2.591,8.518-0.441,8.518-0.441L293.445,194.172z"/>
			<path fill="#ED852F" d="M291.728,194.524c0.979-0.409,2.078-0.464,3.098-0.171c4.89,1.404,23.276,6.801,26.307,9.391
				c3.501,2.992-5.251,19.808-5.125,25.321c0.127,5.513,0.748,12.013,1.235,18.006c0.486,5.993,1.146,9.279-3.756,11.827
				c-4.902,2.549-13.272,2.666-19.537-2.107c-6.266-4.774-5.129-8.041-4.868-11.507s2.395-18.455,2.209-22.71
				c0,0-2.207-1.626-3.843-4.415c-1.635-2.789,1.253-7.916,2.452-11.249s-0.676-7.144-0.305-9.863
				C289.785,195.646,290.68,194.961,291.728,194.524z"/>
			
				<ellipse transform="matrix(-0.9919 -0.127 0.127 -0.9919 581.0027 439.3403)" fill="#FFFFFF" cx="304.512" cy="201.142" rx="6.964" ry="5.528"/>
			
				<ellipse transform="matrix(-0.9919 -0.127 0.127 -0.9919 581.0195 439.3216)" fill="#FFC2B0" cx="304.513" cy="201.141" rx="4.978" ry="3.951"/>
			<path fill="#FFC2B0" d="M302.285,193.402c0,0,3.319-2.729,3.971-1.347c0.652,1.382,1.189,7.315,1.189,7.315l-6.591,1.771l1-6.011
				C301.854,195.13,300.535,194.012,302.285,193.402z"/>
			<circle fill="#FFC2B0" cx="301.809" cy="186.321" r="9.841"/>
			<path fill="#EA9C92" d="M306.716,193.775c0.059,0.31,0.114,0.642,0.168,0.981c-0.662,3.424-5.786,4.923-5.786,4.923l0.757-4.549
				c0,0-0.621-0.527-0.445-1.054C303.435,193.437,305.986,192.871,306.716,193.775z"/>
			<circle fill="#FFC2B0" cx="301.809" cy="186.321" r="9.841"/>
			<polygon fill="#FFC2B0" points="326.056,227.979 324.954,254.313 321.104,254.711 318.599,231.003 			"/>
			<path fill="#DD7224" d="M313.403,225.777c1.274-5.624,3.791-18.049,3.791-18.049l1.076,12.358
				c-1.242,3.665-2.308,7.028-2.264,8.979c0.074,3.235,0.32,6.813,0.608,10.427v0.011
				C316.615,239.503,312.129,231.4,313.403,225.777z"/>
			<path fill="#F8AB49" d="M320.396,203.204c0,0,3.078,1.177,4.82,10.633c1.743,9.456,3.046,18.929-0.061,20.149
				s-5.702,2.139-6.615-0.391s-1.479-14.717-1.594-19.1S316.666,204.07,320.396,203.204z"/>
		</g>
		<path fill="#D8892B" d="M304.285,322.207c0,0-0.914-0.014-2.107-0.219l0,0l-1.444-57.895L304.285,322.207z"/>
	</g>
	<g>
		<path fill="#E85E00" d="M309.857,290.934l2.049-2.674l21.543-12.474c0.69-0.399,1.25-1.472,1.249-2.393l-0.02-17.638l1.239-1.617
			l-1.164-0.674l-0.001,0.001c-0.223-0.144-0.52-0.14-0.845,0.049l-24.415,14.136c-0.691,0.399-1.25,1.471-1.249,2.393l0.021,19.209
			c0.001,0.518,0.179,0.879,0.457,1.023l0,0L309.857,290.934z"/>
		<path fill="#F8AB49" d="M324.756,280.819l1.53-0.886l8.402-14.594l-0.01-9.584l1.239-1.617l-1.164-0.674l-0.001,0.001
			c-0.223-0.144-0.52-0.14-0.845,0.049l-24.415,14.136c-0.365,0.211-0.692,0.61-0.921,1.076L324.756,280.819z"/>
		<path fill="#D29FFF" d="M335.368,254.855l0.55-0.717l-1.164-0.674l-0.001,0.001c-0.223-0.144-0.52-0.14-0.845,0.049l-0.431,0.249
			L335.368,254.855z"/>
		<path fill="#FF6600" d="M309.271,267.807c-0.542,0.443-0.962,1.282-1.02,2.057l2.386,1.377l1.144-1.985L309.271,267.807z"/>
		<path fill="#E85E00" d="M310.655,268.324l24.416-14.137c0.69-0.399,1.251,0.023,1.252,0.945l0.021,19.208
			c0.001,0.922-0.558,1.993-1.248,2.394l-24.415,14.135c-0.691,0.4-1.252-0.022-1.253-0.944l-0.021-19.208
			C309.406,269.795,309.965,268.724,310.655,268.324z"/>
	</g>
	<path fill="#FFC2B0" d="M324.924,254.094c0,0,1.018,6.146,0.864,8.115s-1.207,5.217-2.007,5.147
		c-0.8-0.068-0.026-7.917-1.431-7.136c-1.405,0.782-1.553,2.123-2.188,1.649s1.109-7.182,0.644-10.091
		C320.341,248.87,324.924,254.094,324.924,254.094z"/>
	<path fill="#FFC2B0" d="M283.54,243.15c0,0-1.018,6.147-0.865,8.117c0.153,1.969,1.207,5.216,2.007,5.147
		c0.8-0.069,0.026-7.918,1.432-7.136c1.404,0.781,1.552,2.123,2.188,1.648c0.636-0.473-1.109-7.182-0.645-10.091
		C288.123,237.928,283.54,243.15,283.54,243.15z"/>
	<path fill="#EA9C92" d="M298.028,187.18c-4.937,1.754-5.897,0.684-5.944,0.626c-0.046-0.298-0.082-0.599-0.1-0.905
		c-0.064-1.09,0.059-2.146,0.328-3.145l12.808-1.729C305.12,182.027,303.098,185.379,298.028,187.18z"/>
	<path fill="#FF6600" d="M291.63,177.096c1.163-0.997,5.361-5.928,12.883-4.764c4.7,0.727,8.663,3.934,9.542,11.248
		c0.592,4.929-1.217,9.783-4.55,13.372c-0.18-0.084-0.366-0.16-0.534-0.271c-1.884-1.24-2.087-1.921-2.087-1.928l-0.416-3.732
		c0.014-0.53,0.41-1.002,0.938-1.035c0.409-0.026,0.905-0.222,1.379-0.84c1.08-1.413,0.581-3.615-1.579-3.698
		c-1.129-0.043-1.566-0.654-1.727-1.227c-0.139-0.5-0.665-0.776-1.152-0.6c-2.458,0.89-8.515,2.807-12.413,1.703
		C286.928,183.911,290.466,178.094,291.63,177.096z"/>
	<path fill="#FFFFFF" d="M297.238,191.625l-3.011-0.827c0,0,1.438,2.261,3.535,2.837c2.099,0.577,2.425-1.2,2.425-1.2
		L297.238,191.625z"/>
	<polygon fill="#D29FFF" points="319.805,261.68 322.37,260.211 321.407,261.784 320.11,262.263 	"/>
</g>
<g>
	<path fill="#B5B5B5" d="M96.275,293.772c-10.56-6.097-27.68-6.097-38.24-0.001c-10.56,6.098-10.56,15.981,0,22.078
		c10.56,6.098,27.681,6.098,38.24,0.001S106.836,299.869,96.275,293.772z M76.5,305.02c-2.715,1.568-7.119,1.568-9.834,0
		c-2.715-1.568-2.715-4.109,0-5.678c2.716-1.568,7.119-1.568,9.834,0S79.216,303.452,76.5,305.02z"/>
	<path fill="#B5B5B5" d="M101.981,310.952c-1.411,1.403-3.152,2.727-5.233,3.928c-2.081,1.202-4.373,2.207-6.803,3.022l5.169,2.983
		l7.79,0.4l3.854,2.226l-1.573,0.908l2.917,1.684l3.146-1.816l5.098,2.943l-5.121,2.957l3.764,2.172l3.65,2.108l4.549-2.627
		l6.741,3.893l-2.573,1.485l4.33,2.501l2.574-1.486l2.032,1.173l-2.047,4.072l6.551,3.781h24.074L101.981,310.952z"/>
</g>
<g>
	<path fill="#E8A200" d="M104.195,302.664v-7.311l-2.154,1.217c-1.317-1.792-3.234-3.472-5.766-4.933
		c-10.56-6.097-27.68-6.097-38.24-0.001c-2.929,1.691-5.042,3.674-6.346,5.786l-1.573-2.069v7.311c-0.005,4,2.634,8,7.919,11.051
		c10.56,6.098,27.681,6.098,38.24,0.001C101.562,310.664,104.201,306.664,104.195,302.664z M76.408,297.9
		c-2.716,1.567-7.119,1.567-9.834,0c-2.715-1.568-2.716-4.11,0-5.678c2.715-1.568,7.119-1.568,9.834,0
		C79.124,293.79,79.124,296.332,76.408,297.9z"/>
	<path fill="#FDD762" d="M74.892,308.428l-11.668-5.752l-10.37-6.85c-0.441,0.522-0.83,1.055-1.165,1.597l-1.573-2.069v7.311
		c-0.005,4,2.634,8,7.919,11.051c4.704,2.716,10.709,4.219,16.856,4.516V308.428z"/>
	<path fill="#FDD762" d="M96.275,284.315c-10.56-6.097-27.68-6.097-38.24-0.001c-10.56,6.097-10.56,15.981,0,22.078
		c10.56,6.098,27.681,6.098,38.24,0.001S106.836,290.412,96.275,284.315z M76.5,295.563c-2.715,1.568-7.119,1.568-9.834,0
		c-2.715-1.567-2.715-4.109,0-5.678c2.716-1.568,7.119-1.568,9.834,0S79.216,293.995,76.5,295.563z"/>
	<path fill="#E8A200" d="M81.806,288.176H67.13c-1.341,0.309-2.647,0.682-3.906,1.119v12.438h18.582V288.176z M76.408,297.9
		c-2.716,1.567-7.119,1.567-9.834,0c-2.715-1.568-2.716-4.11,0-5.678c2.715-1.568,7.119-1.568,9.834,0
		C79.124,293.79,79.124,296.332,76.408,297.9z"/>
	<path fill="#F2B42A" d="M94.009,285.624c-9.308-5.374-24.398-5.374-33.706,0c-9.307,5.374-9.307,14.086,0,19.46
		c9.308,5.374,24.398,5.374,33.706,0C103.316,299.711,103.316,290.998,94.009,285.624z M76.5,295.563
		c-2.715,1.568-7.119,1.568-9.834,0c-2.715-1.567-2.715-4.109,0-5.678c2.716-1.568,7.119-1.568,9.834,0S79.216,293.995,76.5,295.563
		z"/>
	<path fill="#E8A200" d="M60.303,287.643c9.308-5.374,24.398-5.374,33.706,0c4.209,2.43,6.508,5.543,6.91,8.721
		c0.487-3.85-1.812-7.795-6.91-10.739c-9.308-5.374-24.398-5.374-33.706,0c-5.099,2.943-7.397,6.89-6.91,10.739
		C53.795,293.186,56.094,290.072,60.303,287.643z"/>
	<g>
		<path fill="#F2B42A" d="M101.981,308.764c-1.411,1.403-3.152,2.727-5.233,3.928s-4.373,2.207-6.803,3.021l5.169,2.984l7.79,0.4
			l3.854,2.225l-1.573,0.908l2.917,1.684l3.146-1.815l5.098,2.942l-5.121,2.957l3.764,2.173l3.65,2.108l4.549-2.627l6.741,3.892
			l-2.573,1.486l4.33,2.501l2.574-1.486l2.032,1.173l-2.047,4.071l6.551,3.782h24.074L101.981,308.764z"/>
		<path fill="#FDD762" d="M101.981,303.48c-1.411,1.402-3.152,2.726-5.233,3.928c-2.081,1.201-4.373,2.207-6.803,3.021l5.169,2.984
			l7.79,0.4l3.854,2.225l-1.573,0.908l2.917,1.684l3.146-1.815l5.098,2.942l-5.121,2.957l3.764,2.173l3.65,2.107l4.549-2.626
			l6.741,3.892l-2.573,1.486l4.33,2.5l2.574-1.485l2.032,1.173l-2.047,4.071l6.551,3.782h24.074L101.981,303.48z"/>
		<rect x="140.795" y="339.788" fill="#E8A200" width="24.074" height="5.283"/>
		<polygon fill="#E8A200" points="131.685,337.531 131.685,332.247 134.259,330.762 134.259,336.045 		"/>
		<polygon fill="#EEAD00" points="127.354,329.747 127.354,335.03 131.685,337.531 131.685,332.247 		"/>
		<polygon fill="#E8A200" points="123.187,324.369 123.187,329.652 118.638,332.279 118.638,326.995 		"/>
		<polygon fill="#EEAD00" points="111.224,322.715 111.224,327.998 118.638,332.279 118.638,326.995 		"/>
		<polygon fill="#EEAD00" points="134.259,336.045 134.244,341.289 140.795,345.071 140.795,339.788 		"/>
		<polygon fill="#EEAD00" points="108.102,318.631 108.102,323.914 105.185,322.23 105.185,316.947 		"/>
		<polygon fill="#E8A200" points="95.114,313.414 95.114,318.697 102.904,319.098 102.904,313.814 		"/>
		<polygon fill="#E8A200" points="148.44,336.045 102.398,309.439 104.957,307.962 153.529,336.028 		"/>
		<polygon fill="#F2B42A" points="104.957,309.241 151.327,336.035 153.529,336.028 104.957,307.962 102.398,309.438 
			103.506,310.079 		"/>
		<polygon fill="#E8A200" points="95.114,318.697 95.114,313.414 89.945,310.43 89.945,315.713 		"/>
		<polygon fill="#E8A200" points="111.247,316.815 111.247,322.099 108.102,323.914 108.102,318.631 		"/>
	</g>
	<path fill="#FDD762" d="M94.009,285.624c-5.23-3.02-12.287-4.342-19.117-3.968v2.018c6.83-0.373,13.886,0.949,19.117,3.969
		c4.209,2.43,6.508,5.543,6.91,8.721C101.406,292.514,99.107,288.568,94.009,285.624z"/>
</g>
<g>
	<g>
		<g>
			<path fill="#B5B5B5" d="M335.673,164.097l-20.999-12.219c-1.772-1.023-1.55-2.81,0.496-3.992l20.016-11.662
				c2.047-1.182,5.142-1.31,6.914-0.287l21,12.219c1.772,1.023,1.55,2.81-0.497,3.992l-20.016,11.662
				C340.541,164.991,337.445,165.119,335.673,164.097z"/>
			<path fill="#E85E00" d="M369.514,126.214L369.514,126.214v-5.073l-26.938-0.015l0.186-0.006
				c-2.137-1.234-5.869-1.079-8.337,0.346l0.798-0.333l-26.963-0.016v5.415c-0.061,0.835,0.405,1.641,1.433,2.233l25.32,14.732
				c2.137,1.234,5.87,1.079,8.337-0.345l24.135-14.062C368.907,128.269,369.594,127.205,369.514,126.214z"/>
			<path fill="#DD7224" d="M338.893,120.293c-1.563,0.038-3.187,0.432-4.469,1.172l0.798-0.333l-26.963-0.016v5.415
				c-0.061,0.835,0.405,1.641,1.433,2.233l25.32,14.732c1.027,0.593,2.423,0.862,3.869,0.827L338.893,120.293z"/>
			<path fill="#F8AB49" d="M311.311,121.119l-3.052-0.002v5.415c-0.061,0.835,0.405,1.641,1.433,2.233l1.619,0.935V121.119z"/>
			<path fill="#E85E00" d="M335.549,143.761c1.843,0.79,4.509,0.746,6.664-0.076v-7.087h-6.664V143.761z"/>
			<path fill="#FF6600" d="M335.012,138.128l-25.321-14.733c-2.137-1.233-1.868-3.389,0.599-4.813l24.135-14.062
				c2.468-1.425,6.2-1.579,8.337-0.346l25.321,14.733c2.137,1.234,1.869,3.389-0.599,4.813l-24.135,14.062
				C340.882,139.207,337.148,139.362,335.012,138.128z"/>
		</g>
	</g>
	<g>
		<path fill="#FBD483" d="M333.077,117.379c-1.321,0.754-3.456,0.743-4.77-0.023c-1.313-0.767-1.308-2,0.013-2.754
			c1.321-0.754,3.457-0.744,4.771,0.023C334.404,115.392,334.398,116.625,333.077,117.379z"/>
		<path fill="#FFFFFF" d="M340.729,121.847c-1.32,0.754-3.456,0.743-4.77-0.023c-1.313-0.767-1.308-2,0.014-2.754
			c1.32-0.754,3.456-0.744,4.77,0.023C342.056,119.859,342.05,121.093,340.729,121.847z"/>
		<path fill="#FFFFFF" d="M348.381,126.314c-1.321,0.754-3.457,0.743-4.771-0.023c-1.313-0.767-1.307-2,0.014-2.754
			c1.321-0.754,3.456-0.744,4.77,0.023C349.707,124.327,349.701,125.56,348.381,126.314z"/>
	</g>
</g>
</svg>
