<?xml version="1.0" encoding="utf-8"?>
<!-- Generator: Adobe Illustrator 16.0.0, SVG Export Plug-In . SVG Version: 6.00 Build 0)  -->
<!DOCTYPE svg PUBLIC "-//W3C//DTD SVG 1.1//EN" "http://www.w3.org/Graphics/SVG/1.1/DTD/svg11.dtd">
<svg version="1.1" id="Слой_1" xmlns="http://www.w3.org/2000/svg" xmlns:xlink="http://www.w3.org/1999/xlink" x="0px" y="0px"
	 width="365px" height="375px" viewBox="0 0 365 375" enable-background="new 0 0 365 375" xml:space="preserve">
<g>
	<path fill="#D4ECFF" d="M328.196,145.184v85.273c0,2.895-2.032,4.068-4.54,2.621l-115.205-66.514
		c-2.507-1.448-4.54-4.968-4.54-7.863V73.428L328.196,145.184z"/>
</g>
<path fill="#5793CE" d="M229.933,227.716c-0.232,0-0.458-0.12-0.583-0.335c-0.186-0.321-0.075-0.732,0.246-0.919l9.109-5.269
	c1.033-0.596,1.675-1.71,1.675-2.903v-7.048c0-0.371,0.301-0.672,0.672-0.672s0.672,0.301,0.672,0.672v7.048
	c0,1.672-0.899,3.23-2.347,4.067l-9.109,5.269C230.162,227.687,230.047,227.716,229.933,227.716z"/>
<g>
	<g>
		<g>
			<g>
				
					<rect x="222.903" y="223.484" transform="matrix(0.4974 0.8675 -0.8675 0.4974 312.4897 -80.4489)" fill="#5793CE" width="5.546" height="11.968"/>
				<path fill="#5793CE" d="M232.824,227.629c0.004-1.251-0.87-2.773-1.951-3.402c-1.081-0.628-1.96-0.124-1.964,1.127
					c-0.004,1.25,0.87,2.773,1.95,3.401C231.941,229.383,232.82,228.879,232.824,227.629z"/>
			</g>
			<g>
				
					<rect x="209.664" y="226.687" transform="matrix(0.4974 0.8675 -0.8675 0.4974 312.4362 -67.1346)" fill="#5793CE" width="8.986" height="18.77"/>
				<path fill="#396CAA" d="M220.813,229.059l3.513-2.014c1.455,1.041,2.595,3.029,2.76,4.811l-3.514,2.015
					C222.117,232.828,220.979,230.841,220.813,229.059z"/>
				<path fill="#5793CE" d="M225.471,233.248c0.006-2.026-1.409-4.494-3.161-5.513s-3.177-0.201-3.183,1.825
					c-0.006,2.025,1.409,4.494,3.161,5.512C224.039,236.091,225.465,235.273,225.471,233.248z"/>
			</g>
		</g>
	</g>
	<path fill="#D4ECFF" d="M229.549,226.344c0.51-0.291,0.511-0.768,0.004-1.062c-0.508-0.295-1.331-0.298-1.84-0.006
		s-0.511,0.768-0.004,1.063C228.217,226.634,229.04,226.636,229.549,226.344z"/>
</g>
<path fill="#5793CE" d="M89.71,228.864c-0.113,0-0.229-0.029-0.334-0.09l-7.979-4.593c-0.669-0.384-1.063-1.074-1.056-1.846
	s0.417-1.454,1.094-1.825l51.709-28.312c4.763-2.608,7.722-7.602,7.722-13.033v-64.259c0-1.109-0.569-2.11-1.524-2.678
	c-0.953-0.566-2.106-0.589-3.081-0.056l-17.237,9.4c-0.325,0.178-0.733,0.057-0.911-0.269s-0.058-0.733,0.269-0.911l17.237-9.4
	c1.396-0.761,3.045-0.73,4.41,0.08c1.366,0.812,2.182,2.245,2.182,3.833v64.259c0,5.922-3.227,11.369-8.421,14.211L82.08,221.688
	c-0.353,0.194-0.394,0.527-0.396,0.661c-0.001,0.134,0.033,0.467,0.382,0.668l7.979,4.594c0.321,0.184,0.433,0.595,0.247,0.916
	C90.169,228.743,89.942,228.864,89.71,228.864z"/>
<g>
	<g>
		<g>
			<g>
				
					<rect x="114.274" y="116.268" transform="matrix(0.4975 0.8675 -0.8675 0.4975 164.8681 -40.1015)" fill="#5793CE" width="5.545" height="11.968"/>
				<path fill="#5793CE" d="M124.195,120.413c0.004-1.25-0.869-2.773-1.95-3.401c-1.081-0.629-1.961-0.125-1.965,1.126
					c-0.003,1.25,0.87,2.773,1.951,3.402S124.191,121.664,124.195,120.413z"/>
			</g>
			<g>
				
					<rect x="101.035" y="119.472" transform="matrix(0.4975 0.8675 -0.8675 0.4975 164.8119 -26.7899)" fill="#5793CE" width="8.987" height="18.769"/>
				<path fill="#396CAA" d="M112.185,121.844l3.514-2.015c1.454,1.042,2.595,3.029,2.759,4.811l-3.514,2.015
					C113.489,125.612,112.35,123.625,112.185,121.844z"/>
				<path fill="#5793CE" d="M116.842,126.032c0.006-2.026-1.409-4.494-3.161-5.513c-1.752-1.018-3.177-0.201-3.183,1.825
					s1.409,4.494,3.161,5.513C115.411,128.875,116.836,128.059,116.842,126.032z"/>
			</g>
		</g>
	</g>
	<path fill="#D4ECFF" d="M120.921,119.129c0.509-0.292,0.51-0.768,0.003-1.063s-1.331-0.297-1.84-0.005s-0.51,0.767-0.003,1.062
		S120.412,119.421,120.921,119.129z"/>
</g>
<g>
	<g>
		<g>
			<g>
				
					<rect x="88.347" y="222.725" transform="matrix(-0.4975 0.8675 -0.8675 -0.4975 334.8498 263.444)" fill="#5793CE" width="5.545" height="11.968"/>
				<path fill="#5793CE" d="M83.972,226.87c-0.004-1.25,0.869-2.773,1.95-3.401c1.081-0.629,1.961-0.125,1.965,1.126
					c0.003,1.251-0.87,2.773-1.951,3.402C84.854,228.625,83.976,228.121,83.972,226.87z"/>
			</g>
			<g>
				
					<rect x="98.145" y="225.929" transform="matrix(-0.4975 0.8675 -0.8675 -0.4975 357.8291 263.34)" fill="#5793CE" width="8.987" height="18.77"/>
				<path fill="#396CAA" d="M95.982,228.301l-3.514-2.015c-1.454,1.042-2.594,3.03-2.759,4.812l3.514,2.015
					C94.678,232.07,95.817,230.082,95.982,228.301z"/>
				<path fill="#5793CE" d="M91.325,232.489c-0.006-2.026,1.409-4.494,3.161-5.513c1.752-1.018,3.177-0.201,3.183,1.825
					s-1.409,4.494-3.161,5.513S91.331,234.516,91.325,232.489z"/>
			</g>
		</g>
	</g>
	<path fill="#D4ECFF" d="M87.246,225.586c-0.509-0.292-0.51-0.768-0.003-1.063s1.331-0.297,1.84-0.005s0.511,0.768,0.003,1.062
		C88.579,225.875,87.755,225.878,87.246,225.586z"/>
</g>
<g>
	<g>
		<path fill="#D4ECFF" d="M186.567,338.208L71.939,272.027c-3.243-1.872-2.836-5.143,0.908-7.305l78.053-45.049
			c3.744-2.161,9.408-2.396,12.651-0.523l114.628,66.18c3.242,1.873,2.836,5.143-0.908,7.305l-78.054,45.049
			C195.474,339.846,189.81,340.08,186.567,338.208z"/>
		<path fill="#173D7A" d="M280.366,272.972l-15.669-2.069l-101.146-58.396c-3.243-1.871-8.907-1.637-12.651,0.525l-71.671,41.364
			l-9.475-1.251v5.375l0.009,0.002c-0.062,1.242,0.646,2.438,2.176,3.32l114.628,66.181c3.242,1.872,8.906,1.638,12.65-0.524
			l78.054-45.049c2.106-1.217,3.156-2.783,3.095-4.254l0,0V272.972z"/>
		<path fill="#396CAA" d="M204.369,236.072l-7.187-4.148h-79.005l-38.948,22.472l-9.475-1.251v5.375l0.009,0.002
			c-0.062,1.242,0.646,2.438,2.176,3.32l114.628,66.181c1.714,0.989,4.104,1.384,6.528,1.224L204.369,236.072z"/>
		<path fill="#5793CE" d="M73.959,253.699l-4.204-0.555v5.375l0.009,0.002c-0.062,1.242,0.646,2.438,2.176,3.32l2.02,1.166V253.699z
			"/>
		<path fill="#274F89" d="M187.722,328.559c3.073,1.166,7.468,0.912,10.749-0.667V315.9h-10.749V328.559z"/>
		<path fill="#D4ECFF" d="M186.567,322.652l-114.628-66.18c-3.243-1.872-2.836-5.143,0.908-7.305l78.053-45.049
			c3.744-2.161,9.408-2.396,12.651-0.524l114.628,66.181c3.242,1.872,2.836,5.143-0.908,7.305l-78.054,45.049
			C195.474,324.29,189.81,324.525,186.567,322.652z"/>
		<path fill="#FFFFFF" d="M277.271,275.116l-78.054,45.049c-3.744,2.161-9.408,2.396-12.65,0.524L71.939,254.509
			c-1.063-0.613-1.727-1.379-2.016-2.205c-0.508,1.534,0.139,3.085,2.016,4.169l114.628,66.18c3.242,1.873,8.906,1.638,12.65-0.523
			l78.054-45.049c2.517-1.453,3.518-3.406,2.924-5.1C279.826,273.098,278.849,274.205,277.271,275.116z"/>
		<g>
			<path fill="#173D7A" d="M120.692,234.563l-5.187-2.994c-0.417-0.24-0.364-0.66,0.116-0.938l6.122-3.535
				c0.48-0.277,1.208-0.308,1.625-0.067l5.187,2.995c0.416,0.24,0.364,0.66-0.117,0.938l-6.122,3.534
				C121.836,234.773,121.108,234.803,120.692,234.563z"/>
			<path fill="#173D7A" d="M128.701,239.188l-5.187-2.995c-0.416-0.24-0.364-0.66,0.117-0.938l6.122-3.534
				c0.48-0.278,1.208-0.309,1.624-0.068l5.187,2.995c0.417,0.24,0.364,0.66-0.116,0.938l-6.122,3.535
				C129.846,239.397,129.118,239.428,128.701,239.188z"/>
			<path fill="#173D7A" d="M136.711,243.812l-5.187-2.995c-0.416-0.24-0.364-0.66,0.117-0.938l6.121-3.534
				c0.481-0.278,1.209-0.308,1.625-0.067l5.187,2.994c0.416,0.24,0.364,0.66-0.117,0.938l-6.121,3.535
				C137.854,244.021,137.128,244.052,136.711,243.812z"/>
			<path fill="#173D7A" d="M147.788,239.992l-5.186-2.994c-0.417-0.24-0.364-0.66,0.116-0.938l5.139-2.968
				c0.481-0.277,1.208-0.308,1.625-0.067l5.187,2.994c0.416,0.241,0.364,0.661-0.117,0.938l-5.139,2.967
				C148.933,240.203,148.205,240.232,147.788,239.992z"/>
			<path fill="#173D7A" d="M155.798,244.617l-5.187-2.995c-0.416-0.24-0.364-0.66,0.117-0.938l5.139-2.968
				c0.48-0.277,1.208-0.307,1.625-0.066l5.186,2.994c0.417,0.24,0.364,0.66-0.116,0.938l-5.139,2.967
				C156.941,244.827,156.215,244.857,155.798,244.617z"/>
			<path fill="#173D7A" d="M163.808,249.241l-5.187-2.995c-0.417-0.24-0.364-0.66,0.116-0.938l5.14-2.967
				c0.48-0.277,1.208-0.309,1.624-0.067l5.187,2.994c0.417,0.24,0.364,0.66-0.116,0.938l-5.14,2.967
				C164.951,249.451,164.224,249.481,163.808,249.241z"/>
			<path fill="#173D7A" d="M171.816,253.865l-5.186-2.994c-0.417-0.24-0.364-0.66,0.116-0.938l5.139-2.967
				c0.481-0.277,1.208-0.308,1.625-0.067l5.187,2.994c0.416,0.24,0.364,0.66-0.117,0.938l-5.139,2.967
				C172.961,254.075,172.233,254.105,171.816,253.865z"/>
			<path fill="#173D7A" d="M179.826,258.489l-5.187-2.994c-0.416-0.24-0.364-0.66,0.117-0.938l5.139-2.967
				c0.48-0.277,1.208-0.308,1.624-0.067l5.187,2.995c0.417,0.24,0.364,0.66-0.116,0.938l-5.139,2.967
				C180.97,258.7,180.242,258.729,179.826,258.489z"/>
			<path fill="#173D7A" d="M187.836,263.113l-5.187-2.994c-0.417-0.24-0.364-0.66,0.116-0.938l5.139-2.967
				c0.481-0.278,1.209-0.309,1.625-0.068l5.187,2.995c0.417,0.24,0.364,0.66-0.116,0.938l-5.14,2.968
				C188.979,263.324,188.252,263.354,187.836,263.113z"/>
			<path fill="#173D7A" d="M195.845,267.738l-5.187-2.994c-0.416-0.241-0.363-0.661,0.117-0.938l5.139-2.967
				c0.481-0.278,1.208-0.308,1.625-0.067l5.187,2.994c0.416,0.24,0.364,0.66-0.117,0.938l-5.139,2.968
				C196.989,267.948,196.262,267.979,195.845,267.738z"/>
			<path fill="#173D7A" d="M203.854,272.362l-5.187-2.995c-0.416-0.24-0.364-0.66,0.117-0.938l5.139-2.967
				c0.48-0.277,1.208-0.308,1.625-0.067l5.186,2.994c0.417,0.241,0.364,0.661-0.116,0.938l-5.139,2.967
				C204.998,272.572,204.271,272.603,203.854,272.362z"/>
			<path fill="#173D7A" d="M211.864,276.986l-5.187-2.994c-0.417-0.24-0.364-0.66,0.116-0.938l5.14-2.967
				c0.48-0.277,1.208-0.308,1.624-0.067l5.187,2.994c0.417,0.241,0.364,0.661-0.116,0.938l-5.14,2.967
				C213.008,277.197,212.28,277.227,211.864,276.986z"/>
			<path fill="#173D7A" d="M219.873,281.611l-5.186-2.995c-0.417-0.24-0.364-0.66,0.116-0.938l5.139-2.967
				c0.481-0.277,1.208-0.308,1.625-0.066l5.187,2.994c0.416,0.24,0.364,0.66-0.117,0.938l-5.139,2.967
				C221.018,281.821,220.29,281.852,219.873,281.611z"/>
			<path fill="#396CAA" d="M159.59,237.803l-5.187-2.994c-0.416-0.24-0.364-0.66,0.117-0.938l5.139-2.967
				c0.48-0.278,1.208-0.309,1.624-0.068l5.187,2.995c0.417,0.24,0.364,0.66-0.116,0.938l-5.139,2.968
				C160.733,238.014,160.006,238.043,159.59,237.803z"/>
			<path fill="#396CAA" d="M151.461,233.109l-5.187-2.994c-0.416-0.24-0.364-0.66,0.116-0.938l5.14-2.967
				c0.48-0.278,1.208-0.309,1.624-0.068l5.187,2.995c0.417,0.24,0.364,0.66-0.116,0.938l-5.139,2.968
				C152.604,233.32,151.877,233.351,151.461,233.109z"/>
			<path fill="#173D7A" d="M143.318,228.409l-11.17-6.449c-0.416-0.241-0.364-0.661,0.116-0.938l5.14-2.967
				c0.48-0.277,1.208-0.308,1.624-0.067l11.171,6.449c0.416,0.24,0.364,0.66-0.117,0.938l-5.139,2.967
				C144.463,228.619,143.735,228.649,143.318,228.409z"/>
			<path fill="#173D7A" d="M149.01,222.691l-9.064-5.233c-0.417-0.24-0.364-0.66,0.116-0.938l5.139-2.967
				c0.481-0.278,1.209-0.308,1.625-0.067l9.065,5.233c0.416,0.24,0.364,0.66-0.117,0.938l-5.139,2.967
				C150.154,222.902,149.427,222.933,149.01,222.691z"/>
			<path fill="#396CAA" d="M167.6,242.428l-5.187-2.995c-0.417-0.24-0.364-0.66,0.116-0.938l5.14-2.967
				c0.48-0.278,1.208-0.308,1.624-0.067l5.187,2.994c0.417,0.24,0.364,0.66-0.116,0.938l-5.14,2.967
				C168.743,242.638,168.016,242.668,167.6,242.428z"/>
			<path fill="#173D7A" d="M175.608,247.052l-5.186-2.995c-0.417-0.24-0.364-0.66,0.116-0.938l5.139-2.967
				c0.481-0.277,1.208-0.308,1.625-0.067l5.187,2.994c0.416,0.241,0.364,0.661-0.117,0.938l-5.139,2.967
				C176.753,247.262,176.025,247.292,175.608,247.052z"/>
			<path fill="#173D7A" d="M183.618,251.676l-5.187-2.994c-0.416-0.24-0.364-0.66,0.117-0.938l5.139-2.967
				c0.48-0.277,1.208-0.308,1.625-0.067l5.186,2.994c0.417,0.24,0.364,0.661-0.116,0.938l-5.139,2.967
				C184.762,251.887,184.035,251.916,183.618,251.676z"/>
			<path fill="#173D7A" d="M191.628,256.3l-5.187-2.994c-0.417-0.24-0.364-0.66,0.116-0.938l5.14-2.967
				c0.48-0.277,1.208-0.308,1.624-0.066l5.187,2.994c0.416,0.24,0.364,0.66-0.116,0.938l-5.14,2.967
				C192.771,256.51,192.044,256.541,191.628,256.3z"/>
			<path fill="#173D7A" d="M199.637,260.924l-5.186-2.994c-0.417-0.24-0.364-0.66,0.116-0.938l5.139-2.967
				c0.481-0.278,1.208-0.309,1.625-0.067l5.187,2.994c0.416,0.24,0.364,0.66-0.117,0.938l-5.139,2.967
				C200.781,261.135,200.054,261.165,199.637,260.924z"/>
			<path fill="#173D7A" d="M207.646,265.549l-5.187-2.994c-0.416-0.241-0.364-0.661,0.117-0.938l5.139-2.967
				c0.48-0.277,1.208-0.308,1.624-0.067l5.187,2.994c0.417,0.24,0.364,0.66-0.116,0.938l-5.139,2.967
				C208.79,265.759,208.063,265.789,207.646,265.549z"/>
			<path fill="#173D7A" d="M215.656,270.173l-5.187-2.994c-0.417-0.241-0.364-0.661,0.116-0.938l5.139-2.967
				c0.481-0.277,1.209-0.308,1.625-0.067l5.187,2.994c0.417,0.241,0.364,0.661-0.116,0.938l-5.14,2.967
				C216.8,270.383,216.072,270.413,215.656,270.173z"/>
			<path fill="#173D7A" d="M223.665,274.797l-5.186-2.994c-0.417-0.24-0.364-0.66,0.116-0.938l5.139-2.968
				c0.481-0.277,1.208-0.308,1.625-0.067l5.187,2.995c0.416,0.24,0.364,0.66-0.117,0.938l-5.139,2.967
				C224.81,275.008,224.082,275.037,223.665,274.797z"/>
			<path fill="#173D7A" d="M231.675,279.422l-5.187-2.995c-0.416-0.24-0.364-0.66,0.117-0.938l5.139-2.968
				c0.48-0.277,1.208-0.307,1.625-0.066l5.186,2.994c0.417,0.24,0.364,0.66-0.116,0.938l-5.139,2.967
				C232.818,279.632,232.092,279.662,231.675,279.422z"/>
			<path fill="#173D7A" d="M245.914,287.643l-11.316-6.534c-0.417-0.24-0.364-0.66,0.116-0.938l5.14-2.967
				c0.48-0.278,1.208-0.308,1.624-0.067l11.316,6.533c0.417,0.24,0.364,0.66-0.116,0.938l-5.139,2.968
				C247.058,287.853,246.33,287.883,245.914,287.643z"/>
			<path fill="#173D7A" d="M261.507,278.64l-9.551-5.515c-0.417-0.24-0.364-0.66,0.116-0.938l5.139-2.967
				c0.481-0.277,1.209-0.308,1.625-0.067l9.552,5.515c0.416,0.24,0.364,0.66-0.117,0.938l-5.139,2.967
				C262.651,278.85,261.924,278.88,261.507,278.64z"/>
			<path fill="#173D7A" d="M181.626,241.522l-5.187-2.994c-0.417-0.24-0.364-0.661,0.116-0.938l5.139-2.967
				c0.481-0.277,1.209-0.308,1.625-0.067l5.187,2.995c0.416,0.24,0.364,0.66-0.116,0.938l-5.14,2.967
				C182.77,241.732,182.042,241.763,181.626,241.522z"/>
			<path fill="#173D7A" d="M173.417,236.783l-5.187-2.994c-0.416-0.24-0.364-0.66,0.116-0.938l5.14-2.967
				c0.48-0.277,1.208-0.308,1.624-0.067l5.187,2.994c0.417,0.241,0.364,0.661-0.116,0.938l-5.139,2.967
				C174.561,236.994,173.833,237.023,173.417,236.783z"/>
			<path fill="#396CAA" d="M165.208,232.044l-5.187-2.994c-0.416-0.241-0.364-0.661,0.117-0.938l5.139-2.967
				c0.48-0.277,1.208-0.308,1.625-0.067l5.187,2.995c0.416,0.24,0.364,0.66-0.117,0.938l-5.139,2.967
				C166.353,232.254,165.625,232.284,165.208,232.044z"/>
			<path fill="#173D7A" d="M157,227.305l-5.187-2.994c-0.417-0.24-0.364-0.66,0.116-0.938l5.139-2.967
				c0.481-0.277,1.209-0.308,1.625-0.067l5.187,2.994c0.416,0.24,0.364,0.66-0.117,0.938l-5.139,2.967
				C158.144,227.515,157.416,227.545,157,227.305z"/>
			<path fill="#173D7A" d="M189.635,246.146l-5.187-2.994c-0.416-0.24-0.364-0.66,0.117-0.938l5.139-2.967
				c0.48-0.278,1.208-0.309,1.625-0.068l5.187,2.995c0.416,0.24,0.364,0.66-0.117,0.938l-5.139,2.967
				C190.779,246.357,190.052,246.387,189.635,246.146z"/>
			<path fill="#173D7A" d="M197.645,250.771l-5.187-2.994c-0.416-0.241-0.364-0.661,0.116-0.938l5.14-2.967
				c0.48-0.278,1.208-0.308,1.624-0.067l5.187,2.994c0.417,0.24,0.364,0.66-0.116,0.938l-5.139,2.968
				C198.788,250.981,198.061,251.012,197.645,250.771z"/>
			<path fill="#173D7A" d="M205.654,255.396l-5.187-2.995c-0.417-0.24-0.364-0.66,0.116-0.938l5.139-2.967
				c0.481-0.277,1.209-0.308,1.625-0.067l5.187,2.994c0.416,0.241,0.364,0.661-0.116,0.938l-5.14,2.967
				C206.798,255.605,206.07,255.636,205.654,255.396z"/>
			<path fill="#173D7A" d="M213.663,260.02l-5.187-2.994c-0.416-0.24-0.364-0.66,0.117-0.938l5.139-2.967
				c0.48-0.277,1.208-0.308,1.625-0.067l5.187,2.994c0.416,0.241,0.364,0.661-0.117,0.938l-5.139,2.967
				C214.808,260.229,214.08,260.26,213.663,260.02z"/>
			<path fill="#173D7A" d="M221.673,264.644l-5.187-2.994c-0.416-0.24-0.364-0.66,0.117-0.938l5.139-2.967
				c0.48-0.277,1.208-0.308,1.624-0.066l5.187,2.994c0.417,0.24,0.364,0.66-0.116,0.938l-5.139,2.967
				C222.816,264.854,222.089,264.885,221.673,264.644z"/>
			<path fill="#173D7A" d="M229.683,269.268l-5.187-2.994c-0.417-0.24-0.364-0.66,0.116-0.938l5.139-2.967
				c0.481-0.278,1.209-0.309,1.625-0.068l5.187,2.995c0.416,0.24,0.364,0.66-0.117,0.938l-5.139,2.968
				C230.826,269.479,230.099,269.509,229.683,269.268z"/>
			<path fill="#173D7A" d="M237.691,273.893l-5.187-2.994c-0.416-0.241-0.364-0.661,0.117-0.938l5.139-2.967
				c0.481-0.278,1.208-0.308,1.625-0.067l5.187,2.994c0.416,0.24,0.364,0.66-0.117,0.938l-5.139,2.967
				C238.836,274.103,238.108,274.133,237.691,273.893z"/>
			<path fill="#173D7A" d="M245.701,278.517l-5.187-2.994c-0.416-0.241-0.364-0.661,0.117-0.938l5.139-2.967
				c0.48-0.277,1.208-0.308,1.624-0.067l5.187,2.994c0.417,0.241,0.364,0.661-0.116,0.938l-5.139,2.967
				C246.845,278.727,246.117,278.757,245.701,278.517z"/>
			<path fill="#173D7A" d="M253.711,283.141l-5.187-2.994c-0.417-0.24-0.364-0.66,0.116-0.938l5.139-2.968
				c0.481-0.277,1.209-0.308,1.625-0.067l5.187,2.994c0.416,0.241,0.364,0.661-0.116,0.938l-5.14,2.967
				C254.854,283.352,254.127,283.381,253.711,283.141z"/>
			<path fill="#173D7A" d="M177.408,230.085l-5.187-2.995c-0.416-0.24-0.364-0.66,0.116-0.938l5.14-2.967
				c0.48-0.277,1.208-0.308,1.624-0.067l5.187,2.994c0.417,0.24,0.364,0.661-0.116,0.938l-5.139,2.967
				C178.552,230.295,177.824,230.325,177.408,230.085z"/>
			<path fill="#173D7A" d="M169.438,225.483l-5.187-2.994c-0.416-0.24-0.364-0.66,0.117-0.938l5.139-2.967
				c0.48-0.277,1.208-0.308,1.624-0.067l5.187,2.995c0.417,0.24,0.364,0.66-0.116,0.938l-5.139,2.967
				C170.582,225.693,169.855,225.724,169.438,225.483z"/>
			<path fill="#173D7A" d="M161.469,220.883l-5.187-2.995c-0.416-0.24-0.364-0.66,0.117-0.938l5.139-2.968
				c0.48-0.277,1.208-0.308,1.625-0.066l5.187,2.994c0.416,0.24,0.363,0.66-0.117,0.938l-5.139,2.967
				C162.613,221.093,161.886,221.123,161.469,220.883z"/>
			<path fill="#173D7A" d="M153.499,216.281l-5.187-2.994c-0.416-0.241-0.364-0.661,0.117-0.938l5.139-2.967
				c0.48-0.278,1.208-0.308,1.625-0.067l5.187,2.994c0.416,0.24,0.364,0.66-0.117,0.938l-5.139,2.967
				C154.644,216.491,153.916,216.521,153.499,216.281z"/>
			<path fill="#173D7A" d="M161.694,211.55l-5.187-2.995c-0.416-0.24-0.364-0.66,0.117-0.938l1.698-0.98
				c0.481-0.278,1.209-0.309,1.625-0.068l5.187,2.995c0.416,0.24,0.364,0.66-0.117,0.938l-1.698,0.98
				C162.838,211.76,162.111,211.79,161.694,211.55z"/>
			<path fill="#173D7A" d="M172.095,217.555l-5.187-2.995c-0.416-0.24-0.364-0.66,0.117-0.938l1.698-0.981
				c0.481-0.277,1.208-0.308,1.625-0.066l5.187,2.994c0.416,0.24,0.364,0.66-0.117,0.938l-1.698,0.98
				C173.238,217.765,172.512,217.795,172.095,217.555z"/>
			<path fill="#173D7A" d="M180.031,222.137l-5.187-2.995c-0.416-0.24-0.364-0.66,0.116-0.938l1.699-0.981
				c0.48-0.277,1.208-0.308,1.625-0.066l5.187,2.994c0.416,0.24,0.364,0.66-0.117,0.938l-1.698,0.98
				C181.175,222.347,180.447,222.377,180.031,222.137z"/>
			<path fill="#173D7A" d="M187.968,226.719l-5.187-2.995c-0.417-0.24-0.364-0.66,0.116-0.938l1.699-0.981
				c0.48-0.277,1.208-0.308,1.625-0.066l5.186,2.994c0.417,0.24,0.364,0.66-0.116,0.938l-1.699,0.98
				C189.111,226.929,188.384,226.959,187.968,226.719z"/>
			<path fill="#173D7A" d="M195.904,231.301l-5.187-2.995c-0.417-0.24-0.364-0.66,0.116-0.938l1.699-0.981
				c0.48-0.277,1.208-0.308,1.624-0.066l5.187,2.994c0.417,0.24,0.364,0.66-0.116,0.938l-1.699,0.981
				C197.048,231.511,196.32,231.541,195.904,231.301z"/>
			<path fill="#173D7A" d="M240.212,256.881l-5.187-2.994c-0.417-0.24-0.364-0.66,0.116-0.938l1.699-0.98
				c0.48-0.278,1.208-0.309,1.624-0.068l5.187,2.995c0.417,0.24,0.364,0.66-0.116,0.938l-1.699,0.981
				C241.355,257.092,240.628,257.122,240.212,256.881z"/>
			<path fill="#173D7A" d="M248.148,261.463l-5.187-2.994c-0.417-0.24-0.364-0.66,0.116-0.938l1.699-0.98
				c0.48-0.278,1.208-0.309,1.624-0.068l5.187,2.995c0.417,0.24,0.364,0.66-0.116,0.938l-1.699,0.981
				C249.292,261.674,248.564,261.704,248.148,261.463z"/>
			<path fill="#173D7A" d="M256.084,266.046l-5.186-2.995c-0.417-0.24-0.364-0.66,0.116-0.938l1.698-0.98
				c0.481-0.278,1.209-0.309,1.625-0.068l5.187,2.995c0.416,0.24,0.364,0.66-0.116,0.938l-1.699,0.98
				C257.229,266.256,256.501,266.286,256.084,266.046z"/>
			<path fill="#173D7A" d="M264.021,270.628l-5.187-2.995c-0.416-0.24-0.364-0.66,0.117-0.938l1.698-0.98
				c0.481-0.278,1.209-0.309,1.625-0.068l5.187,2.995c0.416,0.24,0.364,0.66-0.116,0.938l-1.699,0.981
				C265.165,270.838,264.438,270.868,264.021,270.628z"/>
			<path fill="#173D7A" d="M185.418,234.709l-5.187-2.994c-0.417-0.24-0.364-0.66,0.116-0.938l5.139-2.968
				c0.481-0.277,1.209-0.308,1.625-0.067l5.187,2.994c0.416,0.24,0.364,0.66-0.116,0.938l-5.14,2.967
				C186.562,234.919,185.834,234.949,185.418,234.709z"/>
			<path fill="#173D7A" d="M193.427,239.333l-5.187-2.994c-0.416-0.24-0.364-0.66,0.117-0.938l5.139-2.967
				c0.48-0.277,1.208-0.308,1.625-0.067l5.187,2.995c0.416,0.24,0.364,0.66-0.117,0.938l-5.139,2.967
				C194.57,239.543,193.844,239.574,193.427,239.333z"/>
			<path fill="#173D7A" d="M201.437,243.957l-5.187-2.994c-0.416-0.24-0.364-0.66,0.117-0.938l5.139-2.967
				c0.48-0.278,1.208-0.309,1.624-0.067l5.187,2.994c0.417,0.24,0.364,0.66-0.116,0.938l-5.139,2.967
				C202.58,244.168,201.853,244.198,201.437,243.957z"/>
			<path fill="#173D7A" d="M209.446,248.582l-5.187-2.994c-0.417-0.241-0.364-0.661,0.116-0.938l5.139-2.967
				c0.481-0.278,1.209-0.308,1.625-0.067l5.187,2.994c0.416,0.24,0.364,0.66-0.117,0.938l-5.139,2.968
				C210.59,248.792,209.862,248.822,209.446,248.582z"/>
			<path fill="#173D7A" d="M217.455,253.206l-5.187-2.994c-0.416-0.241-0.364-0.661,0.117-0.938l5.139-2.967
				c0.48-0.277,1.208-0.308,1.625-0.067l5.187,2.994c0.416,0.241,0.364,0.661-0.117,0.938l-5.139,2.967
				C218.6,253.416,217.872,253.446,217.455,253.206z"/>
			<path fill="#173D7A" d="M225.465,257.83l-5.187-2.994c-0.416-0.24-0.364-0.66,0.116-0.938l5.14-2.968
				c0.48-0.277,1.208-0.308,1.624-0.067l5.187,2.994c0.417,0.241,0.364,0.661-0.116,0.938l-5.139,2.967
				C226.608,258.041,225.881,258.07,225.465,257.83z"/>
			<path fill="#173D7A" d="M233.475,262.455l-5.187-2.995c-0.417-0.24-0.364-0.66,0.116-0.938l5.139-2.968
				c0.481-0.277,1.209-0.307,1.625-0.066l5.187,2.994c0.416,0.24,0.364,0.66-0.116,0.938l-5.14,2.967
				C234.618,262.665,233.891,262.695,233.475,262.455z"/>
			<path fill="#173D7A" d="M241.483,267.079l-5.187-2.995c-0.416-0.24-0.364-0.66,0.117-0.938l5.139-2.967
				c0.48-0.277,1.208-0.308,1.625-0.067l5.187,2.994c0.416,0.24,0.364,0.66-0.117,0.938l-5.139,2.967
				C242.628,267.289,241.9,267.319,241.483,267.079z"/>
			<path fill="#173D7A" d="M249.493,271.703l-5.187-2.994c-0.416-0.24-0.364-0.66,0.116-0.938l5.14-2.967
				c0.48-0.277,1.208-0.308,1.624-0.067l5.187,2.994c0.417,0.24,0.364,0.66-0.116,0.938l-5.139,2.967
				C250.637,271.913,249.909,271.943,249.493,271.703z"/>
			<path fill="#173D7A" d="M139.626,235.28l-15.274-8.819c-0.416-0.24-0.364-0.66,0.117-0.938l5.139-2.967
				c0.48-0.278,1.208-0.309,1.624-0.068l15.275,8.819c0.416,0.24,0.364,0.66-0.117,0.938l-5.139,2.967
				C140.771,235.49,140.043,235.521,139.626,235.28z"/>
			<path fill="#173D7A" d="M238.024,292.09l-15.274-8.818c-0.417-0.24-0.364-0.66,0.116-0.938l5.139-2.967
				c0.481-0.277,1.208-0.308,1.625-0.067l15.274,8.818c0.417,0.241,0.364,0.661-0.116,0.938l-5.14,2.967
				C239.168,292.301,238.44,292.33,238.024,292.09z"/>
			<path fill="#173D7A" d="M205.993,283.812l-5.187-2.994c-0.416-0.24-0.364-0.661,0.117-0.938l6.121-3.534
				c0.481-0.277,1.209-0.308,1.625-0.067l5.187,2.994c0.416,0.24,0.364,0.66-0.116,0.938l-6.122,3.534
				C207.137,284.021,206.41,284.052,205.993,283.812z"/>
			<path fill="#173D7A" d="M147.828,250.23l-8.294-4.789c-0.417-0.24-0.364-0.66,0.116-0.938l6.122-3.534
				c0.48-0.277,1.208-0.308,1.625-0.067l8.294,4.789c0.417,0.24,0.364,0.66-0.116,0.938l-6.122,3.534
				C148.973,250.44,148.245,250.471,147.828,250.23z"/>
			<path fill="#173D7A" d="M198.276,279.355l-8.295-4.788c-0.416-0.241-0.364-0.661,0.117-0.938l6.121-3.534
				c0.481-0.278,1.208-0.308,1.625-0.067l8.295,4.789c0.416,0.24,0.364,0.66-0.117,0.938l-6.122,3.535
				C199.42,279.566,198.692,279.597,198.276,279.355z"/>
			<path fill="#173D7A" d="M159.385,256.902l-8.295-4.789c-0.416-0.24-0.364-0.66,0.117-0.938l6.121-3.534
				c0.481-0.277,1.208-0.308,1.625-0.067l8.295,4.789c0.416,0.24,0.363,0.66-0.117,0.938l-6.122,3.534
				C160.528,257.112,159.801,257.143,159.385,256.902z"/>
			<path fill="#173D7A" d="M159.01,247.605l36.062,20.82c0.448,0.259,0.448,0.678,0,0.936l-6.242,3.604
				c-0.447,0.259-1.173,0.259-1.62,0l-36.063-20.82L159.01,247.605z"/>
			<path fill="#173D7A" d="M228.379,292.195l5.776,3.336c0.342,0.197,0.299,0.541-0.096,0.769l-2.504,1.446
				c-0.395,0.228-0.99,0.252-1.332,0.055l-5.776-3.335c-0.342-0.197-0.299-0.542,0.096-0.769l2.504-1.446
				C227.44,292.023,228.037,291.999,228.379,292.195z"/>
			<path fill="#173D7A" d="M220.303,287.533l5.777,3.336c0.341,0.197,0.298,0.541-0.096,0.769l-2.505,1.445
				c-0.394,0.228-0.99,0.253-1.331,0.056l-5.777-3.336c-0.342-0.197-0.299-0.541,0.096-0.769l2.504-1.446
				C219.365,287.361,219.961,287.336,220.303,287.533z"/>
			<path fill="#173D7A" d="M212.293,282.909l5.777,3.335c0.342,0.197,0.299,0.542-0.096,0.77l-2.504,1.445
				c-0.395,0.228-0.99,0.252-1.332,0.055l-5.777-3.335c-0.341-0.196-0.298-0.541,0.096-0.769l2.505-1.446
				C211.355,282.736,211.952,282.712,212.293,282.909z"/>
			<path fill="#173D7A" d="M224.726,284.979l5.777,3.335c0.341,0.197,0.298,0.542-0.096,0.77l-2.504,1.445
				c-0.395,0.228-0.991,0.252-1.332,0.056l-5.777-3.336c-0.341-0.196-0.299-0.541,0.096-0.769l2.504-1.445
				C223.788,284.807,224.385,284.782,224.726,284.979z"/>
		</g>
	</g>
</g>
<g>
	<g>
		<path fill="#FF6600" d="M318.589,151.023v85.273c0,2.895-2.032,4.068-4.54,2.621l-115.205-66.514
			c-2.507-1.448-4.54-4.968-4.54-7.863V79.268L318.589,151.023z"/>
	</g>
</g>
<g>
	<g>
		<g>
			<g>
				<g>
					<path fill="#396CAA" d="M308.897,160.449v85.272c0,2.896-2.032,4.069-4.54,2.621l-115.204-66.514
						c-2.508-1.447-4.54-4.968-4.54-7.863V88.693L308.897,160.449z"/>
				</g>
				<g>
					<path fill="#396CAA" d="M184.613,71.757v16.937l124.284,71.756v-16.937c0-2.895-2.032-6.415-4.54-7.863L189.153,69.136
						C186.646,67.688,184.613,68.862,184.613,71.757z M297.01,137.026c0-1.195,0.839-1.68,1.875-1.082
						c1.035,0.598,1.875,2.052,1.875,3.247s-0.84,1.681-1.875,1.083C297.849,139.676,297.01,138.222,297.01,137.026z
						 M291.815,134.028c0-1.196,0.84-1.68,1.875-1.083c1.036,0.598,1.875,2.052,1.875,3.248s-0.839,1.68-1.875,1.083
						C292.655,136.678,291.815,135.224,291.815,134.028z M280.499,127.494c0-1.196,0.839-1.681,1.875-1.083
						c1.035,0.598,1.875,2.052,1.875,3.248c0,1.195-0.84,1.68-1.875,1.082C281.338,130.144,280.499,128.69,280.499,127.494z
						 M275.305,124.495c0-1.195,0.84-1.68,1.875-1.082c1.036,0.598,1.875,2.052,1.875,3.247c0,1.196-0.839,1.681-1.875,1.083
						C276.145,127.145,275.305,125.691,275.305,124.495z M263.988,117.962c0-1.196,0.839-1.681,1.875-1.083
						c1.035,0.598,1.875,2.052,1.875,3.248s-0.84,1.68-1.875,1.083C264.827,120.611,263.988,119.157,263.988,117.962z
						 M258.794,114.963c0-1.195,0.84-1.681,1.875-1.083c1.036,0.598,1.875,2.052,1.875,3.248s-0.839,1.68-1.875,1.082
						C259.634,117.612,258.794,116.158,258.794,114.963z M247.478,108.429c0-1.195,0.839-1.68,1.875-1.082
						c1.035,0.598,1.875,2.052,1.875,3.247c0,1.196-0.84,1.681-1.875,1.083C248.316,111.079,247.478,109.625,247.478,108.429z
						 M242.283,105.431c0-1.196,0.84-1.681,1.875-1.083c1.036,0.598,1.875,2.051,1.875,3.248c0,1.195-0.839,1.68-1.875,1.082
						C243.123,108.08,242.283,106.626,242.283,105.431z M230.967,98.896c0-1.195,0.839-1.68,1.875-1.082
						c1.035,0.598,1.875,2.052,1.875,3.247s-0.84,1.68-1.875,1.083C231.806,101.546,230.967,100.092,230.967,98.896z
						 M225.773,95.898c0-1.196,0.839-1.68,1.874-1.083c1.036,0.598,1.875,2.052,1.875,3.248s-0.839,1.68-1.875,1.083
						C226.612,98.548,225.773,97.094,225.773,95.898z M214.456,89.364c0-1.196,0.839-1.681,1.875-1.083
						c1.035,0.598,1.875,2.052,1.875,3.248c0,1.195-0.84,1.68-1.875,1.082C215.295,92.014,214.456,90.56,214.456,89.364z
						 M209.262,86.365c0-1.195,0.84-1.68,1.875-1.082c1.036,0.598,1.875,2.052,1.875,3.247c0,1.196-0.839,1.681-1.875,1.083
						C210.102,89.015,209.262,87.561,209.262,86.365z M197.945,79.832c0-1.196,0.84-1.681,1.875-1.083
						c1.035,0.598,1.875,2.052,1.875,3.248c0,1.195-0.84,1.68-1.875,1.082S197.945,81.027,197.945,79.832z M192.752,76.833
						c0-1.195,0.839-1.68,1.874-1.082c1.036,0.598,1.875,2.051,1.875,3.247s-0.839,1.68-1.875,1.083
						C193.591,79.482,192.752,78.029,192.752,76.833z"/>
				</g>
				<g>
					<path fill="#E83B1F" d="M203.503,93.833l86.505,49.944c0.687,0.396,1.243-0.024,1.243-0.94l0,0
						c0-0.915-0.557-1.979-1.243-2.375l-86.505-49.944c-0.687-0.396-1.243,0.024-1.243,0.94l0,0
						C202.26,92.374,202.816,93.438,203.503,93.833z"/>
				</g>
				<g>
					<g>
						<polygon fill="#5793CE" points="201.741,123.12 210.591,128.229 210.591,120.738 201.741,115.628 						"/>
					</g>
					<g>
						<polygon fill="#5793CE" points="215.271,130.932 224.121,136.041 224.121,128.549 215.271,123.439 						"/>
					</g>
					<g>
						<polygon fill="#5793CE" points="201.741,135.353 210.591,140.463 210.591,132.971 201.741,127.861 						"/>
					</g>
					<g>
						<polygon fill="#5793CE" points="215.271,143.165 224.121,148.274 224.121,140.782 215.271,135.672 						"/>
					</g>
					<g>
						<polygon fill="#E2E2E2" points="228.801,150.976 237.65,156.085 237.65,148.593 228.801,143.484 						"/>
					</g>
					<g>
						<polygon fill="#E2E2E2" points="242.33,158.787 251.181,163.896 251.181,156.405 242.33,151.295 						"/>
					</g>
					<g>
						<polygon fill="#E2E2E2" points="255.86,166.599 264.71,171.708 264.71,164.216 255.86,159.107 						"/>
					</g>
					<g>
						<polygon fill="#E2E2E2" points="269.39,174.41 278.24,179.52 278.24,172.027 269.39,166.918 						"/>
					</g>
					<g>
						<polygon fill="#E2E2E2" points="282.92,182.222 291.77,187.331 291.77,179.839 282.92,174.729 						"/>
					</g>
					<g>
						<polygon fill="#5793CE" points="201.741,147.586 210.591,152.695 210.591,145.203 201.741,140.094 						"/>
					</g>
					<g>
						<polygon fill="#5793CE" points="215.271,155.397 224.121,160.507 224.121,153.015 215.271,147.905 						"/>
					</g>
					<g>
						<polygon fill="#E2E2E2" points="228.801,163.209 237.65,168.318 237.65,160.826 228.801,155.717 						"/>
					</g>
					<g>
						<polygon fill="#E2E2E2" points="242.33,171.02 251.181,176.129 251.181,168.638 242.33,163.528 						"/>
					</g>
					<g>
						<polygon fill="#E2E2E2" points="255.86,178.832 264.71,183.941 264.71,176.449 255.86,171.339 						"/>
					</g>
					<g>
						<polygon fill="#E2E2E2" points="269.39,186.643 278.24,191.752 278.24,184.26 269.39,179.151 						"/>
					</g>
					<g>
						<polygon fill="#E2E2E2" points="282.92,194.454 291.77,199.563 291.77,192.072 282.92,186.962 						"/>
					</g>
					<g>
						<polygon fill="#5793CE" points="201.741,159.818 210.591,164.928 210.591,157.436 201.741,152.326 						"/>
					</g>
					<g>
						<polygon fill="#5793CE" points="215.271,167.63 224.121,172.739 224.121,165.247 215.271,160.138 						"/>
					</g>
					<g>
						<polygon fill="#E2E2E2" points="228.801,175.441 237.65,180.551 237.65,173.059 228.801,167.949 						"/>
					</g>
					<g>
						<polygon fill="#E2E2E2" points="242.33,183.253 251.181,188.362 251.181,180.87 242.33,175.761 						"/>
					</g>
					<g>
						<polygon fill="#E2E2E2" points="255.86,191.064 264.71,196.174 264.71,188.682 255.86,183.572 						"/>
					</g>
					<g>
						<polygon fill="#E2E2E2" points="269.39,198.875 278.24,203.985 278.24,196.493 269.39,191.384 						"/>
					</g>
					<g>
						<polygon fill="#E2E2E2" points="282.92,206.688 291.77,211.797 291.77,204.305 282.92,199.195 						"/>
					</g>
					<g>
						<polygon fill="#5793CE" points="201.741,172.051 210.591,177.161 210.591,169.668 201.741,164.56 						"/>
					</g>
					<g>
						<polygon fill="#5793CE" points="215.271,179.862 224.121,184.972 224.121,177.48 215.271,172.371 						"/>
					</g>
					<g>
						<polygon fill="#E2E2E2" points="228.801,187.674 237.65,192.783 237.65,185.292 228.801,180.182 						"/>
					</g>
					<g>
						<polygon fill="#E2E2E2" points="242.33,195.485 251.181,200.595 251.181,193.103 242.33,187.993 						"/>
					</g>
					<g>
						<polygon fill="#E2E2E2" points="255.86,203.297 264.71,208.406 264.71,200.914 255.86,195.805 						"/>
					</g>
					<g>
						<polygon fill="#E2E2E2" points="269.39,211.108 278.24,216.218 278.24,208.726 269.39,203.616 						"/>
					</g>
					<g>
						<polygon fill="#E2E2E2" points="282.92,218.92 291.77,224.029 291.77,216.537 282.92,211.428 						"/>
					</g>
				</g>
			</g>
			<g>
				<polygon fill="#E2E2E2" points="306.282,249.432 307.574,248.657 306.236,248.381 				"/>
			</g>
			<g>
				<g>
					<path fill="#D4ECFF" d="M307.619,161.216v85.272c0,2.895-2.032,4.068-4.54,2.621l-115.204-66.514
						c-2.508-1.448-4.54-4.969-4.54-7.863V89.459L307.619,161.216z"/>
				</g>
				<g>
					<g>
						<path fill="#396CAA" d="M296.831,136.456c-0.125,0.218-0.202,0.497-0.202,0.844c0,1.198,0.841,2.655,1.879,3.255
							c0.277,0.16,0.538,0.237,0.775,0.249c-0.308,0.536-0.939,0.667-1.677,0.241c-1.038-0.6-1.879-2.057-1.879-3.255
							C295.728,136.912,296.182,136.422,296.831,136.456z"/>
					</g>
					<g>
						<path fill="#396CAA" d="M291.642,133.456c-0.126,0.218-0.203,0.497-0.203,0.844c0,1.198,0.842,2.656,1.88,3.255
							c0.277,0.16,0.538,0.237,0.774,0.25c-0.308,0.536-0.938,0.667-1.677,0.241c-1.037-0.599-1.879-2.056-1.879-3.255
							C290.537,133.912,290.991,133.422,291.642,133.456z"/>
					</g>
					<g>
						<path fill="#396CAA" d="M280.32,126.921c-0.125,0.219-0.202,0.497-0.202,0.844c0,1.198,0.841,2.655,1.879,3.254
							c0.277,0.16,0.538,0.237,0.775,0.25c-0.308,0.536-0.939,0.666-1.677,0.24c-1.038-0.599-1.879-2.056-1.879-3.254
							C279.217,127.377,279.671,126.887,280.32,126.921z"/>
					</g>
					<g>
						<path fill="#396CAA" d="M275.131,123.921c-0.126,0.219-0.203,0.498-0.203,0.844c0,1.198,0.842,2.656,1.88,3.254
							c0.276,0.16,0.538,0.237,0.774,0.25c-0.308,0.536-0.939,0.666-1.677,0.241c-1.037-0.599-1.879-2.056-1.879-3.254
							C274.026,124.377,274.48,123.887,275.131,123.921z"/>
					</g>
					<g>
						<path fill="#396CAA" d="M263.81,117.386c-0.125,0.219-0.202,0.498-0.202,0.845c0,1.198,0.841,2.655,1.879,3.254
							c0.277,0.16,0.538,0.237,0.775,0.25c-0.308,0.536-0.939,0.667-1.677,0.241c-1.038-0.599-1.879-2.056-1.879-3.254
							C262.706,117.842,263.16,117.353,263.81,117.386z"/>
					</g>
					<g>
						<path fill="#396CAA" d="M258.62,114.387c-0.126,0.218-0.202,0.497-0.202,0.844c0,1.198,0.841,2.655,1.879,3.254
							c0.277,0.16,0.538,0.238,0.774,0.25c-0.308,0.536-0.938,0.666-1.677,0.241c-1.037-0.6-1.879-2.057-1.879-3.255
							C257.516,114.843,257.97,114.353,258.62,114.387z"/>
					</g>
					<g>
						<path fill="#396CAA" d="M247.299,107.852c-0.125,0.218-0.202,0.497-0.202,0.844c0,1.198,0.842,2.655,1.879,3.255
							c0.277,0.16,0.538,0.237,0.775,0.249c-0.308,0.537-0.939,0.667-1.677,0.241c-1.038-0.6-1.879-2.057-1.879-3.255
							C246.195,108.308,246.649,107.817,247.299,107.852z"/>
					</g>
					<g>
						<path fill="#396CAA" d="M242.109,104.852c-0.126,0.218-0.202,0.497-0.202,0.844c0,1.198,0.841,2.656,1.879,3.255
							c0.277,0.16,0.538,0.237,0.774,0.25c-0.308,0.536-0.938,0.667-1.676,0.241c-1.038-0.599-1.88-2.056-1.88-3.255
							C241.005,105.308,241.459,104.817,242.109,104.852z"/>
					</g>
					<g>
						<path fill="#396CAA" d="M230.788,98.316c-0.125,0.219-0.202,0.497-0.202,0.844c0,1.198,0.841,2.655,1.879,3.254
							c0.277,0.16,0.538,0.237,0.775,0.25c-0.308,0.536-0.939,0.666-1.677,0.24c-1.038-0.599-1.879-2.056-1.879-3.254
							C229.685,98.772,230.139,98.282,230.788,98.316z"/>
					</g>
					<g>
						<path fill="#396CAA" d="M225.599,95.317c-0.125,0.218-0.202,0.497-0.202,0.844c0,1.198,0.841,2.656,1.879,3.254
							c0.277,0.16,0.538,0.237,0.775,0.25c-0.309,0.536-0.939,0.666-1.677,0.241c-1.038-0.599-1.88-2.056-1.88-3.254
							C224.494,95.773,224.948,95.283,225.599,95.317z"/>
					</g>
					<g>
						<path fill="#396CAA" d="M214.277,88.781c-0.125,0.219-0.202,0.498-0.202,0.845c0,1.198,0.841,2.655,1.879,3.254
							c0.277,0.16,0.538,0.237,0.775,0.25c-0.308,0.536-0.939,0.667-1.677,0.241c-1.038-0.6-1.879-2.057-1.879-3.255
							C213.174,89.238,213.628,88.748,214.277,88.781z"/>
					</g>
					<g>
						<path fill="#396CAA" d="M209.088,85.782c-0.125,0.218-0.202,0.498-0.202,0.844c0,1.198,0.841,2.655,1.879,3.254
							c0.277,0.16,0.538,0.238,0.775,0.25c-0.309,0.536-0.939,0.667-1.677,0.241c-1.038-0.6-1.879-2.057-1.879-3.255
							C207.984,86.238,208.438,85.748,209.088,85.782z"/>
					</g>
					<g>
						<path fill="#396CAA" d="M197.767,79.247c-0.125,0.218-0.202,0.497-0.202,0.844c0,1.198,0.842,2.655,1.879,3.255
							c0.277,0.16,0.538,0.237,0.775,0.249c-0.308,0.536-0.939,0.667-1.677,0.241c-1.038-0.599-1.879-2.057-1.879-3.255
							C196.663,79.703,197.117,79.213,197.767,79.247z"/>
					</g>
					<g>
						<path fill="#396CAA" d="M192.577,76.247c-0.125,0.218-0.202,0.497-0.202,0.844c0,1.198,0.841,2.655,1.879,3.255
							c0.277,0.16,0.538,0.237,0.775,0.25c-0.309,0.536-0.939,0.667-1.677,0.241c-1.038-0.599-1.88-2.056-1.88-3.255
							C191.473,76.703,191.927,76.213,192.577,76.247z"/>
					</g>
				</g>
				<g>
					<path fill="#5793CE" d="M183.335,72.523v16.936l124.284,71.756v-16.937c0-2.896-2.032-6.416-4.54-7.863L187.875,69.902
						C185.367,68.455,183.335,69.628,183.335,72.523z M295.731,137.792c0-1.196,0.839-1.68,1.875-1.083
						c1.035,0.598,1.874,2.052,1.874,3.248s-0.839,1.68-1.874,1.083C296.57,140.442,295.731,138.988,295.731,137.792z
						 M290.537,134.794c0-1.195,0.84-1.68,1.875-1.082c1.035,0.598,1.875,2.051,1.875,3.247c0,1.195-0.84,1.68-1.875,1.082
						C291.377,137.443,290.537,135.989,290.537,134.794z M279.221,128.26c0-1.196,0.839-1.68,1.875-1.083
						c1.035,0.598,1.875,2.052,1.875,3.247c0,1.196-0.84,1.681-1.875,1.083C280.06,130.91,279.221,129.456,279.221,128.26z
						 M274.026,125.262c0-1.196,0.84-1.681,1.875-1.083c1.036,0.598,1.875,2.052,1.875,3.248c0,1.195-0.839,1.68-1.875,1.082
						C274.866,127.911,274.026,126.457,274.026,125.262z M262.71,118.728c0-1.195,0.839-1.68,1.875-1.082
						c1.035,0.598,1.874,2.052,1.874,3.247s-0.839,1.68-1.874,1.083C263.549,121.377,262.71,119.923,262.71,118.728z
						 M257.516,115.729c0-1.196,0.84-1.68,1.875-1.083s1.875,2.052,1.875,3.248s-0.84,1.68-1.875,1.083
						S257.516,116.925,257.516,115.729z M246.199,109.195c0-1.196,0.839-1.681,1.875-1.083c1.035,0.598,1.875,2.052,1.875,3.248
						c0,1.195-0.84,1.68-1.875,1.082C247.038,111.845,246.199,110.391,246.199,109.195z M241.005,106.197
						c0-1.196,0.84-1.68,1.875-1.083c1.036,0.598,1.875,2.052,1.875,3.247c0,1.196-0.839,1.681-1.875,1.083
						C241.845,108.846,241.005,107.392,241.005,106.197z M229.688,99.663c0-1.196,0.839-1.681,1.875-1.083
						c1.035,0.598,1.875,2.052,1.875,3.248c0,1.195-0.84,1.68-1.875,1.082C230.527,102.313,229.688,100.858,229.688,99.663z
						 M224.494,96.664c0-1.195,0.84-1.68,1.875-1.082c1.036,0.598,1.875,2.052,1.875,3.247s-0.839,1.68-1.875,1.082
						C225.334,99.313,224.494,97.86,224.494,96.664z M213.178,90.13c0-1.196,0.839-1.68,1.875-1.083
						c1.035,0.598,1.875,2.052,1.875,3.247c0,1.196-0.84,1.681-1.875,1.083C214.017,92.78,213.178,91.326,213.178,90.13z
						 M207.984,87.132c0-1.196,0.839-1.681,1.874-1.083c1.036,0.598,1.875,2.052,1.875,3.248c0,1.195-0.839,1.68-1.875,1.082
						C208.823,89.781,207.984,88.327,207.984,87.132z M196.667,80.598c0-1.195,0.839-1.68,1.875-1.082
						c1.035,0.598,1.875,2.052,1.875,3.247c0,1.196-0.84,1.681-1.875,1.083C197.506,83.247,196.667,81.793,196.667,80.598z
						 M191.473,77.6c0-1.196,0.84-1.681,1.875-1.083c1.036,0.598,1.875,2.052,1.875,3.248s-0.839,1.68-1.875,1.083
						C192.313,80.249,191.473,78.795,191.473,77.6z"/>
				</g>
				<g>
					<path fill="#396CAA" d="M202.225,94.6l86.505,49.943c0.687,0.396,1.243-0.024,1.243-0.939l0,0c0-0.915-0.557-1.979-1.243-2.375
						l-86.505-49.943c-0.687-0.396-1.243,0.024-1.243,0.939l0,0C200.981,93.14,201.538,94.203,202.225,94.6z"/>
				</g>
				<g>
					<g>
						<polygon fill="#5793CE" points="200.463,123.887 209.313,128.996 209.313,121.504 200.463,116.395 						"/>
					</g>
					<g>
						<polygon fill="#5793CE" points="213.992,131.698 222.842,136.808 222.842,129.315 213.992,124.206 						"/>
					</g>
					<g>
						<polygon fill="#5793CE" points="200.463,136.119 209.313,141.229 209.313,133.736 200.463,128.627 						"/>
					</g>
					<g>
						<polygon fill="#5793CE" points="213.992,143.931 222.842,149.04 222.842,141.548 213.992,136.438 						"/>
					</g>
					<g>
						<polygon fill="#FFFFFF" points="227.522,151.742 236.372,156.852 236.372,149.359 227.522,144.25 						"/>
					</g>
					<g>
						<polygon fill="#FFFFFF" points="241.052,159.554 249.902,164.663 249.902,157.171 241.052,152.062 						"/>
					</g>
					<g>
						<polygon fill="#FFFFFF" points="254.582,167.365 263.432,172.475 263.432,164.982 254.582,159.873 						"/>
					</g>
					<g>
						<polygon fill="#FFFFFF" points="268.111,175.176 276.962,180.286 276.962,172.794 268.111,167.685 						"/>
					</g>
					<g>
						<polygon fill="#FFFFFF" points="281.642,182.988 290.491,188.097 290.491,180.605 281.642,175.496 						"/>
					</g>
					<g>
						<polygon fill="#5793CE" points="200.463,148.352 209.313,153.461 209.313,145.969 200.463,140.86 						"/>
					</g>
					<g>
						<polygon fill="#5793CE" points="213.992,156.163 222.842,161.272 222.842,153.781 213.992,148.671 						"/>
					</g>
					<g>
						<polygon fill="#FFFFFF" points="227.522,163.975 236.372,169.084 236.372,161.592 227.522,156.482 						"/>
					</g>
					<g>
						<polygon fill="#FFFFFF" points="241.052,171.786 249.902,176.896 249.902,169.403 241.052,164.294 						"/>
					</g>
					<g>
						<polygon fill="#FFFFFF" points="254.582,179.598 263.432,184.707 263.432,177.215 254.582,172.105 						"/>
					</g>
					<g>
						<polygon fill="#FFFFFF" points="268.111,187.409 276.962,192.519 276.962,185.026 268.111,179.917 						"/>
					</g>
					<g>
						<polygon fill="#FFFFFF" points="281.642,195.221 290.491,200.33 290.491,192.838 281.642,187.729 						"/>
					</g>
					<g>
						<polygon fill="#5793CE" points="200.463,160.585 209.313,165.694 209.313,158.202 200.463,153.093 						"/>
					</g>
					<g>
						<polygon fill="#5793CE" points="213.992,168.396 222.842,173.505 222.842,166.014 213.992,160.904 						"/>
					</g>
					<g>
						<polygon fill="#FFFFFF" points="227.522,176.208 236.372,181.317 236.372,173.825 227.522,168.716 						"/>
					</g>
					<g>
						<polygon fill="#FFFFFF" points="241.052,184.019 249.902,189.128 249.902,181.636 241.052,176.527 						"/>
					</g>
					<g>
						<polygon fill="#FFFFFF" points="254.582,191.83 263.432,196.939 263.432,189.448 254.582,184.338 						"/>
					</g>
					<g>
						<polygon fill="#FFFFFF" points="268.111,199.642 276.962,204.751 276.962,197.259 268.111,192.149 						"/>
					</g>
					<g>
						<polygon fill="#FFFFFF" points="281.642,207.453 290.491,212.563 290.491,205.07 281.642,199.961 						"/>
					</g>
					<g>
						<polygon fill="#5793CE" points="200.463,172.817 209.313,177.927 209.313,170.435 200.463,165.325 						"/>
					</g>
					<g>
						<polygon fill="#5793CE" points="213.992,180.629 222.842,185.738 222.842,178.246 213.992,173.137 						"/>
					</g>
					<g>
						<polygon fill="#FFFFFF" points="227.522,188.44 236.372,193.55 236.372,186.058 227.522,180.948 						"/>
					</g>
					<g>
						<polygon fill="#FFFFFF" points="241.052,196.251 249.902,201.361 249.902,193.869 241.052,188.76 						"/>
					</g>
					<g>
						<polygon fill="#FFFFFF" points="254.582,204.063 263.432,209.172 263.432,201.681 254.582,196.571 						"/>
					</g>
					<g>
						<polygon fill="#FFFFFF" points="268.111,211.875 276.962,216.984 276.962,209.492 268.111,204.383 						"/>
					</g>
					<g>
						<polygon fill="#FFFFFF" points="281.642,219.686 290.491,224.795 290.491,217.303 281.642,212.193 						"/>
					</g>
				</g>
			</g>
			<g>
				<g>
					<path fill="#D4ECFF" d="M289.093,131.668c0,4.128,2.897,5.801,6.473,3.737s6.474-7.083,6.474-11.212
						c0-4.127-2.898-5.801-6.474-3.737S289.093,127.541,289.093,131.668z M290.473,130.871c0-3.247,2.28-7.196,5.093-8.82
						c2.813-1.624,5.093-0.307,5.093,2.94s-2.28,7.196-5.093,8.82S290.473,134.119,290.473,130.871z"/>
				</g>
				<g>
					<polygon fill="#D4ECFF" points="291.606,136.333 290.891,135.8 291.502,135.946 					"/>
				</g>
				<g>
					<polygon fill="#D4ECFF" points="300.382,120.157 301.372,120.882 300.558,121.121 					"/>
				</g>
				<g>
					<path fill="#396CAA" d="M289.983,132.32c0,4.128,2.898,5.801,6.473,3.737c3.575-2.064,6.474-7.084,6.474-11.212
						s-2.898-5.801-6.474-3.737C292.882,123.173,289.983,128.192,289.983,132.32z M291.364,131.523c0-3.248,2.28-7.197,5.092-8.82
						c2.813-1.624,5.093-0.308,5.093,2.94s-2.279,7.196-5.093,8.82C293.645,136.087,291.364,134.771,291.364,131.523z"/>
				</g>
			</g>
			<g>
				<polygon fill="#396CAA" points="296.71,132.853 297.674,131.788 300.451,133.395 298.671,134.302 				"/>
			</g>
			<g>
				<path fill="#5793CE" d="M296.676,132.716l2.51,1.452l-1.723,1.708l-3.204,1.43c0,0,0.229-1.4-1.094-2.98L296.676,132.716z"/>
			</g>
			<g>
				<g>
					<path fill="#D4ECFF" d="M272.573,122.131c0,4.128,2.898,5.801,6.474,3.737c3.574-2.064,6.473-7.083,6.473-11.211
						s-2.898-5.802-6.473-3.737C275.472,112.983,272.573,118.002,272.573,122.131z M273.954,121.333c0-3.247,2.28-7.196,5.093-8.82
						c2.813-1.624,5.092-0.308,5.092,2.94c0,3.248-2.279,7.197-5.092,8.82C276.234,125.897,273.954,124.581,273.954,121.333z"/>
				</g>
				<g>
					<polygon fill="#D4ECFF" points="275.088,126.796 274.371,126.262 274.982,126.408 					"/>
				</g>
				<g>
					<polygon fill="#D4ECFF" points="283.863,110.619 284.854,111.344 284.038,111.583 					"/>
				</g>
				<g>
					<path fill="#396CAA" d="M273.464,122.782c0,4.128,2.898,5.801,6.474,3.737c3.575-2.064,6.473-7.084,6.473-11.212
						s-2.897-5.801-6.473-3.737S273.464,118.654,273.464,122.782z M274.845,121.985c0-3.248,2.28-7.196,5.093-8.82
						s5.092-0.308,5.092,2.939c0,3.248-2.279,7.197-5.092,8.821S274.845,125.233,274.845,121.985z"/>
				</g>
			</g>
			<g>
				<polygon fill="#396CAA" points="280.19,123.314 281.154,122.25 283.932,123.856 282.151,124.764 				"/>
			</g>
			<g>
				<path fill="#5793CE" d="M280.156,123.178l2.511,1.452l-1.723,1.708l-3.204,1.43c0,0,0.229-1.4-1.094-2.98L280.156,123.178z"/>
			</g>
			<g>
				<g>
					<path fill="#D4ECFF" d="M277.772,125.135c0,4.128,2.898,5.801,6.474,3.737c3.575-2.063,6.473-7.083,6.473-11.211
						c0-4.128-2.897-5.801-6.473-3.737S277.772,121.007,277.772,125.135z M279.153,124.338c0-3.247,2.28-7.196,5.093-8.82
						c2.813-1.624,5.092-0.307,5.092,2.94s-2.279,7.196-5.092,8.82S279.153,127.586,279.153,124.338z"/>
				</g>
				<g>
					<polygon fill="#D4ECFF" points="280.287,129.8 279.57,129.267 280.182,129.413 					"/>
				</g>
				<g>
					<polygon fill="#D4ECFF" points="289.063,113.624 290.053,114.349 289.237,114.588 					"/>
				</g>
				<g>
					<path fill="#396CAA" d="M278.664,125.787c0,4.128,2.897,5.801,6.473,3.737c3.575-2.064,6.473-7.083,6.473-11.212
						c0-4.128-2.897-5.801-6.473-3.737C281.562,116.64,278.664,121.659,278.664,125.787z M280.044,124.99
						c0-3.248,2.28-7.197,5.093-8.82c2.813-1.624,5.093-0.308,5.093,2.94s-2.28,7.196-5.093,8.82
						C282.324,129.554,280.044,128.237,280.044,124.99z"/>
				</g>
			</g>
			<g>
				<polygon fill="#396CAA" points="285.391,126.319 286.354,125.255 289.132,126.861 287.351,127.769 				"/>
			</g>
			<g>
				<path fill="#5793CE" d="M285.355,126.183l2.511,1.452l-1.723,1.708l-3.204,1.431c0,0,0.229-1.401-1.094-2.981L285.355,126.183z"
					/>
			</g>
			<g>
				<g>
					<path fill="#D4ECFF" d="M256.051,112.566c0,4.128,2.898,5.802,6.474,3.737c3.574-2.064,6.473-7.084,6.473-11.212
						s-2.898-5.801-6.473-3.737C258.949,103.419,256.051,108.438,256.051,112.566z M257.432,111.77c0-3.248,2.279-7.197,5.093-8.82
						c2.813-1.624,5.092-0.308,5.092,2.94s-2.279,7.197-5.092,8.82C259.711,116.333,257.432,115.017,257.432,111.77z"/>
				</g>
				<g>
					<polygon fill="#D4ECFF" points="258.564,117.231 257.849,116.698 258.46,116.844 					"/>
				</g>
				<g>
					<polygon fill="#D4ECFF" points="267.341,101.055 268.33,101.78 267.516,102.019 					"/>
				</g>
				<g>
					<path fill="#396CAA" d="M256.941,113.218c0,4.128,2.898,5.801,6.474,3.737c3.575-2.063,6.473-7.083,6.473-11.211
						s-2.897-5.801-6.473-3.737S256.941,109.09,256.941,113.218z M258.322,112.421c0-3.247,2.28-7.196,5.093-8.82
						c2.813-1.624,5.092-0.307,5.092,2.94s-2.279,7.196-5.092,8.82S258.322,115.669,258.322,112.421z"/>
				</g>
			</g>
			<g>
				<polygon fill="#396CAA" points="263.668,113.75 264.602,112.696 267.386,114.304 265.629,115.2 				"/>
			</g>
			<g>
				<path fill="#5793CE" d="M263.614,113.645l2.514,1.438l-1.706,1.692l-3.175,1.417c0,0,0.2-1.388-1.123-2.967L263.614,113.645z"/>
			</g>
			<g>
				<g>
					<path fill="#D4ECFF" d="M261.25,115.571c0,4.128,2.898,5.801,6.474,3.737c3.575-2.064,6.473-7.084,6.473-11.212
						s-2.897-5.801-6.473-3.737S261.25,111.443,261.25,115.571z M262.631,114.774c0-3.248,2.28-7.196,5.093-8.82
						s5.092-0.308,5.092,2.939c0,3.248-2.279,7.197-5.092,8.82C264.911,119.338,262.631,118.021,262.631,114.774z"/>
				</g>
				<g>
					<polygon fill="#D4ECFF" points="263.765,120.236 263.048,119.703 263.659,119.849 					"/>
				</g>
				<g>
					<polygon fill="#D4ECFF" points="272.54,104.06 273.53,104.785 272.715,105.024 					"/>
				</g>
				<g>
					<path fill="#396CAA" d="M262.141,116.223c0,4.128,2.898,5.801,6.474,3.737c3.575-2.063,6.474-7.083,6.474-11.211
						c0-4.127-2.898-5.801-6.474-3.737C265.039,107.075,262.141,112.095,262.141,116.223z M263.521,115.426
						c0-3.247,2.28-7.196,5.093-8.82c2.813-1.624,5.093-0.308,5.093,2.94c0,3.247-2.28,7.196-5.093,8.82
						C265.802,119.99,263.521,118.674,263.521,115.426z"/>
				</g>
			</g>
			<g>
				<polygon fill="#396CAA" points="268.867,116.755 269.832,115.69 272.609,117.297 270.828,118.205 				"/>
			</g>
			<g>
				<path fill="#5793CE" d="M268.833,116.619l2.511,1.452l-1.723,1.708l-3.182,1.42c0,0,0.207-1.374-1.116-2.954L268.833,116.619z"
					/>
			</g>
			<g>
				<g>
					<path fill="#D4ECFF" d="M239.528,103.002c0,4.128,2.898,5.801,6.474,3.737c3.574-2.063,6.473-7.083,6.473-11.211
						c0-4.128-2.898-5.802-6.473-3.737C242.427,93.855,239.528,98.875,239.528,103.002z M240.909,102.205
						c0-3.247,2.279-7.196,5.093-8.82c2.813-1.624,5.092-0.307,5.092,2.94c0,3.247-2.279,7.196-5.092,8.82
						C243.188,106.769,240.909,105.453,240.909,102.205z"/>
				</g>
				<g>
					<polygon fill="#D4ECFF" points="242.042,107.667 241.326,107.134 241.938,107.28 					"/>
				</g>
				<g>
					<polygon fill="#D4ECFF" points="250.818,91.491 251.808,92.216 250.993,92.455 					"/>
				</g>
				<g>
					<path fill="#396CAA" d="M240.419,103.654c0,4.128,2.898,5.801,6.474,3.737c3.575-2.064,6.473-7.084,6.473-11.212
						s-2.897-5.801-6.473-3.737S240.419,99.526,240.419,103.654z M241.8,102.857c0-3.248,2.28-7.196,5.093-8.82
						s5.092-0.308,5.092,2.939c0,3.248-2.279,7.197-5.092,8.821C244.08,107.421,241.8,106.104,241.8,102.857z"/>
				</g>
			</g>
			<g>
				<polygon fill="#396CAA" points="247.146,104.187 248.078,103.157 250.841,104.752 249.106,105.636 				"/>
			</g>
			<g>
				<path fill="#5793CE" d="M247.061,104.073l2.55,1.473l-1.711,1.665l-3.158,1.41c0,0,0.165-1.363-1.158-2.943L247.061,104.073z"/>
			</g>
			<g>
				<g>
					<path fill="#D4ECFF" d="M244.728,106.007c0,4.128,2.898,5.801,6.474,3.737c3.575-2.064,6.473-7.083,6.473-11.211
						c0-4.128-2.897-5.801-6.473-3.737S244.728,101.879,244.728,106.007z M246.108,105.21c0-3.247,2.28-7.196,5.093-8.82
						c2.813-1.624,5.092-0.308,5.092,2.94c0,3.247-2.279,7.196-5.092,8.82C248.389,109.774,246.108,108.458,246.108,105.21z"/>
				</g>
				<g>
					<polygon fill="#D4ECFF" points="247.242,110.672 246.525,110.139 247.137,110.285 					"/>
				</g>
				<g>
					<polygon fill="#D4ECFF" points="256.018,94.496 257.008,95.221 256.192,95.46 					"/>
				</g>
				<g>
					<path fill="#396CAA" d="M245.618,106.659c0,4.128,2.898,5.801,6.474,3.737c3.575-2.064,6.473-7.084,6.473-11.212
						s-2.897-5.801-6.473-3.737C248.517,97.512,245.618,102.531,245.618,106.659z M246.999,105.862c0-3.248,2.28-7.197,5.093-8.82
						c2.813-1.624,5.093-0.308,5.093,2.94s-2.28,7.196-5.093,8.82C249.279,110.426,246.999,109.109,246.999,105.862z"/>
				</g>
			</g>
			<g>
				<polygon fill="#396CAA" points="252.346,107.191 253.279,106.16 256.051,107.751 254.306,108.641 				"/>
			</g>
			<g>
				<path fill="#5793CE" d="M252.263,107.077l2.528,1.46l-1.692,1.678l-3.167,1.431c0,0,0.173-1.385-1.15-2.965L252.263,107.077z"/>
			</g>
			<g>
				<g>
					<path fill="#D4ECFF" d="M223.006,93.438c0,4.128,2.898,5.801,6.473,3.737c3.575-2.064,6.474-7.084,6.474-11.212
						s-2.898-5.801-6.474-3.737C225.904,84.291,223.006,89.311,223.006,93.438z M224.387,92.642c0-3.248,2.279-7.197,5.092-8.82
						c2.813-1.624,5.093-0.308,5.093,2.939c0,3.248-2.28,7.197-5.093,8.82C226.666,97.205,224.387,95.889,224.387,92.642z"/>
				</g>
				<g>
					<polygon fill="#D4ECFF" points="225.52,98.104 224.804,97.57 225.415,97.716 					"/>
				</g>
				<g>
					<polygon fill="#D4ECFF" points="234.296,81.927 235.285,82.652 234.471,82.891 					"/>
				</g>
				<g>
					<path fill="#396CAA" d="M223.896,94.09c0,4.128,2.898,5.801,6.474,3.737c3.575-2.063,6.473-7.083,6.473-11.211
						c0-4.128-2.897-5.801-6.473-3.737S223.896,89.962,223.896,94.09z M225.277,93.293c0-3.247,2.28-7.196,5.093-8.82
						c2.813-1.624,5.093-0.308,5.093,2.94c0,3.247-2.28,7.196-5.093,8.82C227.558,97.857,225.277,96.541,225.277,93.293z"/>
				</g>
			</g>
			<g>
				<polygon fill="#396CAA" points="230.623,94.622 231.541,93.609 234.296,95.199 232.584,96.072 				"/>
			</g>
			<g>
				<path fill="#5793CE" d="M230.514,94.521l2.559,1.477l-1.695,1.649l-3.143,1.403c0,0,0.148-1.337-1.175-2.917L230.514,94.521z"/>
			</g>
			<g>
				<g>
					<path fill="#D4ECFF" d="M228.205,96.443c0,4.128,2.898,5.801,6.474,3.737s6.473-7.083,6.473-11.211s-2.897-5.801-6.473-3.737
						C231.104,87.296,228.205,92.315,228.205,96.443z M229.586,95.646c0-3.248,2.28-7.197,5.093-8.82
						c2.813-1.624,5.093-0.308,5.093,2.939c0,3.248-2.28,7.197-5.093,8.82C231.866,100.21,229.586,98.894,229.586,95.646z"/>
				</g>
				<g>
					<polygon fill="#D4ECFF" points="230.72,101.108 230.003,100.574 230.614,100.721 					"/>
				</g>
				<g>
					<polygon fill="#D4ECFF" points="239.495,84.932 240.485,85.657 239.67,85.896 					"/>
				</g>
				<g>
					<path fill="#396CAA" d="M229.096,97.095c0,4.128,2.898,5.801,6.474,3.737c3.575-2.064,6.473-7.083,6.473-11.211
						s-2.897-5.801-6.473-3.737C231.994,87.947,229.096,92.967,229.096,97.095z M230.477,96.298c0-3.247,2.28-7.196,5.093-8.82
						s5.093-0.308,5.093,2.94c0,3.247-2.28,7.196-5.093,8.82C232.757,100.862,230.477,99.546,230.477,96.298z"/>
				</g>
			</g>
			<g>
				<polygon fill="#396CAA" points="235.822,97.627 236.742,96.612 239.498,98.203 237.783,99.077 				"/>
			</g>
			<g>
				<path fill="#5793CE" d="M235.716,97.523l2.553,1.474l-1.692,1.654l-3.149,1.405c0,0,0.14-1.357-1.184-2.937L235.716,97.523z"/>
			</g>
			<g>
				<g>
					<path fill="#D4ECFF" d="M206.483,83.875c0,4.128,2.898,5.801,6.473,3.737c3.575-2.064,6.474-7.083,6.474-11.211
						s-2.898-5.801-6.474-3.737C209.382,74.727,206.483,79.746,206.483,83.875z M207.864,83.077c0-3.247,2.279-7.196,5.092-8.82
						c2.813-1.624,5.093-0.308,5.093,2.94c0,3.247-2.279,7.196-5.093,8.82C210.144,87.641,207.864,86.325,207.864,83.077z"/>
				</g>
				<g>
					<polygon fill="#D4ECFF" points="208.997,88.54 208.281,88.006 208.893,88.152 					"/>
				</g>
				<g>
					<polygon fill="#D4ECFF" points="217.773,72.363 218.763,73.088 217.948,73.327 					"/>
				</g>
				<g>
					<path fill="#396CAA" d="M207.374,84.526c0,4.128,2.898,5.801,6.474,3.737s6.473-7.083,6.473-11.211s-2.897-5.801-6.473-3.737
						S207.374,80.398,207.374,84.526z M208.755,83.729c0-3.248,2.28-7.197,5.093-8.82c2.813-1.624,5.092-0.308,5.092,2.939
						c0,3.248-2.279,7.197-5.092,8.82C211.035,88.293,208.755,86.977,208.755,83.729z"/>
				</g>
			</g>
			<g>
				<polygon fill="#396CAA" points="214.101,85.059 215.004,84.061 217.75,85.647 216.062,86.508 				"/>
			</g>
			<g>
				<path fill="#5793CE" d="M213.954,84.959l2.56,1.477l-1.659,1.646l-3.128,1.396c0,0,0.151-1.374-1.203-2.906L213.954,84.959z"/>
			</g>
			<g>
				<g>
					<path fill="#D4ECFF" d="M211.683,86.879c0,4.128,2.898,5.802,6.474,3.737c3.575-2.064,6.473-7.084,6.473-11.211
						c0-4.128-2.897-5.801-6.473-3.737C214.581,77.732,211.683,82.751,211.683,86.879z M213.063,86.082
						c0-3.248,2.28-7.196,5.093-8.82s5.092-0.308,5.092,2.94s-2.279,7.197-5.092,8.82C215.344,90.646,213.063,89.33,213.063,86.082z
						"/>
				</g>
				<g>
					<polygon fill="#D4ECFF" points="214.197,91.544 213.48,91.011 214.092,91.157 					"/>
				</g>
				<g>
					<polygon fill="#D4ECFF" points="222.973,75.368 223.963,76.093 223.147,76.332 					"/>
				</g>
				<g>
					<path fill="#396CAA" d="M212.573,87.531c0,4.128,2.898,5.801,6.474,3.737s6.473-7.083,6.473-11.211s-2.897-5.801-6.473-3.737
						C215.472,78.384,212.573,83.403,212.573,87.531z M213.954,86.734c0-3.248,2.28-7.197,5.093-8.82s5.093-0.308,5.093,2.94
						s-2.28,7.196-5.093,8.82S213.954,89.981,213.954,86.734z"/>
				</g>
			</g>
			<g>
				<polygon fill="#396CAA" points="219.301,88.063 220.205,87.064 222.952,88.65 221.261,89.513 				"/>
			</g>
			<g>
				<path fill="#5793CE" d="M219.17,87.971l2.545,1.469l-1.661,1.647l-3.134,1.399c0,0,0.19-1.401-1.207-2.919L219.17,87.971z"/>
			</g>
			<g>
				<g>
					<path fill="#D4ECFF" d="M189.961,74.311c0,4.128,2.898,5.801,6.473,3.737c3.575-2.064,6.474-7.083,6.474-11.211
						s-2.898-5.801-6.474-3.737C192.859,65.163,189.961,70.183,189.961,74.311z M191.342,73.513c0-3.248,2.279-7.197,5.092-8.82
						s5.093-0.307,5.093,2.94c0,3.248-2.28,7.197-5.093,8.82C193.621,78.077,191.342,76.761,191.342,73.513z"/>
				</g>
				<g>
					<polygon fill="#D4ECFF" points="192.475,78.976 191.759,78.441 192.37,78.588 					"/>
				</g>
				<g>
					<polygon fill="#D4ECFF" points="201.251,62.799 202.24,63.524 201.426,63.763 					"/>
				</g>
				<g>
					<path fill="#396CAA" d="M190.852,74.962c0,4.128,2.898,5.802,6.474,3.737c3.575-2.064,6.473-7.083,6.473-11.211
						s-2.897-5.801-6.473-3.737C193.75,65.815,190.852,70.834,190.852,74.962z M192.232,74.165c0-3.247,2.28-7.196,5.093-8.82
						s5.092-0.308,5.092,2.94s-2.279,7.197-5.092,8.821C194.513,78.729,192.232,77.413,192.232,74.165z"/>
				</g>
			</g>
			<g>
				<polygon fill="#396CAA" points="197.578,75.494 198.467,74.514 201.205,76.095 199.539,76.944 				"/>
			</g>
			<g>
				<path fill="#5793CE" d="M197.432,75.42l2.543,1.469l-1.643,1.63l-3.113,1.39c0,0,0.136-1.415-1.246-2.908L197.432,75.42z"/>
			</g>
			<g>
				<g>
					<path fill="#D4ECFF" d="M195.16,77.315c0,4.128,2.898,5.801,6.474,3.737s6.473-7.083,6.473-11.211s-2.897-5.801-6.473-3.737
						C198.059,68.168,195.16,73.188,195.16,77.315z M196.541,76.518c0-3.248,2.28-7.197,5.093-8.82s5.092-0.308,5.092,2.94
						s-2.279,7.196-5.092,8.82S196.541,79.766,196.541,76.518z"/>
				</g>
				<g>
					<polygon fill="#D4ECFF" points="197.675,81.98 196.958,81.446 197.569,81.593 					"/>
				</g>
				<g>
					<polygon fill="#D4ECFF" points="206.45,65.804 207.44,66.529 206.625,66.768 					"/>
				</g>
				<g>
					<path fill="#396CAA" d="M196.051,77.967c0,4.128,2.898,5.801,6.474,3.737s6.473-7.084,6.473-11.212s-2.897-5.801-6.473-3.737
						S196.051,73.839,196.051,77.967z M197.432,77.17c0-3.248,2.28-7.196,5.093-8.82s5.093-0.308,5.093,2.94s-2.28,7.197-5.093,8.82
						S197.432,80.417,197.432,77.17z"/>
				</g>
			</g>
			<g>
				<polygon fill="#396CAA" points="202.777,78.499 203.668,77.517 206.407,79.098 204.738,79.949 				"/>
			</g>
			<g>
				<path fill="#5793CE" d="M202.623,78.417l2.553,1.474l-1.645,1.631l-3.122,1.431c0,0,0.146-1.433-1.239-2.952L202.623,78.417z"/>
			</g>
			<g>
				<g>
					<path fill="#D4ECFF" d="M294.287,134.67c0,4.128,2.898,5.801,6.474,3.737c3.574-2.064,6.473-7.083,6.473-11.211
						s-2.898-5.801-6.473-3.737C297.186,125.522,294.287,130.542,294.287,134.67z M295.668,133.873c0-3.247,2.28-7.196,5.093-8.82
						s5.092-0.308,5.092,2.94c0,3.247-2.279,7.196-5.092,8.82C297.948,138.437,295.668,137.121,295.668,133.873z"/>
				</g>
				<g>
					<polygon fill="#D4ECFF" points="296.801,139.335 296.085,138.802 296.696,138.948 					"/>
				</g>
				<g>
					<polygon fill="#D4ECFF" points="305.577,123.159 306.566,123.884 305.752,124.123 					"/>
				</g>
				<g>
					<path fill="#396CAA" d="M295.178,135.322c0,4.128,2.898,5.801,6.474,3.737c3.575-2.064,6.473-7.084,6.473-11.212
						s-2.897-5.801-6.473-3.737C298.076,126.175,295.178,131.194,295.178,135.322z M296.559,134.525c0-3.248,2.28-7.197,5.093-8.82
						c2.813-1.624,5.092-0.308,5.092,2.939c0,3.248-2.279,7.197-5.092,8.82C298.839,139.089,296.559,137.772,296.559,134.525z"/>
				</g>
			</g>
			<g>
				<polygon fill="#396CAA" points="307.619,161.216 308.897,160.449 308.897,158.232 307.619,159.054 				"/>
			</g>
			<g>
				<path fill="#396CAA" d="M301.904,135.854l0.964-1.064c0,0,2.008,1.063,2.683,1.731l-1.686,0.782L301.904,135.854z"/>
			</g>
			<g>
				<path fill="#5793CE" d="M301.87,135.718c0,0,2.102,1.075,3.079,2.242c0.979,1.167-5.496,2.349-5.496,2.349
					s0.23-1.401-1.093-2.98L301.87,135.718z"/>
			</g>
		</g>
	</g>
</g>
<g>
	<g>
		<g>
			<path fill="#D4ECFF" d="M96.425,195.001c-0.65-0.375-1.351-0.701-2.079-0.994l0.021-0.001l-4-1.773l0.302,0.699
				c-3.03-0.603-6.321-0.641-9.379-0.1l0.186-0.775l-4.705,2.085l0.028,0.002c-0.612,0.26-1.206,0.539-1.76,0.858
				c-5.905,3.41-5.905,8.938,0.001,12.348c5.905,3.409,15.48,3.409,21.386,0S102.33,198.411,96.425,195.001z"/>
			<path fill="#5793CE" d="M90.742,198.221c-2.768,1.598-7.254,1.598-10.021,0s-2.768-4.188,0-5.786s7.254-1.598,10.021,0
				S93.51,196.623,90.742,198.221z"/>
		</g>
		<g>
			<path fill="#5793CE" d="M85.731,196.431L85.731,196.431c-1.33,0-2.409-1.079-2.409-2.409v-30.453h4.818v30.453
				C88.141,195.352,87.062,196.431,85.731,196.431z"/>
			<path fill="#5793CE" d="M87.426,164.674c-0.96,0.555-2.517,0.555-3.478,0c-0.96-0.554-0.96-1.453,0-2.007
				c0.961-0.554,2.518-0.554,3.478,0C88.387,163.221,88.387,164.12,87.426,164.674z"/>
		</g>
		<path fill="#D4ECFF" d="M85.731,164.614L85.731,164.614c-1.078,0-1.953-0.874-1.953-1.952v-28.627h3.906v28.627
			C87.685,163.74,86.811,164.614,85.731,164.614z"/>
		<g>
			<path fill="#396CAA" d="M113.811,149.036v-1.121l1.584-0.229l1.772-1.327c0.287-0.215,0.836-0.235,1.168-0.043l1.309,0.755
				l1.296-0.188v1.136l-0.005,0.001c-0.007,0.129-0.104,0.256-0.298,0.342l-4.129,1.84c-0.327,0.146-0.79,0.128-1.082-0.04
				l-1.375-0.794c-0.158-0.092-0.232-0.212-0.233-0.333L113.811,149.036z"/>
			<path fill="#5793CE" d="M113.981,147.614l3.186-2.384c0.287-0.214,0.836-0.234,1.168-0.043l2.377,1.372
				c0.332,0.192,0.297,0.509-0.075,0.675l-4.129,1.839c-0.327,0.146-0.79,0.128-1.082-0.04l-1.375-0.794
				C113.759,148.07,113.729,147.803,113.981,147.614z"/>
			<g>
				<path fill="#D4ECFF" d="M108.606,153.021c0.456,0,0.912-0.105,1.275-0.314l4.951-2.859c0.272-0.158,0.366-0.507,0.208-0.781
					c-0.158-0.272-0.506-0.368-0.781-0.208l-4.949,2.858c-0.367,0.212-1.039,0.212-1.408,0l-8.228-4.766
					c-0.271-0.159-0.622-0.064-0.78,0.209c-0.157,0.273-0.064,0.623,0.21,0.78l8.228,4.765
					C107.695,152.916,108.15,153.021,108.606,153.021z"/>
			</g>
		</g>
		<g>
			<radialGradient id="SVGID_1_" cx="8.438" cy="136.6279" r="49.0682" gradientUnits="userSpaceOnUse">
				<stop  offset="0" style="stop-color:#01C8EF"/>
				<stop  offset="0.0894" style="stop-color:#03BEE9"/>
				<stop  offset="0.2388" style="stop-color:#08A5D7"/>
				<stop  offset="0.4288" style="stop-color:#107BBB"/>
				<stop  offset="0.4457" style="stop-color:#1177B8"/>
				<stop  offset="1" style="stop-color:#112564"/>
			</radialGradient>
			<polygon fill="url(#SVGID_1_)" points="61.008,142.549 68.957,137.928 64.504,135.917 60.693,138.619 			"/>
			<path fill="#5793CE" d="M112.054,135.689c-0.439-0.23-0.887-0.502-1.337-0.832l-16.938-12.414
				c-3.059-2.242-6.208-2.819-8.642-1.585c-0.063,0.032-0.118,0.077-0.18,0.111l-0.018-0.005l-23.396,13.573l2.103,0.7l8.192,3.715
				l11.146,7.906l8.796,4.668l0.399,0.085c2.052-1.728,4.348-3.209,5.607-5.729c2.178-3.811,8.241-4.902,11.807-7.992
				c0.36,0.229,0.72,0.442,1.079,0.627C111.41,137.795,111.608,136.766,112.054,135.689z"/>
			<path fill="#396CAA" d="M119.484,130.092c-0.363,0-0.693,0.128-0.959,0.335l-0.004-0.005l-22.894,13.251l0.837,3.423l0.858-0.41
				c-1.311,2.045-3.321,3.39-5.144,4.924l2.588,0.548l22.421-13.046c0.104-0.045,0.209-0.083,0.311-0.134
				c0.307-0.156,0.593-0.343,0.863-0.549l0.039-0.023l-0.015,0.001c1.707-1.318,2.671-3.611,2.671-6.475v-0.27
				C121.058,130.797,120.354,130.092,119.484,130.092z"/>
			<g>
				<path fill="#EAEAEA" d="M88.134,120.227c1.429,0.052,2.961,0.543,4.495,1.454C91.095,120.77,89.563,120.278,88.134,120.227z"/>
				<path fill="#5793CE" d="M98.56,144.74v-0.269c0-0.868-0.704-1.573-1.573-1.573s-1.573,0.705-1.573,1.573v0.269
					c0,2.104-0.669,3.648-1.835,4.239c-1.317,0.667-3.321,0.177-5.358-1.316L71.28,135.25c-2.606-1.91-5.276-2.599-7.516-2.001
					l13.99-8.116l-16.21,9.404l2.103,0.7l8.192,3.715l11.146,7.907l8.796,4.667l0.399,0.085c2.052-1.728,4.348-3.209,5.607-5.729
					c0.217-0.379,0.48-0.725,0.769-1.055C98.556,144.798,98.56,144.771,98.56,144.74z"/>
			</g>
			<g>
				<path fill="#D4ECFF" d="M91.772,152.93c-1.854,0.001-3.895-0.754-5.896-2.221l-16.939-12.413
					c-2.037-1.492-4.039-1.984-5.359-1.317c-1.167,0.591-1.835,2.136-1.835,4.239c0,0.869-0.705,1.573-1.573,1.573
					c-0.869,0-1.574-0.705-1.574-1.573c0-3.331,1.297-5.898,3.559-7.045c2.433-1.233,5.583-0.656,8.641,1.585l16.939,12.413
					c2.037,1.493,4.041,1.983,5.358,1.316c1.166-0.591,1.835-2.136,1.835-4.239v-0.269c0-0.869,0.704-1.573,1.573-1.573
					s1.573,0.705,1.573,1.573v0.269c0,3.331-1.297,5.899-3.559,7.046C93.677,152.721,92.751,152.93,91.772,152.93z"/>
			</g>
		</g>
	</g>
	<g>
		<g>
			<path fill="#173D7A" d="M78.46,180.682c0,0-3.19-1.609-5.149,0.787s-4.76,8.051-4.847,11.873
				c-0.087,3.822,3.024,3.563,4.873,2.659c1.85-0.905,7.251-8.741,7.578-10.276c0.327-1.536-0.386-3.611-0.905-4.018
				S78.46,180.682,78.46,180.682z"/>
			<path fill="#5793CE" d="M79.156,179.914l0.147,3.305c0.031,0.703-0.322,1.372-0.934,1.72c-0.558,0.316-1.367,0.559-2.461,0.382
				c-2.403-0.386-2.618-1.073-2.79-4.377C72.948,177.639,79.156,179.914,79.156,179.914z"/>
			<g>
				<path fill="#173D7A" d="M66.782,174.327c0,0-3.19-1.609-5.15,0.787c-1.959,2.396-4.76,8.051-4.847,11.873
					c-0.086,3.821,3.024,3.563,4.874,2.659c1.849-0.905,7.251-8.741,7.578-10.276c0.327-1.535-0.386-3.611-0.905-4.018
					S66.782,174.327,66.782,174.327z"/>
				<path fill="#5793CE" d="M67.479,173.558l0.147,3.305c0.031,0.703-0.322,1.373-0.935,1.72c-0.557,0.316-1.366,0.559-2.46,0.383
					c-2.403-0.387-2.618-1.073-2.79-4.378C61.27,171.283,67.479,173.558,67.479,173.558z"/>
				<path fill="#D4ECFF" d="M95.945,112.876c-0.944-15.364-16.639,2.26-16.639,2.26l-10.741,10.529l-9.673,10.625
					c-1.889,2.075-2.768,4.877-2.402,7.659l3.913,29.795c0.193,1.471,1.452,2.557,2.936,2.545c0.419-0.004,0.899-0.042,1.449-0.127
					c3.491-0.544,3.233-3.863,3.233-3.863l-0.715-27.866l20.313-12.245C87.62,132.188,96.89,128.239,95.945,112.876z"/>
			</g>
			<path fill="#D4ECFF" d="M107.623,118.729c-0.943-15.364-16.638,2.26-16.638,2.26l-10.742,10.528l-9.672,10.625
				c-1.89,2.075-2.769,4.877-2.403,7.66l3.913,29.794c0.193,1.471,1.452,2.557,2.937,2.545c0.419-0.003,0.899-0.042,1.449-0.127
				c3.49-0.544,3.233-3.863,3.233-3.863l-0.716-27.866l20.313-12.246C99.298,138.041,108.567,134.093,107.623,118.729z"/>
			<path fill="#FF6600" d="M98.339,69.411c11.898,4.933,11.66,11.967,11.66,11.967s-2.331,25.785-1.535,43.006
				c0.332,7.199-38.249,7.748-32.495-11.458c6.784-22.645,4.241-40.978,7.417-43.743C86.562,66.418,95.261,68.135,98.339,69.411z"/>
			
				<ellipse transform="matrix(0.9684 0.2495 -0.2495 0.9684 21.5328 -21.662)" fill="#FFC2B0" cx="96.224" cy="74.117" rx="6.137" ry="4.517"/>
			<path fill="#FFFFFF" d="M97.105,79.319c-0.698,0-1.422-0.089-2.15-0.277c-1.704-0.439-3.186-1.346-4.172-2.554
				c-1.026-1.26-1.4-2.696-1.053-4.043c0.699-2.716,4.184-4.173,7.762-3.253c3.581,0.923,5.925,3.882,5.226,6.598l0,0
				C102.16,77.953,99.837,79.319,97.105,79.319z M95.314,70.049c-2.21,0-4.058,1.027-4.482,2.679
				c-0.255,0.989,0.041,2.068,0.833,3.04c0.834,1.022,2.103,1.794,3.573,2.173c2.974,0.768,5.835-0.325,6.378-2.435
				c0.542-2.108-1.435-4.447-4.407-5.213C96.564,70.127,95.926,70.049,95.314,70.049z"/>
			<path fill="#FFC2B0" d="M93.568,68.875c0,0,0.103,0.477-0.104,4.248c-0.064,1.185,4.086,2.292,5.158,1.22
				c1.073-1.073,0.645-2.189,0.901-6.223C99.782,64.085,93.568,68.875,93.568,68.875z"/>
			<path fill="#EA9C92" d="M99.524,68.119c0,0-1.021,3.741-6.061,5.176l0.077-3.4L99.524,68.119z"/>
			<circle fill="#FFC2B0" cx="93.85" cy="60.909" r="9.159"/>
			<path fill="#EA9C92" d="M95.953,61.245c0,0-5.043,2.16-8.534,2.185c-3.492,0.025-2.723-2.899-2.723-2.899l10.365-1.498
				L95.953,61.245z"/>
			<path fill="#F9BF30" d="M86.378,61.814c0,0,4.393-1.865,8.246-1.087c0.905,0.183,1.745,0.667,2.329,1.384
				c0.19,0.234,0.431,0.448,0.704,0.51c0.684,0.155,1.802-2.68,3.131-2.745c1.328-0.065,2.214,0.875,1.125,2.619
				c-1.089,1.743-0.721,3.694-0.22,3.975c0.501,0.279,5.816-3.791,1.128-13.078c-4.688-9.288-16.598-4.285-18.45-2.403
				c0,0-1.951,1.7-3.538,0.188C80.833,51.176,79.055,64.5,86.378,61.814z"/>
			<path fill="#FFC2B0" d="M103.324,100.217v6.967c0,0.799-0.336,1.561-0.927,2.098l-14.313,13.049l1.626,2.487l18.902-13.709
				c0.882-0.64,1.451-1.625,1.564-2.708l1.278-12.151L103.324,100.217z"/>
			<path fill="#FF6600" d="M108.991,77.894c0,0,4.343,6.531,5.96,23.72c0,0-7.417,2.399-11.627,1.037
				C99.114,101.289,108.991,77.894,108.991,77.894z"/>
			<path fill="#DD7224" d="M102.531,86.151c0,0-1.7,9.098-1.797,13.374c-0.026,1.175,0.691,2.236,1.797,2.636l0,0V86.151z"/>
		</g>
		<g>
			<path fill="#173D7A" d="M98.817,131.391l-3.163-0.417l-20.421-11.79c-0.655-0.378-1.799-0.331-2.555,0.106l-14.47,8.352
				l-1.913-0.253v1.904h0.002c-0.012,0.251,0.13,0.493,0.439,0.671l23.143,13.361c0.654,0.378,1.798,0.331,2.554-0.105l15.759-9.096
				c0.426-0.245,0.638-0.562,0.625-0.858l0,0V131.391z"/>
			<path fill="#396CAA" d="M83.474,123.941l-1.45-0.838H66.072l-7.864,4.537l-1.913-0.253v1.904h0.002
				c-0.012,0.251,0.13,0.493,0.439,0.671l23.143,13.361c0.346,0.2,0.828,0.28,1.318,0.247L83.474,123.941z"/>
			<path fill="#5793CE" d="M57.145,127.5l-0.849-0.112v1.904h0.002c-0.012,0.251,0.13,0.493,0.439,0.671l0.408,0.235V127.5z"/>
			<path fill="#274F89" d="M80.113,143.433c0.62,0.235,1.508,0.185,2.17-0.135v-3.24h-2.17V143.433z"/>
			<path fill="#FFFFFF" d="M79.88,141.421L56.737,128.06c-0.655-0.378-0.573-1.038,0.183-1.475l15.759-9.095
				c0.756-0.436,1.899-0.484,2.555-0.106l23.143,13.362c0.655,0.378,0.573,1.038-0.184,1.475l-15.759,9.095
				C81.678,141.752,80.534,141.8,79.88,141.421z"/>
			<path fill="#D4ECFF" d="M79.488,139.396l-19.243-11.11c-0.544-0.314-0.477-0.863,0.152-1.227l8.444-4.749
				c0.629-0.363,1.58-0.402,2.124-0.088l19.243,11.11c0.545,0.314,0.477,0.863-0.152,1.227l-8.444,4.749
				C80.983,139.671,80.032,139.71,79.488,139.396z"/>
		</g>
		<path fill="#FFC2B0" d="M73.573,117.051l-0.239,1.597c-0.204,1.36-0.169,2.746,0.104,4.094l0.285,1.407
			c0.16,0.793,0.788,1.409,1.585,1.554l0,0c0.622,0.113,1.21-0.324,1.28-0.952l0.382-3.414c0,0,0.874,1.145,1.296,1.145
			c0.421,0-0.473-3.419-1.426-5.354C75.887,115.194,73.573,117.051,73.573,117.051z"/>
		<path fill="#FFC2B0" d="M81.419,91.672l-2.483,4.915c-0.588,1.162-0.934,2.431-1.017,3.73l-1.078,16.812l-3.268-0.078
			l-1.482-18.879c-0.046-0.583-0.018-1.169,0.085-1.745l1.693-9.573L81.419,91.672z"/>
		<g>
			<path fill="#173D7A" d="M79.096,142.705l-1.94-2.533l-20.407-11.815c-0.654-0.379-1.184-1.394-1.183-2.267l0.018-16.708
				l-1.173-1.532l1.103-0.638l0.001,0.001c0.211-0.136,0.491-0.132,0.8,0.046l23.127,13.39c0.654,0.379,1.184,1.394,1.183,2.266
				l-0.02,18.195c-0.001,0.491-0.169,0.833-0.433,0.97l0,0L79.096,142.705z"/>
			<path fill="#396CAA" d="M64.984,133.125l-1.45-0.839l-7.958-13.823l0.008-9.079l-1.173-1.532l1.103-0.638l0.001,0.001
				c0.211-0.136,0.491-0.132,0.8,0.046l23.127,13.39c0.346,0.2,0.655,0.578,0.871,1.019L64.984,133.125z"/>
			<path fill="#5793CE" d="M54.931,108.531l-0.521-0.68l1.103-0.638l0.001,0.001c0.211-0.136,0.491-0.132,0.8,0.046l0.408,0.236
				L54.931,108.531z"/>
			<path fill="#274F89" d="M79.651,120.798c0.514,0.421,0.912,1.215,0.966,1.948l-2.26,1.305l-1.083-1.881L79.651,120.798z"/>
			<path fill="#5793CE" d="M78.34,121.288l-23.127-13.39c-0.654-0.378-1.186,0.022-1.187,0.895l-0.02,18.195
				c-0.001,0.873,0.528,1.887,1.183,2.266l23.127,13.39c0.654,0.378,1.186-0.022,1.187-0.895l0.02-18.195
				C79.523,122.682,78.994,121.667,78.34,121.288z"/>
		</g>
		<path fill="#FFC2B0" d="M89.711,124.818l-0.371,0.768c-0.426,0.884-1.097,1.627-1.933,2.143l-2.297,1.416
			c-0.715,0.44-1.62,0.477-2.346,0.055c-0.025-0.016-0.052-0.031-0.078-0.048c-0.729-0.457-0.796-1.505-0.195-2.123l2.401-2.468
			c0,0-1.35,1.033-1.728,0.617c-0.276-0.305,1.309-1.793,2.525-1.842s2.395-1.005,2.395-1.005L89.711,124.818z"/>
		<path fill="#FF6600" d="M83.624,69.147c0,0-8.801,9.575-12.351,18.359c0,0,3.01,5.422,10.376,7.549S83.624,69.147,83.624,69.147z"
			/>
		<path fill="#DD7224" d="M79.992,94.488l1.427-13.779l-3.361,12.91C78.656,93.931,79.305,94.222,79.992,94.488z"/>
		<path fill="#FFFFFF" d="M90.216,67.215l-2.365-0.649c0,0,1.129,1.776,2.777,2.229c1.647,0.453,1.904-0.942,1.904-0.942
			L90.216,67.215z"/>
	</g>
</g>
<path fill="#5793CE" d="M285.472,239.615c-0.113,0-0.229-0.029-0.335-0.09l-87.61-50.581c-0.321-0.186-0.432-0.597-0.246-0.918
	c0.186-0.322,0.597-0.432,0.918-0.247l87.61,50.581c0.321,0.186,0.432,0.597,0.246,0.918
	C285.93,239.495,285.704,239.615,285.472,239.615z"/>
<g>
	<polygon fill="#D4ECFF" points="65.17,277.948 73.959,283.16 67.428,286.83 58.638,281.618 	"/>
</g>
<g>
	<polygon fill="#D4ECFF" points="87.036,292.252 95.825,297.465 89.294,301.135 80.504,295.922 	"/>
</g>
<g>
	<g>
		<polygon fill="#FF6600" points="106.31,304.481 115.1,309.693 108.567,313.363 99.778,308.151 		"/>
	</g>
</g>
<g>
	<g>
		<polygon fill="#FF6600" points="159.308,171.469 168.098,176.681 161.565,180.351 152.776,175.139 		"/>
	</g>
</g>
<g>
	<polygon fill="#5793CE" points="154.679,103.183 163.469,108.395 156.937,112.065 148.147,106.853 	"/>
</g>
<g>
	<polygon fill="#5793CE" points="40.032,139.809 48.821,145.021 42.29,148.691 33.5,143.479 	"/>
</g>
<g>
	<polygon fill="#5793CE" points="197.66,204.731 206.449,209.943 199.918,213.613 191.129,208.401 	"/>
</g>
<g>
	<polygon fill="#D4ECFF" points="169.013,134.435 177.802,139.647 171.271,143.317 162.48,138.105 	"/>
</g>
<g>
	<polygon fill="#D4ECFF" points="101.028,169.809 109.818,175.021 103.286,178.691 94.497,173.479 	"/>
</g>
<g>
	<polygon fill="#5793CE" points="319.407,123.854 328.196,129.066 321.665,132.736 312.875,127.524 	"/>
</g>
<g>
	<polygon fill="#D4ECFF" points="265.133,241.316 273.922,246.529 267.391,250.199 258.601,244.986 	"/>
</g>
<g>
	<polygon fill="#D4ECFF" points="128.911,316.91 137.7,322.123 131.169,325.793 122.379,320.58 	"/>
</g>
<g>
	<polygon fill="#5793CE" points="93.368,316.91 102.157,322.123 95.626,325.793 86.837,320.58 	"/>
</g>
<g>
	<polygon fill="#D4ECFF" points="118.979,328.429 127.769,333.641 121.237,337.311 112.447,332.099 	"/>
</g>
<g>
	<polygon fill="#5793CE" points="149.201,329.281 157.991,334.493 151.459,338.163 142.67,332.951 	"/>
</g>
<g>
	<polygon fill="#D4ECFF" points="169.84,342.001 178.629,347.213 172.098,350.884 163.309,345.671 	"/>
</g>
<g>
	<g>
		<polygon fill="#FF6600" points="297.451,271.497 306.241,276.709 299.709,280.379 290.92,275.167 		"/>
	</g>
</g>
<g>
	<polygon fill="#D4ECFF" points="67.938,300.04 76.727,305.253 70.195,308.923 61.405,303.711 	"/>
</g>
<g>
	<g>
		<path fill="#C66422" d="M65.037,222.204L44.96,210.613c-0.397-0.229-0.756-0.238-1.038-0.083c0-0.002,0.001-0.014,0.001-0.014
			l-1.947,1.126c0,0,0.862,0.314,1.369,0.5v14.62c0,1.189,0.723,2.571,1.615,3.087l19.189,11.078v1.716l1.968-1.133l-0.011-0.004
			c0.332-0.202,0.546-0.647,0.546-1.288v-14.928C66.652,224.102,65.929,222.72,65.037,222.204z"/>
		<path fill="#FF6600" d="M63.054,242.584l-20.077-11.592c-0.892-0.516-1.615-1.896-1.615-3.086v-14.929
			c0-1.189,0.723-1.736,1.615-1.222l20.077,11.592c0.892,0.515,1.615,1.896,1.615,3.086v14.929
			C64.669,242.552,63.946,243.099,63.054,242.584z"/>
	</g>
	<g>
		<path fill="#FFFFFF" d="M49.729,225.848c0,0.864-0.606,1.214-1.354,0.782c-0.749-0.432-1.355-1.482-1.355-2.347
			c0-0.863,0.606-1.213,1.355-0.781C49.122,223.934,49.729,224.984,49.729,225.848z"/>
		<path fill="#FFFFFF" d="M53.832,228.217c0,0.864-0.606,1.215-1.354,0.782c-0.748-0.432-1.354-1.482-1.354-2.346
			c0-0.864,0.606-1.214,1.354-0.782S53.832,227.354,53.832,228.217z"/>
		<path fill="#FFFFFF" d="M57.936,230.586c0,0.864-0.606,1.215-1.354,0.782c-0.748-0.432-1.354-1.481-1.354-2.346
			s0.606-1.214,1.354-0.782S57.936,229.723,57.936,230.586z"/>
	</g>
</g>
<g>
	<g>
		<path fill="#5793CE" d="M290.914,77.401l-20.076-11.591c-0.397-0.229-0.757-0.238-1.038-0.083c0-0.001,0.001-0.013,0.001-0.013
			l-1.947,1.125c0,0,0.862,0.314,1.369,0.5V81.96c0,1.189,0.723,2.571,1.615,3.086l19.189,11.079v1.716l1.967-1.133l-0.01-0.004
			c0.332-0.203,0.545-0.648,0.545-1.288V80.488C292.529,79.298,291.807,77.917,290.914,77.401z"/>
		<path fill="#D4ECFF" d="M288.931,97.78l-20.076-11.591c-0.893-0.516-1.615-1.897-1.615-3.087V68.175
			c0-1.19,0.723-1.736,1.615-1.222l20.076,11.592c0.893,0.515,1.616,1.896,1.616,3.086V96.56
			C290.547,97.749,289.823,98.296,288.931,97.78z"/>
	</g>
	<g>
		<path fill="#FFFFFF" d="M275.606,81.045c0,0.864-0.606,1.214-1.355,0.782c-0.748-0.432-1.354-1.482-1.354-2.347
			c0-0.863,0.606-1.214,1.354-0.782C275,79.131,275.606,80.181,275.606,81.045z"/>
		<path fill="#FFFFFF" d="M279.71,83.414c0,0.864-0.606,1.214-1.354,0.782C277.606,83.765,277,82.714,277,81.85
			s0.606-1.214,1.355-0.782C279.104,81.5,279.71,82.55,279.71,83.414z"/>
		<path fill="#FFFFFF" d="M283.813,85.783c0,0.864-0.606,1.214-1.354,0.782c-0.748-0.432-1.354-1.482-1.354-2.346
			s0.606-1.214,1.354-0.782C283.207,83.869,283.813,84.92,283.813,85.783z"/>
	</g>
</g>
<g>
	<g>
		<path fill="#C66422" d="M272.658,69.129c0-4.929-3.462-10.924-7.73-13.389c-2.08-1.2-3.964-1.335-5.354-0.595l-0.004-0.007
			l-0.084,0.048c-0.016,0.009-0.031,0.018-0.048,0.027l-2.691,1.55l1.274-0.08c-0.522,0.901-0.824,2.081-0.824,3.519
			c0,4.93,3.461,10.924,7.73,13.389c1.13,0.653,2.2,0.984,3.168,1.039c-0.175,0.337-0.593,1.166-0.593,1.166l2.801-1.622
			c0.059-0.032,0.116-0.065,0.174-0.1l0.126-0.073c0,0-0.023,0.004-0.028,0.005C271.863,73.157,272.658,71.482,272.658,69.129z"/>
		<path fill="#FF6600" d="M269.859,70.742c0,4.93-3.461,6.928-7.73,4.463s-7.73-8.459-7.73-13.389s3.461-6.928,7.73-4.463
			S269.859,65.812,269.859,70.742z"/>
	</g>
	<g>
		<path fill="#FFFFFF" d="M261.896,71.161c-0.414-0.239-0.765-0.509-1.05-0.81c-0.286-0.3-0.507-0.629-0.663-0.989
			c-0.156-0.359-0.269-0.73-0.334-1.112c-0.067-0.382-0.101-0.811-0.101-1.286l1.424,0.822c0,0.268,0.009,0.494,0.025,0.68
			c0.017,0.188,0.051,0.379,0.103,0.575c0.051,0.197,0.13,0.366,0.239,0.512s0.247,0.265,0.413,0.357
			c0.105,0.06,0.198,0.092,0.277,0.096c0.081,0.002,0.146-0.008,0.2-0.033c0.052-0.024,0.097-0.086,0.134-0.184
			c0.038-0.098,0.066-0.188,0.085-0.269c0.019-0.082,0.032-0.212,0.041-0.389c0.008-0.178,0.014-0.325,0.015-0.442
			c0.002-0.117,0.003-0.289,0.003-0.517c0-0.247-0.004-0.456-0.013-0.626s-0.028-0.349-0.059-0.54
			c-0.03-0.19-0.073-0.351-0.128-0.48c-0.054-0.128-0.131-0.253-0.229-0.374c-0.1-0.12-0.219-0.22-0.358-0.301
			c-0.2-0.115-0.369-0.135-0.507-0.057s-0.235,0.226-0.293,0.444l-1.245-0.719l0.066-5.387l3.841,2.218v1.525l-2.602-1.502
			l-0.087,2.253c0.112-0.076,0.269-0.102,0.467-0.075c0.199,0.026,0.42,0.106,0.661,0.237c0.329,0.174,0.617,0.399,0.862,0.674
			c0.244,0.275,0.44,0.588,0.589,0.941c0.147,0.352,0.258,0.731,0.329,1.135c0.071,0.405,0.107,0.84,0.107,1.309
			c0,0.432-0.019,0.807-0.054,1.123c-0.036,0.317-0.103,0.605-0.199,0.865c-0.097,0.261-0.227,0.446-0.388,0.558
			c-0.161,0.11-0.375,0.151-0.641,0.122C262.564,71.486,262.255,71.368,261.896,71.161z"/>
	</g>
</g>
<path fill="#FF6600" d="M256.846,192.661l-3.669-5.96c-0.289-0.471-0.143-1.087,0.327-1.376c0.472-0.291,1.087-0.143,1.376,0.327
	l2.69,4.37l8.507-4.467c0.491-0.254,1.095-0.068,1.351,0.421c0.257,0.489,0.068,1.094-0.421,1.351L256.846,192.661z"/>
<path fill="#FF6600" d="M250.836,168.477c-1.92,0-4.111-0.987-5.825-1.978c-5.19-2.997-7.823-7.02-7.823-11.955
	c0-2.783,0.987-4.887,2.78-5.922c1.793-1.036,4.109-0.839,6.518,0.554c4.614,2.663,8.368,9.165,8.368,14.493
	c0,2.11-0.651,3.556-1.938,4.298C252.294,168.326,251.585,168.477,250.836,168.477z M242.495,149.83
	c-0.591,0-1.129,0.134-1.597,0.405c-1.193,0.688-1.85,2.218-1.85,4.309c0,4.223,2.319,7.703,6.893,10.344
	c2.689,1.553,4.95,2.099,6.044,1.467c0.668-0.386,1.007-1.289,1.007-2.686c0-4.735-3.336-10.514-7.437-12.882
	C244.455,150.152,243.412,149.83,242.495,149.83z"/>
<path fill="#FF6600" d="M258.078,160.037c-0.27,0-0.537-0.116-0.721-0.34c-4.593-5.612-13.725-9.708-13.816-9.75
	c-0.47-0.208-0.681-0.759-0.473-1.229c0.209-0.469,0.759-0.683,1.228-0.473c0.392,0.173,9.625,4.313,14.501,10.271
	c0.326,0.398,0.268,0.984-0.13,1.31C258.493,159.968,258.285,160.037,258.078,160.037z"/>
</svg>
