<?xml version="1.0" encoding="utf-8"?>
<!-- Generator: Adobe Illustrator 16.0.0, SVG Export Plug-In . SVG Version: 6.00 Build 0)  -->
<!DOCTYPE svg PUBLIC "-//W3C//DTD SVG 1.1//EN" "http://www.w3.org/Graphics/SVG/1.1/DTD/svg11.dtd">
<svg version="1.1" id="Слой_1" xmlns="http://www.w3.org/2000/svg" xmlns:xlink="http://www.w3.org/1999/xlink" x="0px" y="0px"
	 width="398px" height="368px" viewBox="0 0 398 368" enable-background="new 0 0 398 368" xml:space="preserve">
<path fill="#D4ECFF" d="M283.252,298.328l-0.506-0.863l14.93-8.752c1.844-1.08,4.133-1.072,5.971,0.027l12.339,7.371l-0.514,0.859
	l-12.339-7.373c-1.523-0.91-3.422-0.918-4.951-0.021L283.252,298.328z"/>
<path fill="#D4ECFF" d="M327.678,295.91l-0.508-0.861l38.731-22.887c0.369-0.219,0.591-0.605,0.593-1.035s-0.218-0.818-0.585-1.039
	l-12.859-7.896l0.523-0.852l12.854,7.895c0.669,0.4,1.069,1.111,1.066,1.896s-0.408,1.492-1.085,1.893L327.678,295.91z"/>
<path fill="#D4ECFF" d="M285.498,264.385L285,263.518l37.747-21.734c0.391-0.226,0.624-0.63,0.624-1.081
	c-0.001-0.45-0.234-0.854-0.626-1.079l-19.978-11.475c-2.736-1.57-4.436-4.507-4.436-7.661v-65.732c0-2.724,1.344-5.263,3.596-6.794
	l3-2.041l0.563,0.826l-3,2.041c-1.978,1.346-3.158,3.577-3.158,5.968v65.732c0,2.798,1.507,5.401,3.934,6.794l19.978,11.475
	c0.705,0.404,1.127,1.132,1.128,1.945c0,0.813-0.42,1.542-1.125,1.949L285.498,264.385z"/>
<path fill="#FF6600" d="M283,285.143c-0.344,0-0.678-0.176-0.863-0.494c-0.279-0.477-0.12-1.088,0.356-1.367l14.93-8.752
	c2.001-1.176,4.484-1.166,6.479,0.027l12.339,7.371c0.475,0.283,0.629,0.898,0.346,1.371c-0.284,0.475-0.899,0.629-1.371,0.346
	l-12.339-7.371c-1.368-0.818-3.07-0.822-4.442-0.02l-14.93,8.752C283.346,285.1,283.172,285.143,283,285.143z"/>
<path fill="#D4ECFF" d="M261.827,331.941l-83.076-47.963c-2.889-1.668-2.526-4.58,0.809-6.506l0,0
	c3.335-1.926,8.38-2.135,11.268-0.467l83.076,47.964c2.889,1.667,2.526,4.579-0.809,6.505l0,0
	C269.76,333.4,264.715,333.609,261.827,331.941z"/>
<g>
	<g>
		<g>
			<path fill="#D4ECFF" d="M341.285,205.035c-0.62-0.357-1.288-0.669-1.983-0.947l0.021-0.002l-3.814-1.69l0.287,0.666
				c-2.891-0.575-6.028-0.611-8.945-0.095l0.178-0.74l-4.487,1.988l0.026,0.002c-0.583,0.248-1.149,0.514-1.678,0.818
				c-5.632,3.252-5.632,8.524,0.001,11.775c5.632,3.252,14.764,3.252,20.396,0.001C346.917,213.56,346.917,208.287,341.285,205.035z
				"/>
			<path fill="#5793CE" d="M335.866,208.105c-2.64,1.524-6.919,1.524-9.558,0c-2.64-1.523-2.64-3.994,0-5.518
				c2.639-1.523,6.918-1.523,9.558,0C338.505,204.111,338.505,206.582,335.866,208.105z"/>
		</g>
		<g>
			<path fill="#5793CE" d="M331.087,206.398L331.087,206.398c-1.269,0-2.297-1.028-2.297-2.297v-29.043h4.595v29.043
				C333.385,205.37,332.355,206.398,331.087,206.398z"/>
			<path fill="#5793CE" d="M332.703,176.113c-0.916,0.528-2.4,0.528-3.316,0c-0.916-0.529-0.916-1.386,0-1.915s2.4-0.529,3.316,0
				S333.619,175.584,332.703,176.113z"/>
		</g>
		<path fill="#D4ECFF" d="M331.087,176.056L331.087,176.056c-1.028,0-1.862-0.833-1.862-1.862v-27.301h3.725v27.301
			C332.949,175.223,332.115,176.056,331.087,176.056z"/>
		<g>
			<path fill="#396CAA" d="M357.866,161.199v-1.069l1.51-0.218l1.691-1.265c0.273-0.205,0.797-0.225,1.113-0.042l1.248,0.72
				l1.236-0.179v1.083l-0.005,0.001c-0.007,0.123-0.1,0.244-0.284,0.326l-3.938,1.754c-0.313,0.139-0.754,0.123-1.032-0.039
				l-1.312-0.757c-0.15-0.087-0.222-0.202-0.222-0.318L357.866,161.199z"/>
			<path fill="#5793CE" d="M358.028,159.843l3.039-2.273c0.273-0.205,0.797-0.225,1.113-0.042l2.267,1.309
				c0.317,0.183,0.283,0.485-0.071,0.643l-3.938,1.754c-0.313,0.139-0.754,0.123-1.032-0.038l-1.312-0.757
				C357.816,160.277,357.788,160.022,358.028,159.843z"/>
			<g>
				<path fill="#D4ECFF" d="M352.903,165c0.435,0,0.869-0.101,1.216-0.3l4.722-2.727c0.26-0.151,0.35-0.484,0.198-0.745
					c-0.15-0.26-0.482-0.35-0.744-0.199l-4.721,2.726c-0.351,0.202-0.991,0.202-1.343,0l-7.847-4.545
					c-0.258-0.151-0.593-0.062-0.744,0.199c-0.15,0.261-0.062,0.594,0.2,0.744l7.847,4.545C352.033,164.899,352.468,165,352.903,165
					z"/>
			</g>
		</g>
		<g>
			<radialGradient id="SVGID_1_" cx="257.3672" cy="149.3657" r="46.8008" gradientUnits="userSpaceOnUse">
				<stop  offset="0" style="stop-color:#01C8EF"/>
				<stop  offset="0.0894" style="stop-color:#03BEE9"/>
				<stop  offset="0.2388" style="stop-color:#08A5D7"/>
				<stop  offset="0.4288" style="stop-color:#107BBB"/>
				<stop  offset="0.4457" style="stop-color:#1177B8"/>
				<stop  offset="1" style="stop-color:#112564"/>
			</radialGradient>
			<polygon fill="url(#SVGID_1_)" points="307.509,155.012 315.09,150.605 310.842,148.687 307.208,151.264 			"/>
			<path fill="#5793CE" d="M356.19,148.471c-0.419-0.22-0.846-0.479-1.275-0.794l-16.154-11.839
				c-2.916-2.138-5.92-2.689-8.241-1.512c-0.061,0.031-0.112,0.073-0.171,0.106l-0.018-0.006l-22.312,12.944l2.005,0.667
				l7.813,3.543l10.63,7.541l8.389,4.452l0.381,0.081c1.956-1.647,4.146-3.062,5.347-5.463c2.077-3.635,7.86-4.675,11.261-7.622
				c0.343,0.218,0.687,0.422,1.029,0.598C355.576,150.479,355.766,149.497,356.19,148.471z"/>
			<path fill="#396CAA" d="M363.277,143.132c-0.347,0-0.661,0.122-0.915,0.319l-0.004-0.004l-21.833,12.638l0.798,3.265l0.818-0.391
				c-1.25,1.95-3.168,3.232-4.904,4.696l2.468,0.522l21.382-12.441c0.099-0.043,0.2-0.08,0.297-0.128
				c0.293-0.149,0.564-0.327,0.823-0.524l0.037-0.022l-0.014,0.001c1.628-1.256,2.547-3.444,2.547-6.174v-0.257
				C364.777,143.804,364.105,143.132,363.277,143.132z"/>
			<g>
				<path fill="#EAEAEA" d="M333.378,133.724c1.363,0.049,2.824,0.518,4.287,1.387C336.202,134.241,334.741,133.773,333.378,133.724
					z"/>
				<path fill="#5793CE" d="M343.321,157.102v-0.256c0-0.828-0.672-1.5-1.501-1.5c-0.828,0-1.5,0.672-1.5,1.5v0.256
					c0,2.006-0.638,3.479-1.75,4.043c-1.257,0.636-3.167,0.168-5.11-1.256l-16.155-11.838c-2.485-1.822-5.032-2.479-7.168-1.908
					l13.343-7.741l-15.46,8.969l2.005,0.667l7.813,3.543l10.63,7.541l8.389,4.452l0.381,0.081c1.956-1.647,4.146-3.061,5.347-5.463
					c0.207-0.362,0.459-0.692,0.733-1.006C343.317,157.157,343.321,157.131,343.321,157.102z"/>
			</g>
			<g>
				<path fill="#D4ECFF" d="M336.849,164.913c-1.768,0-3.714-0.719-5.623-2.118l-16.155-11.838c-1.942-1.423-3.852-1.892-5.11-1.255
					c-1.112,0.563-1.75,2.037-1.75,4.043c0,0.828-0.672,1.5-1.501,1.5c-0.828,0-1.5-0.672-1.5-1.5c0-3.177,1.237-5.626,3.394-6.72
					c2.32-1.175,5.325-0.625,8.241,1.512l16.155,11.839c1.943,1.423,3.854,1.891,5.11,1.255c1.112-0.563,1.75-2.037,1.75-4.042
					v-0.257c0-0.828,0.672-1.5,1.501-1.5c0.828,0,1.5,0.672,1.5,1.5v0.257c0,3.176-1.237,5.625-3.395,6.719
					C338.664,164.713,337.781,164.913,336.849,164.913z"/>
			</g>
		</g>
	</g>
	<g>
		<g>
			<path fill="#173D7A" d="M324.152,191.38c0,0-3.042-1.534-4.911,0.75c-1.868,2.285-4.539,7.679-4.622,11.323
				s2.884,3.398,4.647,2.535c1.764-0.862,6.915-8.336,7.228-9.8c0.312-1.464-0.368-3.444-0.863-3.831
				C325.135,191.97,324.152,191.38,324.152,191.38z"/>
			<path fill="#5793CE" d="M324.816,190.646l0.141,3.152c0.03,0.67-0.307,1.309-0.891,1.64c-0.531,0.302-1.304,0.532-2.347,0.365
				c-2.292-0.368-2.497-1.023-2.661-4.175C318.896,188.478,324.816,190.646,324.816,190.646z"/>
			<g>
				<path fill="#173D7A" d="M313.015,185.319c0,0-3.042-1.535-4.911,0.75c-1.868,2.284-4.539,7.679-4.622,11.322
					c-0.083,3.645,2.884,3.398,4.647,2.536c1.764-0.863,6.916-8.336,7.228-9.801c0.312-1.464-0.368-3.443-0.863-3.831
					C313.997,185.908,313.015,185.319,313.015,185.319z"/>
				<path fill="#5793CE" d="M313.679,184.585l0.141,3.152c0.03,0.67-0.307,1.309-0.891,1.64c-0.531,0.302-1.303,0.532-2.347,0.364
					c-2.292-0.368-2.497-1.022-2.66-4.174C307.758,182.417,313.679,184.585,313.679,184.585z"/>
				<path fill="#FDD762" d="M340.828,126.713c-0.9-14.652-15.868,2.156-15.868,2.156l-10.244,10.041l-9.225,10.133
					c-1.802,1.979-2.64,4.651-2.291,7.305l3.731,28.415c0.185,1.403,1.385,2.438,2.8,2.427c0.399-0.003,0.858-0.039,1.383-0.121
					c3.329-0.519,3.083-3.684,3.083-3.684l-0.682-26.576l19.372-11.678C332.888,145.131,341.729,141.365,340.828,126.713z"/>
			</g>
			<path fill="#FDD762" d="M351.965,132.296c-0.9-14.652-15.867,2.156-15.867,2.156l-10.244,10.041l-9.226,10.134
				c-1.801,1.979-2.64,4.651-2.291,7.305l3.732,28.415c0.184,1.402,1.385,2.438,2.8,2.427c0.399-0.003,0.857-0.04,1.382-0.121
				c3.329-0.519,3.084-3.684,3.084-3.684l-0.683-26.576l19.373-11.678C344.025,150.714,352.865,146.948,351.965,132.296z"/>
			<path fill="#ED852F" d="M343.11,85.262c11.348,4.704,11.12,11.412,11.12,11.412s-2.223,24.591-1.464,41.015
				c0.317,6.865-36.478,7.39-30.99-10.927c6.47-21.597,4.045-39.081,7.073-41.718C331.879,82.407,340.175,84.044,343.11,85.262z"/>
			
				<ellipse transform="matrix(0.9684 0.2494 -0.2494 0.9684 33.1687 -82.2451)" fill="#FFC2B0" cx="341.094" cy="89.749" rx="5.853" ry="4.308"/>
			<path fill="#FFFFFF" d="M341.955,94.713c-0.681,0-1.379-0.087-2.071-0.267c-1.626-0.419-3.038-1.284-3.979-2.438
				c-0.979-1.2-1.336-2.569-1.005-3.855c0.668-2.589,3.988-3.977,7.403-3.102c1.625,0.419,3.037,1.284,3.978,2.438
				c0.979,1.2,1.336,2.569,1.005,3.855c-0.331,1.286-1.305,2.312-2.742,2.89C343.752,94.553,342.87,94.713,341.955,94.713z
				 M340.226,85.869c-2.107,0-3.868,0.98-4.274,2.556c-0.243,0.942,0.039,1.972,0.795,2.898c0.795,0.975,2.005,1.711,3.408,2.072
				c1.403,0.362,2.817,0.3,3.984-0.168c1.109-0.446,1.854-1.211,2.097-2.153v-0.001c0.243-0.942-0.039-1.972-0.795-2.898
				c-0.795-0.975-2.005-1.711-3.408-2.072C341.418,85.944,340.809,85.869,340.226,85.869z"/>
			<path fill="#FFC2B0" d="M338.561,84.75c0,0,0.098,0.455-0.099,4.051c-0.062,1.13,3.896,2.187,4.92,1.163s0.614-2.087,0.859-5.935
				C344.487,80.182,338.561,84.75,338.561,84.75z"/>
			<path fill="#EA9C92" d="M344.241,84.029c0,0-0.975,3.567-5.779,4.936l0.073-3.242L344.241,84.029z"/>
			<circle fill="#FFC2B0" cx="338.829" cy="77.152" r="8.735"/>
			<path fill="#EA9C92" d="M340.835,77.473c0,0-4.81,2.061-8.139,2.084c-3.33,0.023-2.597-2.765-2.597-2.765l9.885-1.429
				L340.835,77.473z"/>
			<path fill="#FDD762" d="M331.703,78.016c0,0,4.189-1.778,7.864-1.037c0.864,0.174,1.665,0.636,2.222,1.32
				c0.182,0.224,0.411,0.427,0.672,0.486c0.651,0.147,1.719-2.557,2.985-2.618s2.111,0.835,1.073,2.498
				c-1.039,1.663-0.688,3.524-0.21,3.791c0.479,0.267,5.547-3.615,1.076-12.473c-4.472-8.857-15.829-4.087-17.596-2.292
				c0,0-1.861,1.621-3.374,0.179C326.416,67.87,324.72,80.577,331.703,78.016z"/>
			<path fill="#FFC2B0" d="M347.865,114.64v6.645c0,0.762-0.321,1.487-0.884,2l-13.65,12.445l1.551,2.372l18.027-13.074
				c0.841-0.61,1.384-1.549,1.492-2.583l1.219-11.588L347.865,114.64z"/>
			<path fill="#ED852F" d="M353.27,93.351c0,0,4.142,6.228,5.685,22.622c0,0-7.074,2.288-11.089,0.989S353.27,93.351,353.27,93.351z
				"/>
			<path fill="#DD7224" d="M347.108,101.226c0,0-1.621,8.677-1.713,12.755c-0.025,1.121,0.659,2.133,1.713,2.514l0,0V101.226z"/>
		</g>
		<g>
			<path fill="#173D7A" d="M343.567,144.371l-3.018-0.398l-19.476-11.244c-0.624-0.36-1.715-0.315-2.436,0.101l-13.8,7.964
				l-1.824-0.241v1.816h0.001c-0.012,0.239,0.125,0.469,0.419,0.639l22.071,12.743c0.625,0.36,1.716,0.315,2.437-0.101l15.029-8.674
				c0.405-0.234,0.607-0.535,0.596-0.819l0,0V144.371z"/>
			<path fill="#396CAA" d="M328.934,137.266l-1.384-0.799h-15.212l-7.499,4.327l-1.824-0.241v1.816h0.001
				c-0.012,0.239,0.125,0.469,0.419,0.639l22.071,12.743c0.33,0.19,0.791,0.267,1.258,0.235L328.934,137.266z"/>
			<path fill="#5793CE" d="M303.823,140.66l-0.809-0.107v1.816h0.001c-0.012,0.239,0.125,0.469,0.419,0.639l0.389,0.225V140.66z"/>
			<path fill="#274F89" d="M325.729,155.855c0.592,0.224,1.438,0.175,2.069-0.129v-3.09h-2.069V155.855z"/>
			<path fill="#FFFFFF" d="M325.506,153.937l-22.071-12.743c-0.624-0.361-0.546-0.99,0.175-1.407l15.029-8.674
				c0.721-0.416,1.812-0.461,2.436-0.101l22.072,12.743c0.624,0.36,0.546,0.99-0.175,1.406l-15.029,8.674
				C327.222,154.252,326.131,154.298,325.506,153.937z"/>
			<path fill="#D4ECFF" d="M325.133,152.006L306.78,141.41c-0.519-0.3-0.454-0.823,0.146-1.17l8.054-4.528
				c0.6-0.347,1.507-0.384,2.025-0.084l18.353,10.596c0.52,0.3,0.454,0.823-0.146,1.169l-8.054,4.529
				C326.559,152.268,325.652,152.306,325.133,152.006z"/>
		</g>
		<path fill="#FFC2B0" d="M319.492,130.695l-0.229,1.523c-0.194,1.297-0.161,2.619,0.1,3.905l0.271,1.342
			c0.153,0.757,0.752,1.344,1.513,1.482l0,0c0.593,0.108,1.153-0.309,1.221-0.908l0.364-3.256c0,0,0.833,1.092,1.235,1.092
			c0.401,0-0.45-3.261-1.36-5.106C321.698,128.924,319.492,130.695,319.492,130.695z"/>
		<path fill="#FFC2B0" d="M326.974,106.491l-2.368,4.688c-0.56,1.108-0.89,2.318-0.969,3.558l-1.029,16.033l-3.115-0.074
			l-1.414-18.005c-0.044-0.556-0.017-1.115,0.08-1.665l1.615-9.13L326.974,106.491z"/>
		<g>
			<path fill="#173D7A" d="M324.759,155.161l-1.851-2.416l-19.462-11.268c-0.624-0.361-1.129-1.329-1.128-2.162l0.017-15.934
				l-1.119-1.461l1.052-0.608l0.001,0.001c0.201-0.13,0.469-0.126,0.764,0.044l22.056,12.77c0.624,0.361,1.129,1.329,1.128,2.162
				l-0.019,17.353c-0.001,0.468-0.161,0.794-0.413,0.925l0,0L324.759,155.161z"/>
			<path fill="#396CAA" d="M311.3,146.024l-1.383-0.801l-7.59-13.184l0.008-8.658l-1.119-1.461l1.052-0.608l0.001,0.001
				c0.201-0.13,0.469-0.126,0.764,0.044l22.056,12.77c0.33,0.191,0.625,0.552,0.831,0.972L311.3,146.024z"/>
			<path fill="#5793CE" d="M301.713,122.569l-0.497-0.648l1.052-0.608l0.001,0.001c0.201-0.13,0.469-0.126,0.764,0.044l0.389,0.226
				L301.713,122.569z"/>
			<path fill="#274F89" d="M325.288,134.269c0.49,0.401,0.87,1.159,0.922,1.858l-2.155,1.245l-1.033-1.794L325.288,134.269z"/>
			<path fill="#5793CE" d="M324.037,134.736l-22.056-12.77c-0.624-0.361-1.131,0.021-1.132,0.854l-0.019,17.353
				c-0.001,0.833,0.504,1.8,1.128,2.161l22.057,12.771c0.623,0.361,1.13-0.021,1.131-0.854l0.019-17.353
				C325.166,136.064,324.661,135.097,324.037,134.736z"/>
		</g>
		<path fill="#FFC2B0" d="M334.882,138.103l-0.354,0.732c-0.406,0.843-1.046,1.552-1.843,2.043l-2.191,1.351
			c-0.682,0.42-1.544,0.455-2.236,0.052c-0.024-0.015-0.05-0.029-0.074-0.045c-0.696-0.437-0.76-1.436-0.187-2.025l2.289-2.354
			c0,0-1.286,0.986-1.646,0.589c-0.265-0.291,1.247-1.71,2.408-1.757c1.16-0.046,2.283-0.958,2.283-0.958L334.882,138.103z"/>
		<path fill="#ED852F" d="M329.077,85.01c0,0-8.393,9.132-11.778,17.509c0,0,2.87,5.17,9.895,7.2
			C334.219,111.748,329.077,85.01,329.077,85.01z"/>
		<path fill="#DD7224" d="M325.613,109.177l1.36-13.141l-3.205,12.312C324.34,108.646,324.958,108.923,325.613,109.177z"/>
		<path fill="#FFFFFF" d="M335.363,83.167l-2.255-0.62c0,0,1.076,1.694,2.648,2.125c1.571,0.432,1.816-0.899,1.816-0.899
			L335.363,83.167z"/>
	</g>
</g>
<path fill="#FF6600" d="M276.869,77.846l-89.513-51.69c-2.941-1.698-5.613-1.741-7.634-0.466l-0.004-0.021l-11.231,6.506
	l7.532,1.405c-0.024,0.385-0.046,0.773-0.046,1.18v211.126c0,8.382,5.096,18.119,11.383,21.749l88.255,50.964
	c-0.804,2.521-2.514,7.824-2.514,7.824l10.983-6.37h-0.003c2.547-1.313,4.174-4.6,4.174-9.333V99.594
	C288.252,91.212,283.155,81.475,276.869,77.846z"/>
<g>
	<polygon fill="#D4ECFF" points="361.01,259.088 347.565,251.326 334.122,259.088 347.565,266.85 	"/>
	<polygon fill="#E8A200" points="347.565,259.65 347.565,250.904 363.628,241.631 363.628,250.377 	"/>
	<polygon fill="#F9BF30" points="347.565,250.904 331.504,241.631 331.504,250.377 347.565,259.65 	"/>
	<polygon fill="#FDD762" points="363.628,241.631 347.565,232.357 331.504,241.631 347.565,250.904 	"/>
</g>
<path fill="#FFFFFF" d="M307.904,140.643c0,1.375-0.965,1.932-2.155,1.245s-2.155-2.359-2.155-3.733
	c0-1.375,0.965-1.932,2.155-1.244C306.939,137.597,307.904,139.269,307.904,140.643z"/>
<path fill="#FF6600" d="M285.25,258.225c-0.346,0-0.683-0.18-0.867-0.502c-0.276-0.479-0.111-1.09,0.367-1.365l37.747-21.734
	c0.338-0.195,0.374-0.519,0.374-0.648s-0.037-0.452-0.375-0.646l-19.978-11.474c-2.891-1.659-4.687-4.762-4.687-8.095v-65.733
	c0-2.889,1.426-5.582,3.814-7.207l3-2.041c0.457-0.312,1.078-0.191,1.39,0.265c0.311,0.457,0.192,1.08-0.265,1.39l-3,2.041
	c-1.841,1.251-2.939,3.328-2.939,5.553v65.733c0,2.619,1.411,5.057,3.683,6.36l19.978,11.474c0.862,0.495,1.378,1.385,1.379,2.38
	c0,0.994-0.514,1.885-1.376,2.382l-37.747,21.734C285.591,258.182,285.419,258.225,285.25,258.225z"/>
<path fill="#C66422" d="M175.974,245.886c0,8.382,5.096,18.119,11.383,21.749l88.255,50.964c-0.804,2.521-2.514,7.824-2.514,7.824
	l10.983-6.37h-0.003c2.547-1.313,4.174-4.6,4.174-9.333V99.594c0-4.373-1.396-9.107-3.615-13.158l-108.663,62.737V245.886z"/>
<path fill="#FF6600" d="M265.577,325.866l-89.513-51.69c-6.286-3.629-11.383-13.367-11.383-21.748V41.302
	c0-8.382,5.097-12.234,11.383-8.605l89.513,51.69c6.286,3.63,11.383,13.367,11.383,21.749v211.126
	C276.96,325.643,271.863,329.496,265.577,325.866z"/>
<polygon fill="#D3008D" points="179.482,98.824 172.553,94.056 169.847,85.178 167.14,90.93 164.672,89.779 164.672,94.668 
	165.467,95.909 164.672,99.437 164.672,102.799 169.847,102.112 175.802,109.778 174.227,100.967 "/>
<path fill="#FFFFFF" d="M263.91,318.877l-86.012-49.67c-4.673-2.697-8.461-9.935-8.461-16.164V44.916
	c0-6.23,3.788-9.094,8.461-6.396l86.012,49.669c4.672,2.698,8.46,9.935,8.46,16.165V312.48
	C272.37,318.711,268.582,321.574,263.91,318.877z"/>
<path fill="#EDEDED" d="M228.726,254.955l-42.22-24.376V127.946l19.893,11.485c13.816,7.977,22.327,22.718,22.327,38.672V254.955z"
	/>
<g>
	<path fill="#D4ECFF" d="M171.41,118.019l0.005,0.008c-4.261-2.538-10.182-2.225-16.721,1.55
		c-12.945,7.475-23.477,25.715-23.477,40.663v10.787v0l0,0l0,0l0.444,0.261l42.297,24.882l0.641-12.908l0.527-5.013l2.243-7.783
		l0.257-1.191l4.81-9.692l3.788-4.732l3.071-3.662l7.482-5.892l0.658-0.489l3.679-1.583l4.947-1.286h3.858l4.314,0.755
		L171.41,118.019z"/>
	<path fill="#D4ECFF" d="M176.801,217.781l1.371-0.791v-49.146c-0.712,0.97-1.045,2.215-1.371,3.479V217.781z"/>
	<polygon fill="#D4ECFF" points="219.543,242.406 176.801,217.781 177.242,171.258 178.874,166.559 183.821,158.05 189.675,151.107 
		194.952,146.886 200.657,143.423 211.009,142.236 216.483,145.337 219.543,150.02 220.507,157.209 220.178,234.975 	"/>
	<path fill="#5793CE" d="M171.415,118.027c-3.564-2.124-8.294-2.242-13.572-0.015l43.549,25.143l4.671-1.214h3.858l4.314,0.755
		l-42.825-24.677L171.415,118.027z"/>
	<g>
		<path fill="#E9F6FF" d="M158.868,117.606c-1.355,0.5-2.748,1.149-4.174,1.971c-0.953,0.55-1.891,1.165-2.814,1.827l43.412,25.064
			l1.486-1.17l0.658-0.489l3.679-1.583l1.468-0.381L158.868,117.606z"/>
		<path fill="#FFFFFF" d="M189.663,150.9l5.906-4.65l-43.399-25.056c-1.965,1.378-3.857,2.995-5.648,4.799L189.663,150.9z"/>
		<path fill="#5793CE" d="M220.913,241.615l-1.37,0.791v-83.858c0-14.074-9.917-19.8-22.106-12.762S175.33,170,175.33,184.074
			v11.306l-1.371,0.791v-11.306c0-14.947,10.531-33.188,23.478-40.663c12.945-7.474,23.477-1.394,23.477,13.554V241.615z"/>
	</g>
</g>
<polygon fill="#AEDEED" points="144.182,152.222 141.775,162.057 142.979,177.946 139.929,176.152 136.025,167.515 139.442,156.599 
	"/>
<g>
	<path opacity="0.4" fill="#FFFFFF" d="M214.114,215.162c-0.259,0-0.53-0.078-0.801-0.235l-31.082-17.945
		c-0.915-0.527-1.633-1.878-1.633-3.074v-24.456c0-0.719,0.266-1.284,0.729-1.551c0.411-0.239,0.911-0.213,1.404,0.073
		l31.082,17.945c0.915,0.527,1.633,1.878,1.633,3.074v24.456c0,0.719-0.266,1.284-0.729,1.553
		C214.531,215.108,214.327,215.162,214.114,215.162z M181.933,168.74c-0.038,0-0.074,0.008-0.105,0.025
		c-0.105,0.062-0.229,0.277-0.229,0.686v24.456c0,0.843,0.519,1.854,1.133,2.208l31.082,17.946c0.08,0.045,0.278,0.142,0.405,0.073
		c0.104-0.061,0.228-0.276,0.228-0.686v-24.456c0-0.843-0.519-1.854-1.133-2.208l-31.082-17.946
		C182.172,168.805,182.045,168.74,181.933,168.74z"/>
	<g>
		<path fill="#B2D3EA" d="M191.881,197.979l-0.219-0.126c-0.811-0.468-1.467-1.723-1.467-2.804v-11.654
			c0-1.081,0.656-1.577,1.467-1.109l0.219,0.126c0.811,0.467,1.467,1.722,1.467,2.803v11.653
			C193.348,197.95,192.691,198.446,191.881,197.979z"/>
		<path fill="#B2D3EA" d="M198.133,201.588l-0.219-0.127c-0.811-0.467-1.468-1.723-1.468-2.803v-6.82
			c0-1.081,0.657-1.577,1.468-1.109l0.219,0.126c0.81,0.468,1.467,1.724,1.467,2.804v6.82
			C199.6,201.559,198.942,202.056,198.133,201.588z"/>
		<path fill="#396CAA" d="M204.384,205.197l-0.219-0.127c-0.811-0.467-1.467-1.723-1.467-2.803v-16.236
			c0-1.08,0.656-1.577,1.467-1.109l0.219,0.126c0.811,0.468,1.467,1.723,1.467,2.803v16.236
			C205.851,205.168,205.194,205.665,204.384,205.197z"/>
	</g>
</g>
<g>
	<path fill="#D4ECFF" d="M135.418,325.923c10.443,6.029,27.376,6.029,37.819-0.001c10.443-6.029,10.443-15.805,0-21.834
		s-27.375-6.029-37.818,0S124.976,319.894,135.418,325.923z"/>
	<g>
		<path fill="#173D7A" d="M137.942,306.822c-1.863,0.797-3.036,2.873-2.881,5.105c0.073,1.053,0.2,2.034,0.42,2.495
			c0.593,1.244,2.536,2.952,5.637,1.727c3.102-1.226,9.988-7.696,10.246-11.933C151.844,296.35,142.848,304.728,137.942,306.822z"/>
		<path fill="#173D7A" d="M156.162,319.836c0,0-0.744,4.536-0.383,5.367c0.361,0.832,2.52,2.606,5.708,2.223
			s12.362-3.547,14.405-9.592c3.167-9.373-17.707,0.703-17.707,0.703L156.162,319.836z"/>
		<path fill="#FDD762" d="M165.126,247.316l0.71,70.816c-0.075,2.463-1.688,4.543-3.857,4.909c-0.269,0.046-0.556,0.082-0.863,0.108
			c-2.196,0.193-3.477-0.75-4.207-1.74c-0.591-0.802-0.902-1.818-0.946-2.859l-0.904-30.229l-4.513-27.029l-6.244,47.838
			c-0.101,1.294-0.72,2.49-1.717,3.149c-0.688,0.456-1.621,0.81-2.847,0.772c-1.787-0.054-3.028-1.011-3.785-1.864
			c-0.6-0.676-0.916-1.606-0.903-2.561l2.475-28.783l0.921-36.714L165.126,247.316z"/>
		<path fill="#FFC2B0" d="M155.955,183.929l-1.119,6.452c0,0-0.042,2.202,2.416,2.813c2.458,0.609,3.219-0.978,3.219-0.978
			l1.111-7.267L155.955,183.929z"/>
		<path fill="#FFC2B0" d="M169.503,180.394c-1.745,5.528-7.146,8.736-12.063,7.167c-4.916-1.57-7.487-7.325-5.742-12.853
			s7.146-8.737,12.063-7.167C168.677,169.111,171.248,174.866,169.503,180.394z"/>
		<path fill="#983BE9" d="M156.247,190.499c-0.17-0.069-10.43-6.675-14.222,0.237c-6.184,11.272-1.661,24.196-3.867,52.258
			c-0.369,4.695,6.319,7.557,9.481,9.363c2.813,1.607,5.962,2.592,9.202,2.617c3.206,0.025,9.354-2.824,9.131-7.016
			c-1.026-19.276,0.678-35.524,2.252-51.291C168.225,196.668,166.257,194.551,156.247,190.499z"/>
		<path fill="#D8892B" d="M150.545,261.292l-6.244,47.839c-0.101,1.293-0.72,2.489-1.717,3.148
			c-0.162,0.108-0.342,0.209-0.532,0.302c1.296-0.972,5.081-41.126,5.781-45.592C148.533,262.52,150.545,261.292,150.545,261.292z"
			/>
	</g>
	<polygon fill="#FFC2B0" points="189.514,196.339 198.103,179.29 195.408,177.588 186.506,190.574 	"/>
	<polygon fill="#FFC2B0" points="132.858,178.236 137.037,159.227 140.364,159.263 139.115,175.028 	"/>
	<path fill="#983BE9" d="M168.225,196.668c0,0,9.606,3.79,17.861-6.623c0.727-0.917,2.221-0.814,2.651,0.174
		c0.742,1.707,1.672,4.285,0.544,6.705c-4.988,10.707-22.011,10.335-26.111,16.337C159.068,219.263,168.225,196.668,168.225,196.668
		z"/>
	<path fill="#983BE9" d="M149.74,188.13c0,0-7.933,0.61-9.074-6.256c-0.588-3.535-0.765-5.647-0.798-6.863
		c-0.022-0.824-0.737-1.448-1.555-1.346c-1.899,0.236-4.841,0.802-5.24,2.076c-0.596,1.901-1.716,11.225,6.119,25.53
		C144.325,210.643,149.74,188.13,149.74,188.13z"/>
	<path fill="#FFC2B0" d="M137.02,159.273l0.076-2.167c0.026-0.765,0.25-1.51,0.648-2.165l2.196-3.609l0.573-0.722
		c0.529-0.667,1.476-0.828,2.196-0.375l0.505,0.317c0.645,0.405,1.016,1.131,0.967,1.89l-1.137,3.084l1.438-0.278
		c0.279-0.055,0.549,0.131,0.599,0.41l0,0c0.043,0.238-0.087,0.474-0.311,0.563l-2.348,0.947l-2.132,3.017L137.02,159.273z"/>
	<path fill="#FFC2B0" d="M198.166,179.398l1.006-1.922c0.354-0.679,0.529-1.437,0.506-2.202l-0.126-4.224l-0.142-0.911
		c-0.131-0.841-0.874-1.449-1.724-1.412l-0.597,0.027c-0.761,0.034-1.441,0.481-1.774,1.166l-0.536,3.243l-1.111-0.952
		c-0.216-0.186-0.542-0.158-0.724,0.061l0,0c-0.155,0.186-0.158,0.455-0.008,0.644l1.572,1.983l0.407,4.132L198.166,179.398z"/>
	<path fill="#721BD5" d="M161.96,211.113c-0.835,3.808,4.194,32.528-1.398,43.031c2.797-1.133,5.562-3.351,5.411-6.186
		c-0.734-13.785-0.07-26.018,0.942-37.637c4.783-2.423,12.257-3.868,17.544-7.739C178.79,204.672,162.705,207.715,161.96,211.113z"
		/>
	<path fill="#FFFFFF" d="M152.559,188.676l1.424-1.463c0,0,2.344,2.395,4.227,2.81c0,0,2.266,0.642,3.373,0.697l0.917,2.528
		C162.499,193.248,155.037,192.714,152.559,188.676z"/>
	<path fill="#173D7A" d="M162.811,180.565c0.394-0.007,0.759-0.186,0.982-0.509c0.39-0.564,0.144-3.156,1.344-3.585
		c1.876-0.669,6.326,1.679,6.802-5.089c0.247-3.518-1.465-4.453-1.457-6.38c0,0,0.148,0.966-8.903,0.365
		c-9.051-0.602-11.994,7.436-12.208,11.264c-0.214,3.829,1.639,10.123,7.824,10.987c1.026,0.143,5.334-3.321,5.223-3.775
		s-1.737-0.429-1.502-1.751C161.11,180.99,161.782,180.584,162.811,180.565z"/>
</g>
<g>
	<g>
		<path fill="#EDEDED" d="M209.243,98.82l-27.349-15.79c-1.216-0.702-2.2-2.584-2.2-4.205V58.49c0-1.62,0.984-2.365,2.2-1.664
			l27.349,15.79c1.216,0.702,2.201,2.584,2.201,4.205v20.335C211.444,98.777,210.459,99.521,209.243,98.82z"/>
		<path fill="#DD7224" d="M206.537,66.559l-27.349-15.79c-0.541-0.313-1.03-0.324-1.414-0.113c0-0.002,0.002-0.018,0.002-0.018
			l-2.652,1.532c0,0,1.174,0.429,1.863,0.682v19.916c0,1.621,0.985,3.503,2.201,4.205l26.14,15.092v2.337l2.681-1.543l-0.015-0.005
			c0.453-0.276,0.743-0.883,0.743-1.754V70.764C208.737,69.143,207.752,67.261,206.537,66.559z"/>
		<path fill="#ED852F" d="M203.836,94.32l-27.35-15.79c-1.215-0.702-2.2-2.584-2.2-4.205V53.99c0-1.62,0.985-2.365,2.2-1.664
			l27.35,15.79c1.215,0.702,2.2,2.584,2.2,4.205v20.335C206.036,94.277,205.051,95.021,203.836,94.32z"/>
		<path fill="#FFFFFF" d="M203.836,68.116l-27.35-15.79c-0.69-0.399-1.3-0.317-1.703,0.114c0.294-0.024,0.621,0.045,0.971,0.247
			l27.35,15.79c1.215,0.702,2.2,2.584,2.2,4.205v20.335c0,0.699-0.191,1.222-0.497,1.55c0.726-0.061,1.229-0.758,1.229-1.911V72.321
			C206.036,70.7,205.051,68.818,203.836,68.116z"/>
	</g>
	<g>
		<path fill="#FFFFFF" d="M185.684,71.522c0,1.177-0.826,1.654-1.845,1.065c-1.02-0.588-1.846-2.02-1.846-3.196
			s0.826-1.653,1.846-1.065C184.857,68.915,185.684,70.346,185.684,71.522z"/>
		<path fill="#FFFFFF" d="M191.274,74.75c0,1.177-0.826,1.653-1.846,1.065c-1.02-0.589-1.846-2.02-1.846-3.196
			s0.826-1.654,1.846-1.065C190.448,72.143,191.274,73.573,191.274,74.75z"/>
		<path fill="#FFFFFF" d="M196.864,77.978c0,1.177-0.826,1.653-1.846,1.065c-1.019-0.589-1.845-2.02-1.845-3.196
			s0.826-1.654,1.845-1.065C196.038,75.37,196.864,76.801,196.864,77.978z"/>
	</g>
</g>
<g>
	<g>
		<path fill="#EDEDED" d="M263.667,206.165l-27.35-15.79c-1.215-0.701-2.2-2.583-2.2-4.204v-45.766c0-1.621,0.985-2.365,2.2-1.664
			l27.35,15.79c1.215,0.702,2.2,2.584,2.2,4.205v45.766C265.867,206.122,264.882,206.867,263.667,206.165z"/>
		<path fill="#5793CE" d="M260.96,148.474l-27.349-15.79c-0.541-0.313-1.03-0.324-1.414-0.114c0.001-0.002,0.002-0.018,0.002-0.018
			l-2.652,1.533c0,0,1.175,0.428,1.864,0.681v45.347c0,1.621,0.985,3.503,2.2,4.205l26.141,15.092v2.337l2.68-1.543l-0.015-0.005
			c0.453-0.276,0.744-0.883,0.744-1.755v-45.766C263.161,151.058,262.176,149.176,260.96,148.474z"/>
		<path fill="#D4ECFF" d="M258.259,201.665l-27.349-15.79c-1.216-0.702-2.201-2.584-2.201-4.205v-45.766
			c0-1.621,0.985-2.365,2.201-1.664l27.349,15.79c1.215,0.702,2.2,2.584,2.2,4.205v45.766
			C260.459,201.622,259.474,202.367,258.259,201.665z"/>
		<path fill="#FFFFFF" d="M258.259,150.031l-27.349-15.79c-0.691-0.398-1.301-0.316-1.703,0.114c0.294-0.024,0.62,0.045,0.971,0.247
			l27.349,15.79c1.215,0.702,2.2,2.584,2.2,4.204v45.766c0,0.7-0.19,1.223-0.497,1.55c0.727-0.06,1.229-0.758,1.229-1.91v-45.766
			C260.459,152.615,259.474,150.732,258.259,150.031z"/>
	</g>
</g>
<g>
	<g>
		<path fill="#EDEDED" d="M263.667,267.998l-27.35-15.789c-1.215-0.702-2.2-2.584-2.2-4.204v-45.767c0-1.62,0.985-2.365,2.2-1.664
			l27.35,15.791c1.215,0.701,2.2,2.584,2.2,4.204v45.766C265.867,267.955,264.882,268.7,263.667,267.998z"/>
		<path fill="#C66422" d="M260.96,210.308l-27.349-15.79c-0.541-0.313-1.03-0.324-1.414-0.113c0.001-0.002,0.002-0.018,0.002-0.018
			l-2.652,1.533c0,0,1.175,0.428,1.864,0.681v45.347c0,1.62,0.985,3.503,2.2,4.204l26.141,15.093v2.336l2.68-1.543l-0.015-0.005
			c0.453-0.276,0.744-0.883,0.744-1.755v-45.766C263.161,212.892,262.176,211.009,260.96,210.308z"/>
		<path fill="#DD7224" d="M258.259,263.498l-27.349-15.789c-1.216-0.702-2.201-2.584-2.201-4.204v-45.767
			c0-1.62,0.985-2.365,2.201-1.664l27.349,15.791c1.215,0.701,2.2,2.584,2.2,4.204v45.766
			C260.459,263.455,259.474,264.2,258.259,263.498z"/>
		<path fill="#FFFFFF" d="M258.259,211.864l-27.349-15.79c-0.691-0.398-1.301-0.316-1.703,0.114c0.294-0.024,0.62,0.045,0.971,0.247
			l27.349,15.791c1.215,0.701,2.2,2.584,2.2,4.203v45.767c0,0.698-0.19,1.222-0.497,1.55c0.727-0.061,1.229-0.758,1.229-1.911
			v-45.766C260.459,214.448,259.474,212.566,258.259,211.864z"/>
	</g>
</g>
<g>
	<g>
		<path fill="#D4ECFF" d="M80.139,287.882l24.037-13.544c1.068-0.602,2.921-0.506,4.14,0.215l15.292,9.044
			c1.219,0.72,1.34,1.792,0.272,2.394l-24.037,13.545c-1.068,0.602-2.922,0.506-4.14-0.215l-15.292-9.044
			C79.193,289.556,79.071,288.484,80.139,287.882z"/>
		<path fill="#F9BF30" d="M99.496,292.727l27.513-15.504c0.544-0.307,0.804-0.722,0.817-1.158c0.002,0,0.014,0.01,0.014,0.01
			l0.031-3.063c0,0-0.967,0.793-1.535,1.258l-17.143-10.138c-1.395-0.825-3.516-0.936-4.739-0.246l-26.297,14.818l-2.011-1.19
			l-0.036,3.093l0.012-0.01c0.007,0.53,0.381,1.089,1.131,1.533l17.504,10.352C96.152,293.305,98.273,293.415,99.496,292.727z"/>
		<path fill="#FDD762" d="M76.976,276.27l27.513-15.503c1.223-0.688,3.344-0.579,4.739,0.246l17.503,10.352
			c1.396,0.825,1.534,2.052,0.313,2.741l-27.513,15.502c-1.222,0.689-3.344,0.579-4.739-0.246L77.288,279.01
			C75.893,278.186,75.754,276.959,76.976,276.27z"/>
		<path fill="#FFFFFF" d="M99.531,289.607l27.513-15.502c0.694-0.393,0.935-0.958,0.769-1.524c-0.129,0.266-0.354,0.511-0.707,0.71
			l-27.513,15.502c-1.223,0.689-3.344,0.58-4.739-0.246L77.35,278.196c-0.602-0.356-0.955-0.786-1.081-1.217
			c-0.318,0.655,0.026,1.444,1.019,2.03l17.504,10.352C96.187,290.188,98.309,290.297,99.531,289.607z"/>
	</g>
	<g>
		<path fill="#FFFFFF" d="M105.839,272.25c-1.013-0.599-1.003-1.553,0.022-2.131c1.025-0.577,2.678-0.561,3.69,0.039
			s1.003,1.553-0.022,2.131C108.504,272.866,106.852,272.85,105.839,272.25z"/>
		<path fill="#FFFFFF" d="M100.215,275.419c-1.013-0.599-1.003-1.553,0.022-2.13c1.025-0.578,2.677-0.561,3.69,0.038
			c1.013,0.599,1.003,1.553-0.022,2.13C102.88,276.035,101.229,276.018,100.215,275.419z"/>
		<path fill="#FFFFFF" d="M94.592,278.588c-1.013-0.6-1.003-1.553,0.022-2.131s2.677-0.561,3.69,0.039
			c1.013,0.599,1.003,1.553-0.022,2.131C97.257,279.204,95.605,279.188,94.592,278.588z"/>
	</g>
</g>
<g>
	<path fill="#D4ECFF" d="M70.775,263.082c-7.511,4.337-19.689,4.336-27.201,0s-7.512-11.367,0-15.704s19.689-4.337,27.201,0
		S78.286,258.746,70.775,263.082z"/>
	<g>
		<path fill="#E8A200" d="M46.302,120.989c0,0,0.495,10.194,1.271,17.046s17.277-5.262,17.277-5.262v-7.801L46.302,120.989z"/>
		<g>
			<path fill="#173D7A" d="M55.091,247.831c0.248,0.619,4.523,5.824,8.798,7.125c1.859,0.565,3.108,0.64,3.928,0.542
				c0.822-0.098,1.33-0.944,1.052-1.725c-0.736-2.07-2.844-6.385-8.202-9.041C53.418,241.139,55.091,247.831,55.091,247.831z"/>
			<path fill="#173D7A" d="M53.666,249.83c0,0,1.611,3.779,2.106,6.939c0.303,1.928-0.755,4.432-1.626,6.092
				c-0.541,1.029-1.911,1.262-2.772,0.479c-1.397-1.268-3.176-3.47-3.47-6.633c-0.496-5.329,0-6.259,0-6.259L53.666,249.83z"/>
			<path fill="#FDD762" d="M43.367,185.425c0,0-0.558,6.722,0,14.157c0.558,7.436,2.554,42.207,2.926,50.572
				c0,0-0.186,2.533,4.717,1.975c4.903-0.558,4.508-3.369,4.508-3.369s6.885-0.093,7.102-4.151
				c0.217-4.058,7.052-48.464,7.052-64.429L43.367,185.425z"/>
			<g>
				<path fill="#FFC2B0" d="M72.218,150.67l3.374,5.225L87.188,169.9c0,0-0.399,1.3-1.842,1.64
					c-1.128,0.266-10.88-9.039-15.092-13.122c-1.119-1.085-1.305-2.812-0.445-4.11L72.218,150.67z"/>
				<path fill="#8A2AE3" d="M65.637,129.224c0,0,5.359-0.139,7.224,7.606c1.866,7.745,3.325,17.442,1.702,18.248
					c-4.87,2.419-7.952-0.412-7.952-0.412L65.637,129.224z"/>
				<path fill="#983BE9" d="M67.241,129.553c-0.915-0.382-1.94-0.433-2.893-0.159c-4.565,1.312-21.731,6.349-24.56,8.768
					c-3.269,2.794,4.902,18.493,4.784,23.64s-0.698,11.215-1.153,16.811s-1.07,8.663,3.506,11.042s12.391,2.489,18.241-1.968
					c5.849-4.457,4.788-7.507,4.545-10.743c-0.244-3.236-2.235-17.23-2.063-21.203c0,0,2.061-1.519,3.588-4.122
					c1.527-2.604-1.17-7.391-2.29-10.502c-1.12-3.112,0.631-6.67,0.285-9.209C69.054,130.601,68.219,129.961,67.241,129.553z"/>
				
					<ellipse transform="matrix(0.9919 -0.127 0.127 0.9919 -16.7938 8.1248)" fill="#FFFFFF" cx="55.304" cy="135.731" rx="6.502" ry="5.161"/>
				
					<ellipse transform="matrix(0.9919 -0.127 0.127 0.9919 -16.7944 8.1252)" fill="#FFC2B0" cx="55.304" cy="135.731" rx="4.647" ry="3.689"/>
				<path fill="#FFC2B0" d="M57.384,128.506c0,0-3.099-2.549-3.708-1.258c-0.608,1.291-1.11,6.83-1.11,6.83l6.154,1.653
					l-0.934-5.612C57.786,130.119,59.018,129.074,57.384,128.506z"/>
				<circle fill="#FFC2B0" cx="57.829" cy="121.894" r="9.188"/>
				<path fill="#EA9C92" d="M53.248,128.854c-0.055,0.289-0.107,0.6-0.157,0.916c0.618,3.197,5.402,4.596,5.402,4.596l-0.707-4.247
					c0,0,0.58-0.492,0.416-0.984C56.311,128.538,53.929,128.009,53.248,128.854z"/>
				<circle fill="#FFC2B0" cx="57.829" cy="121.894" r="9.188"/>
				<polygon fill="#FFC2B0" points="35.191,160.787 36.22,185.374 39.814,185.744 42.154,163.61 				"/>
				<path fill="#8A2AE3" d="M47.004,158.731c-0.194-0.856-1.768-1.561-2.008-2.677c-1.234-5.728-1.531-14.173-1.531-14.173
					l-1.004,11.537c1.159,3.421,2.154,6.563,2.113,8.382c-0.069,3.021-0.299,6.361-0.568,9.735l0,0.01
					C44.005,171.546,48.193,163.981,47.004,158.731z"/>
				<path fill="#B45EF4" d="M40.475,137.657c0,0-2.874,1.098-4.501,9.927c-1.627,8.828-2.843,17.672,0.057,18.812
					s5.323,1.997,6.176-0.365c0.853-2.362,1.381-13.739,1.488-17.832C43.802,144.107,43.958,138.465,40.475,137.657z"/>
				<path fill="#FFC2B0" d="M86.327,168.877c0,0,1.557,0.572,2.682,1.798c0.923,1.005,1.429,1.858,1.833,2.46
					c0.895,1.335,1.65,4.222,1.104,4.582c-0.546,0.359-3.668-4.834-4.172-3.626s0.004,2.325-0.641,2.343
					c-0.646,0.019-2.889-5.22-4.654-6.844C80.714,167.965,86.327,168.877,86.327,168.877z"/>
			</g>
			<path fill="#D8892B" d="M55.517,248.76c0,0,0.853-0.012,1.967-0.203l0,0l1.348-54.052L55.517,248.76z"/>
		</g>
		<g>
			<path fill="#983BE9" d="M50.314,219.563l-1.913-2.496l-20.114-11.646c-0.645-0.373-1.167-1.374-1.166-2.233l0.018-16.468
				l-1.157-1.51l1.087-0.629l0.001,0.001c0.208-0.134,0.484-0.13,0.789,0.046l22.795,13.197c0.645,0.373,1.167,1.374,1.166,2.233
				l-0.019,17.934c-0.001,0.484-0.167,0.821-0.427,0.957l0,0L50.314,219.563z"/>
			<path fill="#D29FFF" d="M36.405,210.12l-1.429-0.827l-7.844-13.625l0.008-8.948l-1.157-1.51l1.087-0.629l0.001,0.001
				c0.208-0.134,0.484-0.13,0.789,0.046l22.795,13.197c0.341,0.197,0.646,0.57,0.859,1.005L36.405,210.12z"/>
			<path fill="#D29FFF" d="M26.497,185.88l-0.513-0.67l1.087-0.629l0.001,0.001c0.208-0.134,0.484-0.13,0.789,0.046l0.402,0.232
				L26.497,185.88z"/>
			<path fill="#983BE9" d="M50.862,197.971c0.506,0.415,0.899,1.197,0.952,1.92l-2.228,1.287l-1.067-1.854L50.862,197.971z"/>
			<path fill="#B45EF4" d="M49.569,198.454l-22.794-13.197c-0.645-0.374-1.168,0.021-1.169,0.881l-0.019,17.934
				c-0.001,0.86,0.521,1.86,1.166,2.233l22.794,13.197c0.645,0.374,1.168-0.021,1.169-0.882l0.02-17.934
				C50.736,199.828,50.214,198.827,49.569,198.454z"/>
		</g>
		<polygon fill="#FFFFFF" points="44.886,211.316 43.801,210.689 43.801,201.362 44.886,201.989 		"/>
		<polygon fill="#FFFFFF" points="42.35,209.852 41.264,209.226 41.264,199.898 42.35,200.525 		"/>
		<polygon fill="#FFFFFF" points="39.813,208.388 38.728,207.761 38.728,198.434 39.813,199.061 		"/>
		<path fill="#FFC2B0" d="M36.248,185.168c0,0-0.95,5.739-0.807,7.577c0.143,1.839,1.126,4.87,1.874,4.806
			c0.747-0.063,0.024-7.392,1.336-6.662c1.312,0.73,1.449,1.982,2.043,1.54c0.594-0.442-1.036-6.705-0.601-9.421
			C40.527,180.292,36.248,185.168,36.248,185.168z"/>
		<path fill="#EA9C92" d="M61.358,122.696c4.609,1.637,5.506,0.638,5.55,0.584c0.042-0.278,0.076-0.559,0.093-0.845
			c0.061-1.018-0.055-2.003-0.306-2.936l-11.958-1.614C54.737,117.886,56.625,121.015,61.358,122.696z"/>
		<path fill="#E8A200" d="M67.332,113.282c-1.086-0.931-5.006-5.535-12.028-4.448c-4.389,0.679-8.088,3.672-8.908,10.502
			c-0.553,4.602,1.136,9.134,4.247,12.484c0.168-0.078,0.343-0.149,0.499-0.252c1.759-1.158,1.949-1.794,1.948-1.8l0.389-3.485
			c-0.012-0.494-0.382-0.935-0.876-0.965c-0.382-0.024-0.846-0.208-1.287-0.785c-1.009-1.318-0.543-3.375,1.474-3.453
			c1.054-0.041,1.462-0.611,1.611-1.146c0.13-0.466,0.621-0.725,1.076-0.56c2.295,0.831,7.95,2.621,11.589,1.589
			C71.722,119.645,68.418,114.213,67.332,113.282z"/>
		<path fill="#FFFFFF" d="M62.096,126.847l2.811-0.772c0,0-1.342,2.11-3.301,2.649c-1.959,0.538-2.264-1.12-2.264-1.12
			L62.096,126.847z"/>
		<polygon fill="#D29FFF" points="41.027,192.251 38.632,190.88 39.531,192.348 40.742,192.795 		"/>
	</g>
</g>
<g>
	<g>
		<path fill="#C66422" d="M93.886,196.17l27.446-15.62c0.543-0.309,0.801-0.726,0.813-1.163c0.002,0.001,0.014,0.01,0.014,0.01
			l0.019-3.063c0,0-0.963,0.797-1.53,1.265l-17.186-10.065c-1.398-0.819-3.52-0.92-4.74-0.226l-26.233,14.931l-2.017-1.181
			l-0.022,3.092l0.012-0.01c0.01,0.53,0.386,1.088,1.138,1.528l17.548,10.276C90.544,196.764,92.667,196.864,93.886,196.17z"/>
		<path fill="#FF6600" d="M71.296,179.811l27.446-15.621c1.22-0.694,3.342-0.593,4.74,0.226l17.548,10.276
			c1.398,0.819,1.543,2.045,0.323,2.739l-27.446,15.621c-1.219,0.693-3.342,0.593-4.74-0.227L71.62,182.55
			C70.221,181.731,70.077,180.505,71.296,179.811z"/>
		<path fill="#FFFFFF" d="M93.908,193.053l27.446-15.621c0.693-0.395,0.931-0.961,0.763-1.527c-0.128,0.266-0.353,0.513-0.704,0.713
			l-27.446,15.62c-1.22,0.694-3.342,0.593-4.74-0.226l-17.548-10.276c-0.604-0.354-0.958-0.782-1.086-1.212
			c-0.315,0.656,0.032,1.443,1.027,2.026l17.548,10.276C90.566,193.646,92.688,193.746,93.908,193.053z"/>
	</g>
	<g>
		<path fill="#FFFFFF" d="M100.142,175.667c-1.016-0.595-1.01-1.548,0.013-2.13c1.022-0.582,2.675-0.572,3.69,0.022
			c1.015,0.595,1.009,1.549-0.013,2.131C102.809,176.272,101.157,176.262,100.142,175.667z"/>
		<path fill="#FFFFFF" d="M94.531,178.86c-1.016-0.595-1.009-1.549,0.013-2.131c1.023-0.582,2.675-0.571,3.69,0.023
			c1.016,0.595,1.01,1.548-0.013,2.13C97.199,179.465,95.547,179.455,94.531,178.86z"/>
		<path fill="#FFFFFF" d="M88.921,182.053c-1.016-0.595-1.009-1.548,0.013-2.13c1.023-0.583,2.675-0.572,3.69,0.022
			s1.01,1.549-0.013,2.131S89.937,182.648,88.921,182.053z"/>
	</g>
</g>
<g>
	<path fill="#D3008D" d="M248.574,218.066c0,2.545-1.786,3.576-3.99,2.304c-2.203-1.272-3.989-4.365-3.989-6.91
		c0-2.544,1.786-3.575,3.989-2.304C246.788,212.429,248.574,215.522,248.574,218.066z"/>
	<path fill="#D3008D" d="M250.237,225.259c-0.005-0.039-0.011-0.079-0.017-0.118c-0.171-1.072-1.186-2.013-1.854-1.774
		c-1.033,0.368-2.349,0.188-3.782-0.639c-1.433-0.828-2.748-2.166-3.782-3.729c-0.669-1.011-1.683-1.241-1.854-0.366
		c-0.006,0.032-0.012,0.064-0.018,0.098l-1.892,12.018l15.091,8.713L250.237,225.259z"/>
</g>
<g>
	<path fill="#FFFFFF" d="M248.574,218.066c0,2.545-1.786,3.576-3.99,2.304c-2.203-1.272-3.989-4.365-3.989-6.91
		c0-2.544,1.786-3.575,3.989-2.304C246.788,212.429,248.574,215.522,248.574,218.066z"/>
	<path fill="#FFFFFF" d="M250.237,225.259c-0.005-0.039-0.011-0.079-0.017-0.118c-0.171-1.072-1.186-2.013-1.854-1.774
		c-1.033,0.368-2.349,0.188-3.782-0.639c-1.433-0.828-2.748-2.166-3.782-3.729c-0.669-1.011-1.683-1.241-1.854-0.366
		c-0.006,0.032-0.012,0.064-0.018,0.098l-1.892,12.018l15.091,8.713L250.237,225.259z"/>
</g>
<g>
	<polygon fill="#FFFFFF" points="253.198,248.605 234.877,238.027 234.877,236.707 253.198,247.285 	"/>
	<polygon fill="#FFFFFF" points="247.666,251.182 234.877,243.798 234.877,242.477 247.666,249.861 	"/>
	<polygon fill="#FFFFFF" points="245.941,247.301 234.877,240.913 234.877,239.592 245.941,245.98 	"/>
	<polygon fill="#FFFFFF" points="253.198,251.49 247.666,248.297 247.666,246.977 253.198,250.17 	"/>
</g>
<g>
	<polygon fill="#5793CE" points="253.24,160.367 234.919,149.789 234.919,148.468 253.24,159.046 	"/>
	<polygon fill="#5793CE" points="247.708,162.942 234.919,155.559 234.919,154.238 247.708,161.622 	"/>
	<polygon fill="#5793CE" points="245.983,159.062 234.919,152.674 234.919,151.353 245.983,157.741 	"/>
	<polygon fill="#5793CE" points="253.24,163.251 247.708,160.058 247.708,158.737 253.24,161.931 	"/>
</g>
<g>
	<polygon fill="#5793CE" points="253.24,171.51 234.919,160.932 234.919,159.611 253.24,170.189 	"/>
	<polygon fill="#5793CE" points="247.708,174.085 234.919,166.702 234.919,165.381 247.708,172.765 	"/>
	<polygon fill="#5793CE" points="245.983,170.205 234.919,163.816 234.919,162.496 245.983,168.884 	"/>
	<polygon fill="#5793CE" points="253.24,174.395 247.708,171.2 247.708,169.88 253.24,173.074 	"/>
</g>
<g>
	<polygon fill="#5793CE" points="253.24,182.653 234.919,172.075 234.919,170.754 253.24,181.332 	"/>
	<polygon fill="#5793CE" points="247.708,185.229 234.919,177.845 234.919,176.524 247.708,183.908 	"/>
	<polygon fill="#5793CE" points="245.983,181.348 234.919,174.96 234.919,173.639 245.983,180.027 	"/>
	<polygon fill="#5793CE" points="253.24,185.538 247.708,182.344 247.708,181.023 253.24,184.217 	"/>
</g>
<g>
	<polygon fill="#FFFFFF" points="195.504,213.908 182.435,206.362 182.435,205.143 195.504,212.688 	"/>
	<polygon fill="#FFFFFF" points="203.604,218.585 198.023,215.362 198.023,214.143 203.604,217.365 	"/>
	<polygon fill="#FFFFFF" points="195.954,216.825 190.373,213.603 190.373,212.383 195.954,215.605 	"/>
	<polygon fill="#FFFFFF" points="208.043,223.804 198.023,218.02 198.023,216.799 208.043,222.584 	"/>
	<polygon fill="#FFFFFF" points="214.9,230.42 200.082,221.863 200.082,220.645 214.9,229.2 	"/>
	<polygon fill="#FFFFFF" points="211.588,223.194 206.007,219.973 206.007,218.752 211.588,221.975 	"/>
	<polygon fill="#FFFFFF" points="188.016,212.241 182.435,209.02 182.435,207.799 188.016,211.021 	"/>
	<polygon fill="#FFFFFF" points="197.688,220.482 182.407,211.66 182.407,210.439 197.688,219.263 	"/>
	<polygon fill="#FFFFFF" points="191.805,219.742 182.586,214.419 182.586,213.199 191.805,218.521 	"/>
</g>
<path fill="#FDD762" d="M327.425,284.066c-0.342,0-0.675-0.176-0.862-0.492c-0.28-0.475-0.123-1.088,0.353-1.369l38.731-22.889
	c0.313-0.184,0.348-0.484,0.348-0.605s-0.032-0.422-0.343-0.607l-10.569-6.343c-0.474-0.284-0.627-0.898-0.343-1.372
	c0.284-0.473,0.897-0.628,1.372-0.343l10.569,6.343c0.826,0.494,1.316,1.365,1.313,2.33c-0.003,0.963-0.501,1.83-1.33,2.32
	l-38.731,22.889C327.772,284.021,327.598,284.066,327.425,284.066z"/>
<g>
	<polygon fill="#D4ECFF" points="334.998,301.6 321.554,293.838 308.109,301.6 321.554,309.362 	"/>
	<polygon fill="#C66422" points="321.554,302.162 321.554,293.416 337.615,284.143 337.615,292.889 	"/>
	<polygon fill="#DD7224" points="321.554,293.416 305.491,284.143 305.491,292.889 321.554,302.162 	"/>
	<polygon fill="#FF6600" points="337.615,284.143 321.554,274.869 305.491,284.143 321.554,293.416 	"/>
</g>
<polygon fill="#EDEDED" points="191.931,97.818 194.638,106.697 201.566,111.465 196.311,113.607 197.886,122.419 191.931,114.753 
	185.976,115.543 187.551,108.551 182.295,100.339 189.224,103.571 "/>
<polygon fill="#EDEDED" points="214.015,110.46 216.722,119.338 223.65,124.106 218.395,126.249 219.97,135.061 214.015,127.395 
	208.06,128.184 209.635,121.191 204.379,112.98 211.308,116.212 "/>
<polygon fill="#EDEDED" points="179.482,98.824 172.553,94.056 169.847,85.178 169.438,86.045 169.438,102.166 169.847,102.112 
	175.802,109.778 174.227,100.967 "/>
<g>
	<g>
		<g>
			<polygon fill="#E8A200" points="121.03,54.061 123.737,62.939 130.666,67.707 125.41,69.85 126.985,78.662 121.03,70.995 
				115.075,71.785 116.65,64.793 111.395,56.581 118.323,59.813 			"/>
			<path fill="#F9BF30" d="M108.162,58.438l3.233-1.856l4.994,2.33c0,0-0.017,3.358,0,3.438c0.018,0.08-2.058,0.179-2.198,0.179
				S108.162,58.438,108.162,58.438z"/>
			<path fill="#E8A200" d="M126.985,78.662l-3.233,1.856l-1.575-8.812c0,0,1.567-1.654,1.561-1.654s1.763,0.3,1.763,0.3
				L126.985,78.662z"/>
			<polygon fill="#FDD762" points="117.797,55.917 120.504,64.795 127.433,69.563 122.177,71.706 123.752,80.518 117.797,72.852 
				111.842,73.642 113.417,66.648 108.162,58.438 115.09,61.669 			"/>
			<path fill="#FFFFFF" d="M123.752,80.518l-1.575-8.812l5.256-2.143l-6.929-4.769l-2.707-8.878l-2.707,5.753l-6.929-3.232
				l0.483,0.754l6.676,3.114l2.381-5.06l2.392,7.849l6.336,4.36l-4.793,1.953l1.483,8.296L123.752,80.518z"/>
			<polygon fill="#E8A200" points="117.797,55.917 121.03,54.061 123.737,62.939 120.504,64.795 			"/>
			<polygon fill="#F9BF30" points="130.666,67.707 127.433,69.563 120.504,64.795 123.737,62.939 			"/>
		</g>
		<polygon fill="#FFFFFF" points="120.665,65.019 120.172,64.734 123.665,62.702 123.737,62.939 123.967,63.097 		"/>
	</g>
	<g>
		<g>
			<polygon fill="#E8A200" points="143.114,66.702 145.821,75.58 152.75,80.349 147.494,82.491 149.069,91.303 143.114,83.637 
				137.159,84.427 138.734,77.434 133.479,69.222 140.407,72.455 			"/>
			<path fill="#F9BF30" d="M130.246,71.079l3.232-1.856l4.994,2.33c0,0-0.018,3.358,0,3.438c0.018,0.08-2.059,0.18-2.198,0.18
				S130.246,71.079,130.246,71.079z"/>
			<path fill="#E8A200" d="M149.069,91.303l-3.233,1.856l-1.575-8.812c0,0,1.567-1.654,1.561-1.654s1.763,0.299,1.763,0.299
				L149.069,91.303z"/>
			<polygon fill="#FDD762" points="139.881,68.558 142.588,77.437 149.517,82.204 144.261,84.347 145.836,93.159 139.881,85.493 
				133.926,86.282 135.502,79.29 130.246,71.079 137.175,74.311 			"/>
			<path fill="#FFFFFF" d="M145.836,93.159l-1.575-8.812l5.256-2.143l-6.929-4.768l-2.707-8.879l-2.706,5.753l-6.929-3.232
				l0.482,0.754l6.677,3.114l2.381-5.06l2.392,7.849l6.337,4.36l-4.794,1.954l1.483,8.295L145.836,93.159z"/>
			<polygon fill="#E8A200" points="139.881,68.558 143.114,66.702 145.821,75.58 142.588,77.437 			"/>
			<polygon fill="#F9BF30" points="152.75,80.349 149.517,82.204 142.588,77.437 145.821,75.58 			"/>
		</g>
		<polygon fill="#FFFFFF" points="142.749,77.659 142.257,77.375 145.749,75.343 145.821,75.58 146.051,75.738 		"/>
	</g>
	<g>
		<g>
			<polygon fill="#E8A200" points="165.198,79.343 167.905,88.221 174.834,92.989 169.578,95.132 171.153,103.944 165.198,96.278 
				159.243,97.067 160.818,90.075 155.563,81.863 162.491,85.096 			"/>
			<path fill="#F9BF30" d="M152.33,83.72l3.232-1.856l4.994,2.33c0,0-0.018,3.358,0,3.438c0.018,0.079-2.059,0.179-2.198,0.179
				S152.33,83.72,152.33,83.72z"/>
			<path fill="#E8A200" d="M171.153,103.944l-3.233,1.856l-1.575-8.812c0,0,1.567-1.654,1.561-1.654s1.763,0.3,1.763,0.3
				L171.153,103.944z"/>
			<polygon fill="#FDD762" points="161.965,81.199 164.672,90.078 171.601,94.846 166.345,96.988 167.92,105.8 161.965,98.134 
				156.01,98.924 157.586,91.931 152.33,83.72 159.259,86.952 			"/>
			<path fill="#FFFFFF" d="M167.92,105.8l-1.575-8.812l5.256-2.143l-6.929-4.769l-2.707-8.878l-2.706,5.753l-6.929-3.232
				l0.482,0.754l6.677,3.114l2.381-5.061l2.392,7.85l6.337,4.36l-4.794,1.953l1.483,8.296L167.92,105.8z"/>
			<polygon fill="#E8A200" points="161.965,81.199 165.198,79.343 167.905,88.221 164.672,90.078 			"/>
			<polygon fill="#F9BF30" points="174.834,92.989 171.601,94.846 164.672,90.078 167.905,88.221 			"/>
		</g>
		<polygon fill="#FFFFFF" points="164.833,90.301 164.341,90.016 167.833,87.984 167.905,88.221 168.135,88.379 		"/>
	</g>
	<g>
		<g>
			<polygon fill="#E8A200" points="187.282,91.984 189.989,100.862 196.918,105.631 191.662,107.773 193.237,116.585 
				187.282,108.919 181.327,109.708 182.903,102.716 177.647,94.504 184.576,97.737 			"/>
			<path fill="#F9BF30" d="M174.414,96.36l3.233-1.856l4.993,2.33c0,0-0.018,3.358,0,3.438c0.018,0.08-2.059,0.18-2.198,0.18
				S174.414,96.36,174.414,96.36z"/>
			<path fill="#E8A200" d="M193.237,116.585l-3.232,1.856l-1.576-8.811c0,0,1.567-1.654,1.561-1.654s1.763,0.299,1.763,0.299
				L193.237,116.585z"/>
			<polygon fill="#FDD762" points="184.05,93.84 186.756,102.719 193.685,107.486 188.429,109.63 190.005,118.441 184.05,110.775 
				178.095,111.564 179.67,104.572 174.414,96.36 181.343,99.593 			"/>
			<path fill="#FFFFFF" d="M190.005,118.441l-1.576-8.812l5.256-2.143l-6.929-4.768l-2.706-8.878l-2.707,5.752l-6.929-3.232
				l0.482,0.754l6.677,3.114l2.381-5.06l2.392,7.849l6.337,4.36l-4.794,1.954l1.484,8.296L190.005,118.441z"/>
			<polygon fill="#E8A200" points="184.05,93.84 187.282,91.984 189.989,100.862 186.756,102.719 			"/>
			<polygon fill="#F9BF30" points="196.918,105.631 193.685,107.486 186.756,102.719 189.989,100.862 			"/>
		</g>
		<polygon fill="#FFFFFF" points="186.918,102.941 186.425,102.657 189.917,100.625 189.989,100.862 190.219,101.021 		"/>
	</g>
	<g>
		<g>
			<polygon fill="#E8A200" points="209.366,104.625 212.073,113.504 219.002,118.271 213.746,120.415 215.322,129.226 
				209.366,121.56 203.412,122.35 204.987,115.357 199.731,107.146 206.66,110.378 			"/>
			<path fill="#F9BF30" d="M196.498,109.002l3.233-1.856l4.993,2.33c0,0-0.018,3.357,0,3.438c0.018,0.08-2.058,0.18-2.197,0.18
				C202.387,113.093,196.498,109.002,196.498,109.002z"/>
			<path fill="#E8A200" d="M215.322,129.226l-3.233,1.856l-1.575-8.812c0,0,1.566-1.654,1.56-1.654s1.763,0.3,1.763,0.3
				L215.322,129.226z"/>
			<polygon fill="#FDD762" points="206.134,106.481 208.841,115.359 215.77,120.128 210.514,122.271 212.089,131.082 
				206.134,123.416 200.179,124.206 201.754,117.213 196.498,109.002 203.427,112.234 			"/>
			<path fill="#FFFFFF" d="M212.089,131.082l-1.575-8.812l5.256-2.143l-6.929-4.768l-2.707-8.878l-2.707,5.753l-6.929-3.232
				l0.482,0.754l6.677,3.114l2.381-5.061l2.393,7.85l6.336,4.36l-4.794,1.953l1.484,8.296L212.089,131.082z"/>
			<polygon fill="#E8A200" points="206.134,106.481 209.366,104.625 212.073,113.504 208.841,115.359 			"/>
			<polygon fill="#F9BF30" points="219.002,118.271 215.77,120.128 208.841,115.359 212.073,113.504 			"/>
		</g>
		<polygon fill="#FFFFFF" points="209.002,115.583 208.509,115.299 212.001,113.267 212.073,113.504 212.304,113.662 		"/>
	</g>
</g>
</svg>
