<?xml version="1.0" encoding="utf-8"?>
<!-- Generator: Adobe Illustrator 16.0.0, SVG Export Plug-In . SVG Version: 6.00 Build 0)  -->
<!DOCTYPE svg PUBLIC "-//W3C//DTD SVG 1.1//EN" "http://www.w3.org/Graphics/SVG/1.1/DTD/svg11.dtd">
<svg version="1.1" id="Слой_1" xmlns="http://www.w3.org/2000/svg" xmlns:xlink="http://www.w3.org/1999/xlink" x="0px" y="0px"
	 width="407px" height="348px" viewBox="0 0 407 348" enable-background="new 0 0 407 348" xml:space="preserve">
<g>
	<g>
		<path opacity="0.5" fill="#173D7A" d="M139.031,137.035c-7.877,4.149-20.648,4.149-28.526,0c-7.877-4.149-7.877-10.876,0-15.024
			c7.877-4.149,20.648-4.149,28.526,0C146.908,126.16,146.909,132.886,139.031,137.035z"/>
		<path fill="#C66422" d="M147.717,120.437v-5.877H146.5c-1.092-1.716-2.911-3.331-5.505-4.697c-8.962-4.72-23.492-4.72-32.454,0
			c-2.594,1.367-4.413,2.981-5.505,4.697h-1.215v5.846h0.002c-0.016,3.104,2.222,6.21,6.719,8.578
			c8.962,4.72,23.491,4.72,32.453,0.001C145.477,126.624,147.717,123.53,147.717,120.437z"/>
		<path fill="#FF6600" d="M140.995,123.105c-8.962,4.72-23.491,4.72-32.453,0c-8.962-4.72-8.963-12.373-0.001-17.093
			c8.962-4.72,23.492-4.72,32.454,0S149.957,118.386,140.995,123.105z"/>
		<path fill="#FFFFFF" d="M140.995,123.105c-8.962,4.72-23.491,4.72-32.453,0c-4.295-2.262-6.509-5.198-6.687-8.162
			c-0.194,3.22,2.02,6.474,6.687,8.931c8.962,4.721,23.491,4.721,32.453,0c4.667-2.458,6.88-5.71,6.687-8.931
			C147.504,117.907,145.29,120.843,140.995,123.105z"/>
	</g>
	<g>
		<path fill="#FFFFFF" d="M113.707,118.561c-0.386-0.203-0.605-0.48-0.604-0.771l0.023-7.875c0.001-0.6,0.928-1.086,2.068-1.086
			c1.142,0,2.063,0.488,2.062,1.09l-0.02,6.53l20.774-2.32c1.117-0.125,2.213,0.25,2.449,0.838c0.237,0.587-0.476,1.165-1.591,1.29
			l-23.272,2.599c-0.61,0.068-1.246-0.012-1.73-0.219C113.812,118.612,113.758,118.587,113.707,118.561z"/>
	</g>
</g>
<g>
	<g>
		<path opacity="0.5" fill="#173D7A" d="M312.511,176.225l-77.346-44.79c-4.201-2.433-11.546-2.139-16.405,0.657L56.434,225.512
			c-4.859,2.796-5.392,7.035-1.191,9.469l77.346,44.79c4.201,2.433,11.546,2.139,16.405-0.657l162.325-93.419
			C316.179,182.897,316.712,178.658,312.511,176.225z"/>
		<path fill="#5793CE" d="M130.338,263.18l-80.493-46.612c-2.645-1.532-3.877-3.597-3.789-5.745l-0.018,0.006l0.033-11.68
			l4.476,5.244c0.291-0.191,0.583-0.383,0.901-0.566l164.664-94.764c6.538-3.762,16.42-4.158,22.072-0.884l79.362,45.958
			c1.606-1.76,4.975-5.473,4.975-5.473l-0.038,11.425l-0.002-0.001c0.119,2.575-1.715,5.318-5.406,7.443L152.41,262.296
			C145.872,266.059,135.991,266.453,130.338,263.18z"/>
		<path fill="#173D7A" d="M86.812,234.584l4.636,2.676c0.616,0.355,1.115-0.021,1.115-0.842l0,0c0-0.821-0.499-1.775-1.115-2.131
			l-4.636-2.676c-0.616-0.355-1.115,0.021-1.115,0.842v0.001C85.697,233.275,86.196,234.229,86.812,234.584z"/>
		<path fill="#396CAA" d="M216.111,109.062c6.538-3.762,16.42-4.158,22.072-0.884l79.363,45.958c1.605-1.76,4.974-5.473,4.974-5.473
			l-0.038,11.425l-0.002-0.001c0.119,2.575-1.715,5.318-5.406,7.443L152.41,262.296c-3.411,1.962-7.729,2.999-11.885,3.087
			l0.156-112.91L216.111,109.062z"/>
		<path fill="#D4ECFF" d="M318.711,143.048l-80.494-46.613c-5.652-3.274-15.534-2.878-22.071,0.884L51.481,192.084
			c-6.538,3.762-7.255,9.467-1.603,12.74l80.494,46.613c5.652,3.273,15.534,2.877,22.071-0.885l164.665-94.765
			C323.646,152.025,324.363,146.322,318.711,143.048z"/>
		<path fill="#FFFFFF" d="M130.311,252.684L49.817,206.07c-2.916-1.688-4.123-4.023-3.725-6.404
			c0.143,1.934,1.383,3.766,3.786,5.158l80.494,46.613c5.652,3.273,15.534,2.878,22.071-0.885l164.665-94.765
			c3.166-1.822,4.953-4.1,5.327-6.335c0.193,2.615-1.63,5.418-5.389,7.582l-164.664,94.764
			C145.845,255.562,135.963,255.957,130.311,252.684z"/>
		<path fill="#173D7A" d="M312.511,144.885l-77.346-44.79c-4.201-2.433-11.546-2.139-16.405,0.657L56.434,194.172
			c-4.859,2.796-5.392,7.035-1.191,9.469l77.346,44.789c4.201,2.434,11.546,2.14,16.405-0.656l162.325-93.42
			C316.179,151.558,316.712,147.318,312.511,144.885z"/>
	</g>
	<g>
		<polygon fill="#D4ECFF" points="152.071,225.168 97.493,193.656 100.977,191.645 155.556,223.156 		"/>
		<polygon fill="#D4ECFF" points="114.097,215.98 86.461,200.025 89.945,198.014 117.58,213.97 		"/>
		<polygon fill="#FF6600" points="127.508,223.724 118.545,218.549 122.028,216.537 130.991,221.713 		"/>
		<polygon fill="#FFFFFF" points="141.04,231.537 132.077,226.361 135.561,224.351 144.523,229.525 		"/>
		<polygon fill="#FFFFFF" points="114.406,209.79 91.977,196.842 95.461,194.83 117.89,207.779 		"/>
		<polygon fill="#D4ECFF" points="141.784,225.598 119.355,212.648 122.839,210.637 145.268,223.586 		"/>
		<g>
			<path fill="#FF6600" d="M125.18,197.916c-1.123,0.648-2.942,0.648-4.064,0c-1.123-0.647-1.123-1.697,0-2.346
				c1.122-0.648,2.941-0.648,4.064,0C126.302,196.219,126.302,197.269,125.18,197.916z"/>
			<path fill="#FFFFFF" d="M131.252,201.423c-1.122,0.647-2.941,0.647-4.064,0c-1.122-0.647-1.122-1.698,0-2.347
				c1.123-0.648,2.942-0.648,4.064,0S132.375,200.775,131.252,201.423z"/>
			<path fill="#D4ECFF" d="M137.325,204.93c-1.122,0.647-2.942,0.646-4.064,0c-1.122-0.648-1.122-1.699,0-2.348
				c1.122-0.647,2.942-0.647,4.064,0C138.447,203.23,138.447,204.281,137.325,204.93z"/>
			<path fill="#FF6600" d="M143.398,208.436c-1.123,0.647-2.942,0.647-4.064,0c-1.123-0.648-1.123-1.699,0-2.348
				c1.122-0.646,2.941-0.646,4.064,0.001C144.521,206.736,144.521,207.787,143.398,208.436z"/>
			<path fill="#FFFFFF" d="M149.471,211.941c-1.122,0.648-2.941,0.648-4.064,0c-1.122-0.648-1.122-1.699,0-2.347
				c1.123-0.647,2.942-0.647,4.064,0C150.594,210.242,150.594,211.293,149.471,211.941z"/>
		</g>
	</g>
	<g>
		<polygon fill="#FF6600" points="271.538,145.23 262.349,139.924 265.921,137.862 275.11,143.168 		"/>
		<polygon fill="#FFFFFF" points="284.334,152.617 275.145,147.313 278.717,145.25 287.906,150.556 		"/>
		<polygon fill="#FFFFFF" points="230.492,121.31 221.303,116.004 224.874,113.942 234.063,119.248 		"/>
		<polygon fill="#FFFFFF" points="269.49,150.577 256.693,143.189 260.266,141.127 273.062,148.516 		"/>
		<polygon fill="#D4ECFF" points="278.68,155.883 273.064,152.641 276.636,150.579 282.251,153.82 		"/>
	</g>
</g>
<g>
	<g>
		<polygon opacity="0.5" fill="#173D7A" points="315.344,131.22 299.79,122.24 315.344,113.261 330.896,122.241 		"/>
		<polygon fill="#C66422" points="330.896,110.84 315.344,119.819 315.344,101.86 330.896,92.881 		"/>
		<polygon fill="#ED852F" points="315.344,101.86 299.791,92.881 315.344,83.902 330.896,92.881 		"/>
		<polygon fill="#DD7224" points="315.344,119.819 299.791,110.84 299.791,92.881 315.344,101.86 		"/>
	</g>
	<polygon fill="#FFFFFF" points="309.742,110.117 305.393,107.606 305.393,102.583 309.742,105.095 	"/>
</g>
<g>
	<g>
		<polygon opacity="0.5" fill="#173D7A" points="38.861,187.773 22.668,178.426 38.86,169.076 55.053,178.426 		"/>
		<polygon fill="#173D7A" points="55.053,166.557 38.861,175.904 38.861,157.209 55.053,147.86 		"/>
		<polygon fill="#D4ECFF" points="38.861,157.209 22.669,147.86 38.86,138.512 55.053,147.86 		"/>
		<polygon fill="#5793CE" points="38.861,175.904 22.669,166.557 22.669,147.86 38.861,157.209 		"/>
	</g>
	<polygon fill="#FFFFFF" points="33.029,165.805 28.5,163.189 28.5,157.961 33.029,160.575 	"/>
</g>
<path fill="#092E63" d="M220.953,192.24c-14.634,8.449-38.36,8.448-52.995-0.001c-14.635-8.448-14.635-22.147-0.001-30.597
	s38.361-8.448,52.995,0C235.587,170.092,235.587,183.791,220.953,192.24z"/>
<g>
	<g>
		<path fill="#F9BF30" d="M229.305,163.143h-1.62c-1.817-3.569-5.163-6.935-10.04-9.75c-15.547-8.976-40.752-8.976-56.298-0.001
			c-4.877,2.816-8.223,6.182-10.04,9.751h-1.619v6.501l0,0c0.001,5.882,3.888,11.764,11.66,16.251
			c15.547,8.977,40.752,8.977,56.298,0.001c7.772-4.487,11.659-10.37,11.659-16.252l0,0V163.143z"/>
		<path fill="#FDD762" d="M180.862,147.211c-7.151,0.914-13.952,2.969-19.516,6.181c-4.877,2.816-8.223,6.182-10.04,9.751h-1.619
			v6.501c0.001,5.882,3.888,11.764,11.66,16.251c5.563,3.212,12.364,5.268,19.515,6.182V147.211z"/>
		<path fill="#E8A200" d="M217.753,185.83c7.699-4.48,11.552-10.332,11.552-16.187v-6.501h-1.62
			c-1.549-3.043-4.22-5.934-7.991-8.465h-1.94V185.83z"/>
		<g opacity="0.4">
			<path fill="#E8A200" d="M227.256,162.387c-0.488-0.849-1.063-1.682-1.727-2.5v19.536c0.665-0.817,1.237-1.653,1.727-2.503
				V162.387z"/>
			<path fill="#E8A200" d="M161.347,153.392c-2.159,1.247-4.001,2.606-5.56,4.038v24.436c0.541,0.496,1.112,0.986,1.727,1.463
				v-26.484h3.255v28.699c0.194,0.117,0.38,0.236,0.579,0.352c0.375,0.217,0.762,0.424,1.147,0.63v-29.681h3.255v31.246
				c0.567,0.244,1.143,0.479,1.727,0.703v-31.949h3.255v33.072c0.57,0.176,1.146,0.344,1.727,0.502v-33.574h3.255v34.361
				c0.572,0.121,1.147,0.234,1.727,0.34v-34.701h3.255v35.211c0.574,0.074,1.149,0.143,1.728,0.203v-35.414h3.254v35.678
				c0.575,0.031,1.151,0.054,1.728,0.071v-35.749h3.255v35.768c0.576-0.01,1.151-0.027,1.727-0.051v-35.717h3.255v35.505
				c0.577-0.052,1.153-0.109,1.727-0.177v-35.328h3.255v34.869c0.579-0.097,1.154-0.203,1.727-0.315v-34.554h3.255v33.818
				c0.581-0.148,1.156-0.306,1.727-0.471v-33.348h3.255v32.291c0.584-0.21,1.159-0.43,1.727-0.66v-31.631h3.255v30.162
				c0.587-0.295,1.164-0.6,1.728-0.916v-29.246h3.254v27.18c0.609-0.438,1.182-0.886,1.728-1.342v-25.838h0.288
				c-1.417-1.217-3.054-2.375-4.918-3.451c-3.627-2.094-7.783-3.693-12.215-4.811h-31.869
				C169.129,149.699,164.974,151.298,161.347,153.392z"/>
			<path fill="#E8A200" d="M152.532,161.127c-0.458,0.664-0.878,1.335-1.226,2.016h-0.502v11.916
				c0.443,1.059,1.021,2.104,1.728,3.125V161.127z"/>
		</g>
		<path fill="#FDD762" d="M217.646,179.395c-15.546,8.976-40.751,8.976-56.298,0c-15.546-8.977-15.547-23.528-0.001-32.504
			c15.546-8.975,40.751-8.975,56.298,0.001C233.19,155.867,233.191,170.42,217.646,179.395z"/>
		<path opacity="0.2" fill="#FFFFFF" d="M198.414,167.07c11.444-6.607,14.452-16.235,9.046-24.438
			c-14.935-4.362-33.634-2.946-46.113,4.258c-11.444,6.607-14.452,16.236-9.046,24.438
			C167.235,175.69,185.935,174.275,198.414,167.07z"/>
		<path opacity="0.7" fill="#FFFFFF" d="M217.646,179.395c-15.546,8.976-40.751,8.976-56.298,0
			c-7.512-4.338-11.383-9.977-11.635-15.66c-0.271,6.078,3.601,12.206,11.635,16.845c15.547,8.976,40.752,8.976,56.298,0.001
			c8.033-4.639,11.904-10.766,11.635-16.844C229.027,169.42,225.156,175.058,217.646,179.395z"/>
		<path fill="#E8A200" d="M209.478,174.679c-11.035,6.372-28.927,6.371-39.962,0s-11.035-16.7-0.001-23.071
			c11.035-6.372,28.927-6.372,39.962,0C220.512,157.979,220.512,168.309,209.478,174.679z"/>
		<path fill="#F9BF30" d="M169.515,153.097c11.035-6.371,28.927-6.371,39.962,0c5.189,2.997,7.938,6.868,8.246,10.792
			c0.348-4.42-2.4-8.906-8.246-12.281c-11.035-6.371-28.927-6.372-39.962,0c-5.845,3.375-8.593,7.859-8.245,12.279
			C161.578,159.963,164.326,156.092,169.515,153.097z"/>
		<path fill="#F9BF30" d="M203.393,155.439l-2.19,0.625l0.622,0.248l-2.139,1.234c-1.748-0.854-3.557-1.276-5.422-1.267
			c-1.867,0.009-3.607,0.479-5.222,1.412c-0.647,0.374-1.173,0.755-1.576,1.144c-0.403,0.387-0.686,0.791-0.845,1.208
			s-0.252,0.804-0.277,1.157c-0.025,0.355-0.009,0.772,0.05,1.254l0.253,1.994c0.075,0.568,0.092,1.033,0.051,1.398
			c-0.042,0.363-0.201,0.742-0.474,1.132s-0.69,0.748-1.254,1.073c-1.01,0.583-1.904,0.648-2.687,0.196
			c-0.597-0.345-0.749-0.773-0.454-1.288s1.089-1.155,2.384-1.922v-1.497l-1.872,0.702l-2.692-1.143
			c-1.649,1.013-2.709,1.968-3.192,2.868l-0.308-0.345v1.467h0.006c0.01,1.008,0.778,2,2.321,2.978l-1.064,0.614l-1.446-0.662v1.497
			l1.299,0.75l2.534-1.464c1.59,0.743,3.299,1.084,5.128,1.023c1.828-0.061,3.44-0.494,4.835-1.3
			c0.698-0.402,1.271-0.827,1.716-1.274c0.446-0.446,0.763-0.908,0.951-1.387c0.189-0.479,0.308-0.934,0.354-1.369
			c0.046-0.434,0.045-0.918-0.006-1.451l-0.215-1.931c-0.033-0.388-0.051-0.669-0.05-0.845c-0.001-0.174,0.031-0.418,0.095-0.73
			s0.208-0.592,0.435-0.834s0.538-0.479,0.934-0.707c0.411-0.237,0.891-0.391,1.438-0.459c0.546-0.066,1.025,0.014,1.438,0.24
			c0.209,0.112,0.359,0.228,0.447,0.347c0.059,0.079,0.078,0.163,0.079,0.25l-2.229,0.464v1.496l4.515,2.01
			c0.369-0.234,0.699-0.45,0.989-0.652c0.29-0.201,0.593-0.443,0.909-0.729c0.315-0.283,0.566-0.555,0.756-0.814
			c0.188-0.26,0.331-0.553,0.429-0.881c0.045-0.152,0.066-0.301,0.074-0.447l0.005-0.006v-0.022c0,0,0-0.014,0-0.021v-1.531
			l-0.575,0.119c-0.008-0.01-0.012-0.019-0.021-0.029c-0.292-0.352-0.691-0.695-1.205-1.029l2.37-1.369V155.439z"/>
		<g>
			<path fill="#FDD762" d="M175.965,170.021l2.511-1.448c-1.716-1.087-2.482-2.192-2.303-3.316c0.182-1.124,1.339-2.341,3.476-3.651
				l4.564,1.937c-1.295,0.768-2.089,1.407-2.384,1.923c-0.295,0.515-0.143,0.943,0.454,1.288c0.782,0.452,1.677,0.386,2.687-0.196
				c0.563-0.325,0.981-0.684,1.254-1.073c0.272-0.391,0.432-0.769,0.474-1.133c0.041-0.364,0.024-0.83-0.051-1.398l-0.253-1.994
				c-0.059-0.481-0.075-0.897-0.05-1.253c0.025-0.354,0.118-0.74,0.277-1.158c0.159-0.416,0.441-0.82,0.846-1.207
				c0.402-0.389,0.928-0.77,1.575-1.144c1.614-0.933,3.354-1.403,5.222-1.413c1.865-0.01,3.674,0.413,5.422,1.268l2.384-1.376
				l1.323,0.765l-2.37,1.369c0.514,0.334,0.913,0.678,1.205,1.029c0.289,0.352,0.474,0.682,0.549,0.986
				c0.075,0.307,0.064,0.623-0.032,0.951c-0.098,0.328-0.24,0.621-0.429,0.881c-0.189,0.26-0.44,0.531-0.756,0.814
				c-0.316,0.285-0.619,0.527-0.909,0.729s-0.62,0.418-0.989,0.651l-4.515-2.009c0.344-0.209,0.626-0.383,0.845-0.524
				c0.219-0.141,0.441-0.296,0.668-0.466c0.228-0.17,0.392-0.318,0.492-0.445c0.101-0.125,0.172-0.256,0.214-0.393
				c0.043-0.137,0.019-0.264-0.069-0.383c-0.088-0.118-0.238-0.233-0.447-0.346c-0.412-0.228-0.892-0.308-1.438-0.24
				c-0.547,0.068-1.026,0.222-1.438,0.459c-0.396,0.229-0.707,0.465-0.934,0.707s-0.371,0.521-0.435,0.833
				c-0.063,0.313-0.096,0.558-0.095,0.731c-0.001,0.175,0.017,0.457,0.05,0.845l0.215,1.931c0.051,0.532,0.052,1.018,0.006,1.451
				c-0.046,0.436-0.164,0.891-0.354,1.369c-0.188,0.479-0.505,0.94-0.951,1.387c-0.445,0.447-1.018,0.871-1.716,1.273
				c-1.395,0.807-3.007,1.24-4.835,1.301c-1.829,0.061-3.538-0.281-5.128-1.023l-2.534,1.463L175.965,170.021z"/>
		</g>
	</g>
</g>
<g>
	<g>
		<path fill="#F9BF30" d="M232.148,151.427h-1.62c-1.817-3.569-5.162-6.935-10.04-9.75c-15.546-8.976-40.751-8.976-56.297-0.001
			c-4.878,2.816-8.224,6.182-10.04,9.751h-1.619v6.501l0,0c0,5.881,3.887,11.764,11.66,16.251
			c15.546,8.976,40.751,8.976,56.297,0.001c7.773-4.488,11.659-10.371,11.659-16.252l0,0V151.427z"/>
		<path fill="#FDD762" d="M183.706,135.495c-7.151,0.913-13.952,2.969-19.515,6.18c-4.878,2.816-8.224,6.182-10.04,9.751h-1.619
			v6.501c0,5.881,3.887,11.764,11.66,16.251c5.563,3.212,12.363,5.268,19.514,6.181V135.495z"/>
		<path fill="#E8A200" d="M220.598,174.113c7.698-4.479,11.551-10.332,11.551-16.186v-6.501h-1.62
			c-1.549-3.043-4.219-5.934-7.991-8.466h-1.939V174.113z"/>
		<g opacity="0.4">
			<path fill="#E8A200" d="M230.1,150.67c-0.487-0.848-1.063-1.682-1.727-2.498v19.535c0.665-0.818,1.237-1.654,1.727-2.503V150.67z
				"/>
			<path fill="#E8A200" d="M164.191,141.675c-2.16,1.247-4.001,2.606-5.561,4.038v24.435c0.542,0.497,1.112,0.986,1.727,1.463
				v-26.484h3.255v28.699c0.194,0.117,0.38,0.237,0.58,0.353c0.375,0.216,0.761,0.423,1.146,0.63v-29.681h3.255v31.246
				c0.568,0.244,1.143,0.479,1.727,0.704v-31.95h3.255v33.072c0.57,0.176,1.146,0.344,1.728,0.502v-33.574h3.254v34.361
				c0.572,0.121,1.148,0.235,1.728,0.341v-34.702h3.255v35.21c0.573,0.075,1.148,0.144,1.727,0.203v-35.414h3.255v35.677
				c0.574,0.032,1.15,0.055,1.727,0.072v-35.75h3.255v35.767c0.576-0.01,1.151-0.027,1.727-0.051v-35.716h3.255v35.505
				c0.577-0.053,1.153-0.109,1.727-0.176v-35.33h3.255v34.87c0.579-0.097,1.154-0.202,1.727-0.315v-34.554h3.255v33.818
				c0.581-0.148,1.156-0.305,1.728-0.471v-33.347h3.254v32.292c0.584-0.21,1.159-0.431,1.728-0.661v-31.63h3.255v30.162
				c0.587-0.295,1.163-0.599,1.727-0.916v-29.246h3.255v27.18c0.609-0.438,1.181-0.886,1.727-1.343v-25.837h0.288
				c-1.417-1.217-3.054-2.375-4.918-3.451c-3.627-2.094-7.782-3.693-12.215-4.81h-31.868
				C171.973,137.983,167.817,139.582,164.191,141.675z"/>
			<path fill="#E8A200" d="M155.376,149.411c-0.458,0.663-0.878,1.335-1.225,2.016h-0.502v11.915
				c0.442,1.061,1.02,2.104,1.727,3.125V149.411z"/>
		</g>
		<path fill="#FDD762" d="M220.489,167.679c-15.546,8.976-40.751,8.976-56.297-0.001c-15.547-8.976-15.547-23.528-0.001-32.503
			c15.546-8.976,40.751-8.975,56.297,0C236.035,144.151,236.035,158.703,220.489,167.679z"/>
		<path opacity="0.2" fill="#FFFFFF" d="M201.258,155.354c11.444-6.608,14.452-16.236,9.047-24.438
			c-14.936-4.362-33.635-2.946-46.113,4.258c-11.444,6.607-14.453,16.235-9.047,24.438
			C170.08,163.975,188.779,162.559,201.258,155.354z"/>
		<path opacity="0.7" fill="#FFFFFF" d="M220.489,167.679c-15.546,8.976-40.751,8.976-56.297-0.001
			c-7.513-4.337-11.384-9.977-11.636-15.659c-0.27,6.078,3.601,12.206,11.636,16.845c15.546,8.976,40.751,8.976,56.297,0
			c8.034-4.639,11.904-10.766,11.635-16.844C231.871,157.703,228.001,163.342,220.489,167.679z"/>
		<path fill="#E8A200" d="M212.321,162.963c-11.035,6.371-28.927,6.371-39.962,0s-11.035-16.701,0-23.072s28.926-6.371,39.961,0
			C223.356,146.262,223.356,156.592,212.321,162.963z"/>
		<path fill="#F9BF30" d="M172.359,141.38c11.035-6.371,28.926-6.371,39.961,0c5.19,2.997,7.938,6.868,8.246,10.792
			c0.348-4.42-2.399-8.906-8.246-12.281c-11.035-6.372-28.926-6.372-39.961,0c-5.846,3.375-8.593,7.861-8.245,12.28
			C164.423,148.248,167.17,144.376,172.359,141.38z"/>
		<path fill="#F9BF30" d="M206.236,143.723l-2.189,0.626l0.622,0.247l-2.139,1.235c-1.749-0.854-3.558-1.277-5.423-1.267
			c-1.867,0.009-3.607,0.48-5.221,1.412c-0.648,0.374-1.174,0.754-1.576,1.143c-0.404,0.389-0.686,0.791-0.846,1.209
			c-0.159,0.417-0.252,0.803-0.276,1.157c-0.026,0.354-0.01,0.772,0.049,1.253l0.253,1.994c0.076,0.568,0.092,1.034,0.051,1.398
			c-0.042,0.364-0.2,0.742-0.474,1.133c-0.272,0.391-0.69,0.748-1.254,1.073c-1.009,0.583-1.904,0.648-2.686,0.196
			c-0.597-0.345-0.749-0.773-0.455-1.288c0.295-0.515,1.089-1.155,2.384-1.923v-1.496l-1.871,0.702l-2.693-1.143
			c-1.649,1.013-2.709,1.968-3.192,2.868l-0.308-0.346v1.467h0.007c0.009,1.008,0.777,2,2.32,2.979l-1.064,0.614l-1.445-0.662v1.497
			l1.298,0.75l2.535-1.464c1.589,0.743,3.299,1.084,5.127,1.022c1.828-0.061,3.44-0.493,4.836-1.299
			c0.698-0.402,1.27-0.827,1.716-1.274c0.445-0.446,0.763-0.908,0.951-1.387c0.188-0.479,0.307-0.935,0.353-1.369
			c0.047-0.435,0.045-0.919-0.005-1.452l-0.215-1.93c-0.034-0.389-0.051-0.67-0.051-0.845s0.031-0.419,0.095-0.731
			s0.208-0.591,0.435-0.834c0.227-0.242,0.538-0.478,0.934-0.707c0.412-0.236,0.892-0.39,1.438-0.458
			c0.546-0.067,1.025,0.013,1.438,0.241c0.21,0.111,0.359,0.227,0.447,0.346c0.059,0.078,0.078,0.162,0.079,0.25l-2.229,0.463v1.496
			l4.516,2.01c0.369-0.233,0.699-0.449,0.988-0.651c0.291-0.202,0.593-0.444,0.91-0.728c0.314-0.284,0.566-0.557,0.755-0.815
			c0.188-0.261,0.332-0.554,0.43-0.882c0.044-0.15,0.065-0.299,0.073-0.446l0.005-0.006v-0.022c0.001-0.008,0-0.014,0-0.014v-1.538
			l-0.574,0.119c-0.009-0.01-0.013-0.019-0.021-0.029c-0.292-0.353-0.692-0.694-1.206-1.03l2.37-1.369V143.723z"/>
		<g>
			<path fill="#FDD762" d="M178.81,158.306l2.51-1.448c-1.716-1.088-2.482-2.193-2.302-3.316s1.339-2.34,3.475-3.651l4.564,1.937
				c-1.295,0.768-2.089,1.407-2.384,1.922c-0.294,0.515-0.142,0.943,0.455,1.289c0.781,0.451,1.677,0.386,2.686-0.197
				c0.563-0.324,0.981-0.683,1.254-1.073c0.273-0.39,0.432-0.769,0.474-1.132c0.041-0.365,0.025-0.83-0.051-1.398l-0.253-1.994
				c-0.059-0.48-0.075-0.898-0.049-1.253c0.024-0.354,0.117-0.741,0.276-1.158c0.16-0.417,0.441-0.82,0.846-1.208
				c0.403-0.389,0.928-0.77,1.576-1.144c1.613-0.933,3.354-1.403,5.221-1.413c1.865-0.009,3.674,0.413,5.423,1.267l2.383-1.376
				l1.323,0.764l-2.37,1.369c0.514,0.335,0.914,0.678,1.206,1.029c0.288,0.352,0.473,0.682,0.548,0.986
				c0.075,0.307,0.064,0.623-0.031,0.951c-0.098,0.328-0.241,0.621-0.43,0.881s-0.44,0.531-0.755,0.814
				c-0.317,0.285-0.619,0.527-0.91,0.729c-0.289,0.202-0.619,0.419-0.988,0.652l-4.516-2.01c0.345-0.209,0.626-0.383,0.845-0.524
				c0.219-0.14,0.441-0.296,0.669-0.466c0.227-0.17,0.391-0.318,0.492-0.444c0.1-0.126,0.172-0.257,0.214-0.393
				c0.042-0.137,0.019-0.264-0.07-0.382c-0.088-0.119-0.237-0.234-0.447-0.347c-0.412-0.228-0.892-0.308-1.438-0.24
				s-1.025,0.222-1.438,0.458c-0.396,0.229-0.707,0.465-0.934,0.707s-0.371,0.521-0.435,0.834s-0.095,0.557-0.095,0.731
				s0.017,0.456,0.051,0.845l0.215,1.93c0.05,0.533,0.052,1.018,0.005,1.452c-0.046,0.435-0.164,0.89-0.353,1.368
				s-0.506,0.941-0.951,1.388c-0.446,0.446-1.018,0.871-1.716,1.273c-1.396,0.806-3.008,1.239-4.836,1.3s-3.538-0.279-5.127-1.023
				l-2.535,1.464L178.81,158.306z"/>
		</g>
	</g>
</g>
<path opacity="0.5" fill="#092E63" d="M216.146,97.319l-26.787,15.416l33.225,19.182l38.512-22.234l-22.878-13.248
	C232.564,93.161,222.683,93.557,216.146,97.319z"/>
<g>
	<g>
		<g>
			<path fill="#173D7A" d="M267.643,84.773l-6.582-3.8l24.268-14.011c1.146-0.662,1.146-1.738,0-2.4l-24.791-14.313
				c-1.146-0.662-3.012-0.662-4.157,0L232.112,64.26l-6.582-3.8l24.268-14.011c4.775-2.757,12.545-2.757,17.32,0l24.791,14.313
				c4.775,2.757,4.775,7.243,0.001,10L267.643,84.773z"/>
		</g>
		<g>
			<path fill="#D4ECFF" d="M278.263,86.446c0-3.519-2.14-7.606-4.778-9.13l-43.967-25.385c-1.183-0.682-2.262-0.73-3.096-0.265
				l-0.003-0.001l-52.497,30.506l50.767,38.254l51.719-30.018c0.16-0.073,0.314-0.157,0.457-0.265l0.001,0l0,0
				C277.729,89.487,278.263,88.204,278.263,86.446z"/>
			<path fill="#396CAA" d="M224.688,120.425l51.719-30.018c0.16-0.073,0.314-0.157,0.457-0.265l0.001,0l0,0
				c0.863-0.654,1.397-1.938,1.397-3.695c0-1.68-0.491-3.487-1.287-5.085L218.02,115.4L224.688,120.425z"/>
			<path fill="#173D7A" d="M221.383,120.29l-43.969-25.385c-2.639-1.523-4.777-5.611-4.777-9.13l0,0
				c0-3.519,2.139-5.136,4.777-3.612l43.969,25.385c2.639,1.524,4.777,5.611,4.777,9.13l0,0
				C226.16,120.196,224.021,121.813,221.383,120.29z"/>
			<path fill="#FFFFFF" d="M221.911,107.307l-43.968-25.384c-1.213-0.701-2.317-0.73-3.16-0.224
				c0.755-0.229,1.658-0.098,2.631,0.464l43.969,25.385c2.639,1.524,4.777,5.611,4.777,9.13v0c0,1.9-0.627,3.24-1.617,3.835
				c1.293-0.394,2.146-1.855,2.146-4.076v-0.001C226.689,112.918,224.55,108.831,221.911,107.307z"/>
		</g>
		<path fill="#FF6600" d="M214.797,111.729l-5.286-3.049c-0.526-0.304-0.952-1.118-0.952-1.82l0,0c0-0.701,0.426-1.023,0.952-0.72
			l5.286,3.049c0.525,0.304,0.952,1.119,0.952,1.82l0,0C215.749,111.71,215.322,112.032,214.797,111.729z"/>
	</g>
	<g>
		<path fill="#5793CE" d="M220.759,75.636c1.595-0.943,1.579-2.445-0.035-3.354c-1.614-0.909-4.215-0.882-5.81,0.061
			c-1.595,0.943-1.579,2.445,0.035,3.354C216.563,76.606,219.164,76.579,220.759,75.636z"/>
		<path fill="#FFFFFF" d="M229.612,80.625c1.595-0.943,1.579-2.445-0.035-3.354c-1.614-0.909-4.216-0.882-5.81,0.061
			c-1.595,0.943-1.579,2.445,0.035,3.354C225.416,81.595,228.018,81.568,229.612,80.625z"/>
		<path fill="#FFFFFF" d="M238.465,85.613c1.595-0.943,1.579-2.445-0.035-3.354c-1.613-0.91-4.215-0.882-5.81,0.061
			c-1.595,0.943-1.579,2.444,0.035,3.354C234.27,86.583,236.871,86.557,238.465,85.613z"/>
	</g>
</g>
<g>
	<path opacity="0.5" fill="#173D7A" d="M202.87,319.363l-30.282-17.482c-1.859-1.074-1.626-2.948,0.521-4.188l29.24-16.882
		c2.146-1.239,5.392-1.374,7.251-0.3l30.282,17.482c1.858,1.074,1.626,2.948-0.521,4.188l-29.24,16.881
		C207.975,320.303,204.729,320.437,202.87,319.363z"/>
	<path fill="#396CAA" d="M241.127,289.542L241.127,289.542v-10.448l-23.43-0.014l-8.098-4.676c-1.859-1.072-5.105-0.938-7.251,0.301
		l-7.556,4.362l-23.451-0.013v10.746c-0.053,0.726,0.353,1.426,1.246,1.941l30.282,17.484c1.858,1.073,5.104,0.938,7.251-0.301
		l29.24-16.882C240.6,291.33,241.196,290.404,241.127,289.542z"/>
	<path fill="#396CAA" d="M206.235,273.686c-1.36,0.033-2.772,0.376-3.887,1.02l-7.556,4.362l-23.451-0.013v10.746
		c-0.053,0.726,0.353,1.426,1.246,1.941l30.282,17.484c0.893,0.516,2.106,0.75,3.365,0.719V273.686z"/>
	<path fill="#5793CE" d="M173.996,279.056l-2.654-0.001v10.746c-0.053,0.726,0.353,1.426,1.246,1.941l1.408,0.814V279.056z"/>
	<path fill="#5793CE" d="M203.336,309.455c1.604,0.687,3.922,0.648,5.797-0.066v-12.201h-5.797V309.455z"/>
	<path fill="#D4ECFF" d="M202.87,298.52l-30.282-17.484c-1.859-1.072-1.626-2.947,0.521-4.186l29.24-16.883
		c2.146-1.238,5.392-1.373,7.251-0.3l30.282,17.483c1.858,1.073,1.626,2.947-0.521,4.187l-29.24,16.882
		C207.975,299.458,204.729,299.592,202.87,298.52z"/>
	<path fill="#FFFFFF" d="M239.361,279.281l-29.24,16.881c-2.146,1.239-5.393,1.374-7.251,0.301l-30.282-17.483
		c-0.415-0.239-0.72-0.52-0.928-0.823c-0.639,1.027-0.35,2.143,0.928,2.879l30.282,17.484c1.858,1.072,5.104,0.938,7.251-0.301
		l29.24-16.882c1.668-0.963,2.174-2.308,1.448-3.364C240.518,278.441,240.033,278.893,239.361,279.281z"/>
	<g>
		<path fill="#D4ECFF" d="M229.988,292.299c0,0.78-0.547,1.729-1.223,2.119c-0.676,0.39-1.224,0.074-1.224-0.707
			c0-0.779,0.548-1.729,1.224-2.117C229.441,291.203,229.988,291.52,229.988,292.299z"/>
		<path fill="#D4ECFF" d="M233.924,290.027c0,0.779-0.548,1.729-1.223,2.118c-0.676,0.39-1.224,0.074-1.224-0.706
			c0-0.779,0.548-1.729,1.224-2.118C233.376,288.932,233.924,289.247,233.924,290.027z"/>
		<path fill="#D4ECFF" d="M237.859,287.756c0,0.779-0.548,1.729-1.224,2.117c-0.675,0.391-1.223,0.074-1.223-0.705
			c0-0.78,0.548-1.729,1.223-2.119C237.312,286.659,237.859,286.975,237.859,287.756z"/>
	</g>
	<g>
		<path fill="#5793CE" d="M204.66,287.68l-14.17-8.182c-0.87-0.502-0.761-1.379,0.243-1.959l13.683-7.9
			c1.005-0.579,2.523-0.643,3.394-0.14l14.171,8.181c0.869,0.503,0.761,1.38-0.244,1.959l-13.683,7.9
			C207.049,288.119,205.53,288.182,204.66,287.68z"/>
		<path fill="#D4ECFF" d="M206.018,280.83l-1.961-1.133c-0.12-0.069-0.105-0.19,0.033-0.271l1.894-1.092
			c0.139-0.08,0.349-0.09,0.47-0.02l1.96,1.132c0.121,0.069,0.105,0.19-0.033,0.271l-1.894,1.094
			C206.348,280.891,206.138,280.899,206.018,280.83z"/>
		<path fill="#396CAA" d="M190.49,279.498l0.04,0.023c0.065-0.047,0.127-0.096,0.203-0.141l13.683-7.899
			c1.005-0.579,2.523-0.643,3.394-0.14l14.131,8.158c0.802-0.574,0.844-1.355,0.04-1.82l-14.171-8.181
			c-0.87-0.503-2.389-0.439-3.394,0.14l-13.683,7.9C189.729,278.119,189.62,278.996,190.49,279.498z"/>
	</g>
</g>
<g>
	<g>
		<g>
			<g>
				<path opacity="0.5" fill="#173D7A" d="M311.086,329.369l-46.628-26.92c-1.709-0.986-1.494-2.71,0.479-3.85l49.421-28.607
					c1.974-1.139,4.958-1.262,6.667-0.275l46.628,26.92c1.709,0.987,1.494,2.711-0.479,3.85l-49.421,28.607
					C315.779,330.232,312.795,330.355,311.086,329.369z"/>
				<g>
					
						<linearGradient id="SVGID_1_" gradientUnits="userSpaceOnUse" x1="77.0273" y1="1288.9805" x2="77.0273" y2="1177.5459" gradientTransform="matrix(0.866 0.5 0 1.1547 277.0778 -1262.5566)">
						<stop  offset="0" style="stop-color:#2D0979"/>
						<stop  offset="1" style="stop-color:#5B04F7"/>
					</linearGradient>
					<path fill="url(#SVGID_1_)" d="M368.712,278.732l-49.857-28.785c-1.938-1.119-3.511-4.123-3.511-6.708V123.93
						c0-2.585,1.572-3.773,3.511-2.654l49.857,28.785c1.938,1.12,3.511,4.123,3.511,6.709v119.309
						C372.223,278.663,370.65,279.852,368.712,278.732z"/>
					<path fill="#396CAA" d="M368.712,150.061l-49.857-28.784c-0.866-0.5-1.658-0.537-2.271-0.197h-0.001l-56.92,32.837l2.683,9.925
						l51.899,147.813l56.692-32.699c0.01-0.004,0.019-0.01,0.027-0.016l0.102-0.059l-0.002-0.004
						c0.709-0.447,1.158-1.422,1.158-2.799V156.77C372.223,154.184,370.65,151.181,368.712,150.061z"/>
					<path fill="#D4ECFF" d="M368.712,150.061l-49.857-28.784c-0.866-0.5-1.658-0.537-2.271-0.197h-0.001l-56.92,32.837l2.683,9.925
						l14.271,40.646l2.687,1.551l91.937-53.08C370.602,151.705,369.706,150.635,368.712,150.061z"/>
					<path fill="#5793CE" d="M311.833,311.543l-49.856-28.785c-1.939-1.119-3.512-4.123-3.512-6.707v-119.31
						c0-2.585,1.572-3.773,3.512-2.653l49.856,28.784c1.938,1.12,3.511,4.122,3.511,6.708v119.309
						C315.344,311.475,313.771,312.662,311.833,311.543z"/>
					
						<linearGradient id="SVGID_2_" gradientUnits="userSpaceOnUse" x1="-19.5791" y1="1296.666" x2="36.4167" y2="1283.9773" gradientTransform="matrix(0.866 0.5 0 1.1547 277.0778 -1262.5566)">
						<stop  offset="0" style="stop-color:#3919BB"/>
						<stop  offset="1" style="stop-color:#6507FA"/>
					</linearGradient>
					<path fill="url(#SVGID_2_)" d="M308.696,304.36l-43.584-25.163c-1.695-0.979-3.069-3.604-3.069-5.864V162.529
						c0-2.261,1.374-3.299,3.069-2.32l43.584,25.163c1.695,0.979,3.069,3.604,3.069,5.864v110.805
						C311.766,304.301,310.392,305.34,308.696,304.36z"/>
					
						<linearGradient id="SVGID_3_" gradientUnits="userSpaceOnUse" x1="-19.5791" y1="1296.666" x2="36.4167" y2="1283.9773" gradientTransform="matrix(0.866 0.5 0 1.1547 277.0778 -1262.5566)">
						<stop  offset="0" style="stop-color:#3919BB"/>
						<stop  offset="1" style="stop-color:#6507FA"/>
					</linearGradient>
					<path fill="url(#SVGID_3_)" d="M308.696,304.36l-43.584-25.163c-1.695-0.979-3.069-3.604-3.069-5.864V162.529
						c0-2.261,1.374-3.299,3.069-2.32l43.584,25.163c1.695,0.979,3.069,3.604,3.069,5.864v110.805
						C311.766,304.301,310.392,305.34,308.696,304.36z"/>
					<path fill="#173D7A" d="M308.696,304.36l-43.584-25.163c-1.695-0.979-3.069-3.604-3.069-5.864V162.529
						c0-2.261,1.374-3.299,3.069-2.32l43.584,25.163c1.695,0.979,3.069,3.604,3.069,5.864v110.805
						C311.766,304.301,310.392,305.34,308.696,304.36z"/>
					<path fill="#396CAA" d="M310.121,303.522l-43.585-25.163c-1.694-0.979-3.068-3.604-3.068-5.863V161.691
						c0-0.771,0.162-1.395,0.44-1.85c-1.097-0.01-1.865,0.997-1.865,2.688v110.804c0,2.261,1.374,4.886,3.069,5.864l43.584,25.163
						c1.117,0.646,2.092,0.409,2.629-0.47C310.955,303.887,310.549,303.77,310.121,303.522z"/>
				</g>
			</g>
		</g>
		<g>
			<g>
				<path fill="#173D7A" d="M308.696,253.488l-16.199-9.353l-25.837,14.917l45.105,26.041v-25.741
					C311.766,257.092,310.392,254.467,308.696,253.488z"/>
				<path fill="#173D7A" d="M308.696,230.783l-16.199-9.354l-25.837,14.918l45.105,26.041v-25.742
					C311.766,234.387,310.392,231.762,308.696,230.783z"/>
				<path fill="#173D7A" d="M308.696,208.077l-16.199-9.353l-25.837,14.917l45.105,26.042v-25.742
					C311.766,211.682,310.392,209.056,308.696,208.077z"/>
				<path fill="#173D7A" d="M308.696,185.372l-16.199-9.353l-25.837,14.916l45.105,26.043v-25.742
					C311.766,188.977,310.392,186.351,308.696,185.372z"/>
				<path fill="#173D7A" d="M308.696,185.372l-35.863-20.706l-6.173,3.564l45.105,26.041v-3.035
					C311.766,188.977,310.392,186.351,308.696,185.372z"/>
			</g>
			<polygon fill="#5793CE" points="311.766,194.272 266.66,168.23 266.66,182.582 311.766,208.623 			"/>
			<polygon fill="#5793CE" points="311.766,216.979 266.66,190.936 266.66,205.287 311.766,231.328 			"/>
			<polygon fill="#5793CE" points="311.766,239.684 266.66,213.641 266.66,227.992 311.766,254.034 			"/>
			<polygon fill="#5793CE" points="311.766,262.389 266.66,236.347 266.66,250.697 311.766,276.74 			"/>
			<polygon fill="#5793CE" points="311.766,285.094 266.66,259.053 266.66,273.403 311.766,299.445 			"/>
		</g>
		<g>
			<path fill="#173D7A" d="M307.788,203.51l-33.975-19.615c-0.959-0.555-1.736-2.04-1.736-3.318v-3.844
				c0-1.279,0.777-1.867,1.736-1.313l33.975,19.614c0.959,0.554,1.736,2.04,1.736,3.319v3.843
				C309.524,203.475,308.747,204.063,307.788,203.51z"/>
			<path opacity="0.3" fill="#06033E" d="M275.531,183.158c-0.96-0.554-1.737-2.039-1.737-3.318v-3.844
				c0-0.204,0.026-0.385,0.063-0.552l-0.044-0.024c-0.959-0.555-1.736,0.033-1.736,1.313v3.844c0,1.278,0.777,2.764,1.736,3.318
				l33.975,19.614c0.806,0.466,1.477,0.118,1.673-0.761L275.531,183.158z"/>
			<path fill="#FFFFFF" d="M297.127,192.975l-20.444-11.803c-0.338-0.195-0.611-0.718-0.611-1.168l0,0
				c0-0.449,0.273-0.656,0.611-0.461l20.444,11.803c0.337,0.195,0.61,0.718,0.61,1.168l0,0
				C297.737,192.963,297.464,193.17,297.127,192.975z"/>
		</g>
		<g>
			<path fill="#173D7A" d="M307.788,226.074l-33.975-19.615c-0.959-0.553-1.736-2.039-1.736-3.318v-3.843
				c0-1.279,0.777-1.867,1.736-1.313l33.975,19.615c0.959,0.554,1.736,2.039,1.736,3.318v3.844
				C309.524,226.041,308.747,226.628,307.788,226.074z"/>
			<path opacity="0.3" fill="#06033E" d="M275.531,205.724c-0.96-0.554-1.737-2.04-1.737-3.318v-3.843
				c0-0.205,0.026-0.385,0.063-0.553l-0.044-0.025c-0.959-0.554-1.736,0.034-1.736,1.313v3.843c0,1.279,0.777,2.765,1.736,3.318
				l33.975,19.615c0.806,0.465,1.477,0.117,1.673-0.762L275.531,205.724z"/>
			<path fill="#FFFFFF" d="M297.127,215.541l-20.444-11.804c-0.338-0.195-0.611-0.718-0.611-1.167l0,0
				c0-0.451,0.273-0.657,0.611-0.463l20.444,11.804c0.337,0.194,0.61,0.718,0.61,1.167l0,0
				C297.737,215.529,297.464,215.735,297.127,215.541z"/>
		</g>
		<g>
			<path fill="#173D7A" d="M307.788,248.85l-33.975-19.614c-0.959-0.554-1.736-2.04-1.736-3.319v-3.843
				c0-1.278,0.777-1.866,1.736-1.313l33.975,19.615c0.959,0.554,1.736,2.039,1.736,3.318v3.844
				C309.524,248.816,308.747,249.404,307.788,248.85z"/>
			<path opacity="0.3" fill="#06033E" d="M275.531,228.499c-0.96-0.554-1.737-2.04-1.737-3.318v-3.843
				c0-0.205,0.026-0.385,0.063-0.553l-0.044-0.025c-0.959-0.553-1.736,0.035-1.736,1.313v3.843c0,1.279,0.777,2.766,1.736,3.319
				l33.975,19.614c0.806,0.466,1.477,0.117,1.673-0.761L275.531,228.499z"/>
			<path fill="#D4ECFF" d="M297.127,238.316l-20.444-11.804c-0.338-0.194-0.611-0.718-0.611-1.167l0,0
				c0-0.45,0.273-0.657,0.611-0.463l20.444,11.805c0.337,0.194,0.61,0.717,0.61,1.167l0,0
				C297.737,238.305,297.464,238.512,297.127,238.316z"/>
		</g>
		<g>
			<path fill="#173D7A" d="M307.788,271.836l-33.975-19.615c-0.959-0.554-1.736-2.039-1.736-3.318v-3.844
				c0-1.278,0.777-1.866,1.736-1.313l33.975,19.615c0.959,0.553,1.736,2.039,1.736,3.318v3.843
				C309.524,271.802,308.747,272.39,307.788,271.836z"/>
			<path opacity="0.3" fill="#06033E" d="M275.531,251.485c-0.96-0.554-1.737-2.04-1.737-3.319v-3.843
				c0-0.204,0.026-0.385,0.063-0.552l-0.044-0.025c-0.959-0.554-1.736,0.034-1.736,1.313v3.844c0,1.279,0.777,2.765,1.736,3.318
				l33.975,19.615c0.806,0.465,1.477,0.117,1.673-0.762L275.531,251.485z"/>
			<path fill="#FF6600" d="M297.127,261.302l-20.444-11.804c-0.338-0.194-0.611-0.717-0.611-1.167l0,0
				c0-0.45,0.273-0.657,0.611-0.462l20.444,11.804c0.337,0.194,0.61,0.718,0.61,1.167l0,0
				C297.737,261.291,297.464,261.496,297.127,261.302z"/>
		</g>
		<g>
			<path fill="#173D7A" d="M307.788,294.366l-33.975-19.615c-0.959-0.554-1.736-2.04-1.736-3.318v-3.843
				c0-1.279,0.777-1.867,1.736-1.313l33.975,19.614c0.959,0.555,1.736,2.04,1.736,3.319v3.843
				C309.524,294.332,308.747,294.92,307.788,294.366z"/>
			<path opacity="0.3" fill="#06033E" d="M275.531,274.016c-0.96-0.555-1.737-2.04-1.737-3.318v-3.844
				c0-0.205,0.026-0.385,0.063-0.553l-0.044-0.024c-0.959-0.554-1.736,0.034-1.736,1.313v3.843c0,1.278,0.777,2.765,1.736,3.318
				l33.975,19.614c0.806,0.466,1.477,0.118,1.673-0.76L275.531,274.016z"/>
			<path fill="#D4ECFF" d="M297.127,283.832l-20.444-11.803c-0.338-0.195-0.611-0.719-0.611-1.168l0,0
				c0-0.449,0.273-0.656,0.611-0.462l20.444,11.804c0.337,0.195,0.61,0.717,0.61,1.168l0,0
				C297.737,283.82,297.464,284.027,297.127,283.832z"/>
		</g>
		<polygon opacity="0.5" fill="#173D7A" points="266.66,168.23 270.212,170.281 270.212,184.632 266.66,182.582 		"/>
		<polygon opacity="0.5" fill="#173D7A" points="266.66,190.936 270.212,192.986 270.212,207.338 266.66,205.287 		"/>
		<polygon opacity="0.5" fill="#173D7A" points="266.66,213.641 270.212,215.691 270.212,230.043 266.66,227.992 		"/>
		<polygon opacity="0.5" fill="#173D7A" points="266.66,236.347 270.212,238.397 270.212,252.748 266.66,250.697 		"/>
		<polygon opacity="0.5" fill="#173D7A" points="266.66,259.053 270.212,261.104 270.212,275.454 266.66,273.403 		"/>
	</g>
	<path fill="#D4ECFF" d="M301.154,194.393c0,0.459-0.322,0.645-0.719,0.415c-0.397-0.229-0.72-0.787-0.72-1.245
		c0-0.459,0.322-0.645,0.72-0.416C300.832,193.376,301.154,193.934,301.154,194.393z"/>
	<path fill="#FF6600" d="M304.203,196.152c0,0.459-0.322,0.645-0.719,0.416c-0.397-0.23-0.72-0.787-0.72-1.246
		s0.322-0.645,0.72-0.415C303.881,195.137,304.203,195.694,304.203,196.152z"/>
	<path fill="#D4ECFF" d="M307.252,197.913c0,0.458-0.322,0.645-0.719,0.415c-0.397-0.229-0.72-0.787-0.72-1.246
		c0-0.458,0.322-0.644,0.72-0.414C306.93,196.896,307.252,197.454,307.252,197.913z"/>
	<path fill="#FF6600" d="M301.154,217.086c0,0.459-0.322,0.645-0.719,0.416c-0.397-0.23-0.72-0.787-0.72-1.246
		s0.322-0.645,0.72-0.415C300.832,216.07,301.154,216.628,301.154,217.086z"/>
	<path fill="#D4ECFF" d="M304.203,218.847c0,0.458-0.322,0.645-0.719,0.415c-0.397-0.229-0.72-0.787-0.72-1.246
		c0-0.458,0.322-0.645,0.72-0.414C303.881,217.83,304.203,218.389,304.203,218.847z"/>
	<path fill="#FFFFFF" d="M307.252,220.607c0,0.458-0.322,0.645-0.719,0.414c-0.397-0.229-0.72-0.787-0.72-1.245
		s0.322-0.645,0.72-0.415C306.93,219.591,307.252,220.148,307.252,220.607z"/>
	<path fill="#FFFFFF" d="M301.154,239.951c0,0.459-0.322,0.645-0.719,0.416c-0.397-0.229-0.72-0.787-0.72-1.246
		s0.322-0.645,0.72-0.415C300.832,238.936,301.154,239.493,301.154,239.951z"/>
	<path fill="#FF6600" d="M304.203,241.712c0,0.458-0.322,0.645-0.719,0.415c-0.397-0.229-0.72-0.787-0.72-1.245
		s0.322-0.645,0.72-0.415C303.881,240.695,304.203,241.254,304.203,241.712z"/>
	<path fill="#FFFFFF" d="M307.252,243.473c0,0.458-0.322,0.645-0.719,0.415c-0.397-0.229-0.72-0.787-0.72-1.245
		c0-0.459,0.322-0.645,0.72-0.416C306.93,242.456,307.252,243.014,307.252,243.473z"/>
	<path fill="#FFFFFF" d="M301.154,262.484c0,0.459-0.322,0.645-0.719,0.415c-0.397-0.229-0.72-0.787-0.72-1.245
		c0-0.459,0.322-0.645,0.72-0.416C300.832,261.468,301.154,262.025,301.154,262.484z"/>
	<path fill="#D4ECFF" d="M304.203,264.244c0,0.459-0.322,0.645-0.719,0.416c-0.397-0.23-0.72-0.787-0.72-1.246
		s0.322-0.645,0.72-0.415C303.881,263.229,304.203,263.785,304.203,264.244z"/>
	<path fill="#D4ECFF" d="M307.252,266.004c0,0.459-0.322,0.645-0.719,0.416c-0.397-0.229-0.72-0.787-0.72-1.246
		c0-0.458,0.322-0.645,0.72-0.414C306.93,264.988,307.252,265.547,307.252,266.004z"/>
	<path fill="#FFFFFF" d="M301.154,285.324c0,0.458-0.322,0.645-0.719,0.415c-0.397-0.229-0.72-0.788-0.72-1.246
		s0.322-0.644,0.72-0.415C300.832,284.308,301.154,284.865,301.154,285.324z"/>
	<path fill="#FF6600" d="M304.203,287.084c0,0.459-0.322,0.645-0.719,0.416c-0.397-0.23-0.72-0.787-0.72-1.246
		s0.322-0.645,0.72-0.416C303.881,286.068,304.203,286.625,304.203,287.084z"/>
	<path fill="#D4ECFF" d="M307.252,288.844c0,0.459-0.322,0.645-0.719,0.416c-0.397-0.229-0.72-0.787-0.72-1.246
		s0.322-0.645,0.72-0.415C306.93,287.828,307.252,288.386,307.252,288.844z"/>
	<g>
		<path fill="#173D7A" d="M322.854,295.416V193.822l0.21-0.121l42.458-24.514v101.594l-0.21,0.121L322.854,295.416z
			 M323.694,194.309v99.65l40.986-23.664v-99.65L323.694,194.309z"/>
	</g>
	<g>
		<path fill="#173D7A" d="M354.492,214.898l-19.038,10.991c-1.278,0.739-2.315-0.046-2.315-1.751v-10.555
			c0-1.705,1.037-3.687,2.315-4.425l19.038-10.991c1.279-0.738,2.316,0.045,2.316,1.75v10.556
			C356.809,212.179,355.771,214.16,354.492,214.898z"/>
		<path fill="#5793CE" d="M354.954,197.963c0.109,0.295,0.172,0.648,0.172,1.059v10.556c0,1.706-1.036,3.687-2.315,4.425
			l-19.038,10.991c-0.158,0.091-0.313,0.159-0.462,0.204c0.344,0.933,1.173,1.254,2.145,0.692l19.037-10.991
			c1.279-0.738,2.315-2.72,2.315-4.425v-10.556C356.808,198.424,356.012,197.639,354.954,197.963z"/>
		<g>
			<g>
				<path fill="#FFFFFF" d="M351.015,208.541c0.353-0.203,0.638-0.038,0.638,0.368v2.404c0,0.407-0.285,0.901-0.638,1.104
					c-0.352,0.204-0.637,0.038-0.637-0.368v-2.404C350.378,209.238,350.663,208.744,351.015,208.541z"/>
				<path fill="#D4ECFF" d="M348.284,210.418c0.352-0.203,0.637-0.037,0.637,0.368v2.104c0,0.406-0.285,0.9-0.637,1.104
					c-0.353,0.203-0.638,0.039-0.638-0.368v-2.104C347.646,211.115,347.932,210.621,348.284,210.418z"/>
				<path fill="#FF6600" d="M345.553,209.648c0.353-0.204,0.638-0.039,0.638,0.367v4.451c0,0.406-0.285,0.9-0.638,1.104
					c-0.352,0.204-0.637,0.039-0.637-0.367v-4.451C344.916,210.346,345.201,209.852,345.553,209.648z"/>
				<path fill="#D4ECFF" d="M342.822,208.66c0.352-0.204,0.637-0.039,0.637,0.367v7.017c0,0.406-0.285,0.9-0.637,1.104
					c-0.353,0.203-0.638,0.038-0.638-0.368v-7.016C342.185,209.357,342.47,208.863,342.822,208.66z"/>
				<path fill="#D4ECFF" d="M340.091,210.973c0.353-0.204,0.638-0.039,0.638,0.367v6.281c0,0.406-0.285,0.9-0.638,1.104
					s-0.638,0.038-0.638-0.368v-6.28C339.453,211.67,339.738,211.176,340.091,210.973z"/>
				<path fill="#FFFFFF" d="M337.359,215.418c0.353-0.203,0.638-0.038,0.638,0.368v3.411c0,0.406-0.285,0.9-0.638,1.104
					c-0.352,0.203-0.637,0.039-0.637-0.367v-3.412C336.723,216.115,337.008,215.621,337.359,215.418z"/>
			</g>
			<path fill="#FF6600" d="M350.389,207.326c0,0.4,0.28,0.563,0.626,0.362c0.347-0.2,0.627-0.687,0.627-1.085
				c0-0.4-0.28-0.563-0.627-0.362C350.669,206.441,350.389,206.927,350.389,207.326z"/>
			<path fill="#FF6600" d="M350.389,205.066c0,0.4,0.28,0.562,0.626,0.361c0.347-0.199,0.627-0.686,0.627-1.085
				s-0.28-0.562-0.627-0.361C350.669,204.181,350.389,204.667,350.389,205.066z"/>
		</g>
	</g>
</g>
</svg>
