<?xml version="1.0" encoding="UTF-8"?> <svg xmlns="http://www.w3.org/2000/svg" width="27" height="27" viewBox="0 0 27 27" fill="none"> <path d="M14.5196 5.82039C14.4851 5.17629 13.8268 5.28587 13.1846 5.28587C13.659 5.41223 14.1078 5.58804 14.5196 5.82039Z" fill="white"></path> <path d="M7.6537 4.20605C5.16032 4.20605 4.01265 7.36203 6.00588 8.94932C6.68537 7.13496 8.03803 5.8322 9.8113 5.31799C9.32622 4.64738 8.54251 4.20605 7.6537 4.20605Z" fill="white"></path> <path d="M2.5026 8.45545C2.60422 8.78151 2.73587 9.09431 2.89227 9.39067L2.07322 10.2102C1.85327 10.4301 1.85327 10.7871 2.07322 11.0076L3.51691 12.4517C3.62205 12.5568 3.76611 12.616 3.91625 12.616C4.06475 12.616 4.20784 12.5568 4.3148 12.4517L5.13294 11.6322C5.25571 11.6972 5.3918 11.737 5.51896 11.793C5.51896 11.7837 5.51805 11.774 5.51805 11.7647C5.51805 11.095 5.59497 10.4632 5.73192 9.87001C4.74412 9.23427 4.085 8.13075 4.085 6.87083C4.085 4.90274 5.68595 3.30134 7.65358 3.30134C8.98593 3.30134 10.1363 4.04307 10.7503 5.12674C11.4059 5.04544 12.0217 5.04544 12.763 5.18551C12.6677 4.89706 12.5555 4.61475 12.4149 4.35013L13.234 3.53023C13.3408 3.42463 13.4 3.28103 13.4 3.13174C13.4 2.98239 13.3408 2.83885 13.234 2.73325L11.7911 1.29002C11.6807 1.17959 11.5367 1.1248 11.3927 1.1248C11.2486 1.1248 11.1046 1.17959 10.995 1.29002L10.1734 2.10992C9.87655 1.95267 9.56465 1.82101 9.2378 1.72162V0.563253C9.2378 0.252269 8.98684 0 8.67494 0H6.63312C6.32299 0 6.06936 0.252269 6.06936 0.563253V1.72156C5.74335 1.82096 5.4314 1.95261 5.13368 2.10986L4.3148 1.29087C4.20431 1.18044 4.06031 1.12565 3.91625 1.12565C3.77225 1.12565 3.6274 1.18044 3.51782 1.29042L2.07322 2.73365C1.96808 2.8397 1.90891 2.98279 1.90891 3.1326C1.90891 3.28234 1.96808 3.42549 2.07322 3.53108L2.89227 4.35053C2.73581 4.6474 2.60422 4.95975 2.50442 5.28576H1.34697C1.03507 5.28576 0.783203 5.53842 0.783203 5.84986V7.89174C0.783203 8.20227 1.03507 8.45545 1.34697 8.45545H2.5026Z" fill="white"></path> <path d="M20.1899 19.3813C21.0929 18.886 21.7131 17.938 21.7131 16.8379C21.7131 15.2325 20.4064 13.9268 18.8011 13.9268C18.2365 13.9268 17.7134 14.0955 17.2663 14.3747C16.9987 15.4402 16.5772 16.4594 16.0259 17.3447C17.5888 17.6385 19.0228 18.3502 20.1899 19.3813Z" fill="white"></path> <path d="M26.2158 15.7362C26.2158 15.4 25.9427 15.1278 25.6079 15.1278H24.3586C24.2508 14.7757 24.1077 14.4382 23.938 14.1179L24.8224 13.2336C24.9373 13.1196 25.0009 12.965 25.0009 12.8037C25.0009 12.6424 24.9372 12.4878 24.8224 12.3734L23.2656 10.8162C23.1472 10.6973 22.9908 10.6377 22.8354 10.6377C22.6799 10.6377 22.5244 10.6973 22.406 10.8162L21.5198 11.701C21.1999 11.5314 20.8633 11.3892 20.5099 11.2818V10.0325C20.5099 9.69674 20.2386 9.42456 19.9029 9.42456H17.7003C17.5527 9.42456 17.4228 9.48373 17.3169 9.57123C17.5024 10.248 17.604 10.9818 17.604 11.7646C17.604 12.2616 17.5652 12.7662 17.4927 13.2679C17.9026 13.1168 18.3391 13.0219 18.8012 13.0219C20.9057 13.0219 22.618 14.7338 22.618 16.8378C22.618 18.1826 21.9157 19.3612 20.8616 20.0411C21.6285 20.8822 22.2381 21.8802 22.6349 22.9983C22.7002 23.0208 22.7682 23.0372 22.8363 23.0372C22.9917 23.0372 23.1473 22.978 23.2665 22.8591L24.8243 21.3018C24.9383 21.1878 25.001 21.0332 25.001 20.872C25.001 20.7108 24.9383 20.5562 24.8243 20.4417L23.9381 19.5569C24.1077 19.2371 24.2508 18.8995 24.3587 18.547H25.6079C25.7687 18.547 25.9251 18.4834 26.0382 18.3685C26.1522 18.2549 26.2167 18.1 26.2167 17.9387L26.2158 15.7362Z" fill="white"></path> <path d="M21.3941 23.549C20.4495 20.7698 17.9536 18.8583 15.0724 18.5981C14.1076 19.6199 12.913 20.268 11.5602 20.268C10.2085 20.268 9.01302 19.6199 8.04912 18.5981C5.16617 18.8583 2.67017 20.7698 1.72561 23.5494L1.20349 25.0863C1.05415 25.5285 1.12566 26.0158 1.39784 26.3953C1.66997 26.7748 2.10823 27.0001 2.5747 27.0001H20.5449C21.0123 27.0001 21.4505 26.7748 21.7227 26.3953C21.9939 26.0158 22.0664 25.5285 21.9162 25.0863L21.3941 23.549Z" fill="white"></path> <path d="M6.875 11.7646C6.875 15.2118 8.97343 18.9107 11.5603 18.9107C14.1483 18.9107 16.2466 15.2118 16.2466 11.7646C16.2467 4.61907 6.875 4.6049 6.875 11.7646Z" fill="white"></path> </svg> 