<?xml version="1.0" encoding="UTF-8"?> <svg xmlns="http://www.w3.org/2000/svg" width="27" height="27" viewBox="0 0 27 27" fill="none"> <g clip-path="url(#clip0)"> <path d="M13.4998 7.09399L3.87041 15.0324C3.87041 15.0436 3.86759 15.0601 3.86196 15.0826C3.85645 15.1049 3.85352 15.1211 3.85352 15.1326V23.1711C3.85352 23.4613 3.95963 23.7129 4.17179 23.9247C4.3839 24.1366 4.63507 24.2432 4.92537 24.2432H11.356V17.8122H15.6437V24.2435H22.0743C22.3645 24.2435 22.616 24.1371 22.8279 23.9247C23.04 23.7131 23.1465 23.4614 23.1465 23.1711V15.1326C23.1465 15.088 23.1404 15.0543 23.1296 15.0324L13.4998 7.09399Z" fill="white"></path> <path d="M26.8137 13.2237L23.1463 10.1757V3.34288C23.1463 3.18667 23.0961 3.05821 22.9954 2.95767C22.8954 2.85725 22.7669 2.80704 22.6104 2.80704H19.395C19.2386 2.80704 19.1102 2.85725 19.0096 2.95767C18.9093 3.05821 18.8591 3.18673 18.8591 3.34288V6.60853L14.7729 3.19201C14.416 2.90171 13.9917 2.75659 13.5004 2.75659C13.0091 2.75659 12.5849 2.90171 12.2276 3.19201L0.186095 13.2237C0.0744693 13.3129 0.0132893 13.4329 0.00190974 13.5836C-0.00941118 13.7343 0.0295962 13.8658 0.119049 13.9774L1.15735 15.2167C1.2468 15.3172 1.36388 15.3786 1.50906 15.401C1.64309 15.4123 1.77713 15.3731 1.91116 15.2838L13.5 5.62044L25.089 15.2838C25.1785 15.3617 25.2956 15.4006 25.4407 15.4006H25.4911C25.636 15.3785 25.7529 15.3167 25.8428 15.2165L26.8812 13.9773C26.9705 13.8655 27.0096 13.7342 26.998 13.5834C26.9865 13.4331 26.9251 13.3131 26.8137 13.2237Z" fill="white"></path> </g> <defs> <clipPath id="clip0"> <rect width="27" height="27" fill="white"></rect> </clipPath> </defs> </svg> 