<?xml version="1.0" encoding="UTF-8"?> <svg xmlns="http://www.w3.org/2000/svg" width="22" height="27" viewBox="0 0 22 27" fill="none"> <path d="M9.03163 21.091C7.97905 22.0637 6.52321 22.2815 5.23196 21.6598C4.76515 21.435 4.37123 21.1246 4.06284 20.7528L2.30462 24.6417C2.22462 24.8186 2.31395 24.952 2.35604 25.001C2.39812 25.0501 2.5163 25.1587 2.70329 25.1067L3.98326 24.7504C4.12912 24.7098 4.27657 24.6903 4.42196 24.6903C5.03531 24.6903 5.61259 25.0374 5.89056 25.6127L6.46863 26.809C6.55306 26.9838 6.71142 27.0013 6.77734 26.9999C6.84199 26.9991 7.00104 26.9781 7.08098 26.8012L9.87765 20.6152C9.57036 20.7037 9.27937 20.862 9.03163 21.091Z" fill="white"></path> <path d="M18.8246 24.6417L17.0664 20.7528C16.758 21.1246 16.3641 21.435 15.8973 21.6598C14.606 22.2815 13.1502 22.0637 12.0976 21.091C11.8498 20.862 11.5589 20.7037 11.2515 20.6152L14.0481 26.8012C14.1281 26.9782 14.2872 26.9991 14.3518 26.9999C14.4177 27.0013 14.5761 26.9838 14.6605 26.809L15.2386 25.6127C15.5165 25.0374 16.0938 24.6903 16.7072 24.6903C16.8525 24.6903 17 24.7098 17.1459 24.7504L18.4258 25.1067C18.6128 25.1587 18.731 25.0501 18.7731 25.001C18.8153 24.9519 18.9046 24.8185 18.8246 24.6417Z" fill="white"></path> <path d="M20.2054 10.9577C18.7452 9.95789 18.2921 7.9727 19.1739 6.43829C19.704 5.51591 19.4281 4.60445 18.9932 4.05902C18.5583 3.51374 17.731 3.04204 16.7139 3.35343C15.0219 3.87165 13.1872 2.98825 12.5373 1.34209C12.1466 0.352582 11.262 0 10.5645 0C9.86695 0 8.98233 0.352582 8.59167 1.34214C7.94178 2.98835 6.10715 3.87165 4.41506 3.35348C3.39787 3.04214 2.57073 3.51374 2.13572 4.05907C1.70082 4.6045 1.42497 5.51586 1.955 6.43834C2.83683 7.9727 2.38373 9.95794 0.923517 10.9578C0.0457012 11.5589 -0.101164 12.4997 0.0539804 13.1798C0.209125 13.8599 0.749758 14.6438 1.80144 14.8044C3.55085 15.0717 4.82038 16.6636 4.69176 18.4287C4.61434 19.4898 5.25839 20.1913 5.88682 20.494C6.51531 20.7966 7.46527 20.8628 8.24658 20.1407C8.89637 19.5403 9.73058 19.2399 10.5644 19.2399C11.3986 19.2399 12.2323 19.5401 12.8822 20.1407C13.6636 20.8629 14.6136 20.7966 15.2421 20.494C15.8705 20.1913 16.5145 19.4898 16.4371 18.4288C16.3085 16.6637 17.578 15.0717 19.3274 14.8044C20.3791 14.6438 20.9197 13.8598 21.0749 13.1798C21.2301 12.4996 21.0831 11.5588 20.2054 10.9577ZM10.5645 17.7147C6.73727 17.7147 3.62362 14.601 3.62362 10.7738C3.62362 6.94665 6.73722 3.83295 10.5645 3.83295C14.3917 3.83295 17.5053 6.94659 17.5053 10.7738C17.5053 14.601 14.3917 17.7147 10.5645 17.7147Z" fill="white"></path> <path d="M10.5642 5.12695C7.45058 5.12695 4.91748 7.6601 4.91748 10.7737C4.91748 13.8873 7.45052 16.4204 10.5642 16.4204C13.6779 16.4204 16.211 13.8873 16.211 10.7737C16.211 7.6601 13.6779 5.12695 10.5642 5.12695ZM13.458 10.2262L9.9437 12.7931C9.83217 12.8745 9.69833 12.9176 9.56206 12.9176C9.52694 12.9176 9.49166 12.9148 9.45654 12.909C9.28521 12.8806 9.13238 12.7846 9.0325 12.6424L7.9813 11.1457C7.77589 10.8532 7.84651 10.4496 8.13892 10.2442C8.43138 10.0388 8.83491 10.1094 9.04036 10.4019L9.71272 11.3592L12.6947 9.18117C12.9834 8.9705 13.3882 9.03336 13.5989 9.32203C13.8097 9.61059 13.7466 10.0154 13.458 10.2262Z" fill="white"></path> </svg> 