<?xml version="1.0" encoding="UTF-8"?> <svg xmlns="http://www.w3.org/2000/svg" width="26" height="27" viewBox="0 0 26 27" fill="none"> <path d="M16.0333 23.5944V24.3833C16.0333 25.0111 15.5722 25.5333 14.9722 25.6222L14.7778 26.3389C14.6722 26.7278 14.3222 27 13.9167 27H11.9889C11.5833 27 11.2333 26.7278 11.1278 26.3389L10.9389 25.6222C10.3333 25.5278 9.87222 25.0111 9.87222 24.3778V23.5889C9.87222 23.1667 10.2111 22.8278 10.6333 22.8278H15.2722C15.6944 22.8333 16.0333 23.1722 16.0333 23.5944ZM19.6056 12.9611C19.6056 14.7556 18.8944 16.3833 17.7389 17.5778C16.8611 18.4889 16.2944 19.65 16.1056 20.8889C16.0222 21.4222 15.5611 21.8167 15.0167 21.8167H10.8889C10.35 21.8167 9.88333 21.4278 9.80556 20.8944C9.61111 19.6556 9.03889 18.4778 8.16111 17.5722C7.02778 16.3944 6.32222 14.7944 6.30556 13.0333C6.26667 9.33333 9.21111 6.33889 12.9111 6.31111C16.6056 6.28333 19.6056 9.27222 19.6056 12.9611ZM13.7056 8.93333C13.7056 8.52222 13.3722 8.18333 12.9556 8.18333C10.3111 8.18333 8.15556 10.3333 8.15556 12.9833C8.15556 13.3944 8.48889 13.7333 8.90556 13.7333C9.31667 13.7333 9.65556 13.4 9.65556 12.9833C9.65556 11.1611 11.1389 9.68333 12.9556 9.68333C13.3722 9.68333 13.7056 9.35 13.7056 8.93333ZM12.9556 4.12778C13.3667 4.12778 13.7056 3.79444 13.7056 3.37778V0.75C13.7056 0.338889 13.3722 0 12.9556 0C12.5389 0 12.2056 0.333333 12.2056 0.75V3.37778C12.2056 3.79444 12.5444 4.12778 12.9556 4.12778ZM4.12778 12.9556C4.12778 12.5444 3.79444 12.2056 3.37778 12.2056H0.75C0.338889 12.2056 0 12.5389 0 12.9556C0 13.3667 0.333333 13.7056 0.75 13.7056H3.37778C3.79444 13.7056 4.12778 13.3722 4.12778 12.9556ZM25.1611 12.2056H22.5333C22.1222 12.2056 21.7833 12.5389 21.7833 12.9556C21.7833 13.3667 22.1167 13.7056 22.5333 13.7056H25.1611C25.5722 13.7056 25.9111 13.3722 25.9111 12.9556C25.9111 12.5444 25.5778 12.2056 25.1611 12.2056ZM5.65556 19.2L3.79444 21.0611C3.5 21.3556 3.5 21.8278 3.79444 22.1222C3.93889 22.2667 4.13333 22.3389 4.32222 22.3389C4.51111 22.3389 4.70556 22.2667 4.85 22.1222L6.71111 20.2611C7.00556 19.9667 7.00556 19.4944 6.71111 19.2C6.42222 18.9056 5.94444 18.9056 5.65556 19.2ZM19.7278 6.93333C19.9167 6.93333 20.1111 6.86111 20.2556 6.71667L22.1167 4.85556C22.4111 4.56111 22.4111 4.08889 22.1167 3.79444C21.8222 3.5 21.35 3.5 21.0556 3.79444L19.1944 5.65556C18.9 5.95 18.9 6.42222 19.1944 6.71667C19.3444 6.86111 19.5333 6.93333 19.7278 6.93333ZM5.65556 6.71111C5.8 6.85556 5.99444 6.92778 6.18333 6.92778C6.37222 6.92778 6.56667 6.85556 6.71111 6.71111C7.00556 6.41667 7.00556 5.94444 6.71111 5.65L4.85 3.78889C4.55556 3.49444 4.08333 3.49444 3.78889 3.78889C3.49444 4.08333 3.49444 4.55556 3.78889 4.85L5.65556 6.71111ZM20.2556 19.2C19.9611 18.9056 19.4889 18.9056 19.1944 19.2C18.9 19.4944 18.9 19.9667 19.1944 20.2611L21.0556 22.1222C21.2 22.2667 21.3944 22.3389 21.5833 22.3389C21.7722 22.3389 21.9667 22.2667 22.1111 22.1222C22.4056 21.8278 22.4056 21.3556 22.1111 21.0611L20.2556 19.2Z" fill="white"></path> </svg> 