<?xml version="1.0" encoding="UTF-8"?> <svg xmlns="http://www.w3.org/2000/svg" width="27" height="27" viewBox="0 0 27 27" fill="none"> <g clip-path="url(#clip0)"> <path d="M20.5269 17.8609C19.6448 16.99 18.5436 16.99 17.6671 17.8609C16.9985 18.5238 16.3299 19.1868 15.6726 19.861C15.4928 20.0464 15.3411 20.0858 15.1219 19.9622C14.6893 19.7262 14.2286 19.5352 13.8129 19.2767C11.8745 18.0575 10.2508 16.49 8.81243 14.7258C8.09889 13.8493 7.46401 12.911 7.02015 11.8547C6.93025 11.6412 6.94711 11.5008 7.12128 11.3266C7.78988 10.6805 8.44162 10.0175 9.09897 9.35454C10.0148 8.43312 10.0148 7.35438 9.09336 6.42733C8.57084 5.8992 8.04833 5.3823 7.52581 4.85417C6.98644 4.3148 6.45269 3.76981 5.9077 3.23606C5.0256 2.37643 3.92439 2.37644 3.04791 3.24168C2.3737 3.90465 1.72757 4.58448 1.04212 5.23622C0.40724 5.8374 0.0869883 6.57341 0.0195669 7.43303C-0.0871835 8.83203 0.255542 10.1524 0.738728 11.439C1.72757 14.1021 3.23332 16.4675 5.05931 18.6362C7.52581 21.569 10.4699 23.8895 13.914 25.5638C15.4647 26.3166 17.0716 26.8953 18.8189 26.9908C20.0212 27.0583 21.0663 26.7549 21.9034 25.8166C22.4765 25.1761 23.1226 24.5918 23.7294 23.9793C24.6284 23.0692 24.634 21.9679 23.7406 21.069C22.6731 19.9959 21.6 18.9284 20.5269 17.8609Z" fill="white"></path> <path d="M19.4542 13.3832L21.5274 13.0293C21.2015 11.1246 20.3025 9.39975 18.9373 8.02885C17.4933 6.58491 15.6673 5.67472 13.6559 5.3938L13.3638 7.47824C14.9201 7.69736 16.3359 8.39967 17.454 9.51774C18.5103 10.574 19.2013 11.9112 19.4542 13.3832Z" fill="white"></path> <path d="M22.6956 4.37115C20.3022 1.97769 17.2738 0.466331 13.9308 0L13.6387 2.08444C16.5266 2.48897 19.1447 3.79807 21.2123 5.86004C23.1732 7.82088 24.4598 10.2986 24.9261 13.0236L26.9993 12.6696C26.4543 9.51203 24.9655 6.64662 22.6956 4.37115Z" fill="white"></path> </g> <defs> <clipPath id="clip0"> <rect width="27" height="27" fill="white"></rect> </clipPath> </defs> </svg> 